<svg width="157" height="156" viewBox="0 0 157 156" fill="none" xmlns="http://www.w3.org/2000/svg">
<path d="M38.896 68.4496L41.8569 73.8378C42.1391 74.3817 42.5289 74.8625 43.0025 75.2512C43.4762 75.6399 44.0238 75.9284 44.6123 76.099C45.2007 76.2697 45.8177 76.3191 46.4259 76.2441C47.034 76.1692 47.6205 75.9715 48.1499 75.663C49.225 75.0699 50.021 74.0748 50.3637 72.8958C50.7064 71.7168 50.5678 70.4501 49.9783 69.3731L45.239 60.7525C45.1953 60.6714 45.1111 60.7182 45.0643 60.634C45.1048 60.5061 45.1048 60.5061 45.0643 60.4218C44.4484 59.3707 43.4534 58.5952 42.2837 58.2546C41.114 57.914 39.8583 58.0341 38.7744 58.5904C33.5515 61.4608 27.0463 59.6418 24.2195 54.5032C21.3523 49.2834 23.3459 42.8999 28.5688 40.0264C30.1753 39.1359 31.9881 38.6843 33.8246 38.7172C35.6611 38.7501 37.4566 39.2662 39.0302 40.2136C39.558 40.5376 40.1451 40.7532 40.7571 40.8478C41.3692 40.9424 41.9939 40.9141 42.5949 40.7645C43.1959 40.6149 43.7611 40.347 44.2574 39.9766C44.7537 39.6061 45.1712 39.1404 45.4855 38.6068C45.7948 38.0841 45.9977 37.5054 46.0825 36.904C46.1672 36.3026 46.1322 35.6903 45.9794 35.1025C45.8265 34.5147 45.559 33.9629 45.192 33.4789C44.825 32.995 44.366 32.5884 43.8412 32.2825C40.8708 30.5016 37.4858 29.5296 34.023 29.4633C30.5602 29.3971 27.1405 30.2389 24.1041 31.905C14.4883 37.1934 10.9003 49.3084 16.1855 58.9211C18.3462 62.8336 21.7636 65.9027 25.885 67.6318C30.0064 69.361 34.5906 69.6491 38.896 68.4496ZM48.88 86.5986L49.7006 88.09C49.9828 88.6342 50.3727 89.1154 50.8465 89.5045C51.3203 89.8935 51.8682 90.1823 52.4569 90.3532C53.0456 90.5242 53.663 90.5738 54.2715 90.499C54.8799 90.4243 55.4669 90.2267 55.9967 89.9183C57.073 89.323 57.8688 88.3248 58.2093 87.143C58.5498 85.9612 58.4071 84.6925 57.8126 83.6159L56.992 82.1245C56.3872 81.0617 55.3921 80.2762 54.2178 79.9349C53.0435 79.5935 51.7824 79.7231 50.7021 80.2962C50.1616 80.5832 49.6841 80.9756 49.2977 81.4501C48.9113 81.9246 48.6239 82.4717 48.4523 83.0591C48.2807 83.6465 48.2285 84.2623 48.2988 84.8702C48.369 85.4781 48.5603 86.0658 48.8613 86.5986H48.88Z" fill="#EBEBEB"/>
<path d="M57.7082 29.2375L57.0842 25.1347C57.0322 24.7241 56.8973 24.3285 56.6878 23.9716C56.4782 23.6148 56.1983 23.3043 55.8651 23.0589C55.5319 22.8135 55.1523 22.6384 54.7494 22.5442C54.3465 22.4499 53.9286 22.4386 53.5211 22.5107C53.1147 22.5713 52.7242 22.7116 52.3721 22.9235C52.0201 23.1354 51.7133 23.4147 51.4695 23.7455C51.2257 24.0763 51.0496 24.452 50.9514 24.851C50.8532 25.25 50.8348 25.6645 50.8972 26.0707L51.8925 32.6227C51.8925 32.6851 51.9674 32.6757 51.9767 32.7381C51.9206 32.8099 51.9206 32.8099 51.9299 32.8754C52.0767 33.6851 52.5274 34.4081 53.1898 34.8965C53.8521 35.3848 54.676 35.6016 55.493 35.5024C56.4321 35.3377 57.3947 35.3624 58.3242 35.575C59.2536 35.7876 60.1312 36.1838 60.9054 36.7405C61.6795 37.2971 62.3346 38.0028 62.8321 38.8162C63.3296 39.6296 63.6594 40.5343 63.8023 41.477C63.9452 42.4197 63.8982 43.3815 63.664 44.3058C63.4299 45.23 63.0134 46.0982 62.4389 46.8592C61.8645 47.6202 61.1437 48.2587 60.319 48.7372C59.4942 49.2157 58.5822 49.5244 57.6364 49.6454C56.4119 49.8381 55.1582 49.7055 54.0011 49.2608C52.844 48.8162 51.8242 48.0751 51.0438 47.1119C50.7849 46.7837 50.4631 46.5104 50.0974 46.3078C49.7316 46.1053 49.3292 45.9777 48.9135 45.9324C48.4979 45.887 48.0774 45.925 47.6766 46.0439C47.2758 46.1629 46.9027 46.3605 46.5791 46.6252C46.2623 46.8853 45.9998 47.2053 45.8067 47.5669C45.6135 47.9284 45.4935 48.3245 45.4535 48.7325C45.4136 49.1405 45.4544 49.5523 45.5736 49.9445C45.6929 50.3367 45.8882 50.7015 46.1486 51.0182C47.5402 52.7504 49.3402 54.1098 51.3871 54.9744C53.4339 55.839 55.6634 56.1817 57.8755 55.9717C60.0875 55.7617 62.2127 55.0056 64.0602 53.7712C65.9078 52.5369 67.4199 50.863 68.4607 48.8999C69.5014 46.9367 70.0383 44.7459 70.0231 42.5239C70.0079 40.302 69.4411 38.1187 68.3736 36.17C67.306 34.2213 65.7712 32.5683 63.9069 31.3593C62.0426 30.1504 59.9072 29.4234 57.6926 29.2437L57.7082 29.2375ZM55.6115 15.4127L55.4399 14.2771C55.3883 13.8663 55.2537 13.4702 55.0444 13.113C54.835 12.7559 54.5552 12.445 54.2219 12.1993C53.8887 11.9536 53.5089 11.7782 53.1058 11.6838C52.7027 11.5893 52.2846 11.5779 51.8769 11.65C51.4701 11.7106 51.0794 11.8509 50.7271 12.063C50.3748 12.2751 50.0679 12.5548 49.824 12.8859C49.5802 13.217 49.4042 13.5931 49.3062 13.9925C49.2082 14.3919 49.1901 14.8067 49.253 15.2131L49.4246 16.3487C49.5606 17.163 50.0083 17.8923 50.6728 18.3821C51.3373 18.8719 52.1665 19.0837 52.9845 18.9727C53.3928 18.9161 53.7857 18.7784 54.14 18.5677C54.4943 18.357 54.8029 18.0776 55.0477 17.7459C55.2925 17.4143 55.4684 17.037 55.5653 16.6363C55.6621 16.2356 55.6778 15.8196 55.6115 15.4127Z" fill="#EBEBEB"/>
<path d="M129.267 38.376L131.033 34.632C131.218 34.2618 131.326 33.8578 131.35 33.4447C131.374 33.0315 131.314 32.6177 131.173 32.2285C131.033 31.8393 130.815 31.4827 130.532 31.1804C130.249 30.878 129.908 30.6363 129.529 30.4699C129.158 30.2945 128.755 30.1942 128.345 30.1747C127.935 30.1552 127.524 30.2169 127.138 30.3564C126.752 30.4958 126.396 30.7102 126.093 30.9872C125.79 31.2642 125.544 31.5984 125.37 31.9706L122.543 37.9828C122.519 38.039 122.578 38.0671 122.543 38.1264C122.459 38.1544 122.459 38.1544 122.431 38.2137C122.101 38.9678 122.073 39.8195 122.352 40.5937C122.631 41.368 123.197 42.0057 123.932 42.3758C124.803 42.7617 125.588 43.3177 126.242 44.0112C126.895 44.7047 127.403 45.5217 127.737 46.4143C128.07 47.3069 128.222 48.2571 128.183 49.2091C128.144 50.1612 127.915 51.0958 127.51 51.9583C127.105 52.8207 126.532 53.5936 125.824 54.2315C125.116 54.8693 124.288 55.3594 123.389 55.6729C122.489 55.9864 121.535 56.117 120.585 56.0571C119.634 55.9971 118.704 55.7478 117.851 55.3238C116.726 54.8011 115.759 53.9911 115.047 52.9756C114.335 51.9601 113.903 50.7749 113.795 49.5393C113.762 49.1232 113.647 48.7178 113.457 48.3466C113.266 47.9754 113.003 47.6458 112.684 47.3772C112.364 47.1086 111.995 46.9063 111.596 46.782C111.198 46.6577 110.778 46.614 110.363 46.6533C109.955 46.6924 109.558 46.8117 109.195 47.0043C108.833 47.1969 108.512 47.4591 108.252 47.7759C107.991 48.0927 107.795 48.4578 107.675 48.8503C107.556 49.2428 107.515 49.6551 107.555 50.0635C107.751 52.2754 108.493 54.404 109.715 56.2584C110.937 58.1128 112.599 59.635 114.554 60.6883C116.509 61.7417 118.695 62.2934 120.916 62.2939C123.136 62.2944 125.322 61.7436 127.278 60.6911C129.233 59.6386 130.896 58.1171 132.119 56.2633C133.341 54.4094 134.084 52.2811 134.281 50.0693C134.479 47.8575 134.124 45.6313 133.249 43.5904C132.373 41.5495 131.005 39.7578 129.267 38.376ZM135.214 25.7181L135.701 24.6792C135.886 24.3089 135.994 23.9049 136.018 23.4917C136.043 23.0784 135.983 22.6645 135.842 22.2751C135.702 21.8856 135.484 21.5287 135.202 21.226C134.919 20.9233 134.579 20.681 134.2 20.514C133.828 20.3382 133.425 20.2376 133.014 20.2181C132.603 20.1986 132.193 20.2605 131.806 20.4003C131.419 20.54 131.064 20.7549 130.76 21.0325C130.457 21.3101 130.211 21.6449 130.038 22.0178L129.548 23.0568C129.208 23.8095 129.174 24.6651 129.454 25.4421C129.735 26.2191 130.306 26.8564 131.049 27.2188C131.42 27.3987 131.823 27.5025 132.235 27.5242C132.647 27.5459 133.059 27.4851 133.447 27.3452C133.835 27.2054 134.191 26.9895 134.495 26.71C134.798 26.4306 135.043 26.0934 135.214 25.7181Z" fill="#EBEBEB"/>
<path d="M61.3373 112.772C61.3373 112.772 68.8534 126.063 68.8565 126.073C70.0639 128.753 71.0748 131.124 71.4835 132.4C71.4849 132.406 71.4849 132.413 71.4835 132.419C71.6121 132.707 71.6719 133.021 71.6582 133.336C71.6582 133.336 71.6582 133.355 71.6582 133.361C71.1029 134.26 49.9649 144.534 49.1069 144.643C48.2489 144.752 47.8589 142.319 48.3706 141.264C48.8822 140.209 55.2096 132.656 55.2096 132.656L47.8308 119.315L61.3373 112.772Z" fill="#EAC293"/>
<path d="M49.4507 144.568C50.3087 144.456 71.1097 134.272 71.662 133.361C71.6643 133.354 71.6643 133.346 71.662 133.339C71.6763 133.024 71.6175 132.711 71.4904 132.422C71.4904 132.422 71.4904 132.406 71.4904 132.4C71.0816 131.124 70.0708 128.753 68.8664 126.073C68.8664 126.073 67.5997 123.748 67.0943 122.953L53.6502 129.901L55.2102 132.665C55.2102 132.665 49.2136 140.153 48.7081 141.196C48.2027 142.238 48.5927 144.681 49.4507 144.568Z" fill="#EBEBEB"/>
<path d="M49.0655 144.281C49.9267 144.15 70.9898 133.299 71.5295 132.375C71.7417 132.029 70.3377 128.868 68.5343 125.096L68.4782 124.981L54.8126 131.829L54.9374 132.057C54.9374 132.057 48.7317 139.813 48.245 140.893C47.7583 141.972 48.2013 144.415 49.0655 144.281Z" fill="#263238"/>
<path d="M48.8823 143.339C52.3892 141.423 66.7069 134.026 70.3167 132.4C70.3479 132.385 70.3573 132.4 70.3167 132.422C66.8847 134.397 52.5047 141.676 48.9011 143.398C48.8355 143.436 48.8075 143.38 48.8823 143.339Z" fill="white"/>
<path d="M53.8091 132.684C55.0727 131.705 56.8917 131.04 58.4735 131.483C58.5328 131.502 58.5078 131.589 58.4548 131.599C56.8982 131.85 55.3731 132.269 53.9058 132.847C53.8855 132.851 53.8643 132.849 53.8452 132.84C53.8262 132.832 53.8102 132.818 53.7995 132.8C53.7889 132.782 53.7841 132.761 53.7858 132.741C53.7875 132.72 53.7957 132.7 53.8091 132.684Z" fill="white"/>
<path d="M53.1138 133.814C54.3774 132.831 56.1964 132.166 57.7782 132.612C57.8375 132.612 57.8125 132.715 57.7595 132.725C56.2029 132.977 54.6778 133.395 53.2105 133.973C53.1907 133.976 53.1702 133.974 53.1519 133.965C53.1335 133.957 53.1181 133.943 53.1077 133.926C53.0972 133.909 53.0922 133.889 53.0933 133.869C53.0944 133.849 53.1015 133.83 53.1138 133.814Z" fill="white"/>
<path d="M52.424 134.94C53.672 133.96 55.5034 133.293 57.0852 133.739C57.1476 133.757 57.1196 133.842 57.0696 133.851C55.5126 134.109 53.9876 134.532 52.5207 135.115C52.4975 135.127 52.4702 135.131 52.4447 135.123C52.4193 135.116 52.3978 135.099 52.385 135.076C52.3721 135.052 52.369 135.025 52.3763 135C52.3837 134.974 52.4008 134.953 52.424 134.94Z" fill="white"/>
<path d="M66.2127 129.131C67.3452 127.571 69.757 129.34 68.6213 130.893C67.4856 132.447 65.0832 130.684 66.2127 129.131Z" fill="white"/>
<path opacity="0.1" d="M54.0078 133.224L52.4915 142.681C50.5852 143.617 49.2685 144.241 49.0595 144.284C48.1984 144.418 47.7553 141.966 48.2358 140.893C48.6102 140.088 52.2575 135.427 54.0078 133.224Z" fill="black"/>
<path d="M48.3538 143.692C48.0418 144.029 48.7843 145.252 49.1088 145.214C49.4333 145.177 72.3435 133.246 72.6898 132.956C73.0361 132.666 72.1719 131.343 71.6789 131.502C71.186 131.661 48.3538 143.692 48.3538 143.692Z" fill="white"/>
<path d="M67.125 121.702L51.9805 129.792C51.9805 129.792 32.8612 102.542 32.4774 95.3846C31.9501 85.4973 40.3928 54.107 40.3928 54.107L53.8525 54.0134C53.8525 54.0134 48.3769 86.293 48.8231 91.7997C49.0602 94.6826 67.125 121.702 67.125 121.702Z" fill="#263238"/>
<path d="M50.6518 126.672C51.4318 126.11 58.6141 121.951 64.0678 119.293C64.0753 119.289 64.0839 119.289 64.0918 119.291C64.0997 119.294 64.1062 119.3 64.11 119.307C64.1137 119.315 64.1143 119.323 64.1117 119.331C64.109 119.339 64.1034 119.346 64.0959 119.349C62.4392 120.444 51.722 126.316 50.6799 126.731C50.6581 126.731 50.6175 126.672 50.6518 126.672Z" fill="#37474F"/>
<path d="M46.956 84.9045C47.58 80.1808 48.2696 75.4634 49.0527 70.7616C49.8358 66.0597 50.672 61.3235 51.661 56.6404C51.7796 56.0663 51.9075 55.4954 52.0323 54.9244C52.036 54.9062 52.0468 54.8902 52.0623 54.88C52.0778 54.8698 52.0968 54.8661 52.115 54.8698C52.1332 54.8736 52.1492 54.8844 52.1594 54.8999C52.1696 54.9154 52.1733 54.9343 52.1696 54.9525C51.3396 59.5982 50.4879 64.2439 49.7235 68.902C48.9591 73.5602 48.2352 78.2277 47.6112 82.9046C47.4532 84.0611 47.2992 85.2196 47.1495 86.3803C46.9636 87.5746 46.849 88.779 46.8063 89.987C46.7864 91.1405 46.9822 92.2875 47.3835 93.3691C47.8128 94.4261 48.3349 95.443 48.9435 96.408C51.3552 100.529 62.2752 118.541 62.5623 119.065C62.581 119.1 62.5311 119.134 62.5092 119.1C59.8916 115.044 51.7702 102.061 49.2992 97.8837C48.1853 95.9961 46.9061 94.0836 46.5442 91.8777C46.1667 89.5752 46.6534 87.179 46.956 84.9045Z" fill="#37474F"/>
<path d="M50.8354 121.702C50.8354 121.702 50.9883 137.065 50.9883 137.074C50.9072 140.013 50.7824 142.587 50.5952 143.913C50.5967 143.92 50.5967 143.928 50.5952 143.935C50.5844 144.25 50.5011 144.559 50.3518 144.836C50.3518 144.836 50.3518 144.836 50.3518 144.855C49.4595 145.423 25.9565 145.457 25.1391 145.183C24.3216 144.908 25.0361 142.549 25.9472 141.819C26.8582 141.089 35.8532 137.055 35.8532 137.055V121.702H50.8354Z" fill="#EAC293"/>
<path d="M50.9571 133.92C50.9571 133.92 50.9883 137.065 50.9883 137.074C50.9072 140.013 50.7824 142.587 50.5952 143.913C50.5967 143.92 50.5967 143.928 50.5952 143.935C50.5496 144.244 50.4679 144.547 50.3518 144.837C50.3518 144.837 50.3518 144.837 50.3518 144.855C49.4595 145.423 25.9565 145.457 25.1391 145.183C24.3216 144.908 25.0361 142.55 25.9472 141.819C26.8582 141.089 35.8532 137.055 35.8532 137.055V133.848L50.9571 133.92Z" fill="#EBEBEB"/>
<path d="M25.108 145.155C25.941 145.42 49.6281 145.002 50.5173 144.412C50.8605 144.194 51.0009 140.74 51.0508 136.559V136.428L35.7628 136.528V136.787C35.7628 136.787 26.7647 141.002 25.8537 141.754C24.9426 142.506 24.2749 144.893 25.108 145.155Z" fill="#263238"/>
<path d="M25.3581 144.231C29.3486 144.063 45.4634 143.76 49.4196 143.898C49.4539 143.898 49.4539 143.919 49.4196 143.922C45.4665 144.175 29.3486 144.347 25.355 144.297C25.2739 144.297 25.2739 144.234 25.3581 144.231Z" fill="white"/>
<path d="M34.4918 136.856C36.0518 136.544 37.9862 136.74 39.2061 137.842C39.2529 137.882 39.1905 137.951 39.1406 137.935C37.6322 137.476 36.0789 137.18 34.5074 137.052C34.4837 137.05 34.4615 137.04 34.4447 137.023C34.4279 137.007 34.4177 136.984 34.4158 136.961C34.4139 136.937 34.4205 136.913 34.4345 136.894C34.4484 136.875 34.4687 136.861 34.4918 136.856Z" fill="white"/>
<path d="M33.3714 137.558C34.9314 137.246 36.8627 137.445 38.0826 138.543C38.1294 138.587 38.0826 138.653 38.0171 138.637C36.5076 138.179 34.9533 137.884 33.3808 137.757C33.3677 137.758 33.3546 137.756 33.3422 137.751C33.3299 137.747 33.3185 137.74 33.3088 137.731C33.2991 137.722 33.2912 137.712 33.2857 137.7C33.2801 137.688 33.2769 137.675 33.2763 137.662C33.2756 137.649 33.2776 137.636 33.2821 137.624C33.2865 137.611 33.2934 137.6 33.3022 137.59C33.311 137.58 33.3217 137.573 33.3336 137.567C33.3454 137.561 33.3583 137.558 33.3714 137.558Z" fill="white"/>
<path d="M32.2489 138.263C33.8089 137.951 35.7402 138.147 36.9601 139.249C37.01 139.289 36.9601 139.355 36.8977 139.342C35.3872 138.883 33.8318 138.587 32.2583 138.459C32.2349 138.456 32.2133 138.445 32.1973 138.428C32.1813 138.411 32.1719 138.388 32.1708 138.365C32.1697 138.341 32.1769 138.318 32.1912 138.3C32.2055 138.281 32.2259 138.268 32.2489 138.263Z" fill="white"/>
<path d="M24.7308 144.312C24.3096 144.484 24.4188 145.903 24.7308 146.013C25.0428 146.122 50.867 145.554 51.3038 145.448C51.7406 145.342 51.5503 143.769 51.0386 143.698C50.5269 143.626 24.7308 144.312 24.7308 144.312Z" fill="white"/>
<path d="M47.1881 139.152C48.8885 138.263 50.2737 140.905 48.5702 141.798C46.8667 142.69 45.4814 140.041 47.1881 139.152Z" fill="white"/>
<path d="M40.5558 54.0727V54.0883C40.6463 54.366 45.4854 67.626 45.9409 67.8382C46.4557 68.0753 35.2487 86.9014 34.5873 95.6467C34.1629 101.238 34.9929 132.893 34.9929 132.893H51.3853C51.3853 132.893 50.596 104.436 50.2216 95.419C50.0781 91.9215 61.4723 74.515 61.6127 63.673C61.6564 60.241 59.2009 54.001 59.2009 54.001L40.5558 54.0727Z" fill="#263238"/>
<path d="M50.1293 95.1756C50.1293 95.0289 50.2447 94.9821 50.2541 95.1319C50.6253 100.012 50.7096 104.863 50.9436 109.752C51.1776 114.641 51.0434 115.802 51.2556 120.672C51.3773 123.43 51.2556 126.195 51.3242 128.956C51.322 128.963 51.3177 128.969 51.3118 128.973C51.3059 128.978 51.2988 128.98 51.2915 128.98C51.2841 128.98 51.277 128.978 51.2711 128.973C51.2652 128.969 51.2609 128.963 51.2587 128.956C50.7533 124.101 50.1324 97.9368 50.1293 95.1756Z" fill="#37474F"/>
<path d="M34.593 95.837C34.6127 94.6333 34.7232 93.4328 34.9238 92.2458C35.1478 91.0908 35.4864 89.961 35.9346 88.8731C36.8394 86.5893 37.9096 84.3647 38.933 82.1308C39.9563 79.8969 41.0265 77.6193 42.1185 75.3854C42.7425 74.1374 43.3602 72.8842 43.9718 71.6258C44.5958 70.359 45.2822 69.1298 45.9405 67.863C45.9459 67.8527 45.9551 67.8449 45.9662 67.8414C45.9774 67.8379 45.9894 67.8389 45.9998 67.8443C46.0101 67.8497 46.0179 67.859 46.0214 67.8701C46.0249 67.8812 46.0239 67.8933 46.0185 67.9036C44.9702 70.1562 43.9312 72.4182 42.8985 74.674C41.8658 76.9298 40.8174 79.1918 39.7785 81.4538C38.7395 83.7158 37.7474 85.9091 36.7895 88.1586C36.3128 89.2302 35.9226 90.3382 35.6226 91.4721C35.348 92.644 35.183 93.8389 35.1297 95.0414C34.9706 97.8494 34.8926 100.657 34.618 103.437C34.618 103.475 34.5587 103.472 34.5556 103.437C34.4776 100.907 34.5057 98.3642 34.593 95.837Z" fill="#37474F"/>
<path d="M36.1874 129.595C37.139 129.48 44.3992 129.283 50.4707 129.595C50.5113 129.595 50.5082 129.655 50.4707 129.658C48.4895 129.817 37.3043 129.798 36.1936 129.658C36.1562 129.661 36.1437 129.602 36.1874 129.595Z" fill="#37474F"/>
<path d="M43.6843 67.1018C45.4405 67.5428 47.1548 68.1368 48.8073 68.8771C48.8197 68.8828 48.8297 68.893 48.8351 68.9055C48.8406 68.9181 48.8413 68.9322 48.8371 68.9453C48.8329 68.9583 48.824 68.9694 48.8122 68.9764C48.8004 68.9833 48.7865 68.9858 48.773 68.9831C47.0508 68.4434 45.3036 67.9379 43.6156 67.3077C43.5912 67.2964 43.5719 67.2766 43.5612 67.2519C43.5505 67.2272 43.5493 67.1995 43.5578 67.174C43.5663 67.1485 43.5839 67.1271 43.6072 67.1137C43.6306 67.1004 43.658 67.0962 43.6843 67.1018Z" fill="#37474F"/>
<path d="M42.0313 55.8699C42.0313 55.8137 42.1311 55.7887 42.1343 55.8511C42.3231 57.6893 42.6042 59.5168 42.9767 61.3267C43.1389 62.166 44.3027 66.7867 45.7379 66.2938C45.9781 66.2095 46.0811 65.9568 46.0811 65.5793C46.0245 65.095 45.9092 64.6193 45.7379 64.1628C45.4727 63.1987 45.2418 62.2253 45.0546 61.2425C44.6952 59.4136 44.5248 57.5526 44.546 55.6889C44.5488 55.6782 44.555 55.6686 44.5638 55.6619C44.5725 55.6551 44.5833 55.6514 44.5944 55.6514C44.6055 55.6514 44.6162 55.6551 44.625 55.6619C44.6337 55.6686 44.64 55.6782 44.6427 55.6889C44.861 58.2539 45.273 60.7988 45.8751 63.3017C46.1871 64.4998 46.9859 66.2751 45.7316 66.5933C44.4774 66.9115 43.2949 63.9288 43.0515 63.102C42.4004 60.7455 42.0575 58.3145 42.0313 55.8699Z" fill="#37474F"/>
<path d="M45.7104 66.4246C45.8741 66.727 46.0179 67.0396 46.141 67.3606C46.2625 67.6067 46.3366 67.8734 46.3594 68.1469C46.3594 68.1999 46.2907 68.2093 46.2595 68.1781C46.0821 67.9535 45.9401 67.703 45.8383 67.4355C45.6948 67.1485 45.5482 66.8614 45.4109 66.5681C45.3919 66.5284 45.3894 66.4828 45.404 66.4412C45.4186 66.3997 45.4492 66.3657 45.4889 66.3466C45.5286 66.3276 45.5743 66.3251 45.6158 66.3398C45.6574 66.3544 45.6914 66.3849 45.7104 66.4246Z" fill="#37474F"/>
<path d="M48.4522 99.9897C48.3711 97.6591 48.1122 95.2161 48.8734 92.9697C49.2913 91.871 49.7908 90.8051 50.3679 89.7811C50.9399 88.687 51.4974 87.5856 52.0402 86.477C54.2242 82.0559 56.2928 77.5662 58.1367 72.9861C59.0228 70.7834 59.8153 68.5214 60.1335 66.1564C60.4249 63.6716 60.2695 61.1547 59.6749 58.7246C59.5376 58.1162 59.391 57.514 59.2256 56.915C59.2256 56.8713 59.2786 56.8463 59.2911 56.89C60.0686 59.1823 60.4998 61.5778 60.5703 63.9974C60.554 66.3156 60.137 68.6135 59.3379 70.7896C58.5517 73.0766 57.5689 75.3011 56.5985 77.5132C55.6001 79.8012 54.5601 82.0663 53.4785 84.3086C52.4053 86.5425 51.2634 88.739 50.1308 90.9448C49.5504 91.9924 49.1298 93.1207 48.8828 94.2926C48.7071 95.5063 48.6621 96.7353 48.7486 97.9586C48.9421 103.11 49.3726 120.26 49.4506 125.399C49.4506 126.05 49.4579 126.703 49.4725 127.358C49.4725 127.37 49.4679 127.381 49.4597 127.389C49.4515 127.397 49.4404 127.402 49.4288 127.402C49.4172 127.402 49.4061 127.397 49.3979 127.389C49.3897 127.381 49.3851 127.37 49.3851 127.358C49.0575 122.235 48.6394 105.125 48.4522 99.9897Z" fill="#37474F"/>
<path d="M52.1275 57.4079C52.1275 57.3704 52.1868 57.3767 52.1899 57.4079C52.3834 58.8244 52.5019 60.297 53.1789 61.5824C53.8029 62.7649 54.9012 63.5231 56.0962 64.0566C56.7913 64.3555 57.5015 64.6179 58.224 64.8428C58.277 64.8584 58.2645 64.9396 58.2084 64.9271C56.8512 64.6463 55.4753 64.3312 54.2959 63.5699C53.0479 62.7556 52.3865 61.4514 52.1806 59.9912C52.0742 59.1342 52.0565 58.2685 52.1275 57.4079Z" fill="#37474F"/>
<path d="M46.3873 35.9579C43.9349 38.0015 36.2941 42.6129 32.7092 42.3508C30.2943 42.1761 23.889 37.0874 22.6347 35.2965C22.1199 34.5664 27.3147 29.4122 28.1415 29.8739C29.0526 30.3731 33.171 35.3495 33.8698 35.4899C34.5687 35.6303 41.0864 33.9923 44.7493 33.5119C46.9426 33.2279 47.5105 35.0188 46.3873 35.9579Z" fill="#EAC293"/>
<path d="M24.0753 36.7815C22.7462 35.8143 19.0833 31.4775 18.5591 30.4448C18.035 29.4121 16.7183 26.3888 17.4547 25.9052C18.191 25.4216 18.6496 26.2796 18.6496 26.2796C18.6496 26.2796 18.244 24.7851 19.0864 24.4887C19.7572 24.2547 20.4623 25.4247 20.4623 25.4247C20.4623 25.4247 20.1035 23.7649 20.9771 23.5777C21.7727 23.4092 22.2095 24.8663 22.2095 24.8663C22.2095 24.8663 22.0535 23.4467 22.8491 23.4311C23.8101 23.4092 24.0971 25.8678 24.7523 26.9473C24.9052 27.1938 30.1094 31.724 30.1094 31.724L24.0753 36.7815Z" fill="#EAC293"/>
<path d="M22.2654 24.8133C22.6585 26.6322 22.8738 27.3748 23.9939 28.7694C24.0188 28.7975 23.9939 28.835 23.9564 28.81C22.7334 27.5433 22.4151 26.6822 22.1749 24.8164C22.1655 24.729 22.2467 24.729 22.2654 24.8133Z" fill="#263238"/>
<path d="M20.4689 25.4311C20.8495 27.3031 21.3081 28.0768 22.3752 29.6275C22.3908 29.6493 22.3533 29.6743 22.3377 29.6555C21.1615 28.2235 20.5406 27.3374 20.4065 25.4311C20.4127 25.3437 20.4689 25.3468 20.4689 25.4311Z" fill="#263238"/>
<path d="M18.7056 26.3576C19.2017 28.1297 19.6416 29.0533 20.8616 30.4136C20.8661 30.4162 20.8701 30.4198 20.873 30.4242C20.876 30.4286 20.8779 30.4336 20.8786 30.4388C20.8793 30.444 20.8788 30.4494 20.8771 30.4544C20.8754 30.4594 20.8726 30.4639 20.8688 30.4677C20.8651 30.4714 20.8606 30.4742 20.8556 30.4759C20.8506 30.4776 20.8452 30.4781 20.84 30.4774C20.8348 30.4767 20.8298 30.4748 20.8254 30.4718C20.821 30.4689 20.8174 30.465 20.8147 30.4604C19.4263 29.1874 18.8772 28.0392 18.6526 26.37C18.637 26.264 18.6744 26.2453 18.7056 26.3576Z" fill="#263238"/>
<path d="M30.1094 31.7273C30.1094 31.7273 29.0517 29.8553 28.5899 28.9193C28.1282 27.9833 27.1953 25.2346 26.331 25.0661C25.3576 24.8758 25.395 27.5371 26.1938 29.1782C26.1938 29.1782 24.0098 31.2281 24.6962 32.8411C24.8491 33.1906 26.2562 34.5446 26.7023 34.5696L30.1094 31.7273Z" fill="#EAC293"/>
<path d="M26.217 29.3841C25.334 30.1516 24.5135 31.4557 24.6944 32.6101C24.6925 32.6157 24.6889 32.6204 24.6842 32.6238C24.6794 32.6272 24.6737 32.629 24.6679 32.629C24.6621 32.629 24.6564 32.6272 24.6516 32.6238C24.6469 32.6204 24.6433 32.6157 24.6414 32.6101C24.2826 31.3996 25.2155 29.8801 26.0485 29.2405C26.2076 29.1313 26.4479 29.1844 26.217 29.3841Z" fill="#263238"/>
<path opacity="0.1" d="M20.6652 23.7557L24.509 32.5166L25.757 35.3714L27.6821 39.7581C29.6071 41.1341 31.5852 42.2729 32.7053 42.354C36.2902 42.6129 43.9373 37.986 46.3834 35.958C47.5066 35.022 46.9387 33.228 44.7454 33.515C41.0825 33.9955 34.5679 35.6366 33.8659 35.4931C33.4198 35.4026 31.5914 33.3528 30.0845 31.7491L30.1063 31.7304C30.1063 31.7304 29.0486 29.8584 28.5869 28.9224C28.1251 27.9864 27.1922 25.2377 26.328 25.0692C25.5886 24.9225 25.4294 26.4326 25.7508 27.8772C25.1892 27.3717 24.7898 27.0005 24.7493 26.9412C24.0816 25.8617 23.8133 23.4031 22.8461 23.4249C22.0505 23.4249 22.2221 24.8601 22.2221 24.8601C22.2221 24.8601 21.7822 23.4031 20.9741 23.5716C20.8542 23.5987 20.7461 23.6632 20.6652 23.7557Z" fill="black"/>
<path d="M36.4787 42.5692L33.9827 35.2996C33.9827 35.2996 41.2679 33.5274 44.9027 33.2809C47.9509 33.0719 48.7871 35.1872 45.5579 37.39C42.4972 39.4741 36.4787 42.5692 36.4787 42.5692Z" fill="#455A64"/>
<path d="M45.2508 33.2654L46.4614 36.6974C46.5612 36.6038 46.6579 36.5133 46.7422 36.4228L45.6315 33.3028C45.5098 33.2685 45.385 33.2654 45.2508 33.2654ZM43.5348 33.4183L45.0574 37.7239L44.7454 37.9204L43.1698 33.4682L43.5348 33.4183ZM41.4943 33.7303L43.2946 38.8127L42.9826 38.9999L41.1418 33.7927L41.4943 33.7303ZM39.4788 34.1015L41.51 39.8486L41.198 40.0264L39.1263 34.1702L39.4788 34.1015ZM37.4758 34.5103L39.716 40.8439L39.404 41.0155L37.1295 34.5883L37.4758 34.5103ZM35.4821 34.9533L37.9095 41.8173L37.5975 41.9858L35.1295 35.0313L35.4821 34.9533Z" fill="#37474F"/>
<path d="M35.9703 35.5056C36.1754 35.9252 36.3556 36.3565 36.51 36.7973C36.6847 37.2466 36.8439 37.699 37.0061 38.1514C37.1683 38.6038 37.7393 40.4259 37.8828 40.8814C37.8828 40.9032 37.8516 40.9126 37.8454 40.8814C37.6675 40.4352 36.9624 38.6568 36.8064 38.2138C36.6504 37.7707 36.4944 37.3277 36.3509 36.8784C36.1883 36.4296 36.0539 35.9712 35.9484 35.5056C35.9484 35.5056 35.964 35.4963 35.9703 35.5056Z" fill="#263238"/>
<path opacity="0.1" d="M35.7557 40.4288L36.4858 42.5691C36.4858 42.5691 42.5042 39.471 45.5618 37.3868C48.4042 35.4524 48.1015 33.5867 45.9206 33.3027L35.7557 40.4288Z" fill="black"/>
<path d="M38.6027 58.968L61.2227 57.1802C61.1353 56.7528 54.5521 37.6646 49.1171 33.5899C47.2451 32.189 44.0065 33.5899 43.6165 33.9768C39.8101 37.6022 38.2782 58.7246 38.6027 58.968Z" fill="#455A64"/>
<path d="M42.6909 35.256L50.3006 34.6664C50.1945 34.5509 50.0884 34.4386 49.9886 34.3325L42.9155 34.8816C42.8344 35.0033 42.7627 35.1281 42.6909 35.256ZM41.9327 36.9908L51.5704 36.2451C51.6515 36.3543 51.7327 36.4666 51.8107 36.582L41.8017 37.3558C41.8454 37.2331 41.8891 37.1124 41.9327 36.9939V36.9908ZM41.2682 39.0718L52.8465 38.1764C52.9183 38.2887 52.9869 38.4041 53.0555 38.5196L41.1683 39.4368C41.2027 39.312 41.237 39.1966 41.2682 39.0749V39.0718ZM40.7503 41.1435L53.9697 40.1201L54.1569 40.4633L40.6691 41.496C40.6941 41.3868 40.7222 41.2652 40.7471 41.1466L40.7503 41.1435ZM40.3166 43.2089L54.9806 42.0732C55.0399 42.1887 55.0991 42.3041 55.1553 42.4196L40.2355 43.574C40.2698 43.4523 40.2947 43.3306 40.3166 43.212V43.2089ZM39.9484 45.2681L55.9478 44.0201C56.0039 44.1324 56.057 44.2479 56.11 44.3633L39.886 45.6113C39.9079 45.5146 39.9266 45.3929 39.9484 45.2712V45.2681ZM39.6364 47.3242L56.8588 45.992L57.0117 46.3383L39.5834 47.6861C39.5927 47.5676 39.6083 47.449 39.6271 47.3273L39.6364 47.3242ZM39.3556 49.3803L57.7137 47.9607C57.7636 48.0761 57.8135 48.1916 57.8603 48.307L39.3119 49.7422C39.3151 49.6236 39.3307 49.5051 39.3463 49.3834L39.3556 49.3803ZM39.1091 51.4301L58.5311 49.92C58.5811 50.0365 58.6279 50.152 58.6715 50.2664L39.0623 51.792L39.1091 51.4301ZM38.897 53.48L59.3174 51.9012C59.3611 52.0167 59.4079 52.1321 59.4515 52.2444L38.8595 53.8388C38.8751 53.7233 38.8751 53.6048 38.8751 53.4831L38.897 53.48ZM38.7223 55.5236L60.0693 53.8731C60.113 53.9916 60.1567 54.1102 60.2003 54.2225L38.6973 55.8855C38.6942 55.77 38.7035 55.6515 38.7129 55.536L38.7223 55.5236ZM38.5943 57.564L60.7807 55.848L60.9023 56.1975L38.5631 57.926C38.5631 57.8168 38.5819 57.6951 38.585 57.5672L38.5943 57.564Z" fill="#37474F"/>
<path d="M44.3279 37.0592C45.5572 37.2838 47.5446 35.3245 48.2934 33.7769C48.3433 33.6709 48.1312 32.5945 47.9315 31.2809C47.816 30.4791 47.7068 29.5805 47.6632 28.7569C47.6632 28.5853 42.5495 30.2763 42.5495 30.2763C42.897 31.2938 43.1191 32.3499 43.2109 33.4213C43.2143 33.5349 43.208 33.6487 43.1922 33.7613C43.1922 33.7613 43.1922 33.7957 43.1922 33.8175C43.1142 34.4571 43.1423 36.8377 44.3279 37.0592Z" fill="#EAC293"/>
<path d="M47.3477 28.7852C47.1761 30.1923 46.4803 33.6087 43.7191 33.8115C43.5426 33.8256 43.3652 33.8256 43.1887 33.8115C43.187 33.7928 43.187 33.774 43.1887 33.7553C43.2046 33.6427 43.2109 33.5289 43.2074 33.4152C43.1183 32.3418 42.8972 31.2834 42.5491 30.264C42.5491 30.264 46.2338 29.0472 47.3477 28.7852Z" fill="#263238"/>
<path d="M48.9213 23.2346C49.3269 25.1066 47.9198 30.3264 46.5189 31.3965C44.4847 32.9565 41.3803 32.8567 40.1167 30.4605C38.8905 28.1424 40.8468 21.3845 42.3912 20.4329C44.6656 19.032 48.3223 20.4609 48.9213 23.2346Z" fill="#EAC293"/>
<path d="M48.112 28.7039C47.0574 28.473 46.552 27.2126 46.761 25.1627C46.9701 23.1129 46.761 22.3017 45.85 21.8524C44.939 21.4031 43.691 22.127 43.1762 22.0209C42.6614 21.9148 42.9422 21.0849 42.5178 21.01C42.3088 20.9694 41.6131 21.4874 40.8767 22.8383C40.8767 22.8383 41.5288 18.9695 45.6722 19.9211C49.5254 20.8228 49.3319 24.0239 49.1697 24.9599C48.9084 26.2319 48.5549 27.4832 48.112 28.7039Z" fill="#263238"/>
<path d="M46.8814 27.4996C46.8814 27.4996 48.2542 25.9146 48.9843 26.42C49.7144 26.9255 48.56 29.3092 47.6146 29.54C47.4957 29.579 47.3701 29.5937 47.2454 29.5832C47.1206 29.5728 46.9993 29.5374 46.8884 29.4792C46.7776 29.4211 46.6795 29.3412 46.6001 29.2445C46.5207 29.1478 46.4614 29.0361 46.4259 28.916L46.8814 27.4996Z" fill="#EAC293"/>
<path d="M48.6367 27.0972C48.6367 27.0972 48.6367 27.1159 48.6367 27.1222C47.9722 27.3125 47.5759 27.871 47.2764 28.4607C47.3201 28.4005 47.3763 28.3505 47.4411 28.3141C47.5059 28.2777 47.5779 28.2558 47.652 28.2498C47.7261 28.2439 47.8007 28.2541 47.8705 28.2797C47.9403 28.3053 48.0037 28.3458 48.0564 28.3983C48.072 28.3983 48.0564 28.4357 48.0346 28.4326C47.9266 28.3845 47.8064 28.3713 47.6907 28.3948C47.5749 28.4183 47.4694 28.4773 47.3887 28.5636C47.2545 28.7097 47.1363 28.8697 47.0362 29.041C46.9987 29.094 46.8989 29.041 46.927 28.9911C46.9862 28.1611 47.7538 27.0879 48.6367 27.0972Z" fill="#263238"/>
<path d="M41.3164 25.4966C41.3164 25.4966 41.2852 25.4966 41.2821 25.5215C41.201 25.8741 41.0481 26.2672 40.6986 26.3015V26.3203C41.098 26.3702 41.2977 25.846 41.3164 25.4966Z" fill="#263238"/>
<path d="M41.0988 25.0473C40.5434 24.8539 40.2002 25.9834 40.715 26.155C41.2298 26.3266 41.5637 25.2065 41.0988 25.0473Z" fill="#263238"/>
<path d="M44.084 25.8336C43.924 25.843 43.7636 25.843 43.6035 25.8336C43.433 25.8545 43.2603 25.8171 43.1137 25.7275C43.0691 25.6904 43.0391 25.6388 43.0288 25.5817C43.0185 25.5246 43.0287 25.4658 43.0575 25.4155C43.1221 25.3269 43.2089 25.2569 43.3091 25.2126C43.4094 25.1682 43.5195 25.151 43.6285 25.1628C43.8549 25.1546 44.0766 25.2289 44.2525 25.3718C44.2916 25.4072 44.3194 25.4535 44.3321 25.5047C44.3448 25.556 44.3419 25.6098 44.3238 25.6594C44.3057 25.709 44.2732 25.7521 44.2305 25.7831C44.1878 25.8141 44.1368 25.8317 44.084 25.8336Z" fill="#263238"/>
<path d="M40.9877 24.1675C41.1531 24.1675 41.2997 24.1332 41.4682 24.1145C41.6391 24.1192 41.8068 24.0677 41.9455 23.9678C41.9851 23.9268 42.0095 23.8735 42.0146 23.8168C42.0197 23.76 42.0053 23.7032 41.9736 23.6558C41.8996 23.5729 41.8047 23.5112 41.6989 23.4772C41.593 23.4432 41.48 23.4381 41.3715 23.4624C41.1473 23.4734 40.9351 23.5667 40.7755 23.7245C40.7401 23.7635 40.7171 23.8122 40.7094 23.8644C40.7018 23.9165 40.7099 23.9698 40.7327 24.0173C40.7554 24.0649 40.7919 24.1046 40.8373 24.1313C40.8827 24.1581 40.9351 24.1707 40.9877 24.1675Z" fill="#263238"/>
<path d="M44.1562 26.2796C43.9836 26.165 43.78 26.1062 43.5728 26.1111C43.4647 26.1186 43.3589 26.1461 43.2608 26.1922C43.1532 26.245 43.0585 26.3206 42.9831 26.4138L42.8459 26.5854L43.0518 26.601C43.1978 26.6139 43.3421 26.6422 43.4823 26.6852C43.6276 26.7284 43.7589 26.8091 43.863 26.9192C43.8169 26.7505 43.7058 26.6069 43.5541 26.5198C43.4078 26.4347 43.2451 26.3815 43.0767 26.3638L43.1454 26.5542C43.2614 26.4205 43.4202 26.3311 43.5947 26.3015C43.7801 26.2696 43.9689 26.2622 44.1562 26.2796Z" fill="#263238"/>
<path d="M43.3906 27.0285C43.2477 26.9589 43.1144 26.8708 42.9944 26.7665C42.9694 26.7384 42.8665 26.6198 42.8789 26.5949C42.9137 26.5171 42.9577 26.4438 43.01 26.3765C42.9392 26.4321 42.8798 26.501 42.8353 26.5793C42.8314 26.6259 42.8381 26.6729 42.8548 26.7167C42.8715 26.7604 42.8979 26.7998 42.932 26.832C43.0627 26.9404 43.222 27.0087 43.3906 27.0285Z" fill="#263238"/>
<path d="M42.5409 28.7726C42.1293 28.5161 41.6635 28.3591 41.1806 28.314C41.14 28.314 41.1244 28.2079 41.1306 28.1673L41.3709 27.4279C41.2617 27.4497 40.7001 27.5371 40.7469 27.3967C41.1132 26.1991 41.6003 25.0419 42.2008 23.9429C42.205 23.9353 42.2118 23.9296 42.22 23.9268C42.2282 23.9241 42.2371 23.9245 42.245 23.9281C42.2528 23.9316 42.2591 23.938 42.2625 23.9459C42.2659 23.9539 42.2661 23.9628 42.2632 23.9709C41.9294 25.0785 41.4052 26.1206 41.0526 27.2313C41.2535 27.2037 41.4571 27.2037 41.6579 27.2313C41.6954 27.2532 41.3771 27.9989 41.3459 28.1237C41.8134 28.1249 42.2616 28.3098 42.5939 28.6385C42.7125 28.7601 42.7312 28.9161 42.5409 28.7726Z" fill="#263238"/>
<path d="M41.8909 28.2266C41.8909 28.2266 41.7942 28.9348 42.1249 29.1906C42.4556 29.4465 42.9205 29.0596 42.5804 28.5916C42.3888 28.4085 42.1501 28.2821 41.8909 28.2266Z" fill="#263238"/>
<path d="M41.8873 28.6479C41.8918 28.853 41.977 29.048 42.1244 29.1907C42.1589 29.2255 42.2006 29.2524 42.2465 29.2696C42.2924 29.2868 42.3415 29.2939 42.3904 29.2903C42.4393 29.2868 42.4868 29.2727 42.5298 29.249C42.5727 29.2254 42.61 29.1927 42.6392 29.1533C42.6411 29.1483 42.6411 29.1427 42.6392 29.1377C42.3521 28.6697 42.0776 28.6042 41.8873 28.6479Z" fill="#FF99BA"/>
<path d="M29.607 28.0829L41.2852 27.2405L41.229 24.5792L29.5259 24.2297L29.607 28.0829Z" fill="#37474F"/>
<path d="M23.082 29.303L34.7539 28.1236L34.6665 23.9709L22.9541 23.2876L23.082 29.303Z" fill="#455A64"/>
<path d="M17.5454 30.8194L26.3906 29.2656L26.2627 23.1847L17.3582 22.0054L17.5454 30.8194Z" fill="#37474F"/>
<path d="M16.8482 26.4231C16.895 28.6477 17.2008 30.4417 17.5346 30.4354C17.8685 30.4292 18.0994 28.6227 18.0526 26.3982C18.0058 24.1736 17.7 22.3796 17.3662 22.389C17.0323 22.3983 16.8014 24.2017 16.8482 26.4231Z" fill="white"/>
<path d="M49.3829 38.1545C45.9259 42.4445 36.4411 49.8014 34.1541 49.0745C29.9297 47.7391 27.4087 36.167 26.7005 33.9362C26.3885 33.0002 34.697 31.6462 35.0433 32.657C35.3553 33.5369 36.2227 39.6552 37.0058 39.8143C37.3178 39.883 41.7545 37.6303 46.8557 36.0298C50.765 34.7942 50.4031 36.8846 49.3829 38.1545Z" fill="#EAC293"/>
<path d="M35.4414 34.5382C35.4414 34.5382 35.1575 33.6022 35.1606 31.1998C35.1606 29.3278 33.8689 24.9255 29.0236 22.8788C27.1516 22.0957 25.8037 23.0566 27.5884 24.2141C28.8364 25.0285 29.788 25.4871 30.1218 25.8677C30.1218 25.8677 27.8411 26.0893 27.1796 27.2405C26.6026 28.2437 26.097 29.2863 25.6665 30.3605C25.8465 30.4844 26.034 30.597 26.228 30.6975C26.0094 31.1763 25.9298 31.7069 25.9982 32.2287C26.0666 32.7506 26.2803 33.2427 26.6149 33.649L27.1734 35.6209L35.4414 34.5382Z" fill="#EAC293"/>
<path d="M34.6641 29.5962C34.0401 28.8381 32.686 27.2594 31.1291 26.3514C29.4006 25.3437 25.8001 23.8554 25.0701 25.1502C24.5334 26.0862 25.8594 26.7758 25.8594 26.7758C25.8594 26.7758 24.2401 26.4794 23.9437 27.4341C23.6723 28.3077 24.7269 28.7757 24.7269 28.7757C24.7269 28.7757 23.716 28.7757 23.6161 29.6524C23.4945 30.7226 25.6348 30.5697 26.4522 31.7615C26.6332 32.0267 34.6641 29.5962 34.6641 29.5962Z" fill="#EAC293"/>
<path d="M30.3672 28.3545C29.074 27.3771 27.5128 26.8186 25.8931 26.7539C25.8525 26.7539 25.8307 26.7851 25.8681 26.7945C27.423 27.1359 28.9306 27.665 30.3578 28.3701L30.3672 28.3545Z" fill="#263238"/>
<path d="M29.3008 30.0706C28.6393 29.6026 26.5739 28.676 24.7393 28.7384C24.6988 28.7384 24.6769 28.7727 24.7144 28.7789C26.2846 29.0401 27.8201 29.4787 29.2914 30.0862L29.3008 30.0706Z" fill="#263238"/>
<path d="M40.9536 46.2601L37.1878 39.5615C37.1878 39.5615 44.0268 36.4977 47.5462 35.5929C50.5039 34.8316 51.7145 36.7597 48.9377 39.5147C46.3075 42.1199 40.9536 46.2601 40.9536 46.2601Z" fill="#455A64"/>
<path d="M47.8282 35.5273L49.6097 38.7659C49.6929 38.6658 49.771 38.5617 49.8438 38.4539L48.1995 35.468C48.081 35.4805 47.9562 35.4992 47.8282 35.5273Z" fill="#37474F"/>
<path d="M45.8377 36.1077L48.134 40.2822L48.4023 40.0326L46.1809 35.9954L45.8377 36.1077Z" fill="#37474F"/>
<path d="M43.9008 36.794L46.5809 41.6674L46.8555 41.4272L44.2378 36.6692L43.9008 36.794Z" fill="#37474F"/>
<path d="M41.9967 37.5336L45.0044 43.003L45.2852 42.7721L42.3305 37.4026L41.9967 37.5336Z" fill="#37474F"/>
<path d="M40.1057 38.3041L43.4067 44.3039C43.5003 44.229 43.5939 44.1541 43.6875 44.073L40.4365 38.145L40.1057 38.3041Z" fill="#37474F"/>
<path d="M38.2327 39.103L41.8051 45.5926L42.0859 45.3711L38.5635 38.9595L38.2327 39.103Z" fill="#37474F"/>
<path d="M39.1663 39.4086C39.444 39.7838 39.7003 40.1745 39.9338 40.5786C40.1897 40.9874 40.4268 41.4023 40.667 41.8266C40.9073 42.251 41.8027 43.9326 42.0273 44.357C42.0273 44.3757 42.0024 44.3882 41.9899 44.3726C41.7341 43.9638 40.7201 42.3446 40.4861 41.9359C40.2521 41.5271 40.0149 41.1215 39.7934 40.7066C39.5516 40.2941 39.3359 39.8669 39.1476 39.4274C39.1476 39.4274 39.1601 39.3993 39.1663 39.4086Z" fill="#263238"/>
<path d="M47.957 40.4414C46.1974 41.7518 44.3441 43.3306 42.653 44.7595C42.079 45.2556 41.5049 45.7517 40.9152 46.2228H40.9807C40.8434 46.0231 40.7062 45.8203 40.5626 45.6238C40.6781 45.8578 40.7998 46.0855 40.9214 46.3164L40.9682 46.2883C43.4986 44.6035 45.7699 42.5443 47.9446 40.429L47.957 40.4414Z" fill="#263238"/>
<path d="M47.7812 40.925C47.329 41.052 46.9173 41.2938 46.5863 41.627C46.8242 41.6027 47.054 41.5273 47.2602 41.4062C47.4664 41.2851 47.6441 41.121 47.7812 40.925Z" fill="#263238"/>
<path d="M39.3718 110.226L42.2672 115.493C42.5432 116.025 42.9243 116.495 43.3874 116.875C43.8505 117.255 44.3859 117.537 44.9612 117.703C45.5365 117.87 46.1397 117.919 46.7342 117.845C47.3287 117.772 47.9022 117.579 48.4198 117.278C49.4706 116.698 50.2487 115.726 50.5833 114.574C50.9179 113.421 50.7816 112.183 50.2045 111.131L45.5744 102.707C45.5307 102.626 45.4496 102.673 45.4028 102.589C45.4402 102.467 45.4402 102.467 45.4028 102.383C44.7974 101.358 43.8247 100.603 42.6824 100.271C41.5401 99.9379 40.3139 100.053 39.2533 100.592C34.1458 103.4 27.7873 101.621 25.0261 96.5983C22.2181 91.494 24.1712 85.254 29.2786 82.446C30.8485 81.5753 32.6201 81.1337 34.415 81.1654C36.2099 81.1972 37.9647 81.7013 39.5029 82.6269C40.0183 82.9441 40.5917 83.1555 41.1897 83.2488C41.7877 83.342 42.3982 83.3153 42.9858 83.1701C43.5733 83.0249 44.126 82.7641 44.6117 82.403C45.0974 82.0419 45.5063 81.5877 45.8146 81.0669C46.1171 80.5553 46.3153 79.9889 46.3979 79.4004C46.4804 78.8119 46.4458 78.2128 46.2958 77.6377C46.1459 77.0626 45.8837 76.5229 45.5242 76.0496C45.1648 75.5763 44.7153 75.1788 44.2016 74.88C41.2981 73.1381 37.9889 72.1875 34.6036 72.1229C31.2184 72.0583 27.8753 72.882 24.9075 74.5118C15.5069 79.6785 12.0001 91.522 17.1637 100.919C19.2781 104.744 22.6206 107.743 26.6507 109.432C30.6808 111.12 35.1628 111.401 39.3718 110.226ZM49.1249 127.967L49.9237 129.424C50.1994 129.956 50.5804 130.427 51.0436 130.807C51.5067 131.188 52.0423 131.471 52.6179 131.638C53.1935 131.806 53.7971 131.854 54.3921 131.782C54.9871 131.709 55.5612 131.516 56.0794 131.215C57.1301 130.634 57.9077 129.66 58.2422 128.507C58.5766 127.354 58.4407 126.115 57.8641 125.062L57.0622 123.605C56.4712 122.566 55.4983 121.797 54.3501 121.464C53.202 121.13 51.9689 121.257 50.9127 121.817C50.3863 122.098 49.9213 122.482 49.5453 122.945C49.1693 123.408 48.8898 123.942 48.7232 124.515C48.5566 125.088 48.5063 125.689 48.5753 126.282C48.6443 126.874 48.8312 127.447 49.1249 127.967Z" fill="white"/>
<g opacity="0.6">
<path d="M39.3718 110.226L42.2672 115.493C42.5432 116.025 42.9243 116.495 43.3874 116.875C43.8505 117.255 44.3859 117.537 44.9612 117.703C45.5365 117.87 46.1397 117.919 46.7342 117.845C47.3287 117.772 47.9022 117.579 48.4198 117.278C49.4706 116.698 50.2487 115.726 50.5833 114.574C50.9179 113.421 50.7816 112.183 50.2045 111.131L45.5744 102.707C45.5307 102.626 45.4496 102.673 45.4028 102.589C45.4402 102.467 45.4402 102.467 45.4028 102.383C44.7974 101.358 43.8247 100.603 42.6824 100.271C41.5401 99.9379 40.3139 100.053 39.2533 100.592C34.1458 103.4 27.7873 101.621 25.0261 96.5983C22.2181 91.494 24.1712 85.254 29.2786 82.446C30.8485 81.5753 32.6201 81.1337 34.415 81.1654C36.2099 81.1972 37.9647 81.7013 39.5029 82.6269C40.0183 82.9441 40.5917 83.1555 41.1897 83.2488C41.7877 83.342 42.3982 83.3153 42.9858 83.1701C43.5733 83.0249 44.126 82.7641 44.6117 82.403C45.0974 82.0419 45.5063 81.5877 45.8146 81.0669C46.1171 80.5553 46.3153 79.9889 46.3979 79.4004C46.4804 78.8119 46.4458 78.2128 46.2958 77.6377C46.1459 77.0626 45.8837 76.5229 45.5242 76.0496C45.1648 75.5763 44.7153 75.1788 44.2016 74.88C41.2981 73.1381 37.9889 72.1875 34.6036 72.1229C31.2184 72.0583 27.8753 72.882 24.9075 74.5118C15.5069 79.6785 12.0001 91.522 17.1637 100.919C19.2781 104.744 22.6206 107.743 26.6507 109.432C30.6808 111.12 35.1628 111.401 39.3718 110.226ZM49.1249 127.967L49.9237 129.424C50.1994 129.956 50.5804 130.427 51.0436 130.807C51.5067 131.188 52.0423 131.471 52.6179 131.638C53.1935 131.806 53.7971 131.854 54.3921 131.782C54.9871 131.709 55.5612 131.516 56.0794 131.215C57.1301 130.634 57.9077 129.66 58.2422 128.507C58.5766 127.354 58.4407 126.115 57.8641 125.062L57.0622 123.605C56.4712 122.566 55.4983 121.797 54.3501 121.464C53.202 121.13 51.9689 121.257 50.9127 121.817C50.3863 122.098 49.9213 122.482 49.5453 122.945C49.1693 123.408 48.8898 123.942 48.7232 124.515C48.5566 125.088 48.5063 125.689 48.5753 126.282C48.6443 126.874 48.8312 127.447 49.1249 127.967Z" fill="white"/>
</g>
<path d="M133.523 85.8873L135.314 80.5147C135.505 79.9841 135.586 79.4201 135.553 78.8571C135.52 78.294 135.372 77.7436 135.12 77.2392C134.868 76.7348 134.515 76.2869 134.085 75.9226C133.654 75.5584 133.154 75.2854 132.615 75.1202C131.541 74.7642 130.371 74.848 129.359 75.3532C128.348 75.8584 127.577 76.744 127.217 77.8159L124.365 86.424C124.341 86.502 124.425 86.53 124.397 86.6143C124.284 86.6673 124.284 86.6673 124.256 86.7516C123.931 87.8253 124.03 88.9827 124.531 89.9863C125.032 90.9899 125.898 91.7638 126.952 92.1492C132.147 93.8745 134.973 99.4094 133.276 104.52C131.545 109.724 125.979 112.37 120.774 110.635C119.169 110.107 117.731 109.167 116.604 107.907C115.478 106.647 114.702 105.113 114.357 103.459C114.245 102.9 114.024 102.369 113.705 101.896C113.386 101.424 112.977 101.019 112.5 100.707C112.024 100.394 111.49 100.179 110.93 100.075C110.369 99.9705 109.794 99.9787 109.237 100.099C108.69 100.216 108.171 100.441 107.712 100.76C107.252 101.079 106.86 101.485 106.558 101.956C106.256 102.427 106.05 102.953 105.952 103.504C105.855 104.055 105.867 104.62 105.989 105.166C106.642 108.287 108.101 111.183 110.222 113.565C112.343 115.947 115.051 117.731 118.076 118.741C127.66 121.936 138.097 116.788 141.288 107.197C142.582 103.289 142.519 99.0595 141.11 95.1922C139.701 91.3248 137.027 88.0463 133.523 85.8873ZM139.554 67.7913L140.05 66.3062C140.241 65.7751 140.322 65.2108 140.289 64.6473C140.256 64.0839 140.109 63.533 139.857 63.0281C139.604 62.5232 139.252 62.0747 138.821 61.7099C138.391 61.345 137.89 61.0714 137.351 60.9055C136.277 60.5497 135.105 60.6344 134.094 61.1409C133.082 61.6473 132.312 62.5343 131.953 63.6074L131.457 65.0925C131.117 66.1661 131.209 67.3298 131.713 68.3369C132.217 69.344 133.093 70.1152 134.156 70.487C134.687 70.6716 135.249 70.7481 135.81 70.7122C136.371 70.6762 136.919 70.5284 137.422 70.2776C137.925 70.0267 138.373 69.6778 138.739 69.2513C139.105 68.8249 139.382 68.3295 139.554 67.7944V67.7913Z" fill="white"/>
<g opacity="0.6">
<path d="M133.523 85.8873L135.314 80.5147C135.505 79.9841 135.586 79.4201 135.553 78.8571C135.52 78.294 135.372 77.7436 135.12 77.2392C134.868 76.7348 134.515 76.2869 134.085 75.9226C133.654 75.5584 133.154 75.2854 132.615 75.1202C131.541 74.7642 130.371 74.848 129.359 75.3532C128.348 75.8584 127.577 76.744 127.217 77.8159L124.365 86.424C124.341 86.502 124.425 86.53 124.397 86.6143C124.284 86.6673 124.284 86.6673 124.256 86.7516C123.931 87.8253 124.03 88.9827 124.531 89.9863C125.032 90.9899 125.898 91.7638 126.952 92.1492C132.147 93.8745 134.973 99.4094 133.276 104.52C131.545 109.724 125.979 112.37 120.774 110.635C119.169 110.107 117.731 109.167 116.604 107.907C115.478 106.647 114.702 105.113 114.357 103.459C114.245 102.9 114.024 102.369 113.705 101.896C113.386 101.424 112.977 101.019 112.5 100.707C112.024 100.394 111.49 100.179 110.93 100.075C110.369 99.9705 109.794 99.9787 109.237 100.099C108.69 100.216 108.171 100.441 107.712 100.76C107.252 101.079 106.86 101.485 106.558 101.956C106.256 102.427 106.05 102.953 105.952 103.504C105.855 104.055 105.867 104.62 105.989 105.166C106.642 108.287 108.101 111.183 110.222 113.565C112.343 115.947 115.051 117.731 118.076 118.741C127.66 121.936 138.097 116.788 141.288 107.197C142.582 103.289 142.519 99.0595 141.11 95.1922C139.701 91.3248 137.027 88.0463 133.523 85.8873ZM139.554 67.7913L140.05 66.3062C140.241 65.7751 140.322 65.2108 140.289 64.6473C140.256 64.0839 140.109 63.533 139.857 63.0281C139.604 62.5232 139.252 62.0747 138.821 61.7099C138.391 61.345 137.89 61.0714 137.351 60.9055C136.277 60.5497 135.105 60.6344 134.094 61.1409C133.082 61.6473 132.312 62.5343 131.953 63.6074L131.457 65.0925C131.117 66.1661 131.209 67.3298 131.713 68.3369C132.217 69.344 133.093 70.1152 134.156 70.487C134.687 70.6716 135.249 70.7481 135.81 70.7122C136.371 70.6762 136.919 70.5284 137.422 70.2776C137.925 70.0267 138.373 69.6778 138.739 69.2513C139.105 68.8249 139.382 68.3295 139.554 67.7944V67.7913Z" fill="white"/>
</g>
<path d="M71.8098 89.1196V100.735C71.8098 105.727 75.5538 109.471 80.5645 109.471C82.8822 109.467 85.1041 108.546 86.745 106.909C88.3859 105.273 89.3125 103.053 89.3223 100.735V82.1526C89.3223 81.9779 89.132 81.9779 89.132 81.7969C89.3223 81.6222 89.3223 81.6222 89.3223 81.4412C89.3223 76.7924 85.2039 72.6834 80.5645 72.6834C69.3075 72.6834 60.2003 63.754 60.2003 52.678C60.2003 41.4241 69.3075 32.6694 80.5645 32.6694C84.0354 32.657 87.4485 33.5584 90.4607 35.283C93.4729 37.0076 95.9781 39.4947 97.7245 42.4943C98.3036 43.5104 99.0794 44.401 100.006 45.1141C100.933 45.8272 101.993 46.3485 103.124 46.6477C104.254 46.9468 105.433 47.0178 106.592 46.8564C107.75 46.6951 108.865 46.3046 109.871 45.7079C110.858 45.1241 111.72 44.351 112.407 43.4329C113.095 42.5149 113.594 41.4701 113.877 40.3585C114.159 39.2469 114.219 38.0905 114.053 36.9557C113.887 35.8208 113.498 34.73 112.91 33.7458C109.611 28.0934 104.889 23.4037 99.2138 20.1435C93.5389 16.8832 87.1092 15.1661 80.5645 15.1631C59.8383 15.1631 42.8624 31.9549 42.8624 52.678C42.8624 70.3652 55.1989 85.1946 71.8098 89.1196ZM71.8098 128.241V131.455C71.8098 136.447 75.5538 140.213 80.5645 140.213C82.8857 140.208 85.1104 139.283 86.7518 137.642C88.3931 136.001 89.3174 133.776 89.3223 131.455V128.232C89.3223 123.411 85.2039 119.496 80.5645 119.496C79.4126 119.482 78.2695 119.699 77.2023 120.132C76.1352 120.566 75.1654 121.209 74.35 122.023C73.5345 122.836 72.8898 123.805 72.4536 124.871C72.0174 125.937 71.7985 127.08 71.8098 128.232V128.241Z" fill="#EDEDED"/>
<path opacity="0.6" d="M77.25 19.007C62.2553 17.1194 48.7363 32.4043 46.2965 46.1791C46.0235 47.7413 45.8795 49.3232 45.8659 50.909C45.8846 51.4363 45.8971 51.9604 45.9314 52.469C49.5694 37.6896 61.4971 21.659 77.25 19.007Z" fill="#EDEDED"/>
<path d="M98.0601 51.9731C98.0551 52.1302 98.0906 52.2859 98.1633 52.4253C98.236 52.5646 98.3434 52.6829 98.4751 52.7687C98.6892 52.9152 98.9134 53.0466 99.1459 53.1618C99.0804 52.2695 99.1178 51.3428 99.1459 50.4599C99.1677 49.4209 99.252 48.4038 99.358 47.3773H99.3799C99.3393 48.4194 99.3331 49.4646 99.3175 50.4973C99.3175 51.4083 99.358 52.3287 99.3393 53.2429C99.5764 53.3521 99.8198 53.4488 100.063 53.5362C100.047 53.2179 100.034 52.8997 100.026 52.5815C99.9945 51.6236 100.026 50.6751 100.054 49.7204C100.054 49.6955 100.082 49.6955 100.082 49.7204C100.082 50.6564 100.151 51.5924 100.188 52.5284C100.204 52.8872 100.222 53.246 100.241 53.6048C100.409 53.661 100.578 53.7109 100.743 53.7577C100.853 53.792 100.962 53.8201 101.074 53.8482C101.074 53.2242 101.074 52.6002 101.074 51.9762C101.074 50.9809 101.133 49.9887 101.149 48.9935C101.149 48.9906 101.149 48.9877 101.151 48.9851C101.152 48.9824 101.153 48.98 101.155 48.978C101.157 48.976 101.16 48.9744 101.162 48.9733C101.165 48.9722 101.168 48.9716 101.171 48.9716C101.174 48.9716 101.176 48.9722 101.179 48.9733C101.182 48.9744 101.184 48.976 101.186 48.978C101.188 48.98 101.19 48.9824 101.191 48.9851C101.192 48.9877 101.193 48.9906 101.193 48.9935C101.193 49.9825 101.23 50.9778 101.243 51.9699C101.243 52.6095 101.28 53.2616 101.283 53.9075C102.757 54.2289 104.28 54.2628 105.767 54.0073C106.63 53.8611 107.482 53.6526 108.316 53.3833C108.518 53.3178 109.033 53.1399 109.542 52.9527C109.542 52.6407 109.542 52.3506 109.542 52.0604C109.523 51.399 109.542 50.7282 109.507 50.0699C109.507 50.048 109.529 50.048 109.529 50.0699C109.582 50.7344 109.67 51.3927 109.707 52.0573C109.707 52.3256 109.738 52.6002 109.751 52.881L110.262 52.6844C110.159 51.4364 110.188 50.1603 110.153 48.9155C110.153 48.8843 110.188 48.8843 110.191 48.9155C110.275 50.1385 110.428 51.3771 110.456 52.6095C110.573 52.5672 110.684 52.5129 110.79 52.4473C111.036 52.2102 110.699 47.2681 110.646 46.1168C110.543 43.964 109.988 39.6054 109.457 37.5337C109.002 35.7584 108.063 33.2219 103.645 33.2999C100.403 33.356 98.8932 36.7319 98.628 38.7099C98.4688 39.7271 98.0508 51.4083 98.0601 51.9731Z" fill="#263238"/>
<path d="M107.517 50.6315C108.724 57.9603 109.12 65.5263 108.309 66.9834C107.061 69.2454 97.8697 74.7179 94.7123 75.8629C93.6795 76.2373 90.5845 69.4201 91.2023 68.4186C91.82 67.4171 101.901 62.2971 102.387 61.7761C102.643 61.4891 103.573 55.2803 104.453 51.0402C105.273 47.0871 107.149 48.4069 107.517 50.6315Z" fill="#EAC293"/>
<path d="M98.2641 74.5682L94.2361 66.0007C94.2361 66.0007 101.275 61.9603 102.086 61.3956C102.432 61.1553 103.621 53.4739 104.298 50.1292C104.747 47.9452 106.666 46.6723 107.842 50.8437C108.529 53.2898 110.083 65.2893 108.676 67.4452C107.555 69.1581 98.2641 74.5682 98.2641 74.5682Z" fill="white"/>
<path d="M100.201 72.8676C100.008 72.2093 98.7818 69.6634 98.4667 69.0331C98.1516 68.4029 96.8162 65.9131 96.4918 65.2673C96.473 65.233 96.4169 65.2486 96.4356 65.2829C96.7476 65.9287 97.8926 68.5246 98.1984 69.1579C98.5042 69.7913 99.7584 72.3185 100.167 72.8832C100.168 72.8854 100.17 72.8875 100.171 72.8892C100.173 72.8909 100.175 72.8922 100.178 72.893C100.18 72.8939 100.182 72.8943 100.185 72.8942C100.187 72.8941 100.19 72.8936 100.192 72.8926C100.194 72.8915 100.196 72.8901 100.198 72.8883C100.2 72.8865 100.201 72.8843 100.202 72.882C100.203 72.8797 100.203 72.8772 100.203 72.8748C100.203 72.8723 100.202 72.8698 100.201 72.8676Z" fill="#263238"/>
<path opacity="0.1" d="M107.623 50.1634C107.658 50.2633 107.695 50.3694 107.73 50.4754C107.764 50.5815 107.804 50.7157 107.839 50.8374C107.957 51.2586 108.104 51.9606 108.254 52.8466C108.282 53.0089 108.31 53.1586 108.335 53.349C108.354 53.4519 108.369 53.5611 108.385 53.661C108.422 53.8918 108.457 54.129 108.491 54.3723L108.51 54.5034C108.547 54.7686 108.588 55.0462 108.622 55.327C108.65 55.533 108.678 55.7389 108.703 55.951C108.728 56.1632 108.756 56.3691 108.778 56.575C108.778 56.6811 108.803 56.7872 108.815 56.887C108.949 58.0789 109.065 59.3331 109.143 60.5468C109.165 60.8744 109.183 61.202 109.196 61.5265C109.196 61.7418 109.215 61.957 109.221 62.1505C109.227 62.3439 109.237 62.5686 109.24 62.7745C109.28 64.9148 109.134 66.6807 108.675 67.389C107.92 68.5496 103.415 71.4013 100.585 73.1204L105.243 48.2852C105.281 48.2551 105.321 48.2269 105.361 48.201C105.482 48.1196 105.621 48.0677 105.765 48.0492C105.91 48.0308 106.057 48.0464 106.195 48.0949C106.327 48.1447 106.451 48.2164 106.56 48.307C106.646 48.3808 106.726 48.4611 106.8 48.5473C106.888 48.6451 106.968 48.7494 107.04 48.8593C107.287 49.2687 107.483 49.7066 107.623 50.1634Z" fill="#020100"/>
<path d="M78.1877 145.913C78.9895 146.175 101.9 145.972 102.783 145.414C103.113 145.202 103.279 141.863 103.363 137.82C103.382 136.949 105.113 122.881 105.113 122.881L89.7878 122.972L88.571 137.904C88.571 137.904 79.835 141.907 78.9427 142.625C78.0504 143.342 77.3702 145.654 78.1877 145.913Z" fill="#EAC293"/>
<path d="M78.1855 145.913C78.9874 146.175 101.898 145.972 102.781 145.414C103.03 145.252 103.186 143.299 103.289 140.597C100.322 141.277 83.6549 142.647 81.7392 142.416C79.8891 142.194 84.1791 139.988 84.9528 139.608C82.4381 140.796 79.4523 142.235 78.9499 142.64C78.0576 143.342 77.3681 145.654 78.1855 145.913Z" fill="#263238"/>
<path d="M121.061 60.8774C121.061 60.8774 125.071 66.6962 122.865 73.008C119.102 83.8063 109.542 95.9556 109.249 97.344C108.557 100.62 104.881 134.194 104.881 134.194L87.7555 134.091C87.7555 134.091 90.5635 105.612 93.4807 96.2083C95.0688 91.0728 104.135 76.9954 108.048 70.1251C108.401 69.5011 107.574 66.8585 107.574 66.8585L121.061 60.8774Z" fill="#37474F"/>
<path d="M89.4612 131.093C92.1194 131.04 100.169 130.819 103.713 131.093C103.741 131.093 103.741 131.14 103.713 131.143C102.497 131.333 92.1194 131.205 89.4612 131.143C89.4561 131.149 89.4494 131.153 89.4421 131.155C89.4347 131.156 89.427 131.156 89.4199 131.153C89.4128 131.15 89.4067 131.146 89.4024 131.139C89.3981 131.133 89.3958 131.126 89.3958 131.118C89.3958 131.111 89.3981 131.103 89.4024 131.097C89.4067 131.091 89.4128 131.086 89.4199 131.083C89.427 131.08 89.4347 131.08 89.4421 131.082C89.4494 131.084 89.4561 131.088 89.4612 131.093Z" fill="#263238"/>
<path d="M123.918 68.821C122.776 70.665 121.565 72.4714 120.395 74.2966C119.225 76.1218 118.062 77.9564 116.91 79.7972C114.612 83.4788 112.368 87.1906 110.177 90.9325C109.114 92.6586 108.208 94.4765 107.469 96.3644C106.796 98.2578 106.297 100.209 105.978 102.193C105.641 104.186 105.426 106.196 105.226 108.205C105.018 110.343 104.81 112.481 104.602 114.62L103.301 127.748C103.248 128.285 103.195 128.822 103.148 129.358C103.148 129.44 103.282 129.452 103.292 129.374C103.781 125.025 104.181 120.663 104.621 116.307C104.841 114.14 105.062 111.973 105.282 109.805C105.485 107.79 105.678 105.771 105.965 103.765C106.231 101.788 106.643 99.8339 107.198 97.9182C107.817 95.9336 108.654 94.0239 109.694 92.2242C111.794 88.4958 114.021 84.8298 116.246 81.1731C118.47 77.5165 120.757 73.8099 123.11 70.1845C123.4 69.7383 123.693 69.2922 123.996 68.8522C123.999 68.8179 123.94 68.7867 123.918 68.821Z" fill="#263238"/>
<path d="M119.917 146.016C120.762 145.954 142.45 136.856 143.046 136.01C143.071 135.96 143.082 135.904 143.077 135.848C143.077 135.099 132.693 116.273 132.693 116.273L118.516 122.111L126.547 134.7C126.547 134.7 119.945 141.695 119.393 142.69C118.841 143.686 119.078 146.085 119.917 146.016Z" fill="#EAC293"/>
<path d="M119.399 142.69C118.85 143.685 119.087 146.085 119.917 146.025C120.747 145.966 142.459 136.862 143.049 136.032C143.072 135.982 143.082 135.926 143.077 135.87C143.077 135.623 141.963 133.452 140.468 130.638C137.395 124.834 132.693 116.286 132.693 116.286L118.516 122.123L126.547 134.7C126.547 134.7 124.725 136.631 122.918 138.606C121.28 140.4 119.661 142.216 119.399 142.69Z" fill="#EAC293"/>
<path d="M119.917 146.016C120.759 145.954 142.45 136.853 143.049 136.01C143.072 135.96 143.082 135.904 143.077 135.848C143.077 135.601 141.963 133.43 140.468 130.616C136.724 134.553 121.951 141.732 121.468 141.536C120.984 141.339 122.794 138.787 122.918 138.606C121.28 140.394 119.661 142.21 119.399 142.684C118.85 143.685 119.059 146.085 119.917 146.016Z" fill="#263238"/>
<path d="M124.463 132.731L139.168 125.761C139.168 125.761 120.201 97.2662 120.027 95.104C119.874 93.1883 128.354 76.4027 128.638 71.5355C128.95 66.2846 126.367 62.2567 123.559 59.77L107.565 66.868C107.565 66.868 108.963 69.7228 111.718 71.236C111.718 71.236 103.519 90.6206 104.071 96.5423C104.623 102.464 124.463 132.731 124.463 132.731Z" fill="#37474F"/>
<path d="M123.646 129.358C125.687 128.316 125.084 128.581 127.137 127.564C128.139 127.068 134.741 123.805 135.767 123.508C135.789 123.508 135.808 123.543 135.789 123.555C134.928 124.179 128.267 127.318 127.253 127.795C125.181 128.766 125.765 128.463 123.677 129.411C123.64 129.439 123.609 129.377 123.646 129.358Z" fill="#263238"/>
<path d="M109.333 71.3919C111.088 71.5177 112.829 71.7922 114.538 72.2124C114.544 72.2136 114.551 72.2162 114.557 72.22C114.563 72.2238 114.568 72.2288 114.572 72.2346C114.576 72.2404 114.579 72.2469 114.581 72.2538C114.582 72.2607 114.582 72.2678 114.581 72.2748C114.58 72.2818 114.577 72.2884 114.574 72.2944C114.57 72.3004 114.565 72.3055 114.559 72.3096C114.553 72.3136 114.547 72.3165 114.54 72.318C114.533 72.3196 114.526 72.3197 114.519 72.3185C112.781 72.097 111.021 71.9098 109.299 71.5946C109.273 71.589 109.251 71.5736 109.236 71.5517C109.221 71.5298 109.215 71.503 109.22 71.4769C109.224 71.4508 109.238 71.4274 109.259 71.4116C109.281 71.3958 109.307 71.3887 109.333 71.3919Z" fill="#263238"/>
<path d="M111.156 70.4184C111.36 70.6737 111.545 70.9426 111.711 71.2234C111.865 71.4316 111.976 71.668 112.039 71.9192C112.039 71.9691 111.983 71.9909 111.949 71.966C111.745 71.786 111.57 71.5755 111.431 71.342C111.253 71.0955 111.066 70.8521 110.891 70.6025C110.775 70.434 111.031 70.2624 111.156 70.4184Z" fill="#263238"/>
<path d="M107.707 65.7854C107.707 65.7573 107.753 65.7323 107.766 65.7604C108.09 66.6307 108.467 67.4808 108.892 68.3063C109.086 68.6932 110.299 70.7711 111.076 70.3156C111.207 70.2407 111.235 70.1003 111.192 69.9194C111.102 69.6885 110.979 69.472 110.827 69.2767C110.561 68.8461 110.312 68.4062 110.09 67.9569C109.672 67.1205 109.358 66.2362 109.154 65.3236C109.154 65.2955 109.198 65.2799 109.21 65.308C109.638 66.5299 110.175 67.7109 110.814 68.8367C111.126 69.3734 111.806 70.1191 111.126 70.4623C110.446 70.8055 109.404 69.5263 109.164 69.1581C108.507 68.1156 108.016 66.9779 107.707 65.7854Z" fill="#263238"/>
<path d="M111.47 71.8661C110.902 73.1141 110.403 74.3621 109.869 75.5945C109.336 76.8269 108.864 78.0374 108.396 79.2698C107.46 81.7658 106.596 84.2961 105.857 86.8577C105.491 88.1244 105.156 89.4005 104.852 90.6859C104.522 91.9704 104.284 93.2768 104.141 94.5953C104.016 95.9095 104.144 97.2356 104.518 98.5015C104.908 99.7963 107.099 104.118 107.698 105.328C108.066 106.068 108.187 105.952 108.01 105.593C107.504 104.536 104.496 98.1302 104.556 95.4221C104.618 94.1174 104.806 92.8218 105.117 91.5533C105.401 90.2522 105.726 88.9637 106.081 87.6813C106.78 85.1541 107.62 82.6893 108.481 80.1933C108.964 78.8081 109.485 77.4353 109.975 76.05C110.465 74.6647 110.983 73.4011 111.535 71.8785C111.535 71.8709 111.532 71.8635 111.527 71.8577C111.522 71.8519 111.515 71.848 111.507 71.8466C111.5 71.8451 111.492 71.8463 111.485 71.8498C111.478 71.8533 111.473 71.8591 111.47 71.8661Z" fill="#263238"/>
<path d="M123.525 67.623C123.238 67.52 122.842 67.701 122.552 67.754C122.179 67.8201 121.803 67.8628 121.425 67.882C121.051 67.8971 120.676 67.8887 120.302 67.857C119.927 67.8495 119.559 67.7567 119.226 67.5856C118.679 67.1971 118.209 66.7104 117.84 66.1504C117.396 65.5766 117.029 64.9472 116.748 64.2784C116.748 64.2378 116.677 64.2784 116.689 64.3064C116.814 64.6871 116.908 65.0708 117.067 65.4452C117.219 65.7937 117.398 66.1297 117.603 66.4499C117.981 67.0489 118.408 67.6979 119.045 68.0442C119.681 68.3905 120.564 68.378 121.301 68.3281C121.727 68.2983 122.15 68.2368 122.567 68.144C122.879 68.0754 123.378 68.0224 123.566 67.754C123.572 67.7429 123.576 67.7305 123.578 67.7177C123.579 67.7049 123.578 67.692 123.574 67.6797C123.57 67.6674 123.564 67.656 123.555 67.6462C123.547 67.6365 123.537 67.6286 123.525 67.623Z" fill="#263238"/>
<path d="M134.771 123.112C132.1 119.179 129.477 115.212 126.902 111.212C124.327 107.213 121.787 103.178 119.283 99.1099C118.684 98.1365 117.995 97.1693 117.605 96.0898C117.177 94.9167 117.396 93.7747 117.754 92.6172C118.427 90.5015 119.219 88.4254 120.126 86.3991C121.021 84.3586 121.998 82.343 122.934 80.34C123.87 78.337 124.88 76.3402 125.585 74.2466C126.263 72.2467 126.503 70.175 125.941 68.1158C125.38 66.0566 124.206 64.247 122.98 62.5435L122.004 61.1988C121.979 61.1645 121.929 61.1988 121.954 61.2425C123.302 63.0178 124.618 64.896 125.423 66.9895C125.834 68.0219 126.07 69.1152 126.122 70.225C126.142 71.351 125.981 72.4728 125.645 73.5478C125.021 75.6413 124.032 77.6287 123.105 79.6006C122.178 81.5724 121.189 83.6191 120.278 85.6502C119.346 87.6856 118.521 89.7685 117.807 91.8902C117.495 92.8262 117.152 93.8278 117.183 94.8418C117.221 95.9494 117.764 96.9384 118.322 97.8682C120.759 101.905 123.283 105.89 125.838 109.852C128.394 113.814 131.017 117.777 133.673 121.708L134.68 123.19C134.724 123.24 134.811 123.174 134.771 123.112Z" fill="#263238"/>
<path d="M107.565 66.8679L106.218 60.0663C106.218 60.0663 103.834 59.2239 103.862 56.132C103.878 54.7093 104.548 49.1463 106.155 46.9498C107.659 44.8875 110.077 45.3898 111.531 46.1074C114.38 47.5083 118.426 51.4457 123.559 59.7699L107.565 66.8679Z" fill="white"/>
<path d="M110.112 57.7389C109.449 57.9976 108.815 58.3227 108.218 58.7092C107.921 58.912 107.634 59.1304 107.35 59.3613C107.21 59.4767 107.063 59.5859 106.92 59.692C106.774 59.8069 106.611 59.8976 106.436 59.9603C106.436 59.9603 106.436 59.9978 106.436 59.9946C106.604 59.9628 106.769 59.9169 106.929 59.8574C107.084 59.7894 107.233 59.7069 107.372 59.6109C107.684 59.4112 107.971 59.1897 108.274 58.9869C108.882 58.575 109.491 58.1632 110.13 57.8169C110.168 57.8013 110.14 57.7202 110.112 57.7389Z" fill="#263238"/>
<path d="M111.984 58.1788C111.409 58.2359 110.839 58.3402 110.281 58.4908C110.003 58.5675 109.73 58.6613 109.463 58.7716C109.332 58.8215 109.204 58.8777 109.08 58.9339C108.955 58.99 108.808 59.0867 108.668 59.146C108.668 59.146 108.668 59.1866 108.668 59.1803C108.802 59.1304 108.949 59.1117 109.086 59.0743L109.498 58.9526C109.775 58.8746 110.053 58.7997 110.331 58.7155C110.883 58.5501 111.435 58.4035 111.994 58.2537C112.031 58.2381 112.016 58.1757 111.984 58.1788Z" fill="#263238"/>
<path d="M113.554 47.9078C117.76 52.3289 123.822 60.2724 123.388 62.16C122.296 66.8837 118.243 72.6057 116.212 74.6774C115.02 75.8849 108.334 69.9101 109.348 68.7837C110.936 67.0053 114.83 61.2957 115.276 60.5625C115.519 60.1632 112.506 54.0854 111.117 50.0357C109.588 45.6333 111.504 45.755 113.554 47.9078Z" fill="#EAC293"/>
<path d="M106.889 73.8785C107.061 73.32 106.768 73.2264 105.916 73.8223C105.064 74.4182 102.191 77.4883 101.205 76.3963C100.219 75.3043 104.325 71.0268 105.826 70.1563C107.326 69.2858 110.047 68.3779 110.047 68.3779C109.423 69.3607 108.116 71.916 106.889 73.8785Z" fill="#EAC293"/>
<path d="M109.101 78.1462L107.133 80.2358L91.6555 65.661L93.6234 63.5713L109.101 78.1462Z" fill="#C7C7C7"/>
<path d="M115.078 82.7644L112.102 85.925L103.584 77.9035L106.561 74.7429L115.078 82.7644Z" fill="#263238"/>
<path d="M99.7743 72.3342C99.5839 71.211 98.3703 72.0784 98.3703 72.0784C98.3703 72.0784 99.8179 70.4092 99.1721 69.3265C98.5263 68.2439 97.1191 69.3827 97.0162 69.4607C97.0911 69.3702 98.3827 67.804 97.6402 66.7806C96.8976 65.7573 95.6028 67.0708 95.5217 67.1581C95.5685 67.0521 96.1457 65.6356 95.3907 64.9897C94.0959 63.8821 92.1147 67.7977 90.8105 68.2439L88.6702 66.8243C88.9961 67.3988 89.1479 68.0557 89.107 68.715C89.0789 69.651 89.0539 70.3031 89.3098 70.8429C89.4161 71.0896 89.5992 71.2955 89.832 71.4299C90.0647 71.5642 90.3346 71.6199 90.6014 71.5885C90.6014 71.5885 89.9775 72.6213 90.5484 73.4605C90.8604 73.8817 91.7964 73.7725 91.7964 73.7725C91.7964 73.7725 91.3315 74.6212 91.8838 75.3325C92.3268 75.8941 93.1973 75.7101 93.1973 75.7101C93.1973 75.7101 93.1286 76.7334 93.7651 77.1577C95.0131 78.0001 100.18 74.7397 99.7743 72.3342Z" fill="#EAC293"/>
<path d="M90.2539 67.9944L88.6939 66.8587L88.4849 66.7682C86.1761 65.904 83.4554 67.5139 84.8625 68.5872C85.9327 69.4015 88.0824 68.6215 89.0558 69.6168L90.2539 67.9944Z" fill="#AD6359"/>
<path d="M93.306 75.6849C93.2904 75.6849 93.306 75.7224 93.306 75.7161C95.3465 75.0382 97.1323 73.7552 98.4259 72.0376C98.4665 71.9815 98.3916 71.8941 98.3386 71.944C96.8524 73.4297 95.1569 74.69 93.306 75.6849Z" fill="#263238"/>
<path d="M91.7475 73.7944C91.7256 73.7944 91.7475 73.8412 91.7662 73.835C93.7848 73.1424 95.9408 71.5886 97.1045 69.467C97.1451 69.3952 97.1045 69.2892 97.0546 69.3703C96.1748 70.7244 93.5009 72.8865 91.7475 73.7944Z" fill="#263238"/>
<path d="M95.5382 66.9833C94.3463 68.9707 92.6366 70.3747 90.671 71.5634C90.646 71.5634 90.671 71.6133 90.6959 71.6071C91.816 71.2951 92.986 70.3965 93.8409 69.629C94.6468 68.9297 95.2557 68.0315 95.6068 67.0238C95.6224 66.9833 95.5631 66.9396 95.5382 66.9833Z" fill="#263238"/>
<g opacity="0.4">
<path d="M95.7043 50.0293C95.0855 46.4524 93.2453 43.2008 90.4975 40.8287C87.7497 38.4566 84.2642 37.1109 80.6353 37.0209C77.0063 36.931 73.4585 38.1023 70.5965 40.3354C67.7345 42.5684 65.7355 45.7248 64.9402 49.2667C64.145 52.8086 64.6027 56.5166 66.2353 59.7589C67.8679 63.0011 70.5744 65.5767 73.8935 67.0468C77.2125 68.5169 80.9387 68.7905 84.4369 67.8208C87.935 66.8512 90.9886 64.6984 93.0772 61.7293C95.4671 58.3308 96.4118 54.1233 95.7043 50.0293Z" fill="white"/>
</g>
<path d="M98.3061 49.5768C97.6847 46.0076 96.0189 42.7029 93.5193 40.0804C91.0197 37.458 87.7986 35.6357 84.2633 34.8439C80.728 34.0522 77.0373 34.3265 73.6579 35.6323C70.2786 36.938 67.3623 39.2166 65.2779 42.1798C63.1935 45.143 62.0346 48.6577 61.9478 52.2795C61.8609 55.9013 62.85 59.4676 64.79 62.5273C66.7299 65.5869 69.5336 68.0027 72.8465 69.4689C76.1594 70.9352 79.8327 71.3861 83.4018 70.7647C88.1852 69.9261 92.4407 67.2244 95.2347 63.2523C98.0288 59.2803 99.1334 54.3622 98.3061 49.5768ZM96.2375 49.9356C96.7894 53.0971 96.3912 56.3513 95.0934 59.2864C93.7956 62.2216 91.6564 64.7059 88.9464 66.4252C86.2364 68.1444 83.0774 69.0213 79.869 68.9449C76.6606 68.8685 73.547 67.8423 70.9219 65.996C68.2968 64.1498 66.2783 61.5665 65.1216 58.5728C63.9649 55.5792 63.722 52.3098 64.4238 49.1782C65.1255 46.0465 66.7402 43.1933 69.0637 40.9795C71.3872 38.7657 74.3151 37.2907 77.477 36.7411C81.7143 36.0046 86.0706 36.9807 89.5885 39.4549C93.1064 41.9291 95.498 45.6988 96.2375 49.9356Z" fill="#37474F"/>
<path d="M75.8967 68.9083C74.0063 68.3892 72.221 67.5446 70.6207 66.4123C67.2266 63.9995 64.8594 60.4029 63.9854 56.3313C63.1115 52.2598 63.7943 48.0085 65.8993 44.4154C68.0043 40.8223 71.3788 38.1479 75.3577 36.9193C79.3367 35.6907 83.6315 35.9971 87.3958 37.7779C91.1601 39.5588 94.1209 42.685 95.6946 46.5405C97.2683 50.396 97.3408 54.7012 95.8979 58.6075C94.4549 62.5138 91.6012 65.738 87.899 67.6447C84.1968 69.5513 79.9147 70.0021 75.8967 68.9083ZM82.951 68.1595C86.529 67.5436 89.7827 65.706 92.1575 62.9598C94.5324 60.2136 95.8814 56.7288 95.9746 53.0994C96.0678 49.4699 94.8995 45.9205 92.6688 43.056C90.4381 40.1915 87.2831 38.1892 83.7414 37.3904C80.1997 36.5916 76.4907 37.0458 73.2463 38.6754C70.002 40.3051 67.4233 43.0094 65.9496 46.3275C64.4758 49.6456 64.1984 53.3721 65.1646 56.8718C66.1307 60.3715 68.2806 63.4279 71.2479 65.52C74.6452 67.9153 78.8543 68.8647 82.951 68.1595ZM75.8967 68.9083C74.0063 68.3892 72.221 67.5446 70.6207 66.4123C67.2266 63.9995 64.8594 60.4029 63.9854 56.3313C63.1115 52.2598 63.7943 48.0085 65.8993 44.4154C68.0043 40.8223 71.3788 38.1479 75.3577 36.9193C79.3367 35.6907 83.6315 35.9971 87.3958 37.7779C91.1601 39.5588 94.1209 42.685 95.6946 46.5405C97.2683 50.396 97.3408 54.7012 95.8979 58.6075C94.4549 62.5138 91.6012 65.738 87.899 67.6447C84.1968 69.5513 79.9147 70.0021 75.8967 68.9083ZM82.951 68.1595C86.529 67.5436 89.7827 65.706 92.1575 62.9598C94.5324 60.2136 95.8814 56.7288 95.9746 53.0994C96.0678 49.4699 94.8995 45.9205 92.6688 43.056C90.4381 40.1915 87.2831 38.1892 83.7414 37.3904C80.1997 36.5916 76.4907 37.0458 73.2463 38.6754C70.002 40.3051 67.4233 43.0094 65.9496 46.3275C64.4758 49.6456 64.1984 53.3721 65.1646 56.8718C66.1307 60.3715 68.2806 63.4279 71.2479 65.52C74.6452 67.9153 78.8543 68.8647 82.951 68.1595ZM75.3507 70.9363C70.8618 69.7301 66.9763 66.909 64.4395 63.0142C61.9027 59.1194 60.8931 54.4251 61.6046 49.8318C62.316 45.2385 64.6983 41.0695 68.2945 38.1246C71.8906 35.1797 76.4475 33.6662 81.0909 33.8744C85.7344 34.0827 90.1374 35.998 93.4556 39.2529C96.7737 42.5079 98.7733 46.8734 99.0707 51.5119C99.3681 56.1505 97.9425 60.7356 95.0672 64.3877C92.192 68.0398 88.0696 70.5018 83.4907 71.3013C80.7832 71.7737 78.0051 71.6492 75.3507 70.9363ZM83.3098 70.2281C87.6263 69.4723 91.5118 67.1494 94.221 63.7049C96.9302 60.2605 98.2722 55.9371 97.9897 51.564C97.7072 47.1909 95.82 43.0761 92.6901 40.0089C89.5603 36.9417 85.4081 35.138 81.0302 34.944C76.6523 34.7499 72.3569 36.1791 68.9679 38.9573C65.579 41.7356 63.3351 45.6673 62.6667 49.9982C61.9984 54.3292 62.9526 58.7544 65.3464 62.425C67.7402 66.0957 71.4049 68.7532 75.6377 69.888C78.1392 70.5626 80.7584 70.6787 83.3098 70.2281ZM70.6207 66.4248C67.2266 64.012 64.8594 60.4154 63.9854 56.3438C63.1115 52.2722 63.7943 48.021 65.8993 44.4279C68.0043 40.8347 71.3788 38.1604 75.3577 36.9318C79.3367 35.7032 83.6315 36.0095 87.3958 37.7904C91.1601 39.5713 94.1209 42.6975 95.6946 46.553C97.2683 50.4085 97.3408 54.7136 95.8979 58.62C94.4549 62.5263 91.6012 65.7505 87.899 67.6571C84.1968 69.5638 79.9147 70.0146 75.8967 68.9208C74.0063 68.4017 72.221 67.557 70.6207 66.4248ZM82.951 68.1595C86.529 67.5436 89.7827 65.706 92.1575 62.9598C94.5324 60.2136 95.8814 56.7288 95.9746 53.0994C96.0678 49.4699 94.8995 45.9205 92.6688 43.056C90.4381 40.1915 87.2831 38.1892 83.7414 37.3904C80.1997 36.5916 76.4907 37.0458 73.2463 38.6754C70.002 40.3051 67.4233 43.0094 65.9496 46.3275C64.4758 49.6456 64.1984 53.3721 65.1646 56.8718C66.1307 60.3715 68.2806 63.4279 71.2479 65.52C74.6452 67.9153 78.8543 68.8647 82.951 68.1595Z" fill="#37474F"/>
<path opacity="0.3" d="M87.1406 41.7394C85.7368 40.8215 84.1565 40.2072 82.5012 39.9361C81.66 39.7872 80.8061 39.7224 79.9521 39.7426C79.0894 39.7658 78.2307 39.8702 77.3875 40.0546C75.6905 40.4613 74.0967 41.2168 72.7075 42.273C71.3442 43.312 70.1857 44.5953 69.2911 46.0575C70.4782 44.8979 71.7785 43.86 73.1724 42.9594C73.858 42.5322 74.5769 42.1607 75.3221 41.8486C76.0559 41.5284 76.8185 41.2787 77.5997 41.103C79.1611 40.7402 80.7694 40.6223 82.367 40.7535C83.9922 40.8885 85.595 41.2195 87.1406 41.7394Z" fill="#EBEBEB"/>
<path opacity="0.3" d="M77.3358 64.8024C78.9385 65.3032 80.6282 65.4637 82.2966 65.2735C83.1436 65.1886 83.9798 65.0182 84.7926 64.765C85.6167 64.5039 86.4139 64.1644 87.1731 63.751C88.6916 62.8977 90.0156 61.7374 91.0606 60.3439C92.089 58.972 92.8539 57.4211 93.3164 55.77C92.4905 57.2088 91.5226 58.5613 90.4273 59.8073C89.8843 60.4063 89.2938 60.9603 88.6614 61.464C88.0422 61.9723 87.3768 62.4214 86.6739 62.8056C85.2715 63.5807 83.7567 64.1323 82.1842 64.4405C80.5884 64.7551 78.9606 64.8766 77.3358 64.8024Z" fill="#EBEBEB"/>
<path d="M116.816 73.8068C114.929 76.5368 112.76 80.0468 109.35 81.6287C108.976 81.8127 108.551 81.8665 108.143 81.7815C106.633 82.5178 105.834 82.0249 105.834 82.0249C104.218 82.2776 103.469 81.6599 103.469 81.6599C103.469 81.6599 101.688 82.5022 100.998 81.5101C100.224 80.3962 102.87 79.4322 104.015 78.0094C106.617 74.7459 109.403 69.3827 110.058 68.3687L116.816 73.8068Z" fill="#EAC293"/>
<path d="M109.144 76.5056C108.394 77.4741 107.579 78.3903 106.704 79.2481C105.69 80.1213 104.611 80.9171 103.478 81.6286C103.471 81.6335 103.466 81.6409 103.464 81.6494C103.462 81.6579 103.463 81.6668 103.467 81.6743C103.472 81.6819 103.479 81.6875 103.487 81.69C103.496 81.6925 103.505 81.6918 103.512 81.6879C105.838 80.5289 107.801 78.7536 109.188 76.5555C109.219 76.49 109.181 76.4588 109.144 76.5056Z" fill="#263238"/>
<path d="M111.341 77.7911C110.527 78.6679 109.086 80.1998 105.816 81.9875C105.816 81.9875 105.816 82.0156 105.816 82.0094C108.022 81.1596 109.947 79.7118 111.376 77.8286C111.429 77.7693 111.395 77.7319 111.341 77.7911Z" fill="#263238"/>
<path d="M112.506 78.5024C111.065 79.9408 109.973 80.6646 108.138 81.7722C108.138 81.7722 108.138 81.7972 108.138 81.7909C110.347 80.752 111.03 80.1248 112.543 78.5461C112.615 78.49 112.562 78.4463 112.506 78.5024Z" fill="#263238"/>
<path d="M118.332 74.5493L109.596 67.729L114.694 60.5998C113.302 57.3643 110.95 50.9683 110.326 48.5847C109.592 45.7923 110.95 45.2962 113.134 47.2493C118.172 51.7171 123.742 59.9352 123.96 61.6013C124.281 63.9975 118.332 74.5493 118.332 74.5493Z" fill="white"/>
<path d="M118.635 71.6102C118.176 71.0923 115.952 69.2858 115.39 68.8428C114.828 68.3997 112.529 66.6962 111.958 66.2407C111.927 66.2157 111.883 66.2407 111.914 66.2813C112.476 66.7399 114.651 68.6244 115.206 69.0737C115.761 69.5229 118.014 71.2982 118.616 71.6383C118.632 71.6508 118.65 71.6289 118.635 71.6102Z" fill="#263238"/>
<path d="M111.529 52.8279C112.343 55.3239 113.488 57.8792 114.449 60.3159C114.493 60.4251 114.533 60.525 114.565 60.6279C114.56 60.6138 114.56 60.5984 114.565 60.5843C113.463 62.3502 112.025 64.2128 110.821 65.9444L109.588 67.701L109.828 67.8757L109.607 67.676V67.6979L110.939 66.0131C112.228 64.2971 113.7 62.4968 114.827 60.681C114.851 60.6328 114.858 60.5776 114.845 60.525C114.755 60.2317 114.643 59.9665 114.533 59.6826C113.629 57.4799 112.474 54.9776 111.523 52.803L111.529 52.8279Z" fill="#263238"/>
<path d="M111.45 53.3521C111.602 53.7334 111.837 54.0764 112.137 54.3567C111.903 54.0291 111.709 53.6609 111.45 53.3521Z" fill="#263238"/>
<path d="M111.004 45.8642C111.004 45.8642 108.708 51.4583 106.483 51.7173C104.82 51.9138 105.063 48.5162 105.063 48.5162C105.063 48.5162 106.608 44.039 111.004 45.8642Z" fill="#EAC293"/>
<path d="M108.748 46.2417C108.795 46.6005 108.061 49.3991 106.427 49.7829C105.578 49.9794 104.982 47.3149 104.982 47.3149L104.863 47.134L103.185 44.5881L105.643 41.2465L106.012 40.791C106.012 40.791 106.423 41.518 106.929 42.429L107.004 42.5569C107.032 42.61 107.06 42.6568 107.088 42.7036C107.163 42.8409 107.244 42.9781 107.319 43.1185C107.394 43.2589 107.431 43.3276 107.487 43.4305L107.662 43.7644C108.079 44.5647 108.442 45.3924 108.748 46.2417Z" fill="#EAC293"/>
<path d="M106.94 42.4321C106.956 43.3202 106.778 44.201 106.42 45.0134C106.061 45.8259 105.529 46.5506 104.863 47.1371L103.184 44.5912L105.643 41.2465L106.011 40.791C106.011 40.791 106.435 41.518 106.94 42.4321Z" fill="#263238"/>
<path d="M98.0767 39.8082C97.2717 45.1122 100.351 46.1824 101.49 46.3602C102.529 46.5193 106.076 46.9187 107.418 41.7395C108.76 36.5603 106.579 34.5011 104.217 34.0081C101.855 33.5152 98.8817 34.5167 98.0767 39.8082Z" fill="#EAC293"/>
<path d="M107.382 41.6928C106.362 41.8519 106.038 39.5088 106.038 39.5088C106.038 39.5088 101.669 38.8848 101.189 35.3529C100.68 36.813 99.6274 38.0202 98.25 38.7225C98.25 38.7225 98.2968 34.8288 101.37 33.9864C101.37 33.9864 105.158 32.4888 107.395 35.4652C109.632 38.4417 108.065 41.5867 107.382 41.6928Z" fill="#263238"/>
<path d="M101.169 35.0969C101.132 35.6466 101.214 36.1979 101.409 36.7131C101.596 37.2375 101.889 37.7176 102.27 38.1233C102.369 38.2238 102.473 38.3185 102.582 38.4072L102.738 38.5476C102.791 38.5882 102.851 38.6288 102.907 38.6662C103.022 38.7442 103.135 38.8253 103.253 38.8971C103.372 38.9688 103.496 39.025 103.621 39.0843C103.684 39.1124 103.743 39.1467 103.808 39.1716L104.002 39.2434L104.389 39.3776C104.654 39.4431 104.922 39.4961 105.188 39.546C104.935 39.4431 104.676 39.3682 104.429 39.2652L104.064 39.0999L103.88 39.0156C103.821 38.9844 103.765 38.9501 103.709 38.9158L103.365 38.713C103.256 38.6412 103.153 38.557 103.053 38.479L102.894 38.3636L102.748 38.2294C102.649 38.1427 102.556 38.051 102.467 37.9548C102.105 37.5695 101.812 37.1253 101.6 36.6413C101.49 36.3985 101.402 36.147 101.334 35.8894C101.255 35.6307 101.2 35.3655 101.169 35.0969Z" fill="#263238"/>
<path d="M106.298 41.4961C106.298 41.4961 107.571 39.9049 108.301 40.3698C109.031 40.8347 107.989 43.1778 107.087 43.4679C106.973 43.5111 106.851 43.5306 106.729 43.5254C106.607 43.5202 106.487 43.4903 106.377 43.4375C106.267 43.3847 106.168 43.3102 106.088 43.2184C106.007 43.1265 105.946 43.0193 105.908 42.9032L106.298 41.4961Z" fill="#EAC293"/>
<path d="M107.988 41.05V41.075C107.349 41.2872 106.984 41.8425 106.715 42.4291C106.755 42.3688 106.808 42.318 106.869 42.28C106.931 42.2421 107 42.218 107.072 42.2094C107.144 42.2008 107.217 42.2079 107.285 42.2302C107.354 42.2525 107.417 42.2895 107.47 42.3386C107.47 42.3386 107.47 42.376 107.452 42.3729C107.345 42.3301 107.227 42.3219 107.115 42.3493C107.003 42.3767 106.903 42.4384 106.828 42.5258C106.707 42.6731 106.602 42.8332 106.516 43.0032C106.481 43.0562 106.385 43.0032 106.41 42.9564C106.441 42.1483 107.13 41.075 107.988 41.05Z" fill="#263238"/>
<path d="M98.798 40.0015C98.9228 40.0015 99.0413 39.9703 99.1661 39.9516C99.2976 39.9505 99.4253 39.9079 99.5312 39.8299C99.5586 39.7978 99.5749 39.7576 99.5777 39.7155C99.5805 39.6733 99.5697 39.6314 99.5468 39.5959C99.4898 39.5336 99.4174 39.4874 99.3368 39.4622C99.2563 39.437 99.1704 39.4336 99.0881 39.4524C98.9155 39.4643 98.7538 39.5412 98.6357 39.6677C98.6103 39.6977 98.5941 39.7344 98.5892 39.7734C98.5843 39.8125 98.5908 39.8521 98.608 39.8875C98.6252 39.9229 98.6523 39.9525 98.686 39.9727C98.7198 39.993 98.7587 40.003 98.798 40.0015Z" fill="#263238"/>
<path d="M102.31 39.5711C102.188 39.5399 102.079 39.4931 101.96 39.4525C101.83 39.4264 101.712 39.3598 101.623 39.2622C101.602 39.2259 101.594 39.1837 101.599 39.1421C101.604 39.1004 101.622 39.0616 101.651 39.0313C101.719 38.9803 101.798 38.9482 101.882 38.9383C101.966 38.9284 102.051 38.9412 102.129 38.9752C102.298 39.0253 102.442 39.1365 102.534 39.2872C102.549 39.3213 102.554 39.3587 102.549 39.3954C102.544 39.4322 102.529 39.4669 102.506 39.496C102.483 39.5251 102.453 39.5474 102.418 39.5606C102.384 39.5738 102.346 39.5775 102.31 39.5711Z" fill="#263238"/>
<path d="M101.553 40.6443C101.553 40.6443 101.578 40.6661 101.578 40.6817C101.531 41.0436 101.537 41.468 101.855 41.6177C101.855 41.6177 101.855 41.6427 101.855 41.6396C101.453 41.5428 101.45 40.9812 101.553 40.6443Z" fill="#263238"/>
<path d="M101.901 40.2979C102.49 40.2979 102.425 41.4867 101.879 41.4773C101.333 41.4679 101.42 40.2855 101.901 40.2979Z" fill="#263238"/>
<path d="M102.139 40.3729C102.238 40.4447 102.332 40.5695 102.451 40.5882C102.569 40.6069 102.71 40.4915 102.809 40.3792C102.809 40.3792 102.828 40.3792 102.828 40.3948C102.828 40.6194 102.719 40.8472 102.476 40.8659C102.232 40.8846 102.104 40.6756 102.061 40.4447C102.061 40.4041 102.101 40.3417 102.139 40.3729Z" fill="#263238"/>
<path d="M99.5134 40.5227C99.5134 40.5227 99.4822 40.5383 99.4822 40.5539C99.4822 40.9189 99.4229 41.337 99.089 41.4493V41.4712C99.4978 41.4244 99.5726 40.8721 99.5134 40.5227Z" fill="#263238"/>
<path d="M99.1951 40.1296C98.6085 40.0672 98.5274 41.2466 99.0703 41.3027C99.6132 41.3589 99.6849 40.1826 99.1951 40.1296Z" fill="#263238"/>
<path d="M98.9611 40.1764C98.855 40.2357 98.7458 40.348 98.621 40.3511C98.4962 40.3542 98.3777 40.2232 98.2903 40.0984H98.2716C98.2498 40.323 98.3215 40.5633 98.5618 40.6132C98.802 40.6631 98.9518 40.4697 99.0235 40.245C99.0391 40.2169 99.0048 40.1514 98.9611 40.1764Z" fill="#263238"/>
<path d="M99.9758 42.1202C99.9758 42.1202 99.8885 42.6724 99.8854 42.9314C100.397 42.9433 100.904 43.0262 101.392 43.1779C101.505 43.2184 101.505 43.1217 101.392 43.0406C101.014 42.8066 100.574 42.6914 100.129 42.7099C100.113 42.6381 100.275 41.8612 100.235 41.8581C100.031 41.8724 99.8309 41.9144 99.6389 41.9829C99.7855 40.8254 100.113 39.7022 100.238 38.5509C100.238 38.543 100.235 38.5355 100.23 38.5293C100.225 38.5232 100.218 38.5188 100.21 38.5167C100.203 38.5146 100.195 38.515 100.187 38.5178C100.18 38.5206 100.174 38.5256 100.169 38.5322C99.7829 39.7261 99.5144 40.955 99.3674 42.2013C99.33 42.348 99.8698 42.1576 99.9758 42.1202Z" fill="#263238"/>
<path d="M100.518 42.9749C100.518 42.9749 100.758 43.5989 101.142 43.6707C101.595 43.7424 101.747 43.1964 101.248 42.9624C101.008 42.8992 100.756 42.9035 100.518 42.9749Z" fill="#263238"/>
<path d="M100.705 43.3245C100.804 43.4928 100.964 43.6168 101.151 43.6708C101.196 43.6832 101.244 43.686 101.29 43.6789C101.336 43.6718 101.38 43.6551 101.419 43.6297C101.458 43.6044 101.492 43.571 101.517 43.5319C101.542 43.4927 101.559 43.4486 101.566 43.4025C101.105 43.131 100.846 43.1997 100.705 43.3245Z" fill="#FF99BA"/>
<path d="M129.52 26.7104C129.521 28.3064 129.078 29.8712 128.241 31.2301C127.404 32.5891 126.206 33.6885 124.78 34.4058C123.354 35.123 121.757 35.4298 120.167 35.2918C118.577 35.1538 117.057 34.5764 115.776 33.6243L111.555 34.7038L113.311 30.7726C112.693 29.6176 112.346 28.3368 112.297 27.0276C112.248 25.7183 112.498 24.4152 113.029 23.2173C113.56 22.0194 114.356 20.9583 115.359 20.1148C116.361 19.2713 117.543 18.6675 118.814 18.3495C120.085 18.0314 121.412 18.0075 122.693 18.2794C123.975 18.5514 125.178 19.1121 126.21 19.9189C127.242 20.7257 128.077 21.7573 128.65 22.9353C129.224 24.1132 129.521 25.4065 129.52 26.7166V26.7104Z" fill="white"/>
<path d="M129.52 26.7103C129.385 33.8863 121.501 37.6834 115.748 33.5182L111.52 34.5696L111.679 34.7599L113.442 30.835L113.473 30.7663C110.815 25.9803 113.514 19.7683 118.827 18.4455C124.159 16.9947 129.551 21.216 129.52 26.7103ZM129.52 26.7103C129.498 19.3783 120.946 15.366 115.286 20.0335C112.166 22.5639 111.199 27.3219 113.18 30.8443V30.7133L111.436 34.6476L111.321 34.9066L111.595 34.8348L115.807 33.7335C121.205 37.8207 129.482 33.9768 129.535 26.7103H129.52Z" fill="#263238"/>
<path d="M120.343 27.8553V28.7913C120.34 28.8861 120.358 28.9804 120.393 29.0684C120.428 29.1564 120.481 29.2364 120.548 29.3034C120.615 29.3705 120.695 29.4233 120.783 29.4586C120.871 29.4939 120.965 29.511 121.06 29.5089C121.25 29.5081 121.432 29.4322 121.567 29.2978C121.701 29.1634 121.777 28.9813 121.778 28.7913V27.2843C121.778 27.2843 121.778 27.2843 121.778 27.2531C121.778 27.2219 121.778 27.2531 121.778 27.225C121.772 27.0365 121.695 26.8571 121.561 26.7237C121.428 26.5903 121.249 26.5129 121.06 26.5074C120.839 26.5171 120.618 26.4818 120.41 26.4038C120.203 26.3258 120.014 26.2065 119.854 26.0533C119.694 25.9001 119.566 25.7161 119.479 25.5124C119.392 25.3087 119.347 25.0894 119.347 24.8679C119.347 24.6463 119.392 24.4271 119.479 24.2234C119.566 24.0196 119.694 23.8356 119.854 23.6824C120.014 23.5292 120.203 23.41 120.41 23.332C120.618 23.2539 120.839 23.2187 121.06 23.2283C121.344 23.2267 121.623 23.2992 121.87 23.4388C122.116 23.5784 122.322 23.7801 122.467 24.0239C122.515 24.1072 122.578 24.1801 122.654 24.2385C122.73 24.2969 122.817 24.3395 122.91 24.364C123.003 24.3884 123.099 24.394 123.194 24.3806C123.289 24.3673 123.38 24.3351 123.463 24.286C123.543 24.2381 123.614 24.1747 123.67 24.0996C123.726 24.0244 123.767 23.9389 123.79 23.8479C123.814 23.7569 123.819 23.6622 123.805 23.5693C123.792 23.4764 123.76 23.387 123.712 23.3063C123.457 22.8645 123.095 22.4931 122.661 22.2256C122.226 21.958 121.732 21.8027 121.222 21.7736C120.713 21.7444 120.204 21.8424 119.741 22.0587C119.279 22.275 118.878 22.6028 118.574 23.0126C118.269 23.4224 118.072 23.9014 117.999 24.4065C117.926 24.9116 117.979 25.427 118.155 25.9063C118.33 26.3856 118.622 26.8138 119.004 27.1524C119.386 27.4909 119.846 27.7293 120.343 27.8459V27.8553ZM120.343 31.0626V31.3247C120.34 31.4195 120.358 31.5138 120.393 31.6018C120.428 31.6899 120.481 31.7698 120.548 31.8369C120.615 31.9039 120.695 31.9567 120.783 31.992C120.871 32.0273 120.965 32.0444 121.06 32.0423C121.25 32.0423 121.433 31.9667 121.568 31.8321C121.702 31.6976 121.778 31.515 121.778 31.3247V31.0626C121.775 30.8731 121.699 30.692 121.565 30.5579C121.431 30.4238 121.25 30.3475 121.06 30.345C120.966 30.3442 120.872 30.3622 120.785 30.398C120.697 30.4337 120.618 30.4866 120.551 30.5534C120.484 30.6202 120.431 30.6996 120.395 30.787C120.36 30.8745 120.342 30.9682 120.343 31.0626Z" fill="white"/>
<path d="M142.227 146.097C101.398 145.904 55.6029 145.904 14.7746 146.097C55.6029 146.288 101.398 146.288 142.227 146.097Z" fill="#263238"/>
</svg>
