<svg width="32" height="32" viewBox="0 0 32 32" fill="none" xmlns="http://www.w3.org/2000/svg">
<path d="M26.6672 22.667C27.4316 22.667 28.0761 22.9337 28.6005 23.467C29.1249 24.0003 29.3827 24.6225 29.3738 25.3337L18.6672 29.3337L9.33383 26.667V14.667H11.9338L21.6272 18.2537C22.3205 18.5292 22.6672 19.027 22.6672 19.747C22.6672 20.1648 22.5161 20.5292 22.2138 20.8403C21.9116 21.1514 21.5294 21.3159 21.0672 21.3337H17.3338L15.0005 20.4403L14.5605 21.6937L17.3338 22.667H26.6672ZM21.3338 4.30699C22.2761 3.21366 23.4761 2.66699 24.9338 2.66699C26.1427 2.66699 27.1649 3.11144 28.0005 4.00033C28.8361 4.88921 29.2805 5.91144 29.3338 7.06699C29.3338 7.98255 28.8894 9.07588 28.0005 10.347C27.1116 11.6181 26.2361 12.6803 25.3738 13.5337C24.5116 14.387 23.1649 15.6537 21.3338 17.3337C19.4849 15.6537 18.1249 14.387 17.2538 13.5337C16.3827 12.6803 15.5072 11.6181 14.6272 10.347C13.7472 9.07588 13.3161 7.98255 13.3338 7.06699C13.3338 5.8581 13.7649 4.83588 14.6272 4.00033C15.4894 3.16477 16.5294 2.72033 17.7472 2.66699C19.1694 2.66699 20.3649 3.21366 21.3338 4.30699ZM1.3125 14.667H6.66717V29.3337H1.3125V14.667Z" fill="#323232"/>
</svg>
