<svg width="374" height="249" viewBox="0 0 374 249" fill="none" xmlns="http://www.w3.org/2000/svg">
<path d="M298.917 17.4649C260.081 12.4152 238.01 33.9288 185.815 36.2644C133.954 32.2107 114.196 10.0048 74.8815 13.7647C32.5945 17.8085 -0.157881 72.8375 9.1622 127.886C18.4823 182.935 76.2428 213.707 105.769 213.542C129.371 213.388 150.215 203.797 177.123 201.506C203.747 204.678 223.549 214.952 247.091 215.873C276.547 217.038 337.444 188.224 352.529 133.584C367.614 78.943 340.706 22.908 298.917 17.4649Z" fill="#01A99E"/>
<path opacity="0.7" d="M298.917 17.4649C260.081 12.4152 238.01 33.9288 185.815 36.2644C133.954 32.2107 114.196 10.0048 74.8815 13.7647C32.5945 17.8085 -0.157881 72.8375 9.1622 127.886C18.4823 182.935 76.2428 213.707 105.769 213.542C129.371 213.388 150.215 203.797 177.123 201.506C203.747 204.678 223.549 214.952 247.091 215.873C276.547 217.038 337.444 188.224 352.529 133.584C367.614 78.943 340.706 22.908 298.917 17.4649Z" fill="white"/>
<g opacity="0.3">
<path d="M315.37 17.9531H293.09V57.6487H315.37V17.9531Z" stroke="black" stroke-linejoin="round"/>
<path d="M339.835 17.9531H317.555V57.6487H339.835V17.9531Z" stroke="black" stroke-linejoin="round"/>
<path d="M364.304 17.9531H342.023V57.6487H364.304V17.9531Z" stroke="black" stroke-linejoin="round"/>
<path d="M315.37 61.0352H293.09V100.731H315.37V61.0352Z" stroke="black" stroke-linejoin="round"/>
<path d="M339.835 61.0352H317.555V100.731H339.835V61.0352Z" stroke="black" stroke-linejoin="round"/>
<path d="M364.304 61.0352H342.023V100.731H364.304V61.0352Z" stroke="black" stroke-linejoin="round"/>
<path d="M315.37 104.117H293.09V143.813H315.37V104.117Z" stroke="black" stroke-linejoin="round"/>
<path d="M339.835 104.117H317.555V143.813H339.835V104.117Z" stroke="black" stroke-linejoin="round"/>
<path d="M364.304 104.117H342.023V143.813H364.304V104.117Z" stroke="black" stroke-linejoin="round"/>
<path d="M315.37 147.199H293.09V186.895H315.37V147.199Z" stroke="black" stroke-linejoin="round"/>
<path d="M339.835 147.199H317.555V186.895H339.835V147.199Z" stroke="black" stroke-linejoin="round"/>
<path d="M364.304 147.199H342.023V186.895H364.304V147.199Z" stroke="black" stroke-linejoin="round"/>
</g>
<g opacity="0.3">
<path d="M38.382 17.9531H16.1016V57.6487H38.382V17.9531Z" stroke="black" stroke-linejoin="round"/>
<path d="M62.8468 17.9531H40.5664V57.6487H62.8468V17.9531Z" stroke="black" stroke-linejoin="round"/>
<path d="M87.3156 17.9531H65.0352V57.6487H87.3156V17.9531Z" stroke="black" stroke-linejoin="round"/>
<path d="M38.382 61.0352H16.1016V100.731H38.382V61.0352Z" stroke="black" stroke-linejoin="round"/>
<path d="M62.8468 61.0352H40.5664V100.731H62.8468V61.0352Z" stroke="black" stroke-linejoin="round"/>
<path d="M87.3156 61.0352H65.0352V100.731H87.3156V61.0352Z" stroke="black" stroke-linejoin="round"/>
<path d="M38.382 104.117H16.1016V143.813H38.382V104.117Z" stroke="black" stroke-linejoin="round"/>
<path d="M62.8468 104.117H40.5664V143.813H62.8468V104.117Z" stroke="black" stroke-linejoin="round"/>
<path d="M87.3156 104.117H65.0352V143.813H87.3156V104.117Z" stroke="black" stroke-linejoin="round"/>
<path d="M38.382 147.199H16.1016V186.895H38.382V147.199Z" stroke="black" stroke-linejoin="round"/>
<path d="M62.8468 147.199H40.5664V186.895H62.8468V147.199Z" stroke="black" stroke-linejoin="round"/>
<path d="M87.3156 147.199H65.0352V186.895H87.3156V147.199Z" stroke="black" stroke-linejoin="round"/>
</g>
<path d="M10.0469 230.783H364.205" stroke="#263238" stroke-linejoin="round"/>
<path d="M335.478 150.222C335.485 150.214 335.489 150.203 335.489 150.192C335.489 150.181 335.485 150.17 335.478 150.162C335.472 150.159 335.465 150.157 335.459 150.156C335.452 150.156 335.445 150.157 335.439 150.159C335.433 150.162 335.427 150.165 335.423 150.17C335.418 150.175 335.415 150.181 335.413 150.187C333.977 153.622 332.843 157.174 332.022 160.804C331.18 164.434 330.544 168.109 330.117 171.81L329.848 174.594C329.808 175.057 329.758 175.52 329.723 175.988L329.648 177.383C329.608 178.314 329.553 179.245 329.523 180.177V182.975L329.558 184.37C329.558 184.838 329.613 185.301 329.643 185.769C329.713 186.695 329.768 203.114 329.853 204.041C330.032 205.893 330.311 207.741 330.601 209.574C330.598 209.581 330.597 209.589 330.599 209.597C330.6 209.605 330.603 209.612 330.608 209.618C330.612 209.625 330.618 209.63 330.625 209.633C330.632 209.637 330.64 209.639 330.648 209.639C330.656 209.639 330.664 209.637 330.671 209.633C330.678 209.63 330.684 209.625 330.688 209.618C330.693 209.612 330.696 209.605 330.697 209.597C330.698 209.589 330.698 209.581 330.695 209.574C330.695 208.642 330.655 207.716 330.63 206.785C330.606 205.853 330.526 204.937 330.536 204.011C330.546 203.085 330.536 186.67 330.506 185.749L330.481 184.36L330.506 182.975V180.206L330.581 177.433L330.606 176.048C330.606 175.585 330.66 175.127 330.685 174.664L330.855 171.895C331.173 168.216 331.697 164.559 332.426 160.939C333.132 157.286 334.153 153.7 335.478 150.222Z" fill="#263238"/>
<path d="M335.876 164.714C335.879 164.708 335.88 164.702 335.879 164.695C335.879 164.688 335.878 164.682 335.875 164.676C335.872 164.67 335.868 164.664 335.863 164.66C335.858 164.655 335.853 164.652 335.846 164.65C335.84 164.647 335.834 164.646 335.827 164.647C335.82 164.647 335.814 164.648 335.808 164.651C335.802 164.654 335.796 164.658 335.792 164.663C335.787 164.668 335.784 164.673 335.782 164.679C334.198 169.303 333.144 174.091 332.64 178.952C332.396 181.377 332.141 183.808 332.091 186.243C332.042 188.678 332.091 206.606 332.351 209.041C332.351 209.053 332.356 209.065 332.364 209.073C332.372 209.081 332.384 209.086 332.396 209.086C332.402 209.087 332.408 209.086 332.414 209.084C332.42 209.082 332.426 209.079 332.431 209.075C332.435 209.071 332.439 209.065 332.442 209.06C332.444 209.054 332.446 209.048 332.446 209.041C332.73 206.616 332.904 188.708 333.069 186.288C333.233 183.867 333.263 181.437 333.423 179.017C333.763 174.18 334.584 169.389 335.876 164.714Z" fill="#263238"/>
<path d="M343.92 169.819C343.911 169.811 343.899 169.807 343.888 169.807C343.876 169.807 343.864 169.811 343.855 169.819C341.843 171.111 340.031 172.69 338.475 174.505C337.691 175.416 336.987 176.392 336.37 177.423L335.936 178.24L335.602 179.086C335.485 179.366 335.386 179.652 335.303 179.943C335.218 180.232 335.123 180.521 335.044 180.809C334.44 183.135 334.046 200.998 333.932 203.379C333.81 205.762 333.899 208.152 334.196 210.52C334.199 210.53 334.204 210.54 334.212 210.547C334.22 210.554 334.23 210.558 334.241 210.56C334.248 210.562 334.254 210.561 334.261 210.56C334.268 210.558 334.274 210.555 334.279 210.551C334.285 210.547 334.289 210.541 334.292 210.535C334.294 210.529 334.296 210.522 334.296 210.515L334.909 203.449C335.153 201.113 335.303 183.28 335.807 180.999C335.866 180.715 335.951 180.436 336.021 180.152C336.089 179.871 336.172 179.593 336.27 179.32L336.56 178.504L336.929 177.732C337.488 176.708 338.132 175.731 338.854 174.814C340.289 172.94 341.99 171.285 343.905 169.903C343.915 169.902 343.924 169.898 343.931 169.891C343.938 169.885 343.942 169.876 343.944 169.867C343.946 169.857 343.944 169.847 343.94 169.839C343.936 169.83 343.929 169.823 343.92 169.819Z" fill="#263238"/>
<path d="M340.024 178.887C338.98 179.651 338.14 180.66 337.58 181.825C336.99 182.968 336.53 184.174 336.209 185.42C336.114 185.729 336.034 186.038 335.97 186.352L335.75 187.293C335.636 187.925 335.546 204.046 335.511 204.688C335.476 205.331 335.486 205.968 335.511 206.605C335.56 207.245 335.645 207.882 335.765 208.513C335.765 208.513 335.765 208.553 335.805 208.553C335.811 208.554 335.818 208.554 335.824 208.553C335.83 208.552 335.836 208.549 335.842 208.545C335.847 208.541 335.851 208.537 335.854 208.531C335.857 208.525 335.859 208.519 335.86 208.513C336.011 207.894 336.124 207.267 336.199 206.635C336.299 206.013 336.398 205.395 336.473 204.778C336.548 204.16 336.643 203.548 336.693 202.925C336.743 202.303 336.822 186.202 336.957 185.6C337.174 184.376 337.527 183.18 338.009 182.034C338.439 180.865 339.141 179.815 340.059 178.971C340.066 178.962 340.071 178.951 340.071 178.939C340.071 178.927 340.066 178.916 340.059 178.907C340.055 178.901 340.049 178.896 340.043 178.893C340.037 178.89 340.031 178.887 340.024 178.887Z" fill="#263238"/>
<path d="M328.745 185.964C328.48 182.826 327.962 179.724 327.473 176.616C326.984 173.509 326.441 170.421 325.872 167.334C325.304 164.246 324.666 161.168 324.002 158.101C324.001 158.094 323.999 158.088 323.995 158.082C323.991 158.076 323.987 158.072 323.981 158.068C323.975 158.064 323.969 158.062 323.963 158.06C323.956 158.059 323.949 158.059 323.943 158.061C323.93 158.063 323.919 158.07 323.912 158.08C323.904 158.09 323.901 158.103 323.903 158.116C324.441 161.208 324.93 164.311 325.399 167.413C325.867 170.516 326.311 173.618 326.705 176.731C327.099 179.843 327.388 182.961 327.777 186.068L328.929 210.889C328.929 210.894 328.93 210.9 328.933 210.906C328.935 210.911 328.938 210.916 328.942 210.92C328.947 210.924 328.952 210.928 328.957 210.93C328.962 210.932 328.968 210.933 328.974 210.933C328.981 210.934 328.988 210.933 328.994 210.931C329.001 210.929 329.006 210.925 329.011 210.921C329.016 210.916 329.02 210.91 329.022 210.904C329.024 210.897 329.025 210.89 329.024 210.884C329.064 210.097 329.064 209.31 329.084 208.523C329.104 207.736 329.049 206.949 329.034 206.163C328.999 204.589 328.864 187.532 328.745 185.964Z" fill="#263238"/>
<path d="M326.859 185.918C326.695 184.673 326.465 183.428 326.226 182.208L325.787 180.381C325.643 179.768 325.503 179.156 325.323 178.553C324.699 176.121 323.897 173.737 322.925 171.422L322.551 170.56L322.132 169.714C321.863 169.146 321.543 168.603 321.234 168.055C320.617 166.962 319.856 165.957 318.97 165.067C318.961 165.059 318.948 165.055 318.935 165.055C318.923 165.055 318.91 165.059 318.901 165.067C318.896 165.071 318.893 165.076 318.89 165.082C318.888 165.088 318.887 165.094 318.887 165.1C318.887 165.106 318.888 165.112 318.89 165.117C318.893 165.123 318.896 165.128 318.901 165.132C319.727 166.059 320.424 167.092 320.975 168.205C321.249 168.762 321.539 169.31 321.768 169.883L322.137 170.739L322.466 171.611C323.334 173.937 324.034 176.322 324.56 178.747C324.845 179.952 325.059 181.182 325.269 182.398L325.563 184.235C325.667 184.848 325.802 185.455 325.887 186.068C326.081 187.298 326.306 203.996 326.52 205.231C326.735 206.466 326.939 207.691 327.198 208.921C327.201 208.931 327.207 208.941 327.215 208.948C327.223 208.955 327.233 208.959 327.243 208.961C327.256 208.961 327.269 208.956 327.279 208.946C327.288 208.937 327.293 208.924 327.293 208.911C327.293 207.656 327.293 206.421 327.208 205.151C327.124 203.881 326.989 187.163 326.859 185.918Z" fill="#263238"/>
<path d="M324.262 186.078C323.678 184.434 323.005 182.821 322.267 181.242C321.527 179.667 320.694 178.138 319.774 176.661C319.764 176.653 319.751 176.649 319.739 176.649C319.726 176.649 319.714 176.653 319.704 176.661C319.696 176.67 319.691 176.683 319.691 176.695C319.691 176.708 319.696 176.721 319.704 176.73C320.509 178.26 321.222 179.836 321.838 181.451C322.477 183.055 323.05 184.683 323.534 186.337C324.017 187.99 324.376 205.161 324.815 206.82C325.254 208.478 325.628 210.156 326.127 211.814C326.13 211.825 326.137 211.835 326.146 211.842C326.155 211.849 326.165 211.853 326.177 211.854C326.189 211.853 326.202 211.848 326.211 211.838C326.22 211.829 326.225 211.817 326.227 211.804C326.243 210.052 326.076 208.303 325.728 206.585C325.449 204.857 324.84 187.746 324.262 186.078Z" fill="#263238"/>
<path d="M324.133 207.044C323.815 206.018 323.349 205.043 322.751 204.15C322.188 203.239 321.53 186.895 320.757 186.168C320.357 185.81 319.929 185.487 319.475 185.202C319.027 184.913 318.538 184.693 318.024 184.549C318.013 184.548 318.002 184.55 317.993 184.556C317.983 184.562 317.976 184.57 317.972 184.581C317.968 184.591 317.968 184.602 317.971 184.613C317.974 184.623 317.98 184.632 317.989 184.639C318.915 185.085 319.736 185.721 320.398 186.506C321.076 187.263 321.619 203.623 322.073 204.529C322.527 205.435 322.796 206.426 323.21 207.353C323.395 207.851 323.574 208.309 323.789 208.782C323.967 209.278 324.176 209.762 324.417 210.231C324.42 210.239 324.426 210.245 324.433 210.25C324.44 210.254 324.448 210.256 324.457 210.256C324.47 210.256 324.482 210.252 324.492 210.244C324.502 210.235 324.509 210.224 324.512 210.211C324.527 209.676 324.507 209.14 324.452 208.608C324.392 208.09 324.282 207.567 324.133 207.044Z" fill="#263238"/>
<path d="M324.348 162.587C322.78 162.15 321.362 161.294 320.245 160.111C319.129 158.928 318.358 157.463 318.015 155.874C316.828 150.337 320.658 152.707 317.227 144.012C313.796 135.317 314.584 133.34 315.771 130.835C316.957 128.33 317.621 129.122 318.678 132.414C319.735 135.705 323.56 140.85 325.011 150.471C326.462 160.092 324.348 162.587 324.348 162.587Z" fill="#01A99E"/>
<path d="M334.51 153.23C334.51 153.23 331.08 152.045 330.95 145.591C330.82 139.137 333.443 140.451 333.852 132.409C334.261 124.366 334.775 118.704 336.226 118.574C337.677 118.445 341.502 122.508 342.823 131.472C344.145 140.436 341.108 146.363 338.47 149.002C335.832 151.641 334.51 153.23 334.51 153.23Z" fill="#01A99E"/>
<path d="M322.503 170.361C322.503 170.361 321.71 165.62 320.129 163.389C318.548 161.158 315.113 159.171 312.869 154.823C310.625 150.476 308.121 148.349 308.251 154.559C308.381 160.769 311.153 163.917 314.584 166.013C318.015 168.11 322.503 170.361 322.503 170.361Z" fill="#01A99E"/>
<path d="M321.048 178.534C321.048 178.534 317.882 172.473 313.264 167.991C308.646 163.509 304.951 161.268 306.283 163.509C307.614 165.75 309.185 165.621 311.429 169.575C313.673 173.529 313.015 176.427 316.181 178.663C319.348 180.899 321.048 178.534 321.048 178.534Z" fill="#01A99E"/>
<path d="M320.64 186.307C320.506 185.913 320.376 183.015 315.888 180.64C311.4 178.264 307.176 179.19 307.705 180.376C308.234 181.561 311.006 183.543 313.774 184.728C316.541 185.913 320.64 186.307 320.64 186.307Z" fill="#01A99E"/>
<path d="M334.243 170.625C334.243 170.625 332.248 168.135 333.321 162.851C334.393 157.567 336.751 158.897 339.389 156.128C342.027 153.359 341.499 152.966 344.142 150.068C346.785 147.169 349.128 145.586 350.21 146.776C351.292 147.966 349.682 151.651 348.101 153.748C346.52 155.844 344.007 156.91 342.82 159.549C341.633 162.189 342.162 166.402 339.125 168.374C336.088 170.346 334.243 170.625 334.243 170.625Z" fill="#01A99E"/>
<path d="M340.844 172.074C340.844 172.074 345.596 166.671 349.027 162.722C352.458 158.773 353.774 155.75 353.909 158.37C354.043 160.989 355.096 163.115 352.323 166.542C349.55 169.968 340.844 172.074 340.844 172.074Z" fill="#01A99E"/>
<path d="M338.332 180.774C338.332 180.774 338.203 178.663 345.722 173.802C353.242 168.942 356.414 168.006 355.621 169.983C354.828 171.96 351.532 173.937 347.966 177.492C344.401 181.048 338.332 180.774 338.332 180.774Z" fill="#01A99E"/>
<path d="M324.659 162.025C324.659 162.025 322.894 152.563 321.049 145.849C319.204 139.136 318.012 135.048 318.012 135.048" stroke="#ABABAB" stroke-linecap="round" stroke-linejoin="round"/>
<path d="M334.203 153.33C334.203 153.33 337.41 143.086 338.467 136.896C339.524 130.706 338.332 126.089 337.808 123.32" stroke="#ABABAB" stroke-linecap="round" stroke-linejoin="round"/>
<path d="M322.087 170.167C320.666 167.726 319.04 165.41 317.225 163.245C314.318 159.819 312.074 157.976 310.742 154.68" stroke="#ABABAB" stroke-linecap="round" stroke-linejoin="round"/>
<path d="M334.246 170.626C334.246 170.626 335.303 164.301 337.812 161.009C340.32 157.717 345.331 152.573 347.311 149.276" stroke="#ABABAB" stroke-linecap="round" stroke-linejoin="round"/>
<path d="M320.343 186.163C320.343 186.163 315.905 183.279 312.738 181.681" stroke="#ABABAB" stroke-linecap="round" stroke-linejoin="round"/>
<path d="M332.57 230.783H326.76C326.258 230.783 325.766 230.635 325.347 230.356C324.928 230.078 324.601 229.683 324.407 229.22C322.507 224.678 320.492 202.955 320.492 202.955H338.833C338.833 202.955 336.838 224.678 334.924 229.22C334.729 229.682 334.401 230.078 333.983 230.356C333.564 230.634 333.073 230.783 332.57 230.783Z" fill="#263238"/>
<path d="M332.977 170.316C332.977 170.316 330.484 172.941 328.489 172.169C326.495 171.397 325.073 169.798 322.919 171.447C320.765 173.095 322.161 176.292 324.63 179.709C327.098 183.125 328.714 184.689 330.534 182.965C332.354 181.242 336.837 178.937 336.991 174.46C337.146 169.983 337.46 168.439 332.977 170.316Z" fill="#01A99E"/>
<path d="M336.535 183.264C335.621 184.325 334.362 185.031 332.979 185.256C330.541 185.754 327.664 183.468 327.768 186.063C327.873 188.657 330.197 190.968 333.752 190.814C337.308 190.659 339.776 191.431 340.395 192.806C341.013 194.18 342.888 192.96 342.095 188.792C341.302 184.624 339.776 182.637 336.535 183.264Z" fill="#01A99E"/>
<path d="M326.021 190.048C325.045 189.868 324.04 189.921 323.089 190.202C321.388 190.665 320.924 191.9 321.543 193.598C322.161 195.297 323.707 196.835 324.325 195.59C324.944 194.345 325.093 193.598 326.819 193.125C328.544 192.652 328.03 190.048 326.021 190.048Z" fill="#01A99E"/>
<path d="M42.2097 150.222C42.2122 150.216 42.2134 150.21 42.2135 150.204C42.2135 150.198 42.2124 150.192 42.21 150.187C42.2077 150.181 42.2043 150.176 42.1999 150.172C42.1956 150.168 42.1904 150.164 42.1848 150.162C42.179 150.159 42.1726 150.157 42.166 150.156C42.1593 150.156 42.1527 150.157 42.1465 150.159C42.1403 150.162 42.1347 150.165 42.1301 150.17C42.1255 150.175 42.1221 150.181 42.12 150.187C40.6845 153.622 39.55 157.174 38.729 160.804C37.8995 164.435 37.2751 168.109 36.859 171.81L36.5898 174.594C36.5499 175.057 36.5 175.52 36.4651 175.988L36.3903 177.383C36.3504 178.314 36.2906 179.245 36.2656 180.177V182.975L36.3005 184.37C36.3005 184.838 36.3504 185.301 36.3853 185.769C36.4551 186.695 36.51 203.114 36.5947 204.041C36.7743 205.893 37.0535 207.741 37.3427 209.574C37.344 209.586 37.3498 209.597 37.359 209.606C37.3682 209.614 37.3802 209.618 37.3926 209.618C37.4046 209.616 37.4154 209.61 37.4236 209.601C37.4317 209.592 37.4366 209.581 37.4375 209.569C37.4375 208.637 37.3926 207.711 37.3727 206.78C37.3527 205.848 37.2679 204.932 37.2779 204.006C37.2879 203.08 37.2779 186.666 37.248 185.744V184.355V182.97V180.201L37.3278 177.428V176.043C37.3278 175.58 37.3826 175.122 37.4076 174.659L37.5771 171.89C37.8949 168.211 38.4193 164.554 39.1479 160.934C39.8582 157.282 40.8826 153.698 42.2097 150.222Z" fill="#263238"/>
<path d="M42.6103 164.714C42.6126 164.708 42.6137 164.702 42.6134 164.695C42.6131 164.688 42.6116 164.682 42.6088 164.676C42.606 164.67 42.6021 164.664 42.5972 164.66C42.5923 164.655 42.5866 164.652 42.5804 164.65C42.5742 164.647 42.5676 164.646 42.5609 164.647C42.5543 164.647 42.5478 164.648 42.5418 164.651C42.5358 164.654 42.5304 164.658 42.5259 164.663C42.5214 164.668 42.5179 164.673 42.5156 164.679C40.9383 169.304 39.8911 174.092 39.3939 178.952C39.1496 181.377 38.8953 183.808 38.8454 186.243C38.7955 188.678 38.8454 206.606 39.1047 209.041C39.1046 209.052 39.1087 209.063 39.116 209.071C39.1234 209.08 39.1336 209.085 39.1446 209.086C39.1513 209.088 39.1582 209.088 39.1648 209.086C39.1715 209.085 39.1777 209.081 39.183 209.077C39.1883 209.073 39.1925 209.067 39.1954 209.061C39.1982 209.055 39.1996 209.048 39.1994 209.041C39.4837 206.616 39.6532 188.708 39.8228 186.288C39.9923 183.867 40.0173 181.437 40.1768 179.017C40.5165 174.18 41.3384 169.389 42.6303 164.714H42.6103Z" fill="#263238"/>
<path d="M50.6543 169.818C50.6445 169.81 50.6322 169.806 50.6194 169.806C50.6067 169.806 50.5943 169.81 50.5845 169.818C48.575 171.112 46.7643 172.691 45.2089 174.504C44.4254 175.415 43.7214 176.392 43.1045 177.423L42.6707 178.239L42.3366 179.086C42.2198 179.365 42.1199 179.651 42.0374 179.943C41.9526 180.231 41.8529 180.52 41.7781 180.809C41.1747 183.135 40.7807 200.998 40.666 203.378C40.5445 205.762 40.633 208.152 40.9303 210.52C40.9331 210.53 40.9389 210.539 40.9468 210.546C40.9548 210.553 40.9647 210.558 40.9752 210.56C40.9819 210.561 40.9888 210.561 40.9955 210.56C41.0021 210.558 41.0083 210.555 41.0136 210.551C41.0189 210.546 41.0231 210.541 41.026 210.535C41.0288 210.528 41.0302 210.522 41.0301 210.515L41.6434 203.448C41.8878 201.113 42.0374 183.279 42.536 180.998C42.6009 180.714 42.6856 180.436 42.7555 180.152C42.8234 179.87 42.9066 179.593 43.0048 179.32L43.289 178.503L43.663 177.731C44.2201 176.701 44.8641 175.72 45.5879 174.798C47.023 172.924 48.7248 171.27 50.6394 169.888C50.6456 169.885 50.6511 169.881 50.6554 169.875C50.6597 169.87 50.6627 169.863 50.6641 169.857C50.6656 169.85 50.6655 169.843 50.6638 169.836C50.6621 169.83 50.6588 169.823 50.6543 169.818Z" fill="#263238"/>
<path d="M46.7599 178.887C45.7133 179.648 44.8734 180.658 44.3165 181.825C43.7258 182.968 43.2658 184.174 42.9451 185.42C42.8504 185.729 42.7706 186.038 42.7058 186.352L42.4814 187.293C42.3717 187.925 42.2819 204.046 42.247 204.688C42.2121 205.331 42.2171 205.968 42.247 206.605C42.294 207.246 42.3789 207.883 42.5013 208.513C42.5013 208.513 42.5013 208.553 42.5412 208.553C42.5475 208.554 42.554 208.554 42.5603 208.553C42.5666 208.552 42.5725 208.549 42.5777 208.545C42.583 208.541 42.5873 208.537 42.5904 208.531C42.5936 208.525 42.5955 208.519 42.5961 208.513C42.7448 207.894 42.858 207.267 42.9352 206.635C43.0349 206.013 43.1346 205.395 43.2094 204.778C43.2842 204.16 43.379 203.548 43.4288 202.925C43.4787 202.303 43.5585 186.202 43.6931 185.6C43.908 184.375 44.261 183.179 44.7453 182.034C45.175 180.865 45.8776 179.815 46.7948 178.971C46.8017 178.962 46.8054 178.951 46.8054 178.939C46.8054 178.927 46.8017 178.916 46.7948 178.907C46.7907 178.901 46.7855 178.896 46.7795 178.893C46.7735 178.89 46.7668 178.887 46.7599 178.887Z" fill="#263238"/>
<path d="M35.4791 185.964C35.2148 182.827 34.6962 179.724 34.2075 176.616C33.7188 173.509 33.1753 170.421 32.6068 167.329C32.0383 164.236 31.415 161.169 30.7368 158.101C30.7333 158.088 30.7253 158.077 30.7143 158.07C30.7033 158.062 30.6901 158.059 30.677 158.061C30.6646 158.063 30.6537 158.07 30.6463 158.081C30.6389 158.091 30.6356 158.103 30.6371 158.116C31.1756 161.208 31.6643 164.311 32.1331 167.413C32.6018 170.516 33.0456 173.619 33.4396 176.731C33.8335 179.844 34.1228 182.961 34.5117 186.069L35.6636 210.889C35.6636 210.901 35.6684 210.912 35.6768 210.921C35.6852 210.929 35.6966 210.934 35.7085 210.934C35.7151 210.934 35.7215 210.932 35.7276 210.93C35.7336 210.927 35.7391 210.924 35.7438 210.919C35.7484 210.914 35.7521 210.909 35.7546 210.903C35.7571 210.897 35.7584 210.89 35.7584 210.884C35.7983 210.097 35.7983 209.31 35.8182 208.523C35.8382 207.736 35.7833 206.95 35.7684 206.163C35.7334 204.589 35.5988 187.533 35.4791 185.964Z" fill="#263238"/>
<path d="M33.5937 185.918C33.4291 184.673 33.1997 183.428 32.9603 182.208L32.5215 180.381C32.3769 179.768 32.2373 179.156 32.0578 178.553C31.4334 176.121 30.6318 173.737 29.6592 171.422L29.2802 170.56L28.8663 169.714C28.597 169.146 28.2779 168.603 27.9687 168.055C27.3518 166.962 26.5903 165.957 25.7047 165.067C25.6949 165.059 25.6826 165.055 25.6698 165.055C25.6571 165.055 25.6448 165.059 25.6349 165.067C25.6306 165.071 25.6271 165.076 25.6247 165.082C25.6223 165.088 25.6211 165.094 25.6211 165.1C25.6211 165.106 25.6223 165.112 25.6247 165.117C25.6271 165.123 25.6306 165.128 25.6349 165.132C26.4609 166.059 27.1586 167.092 27.7094 168.205C27.9837 168.762 28.2729 169.31 28.5023 169.883L28.8713 170.739L29.2004 171.611C30.0686 173.937 30.7685 176.322 31.2948 178.747C31.579 179.952 31.7685 181.182 32.0029 182.398L32.2971 184.235C32.4018 184.848 32.5315 185.455 32.6213 186.068C32.8157 187.298 33.0401 203.996 33.2546 205.231C33.469 206.466 33.6734 207.691 33.9327 208.921C33.9355 208.931 33.9413 208.941 33.9492 208.948C33.9572 208.955 33.9671 208.959 33.9776 208.961C33.9909 208.961 34.0035 208.956 34.0129 208.946C34.0222 208.937 34.0275 208.924 34.0275 208.911C34.0275 207.656 34.0275 206.421 33.9427 205.151C33.8579 203.881 33.7233 187.163 33.5937 185.918Z" fill="#263238"/>
<path d="M30.9961 186.078C30.4127 184.434 29.7395 182.821 29.0015 181.242C28.2612 179.667 27.4287 178.138 26.5081 176.661C26.498 176.653 26.4858 176.649 26.4732 176.649C26.4607 176.649 26.4485 176.653 26.4383 176.661C26.4302 176.67 26.4258 176.683 26.4258 176.695C26.4258 176.708 26.4302 176.721 26.4383 176.73C27.2437 178.26 27.9564 179.836 28.5726 181.451C29.2109 183.055 29.7844 184.683 30.2681 186.337C30.7518 187.99 31.1108 205.161 31.5497 206.82C31.9885 208.478 32.3874 210.151 32.8961 211.829C32.8998 211.84 32.9064 211.849 32.9152 211.857C32.924 211.864 32.9347 211.868 32.9459 211.869C32.9584 211.867 32.97 211.861 32.979 211.852C32.9879 211.844 32.9938 211.832 32.9958 211.819C33.0123 210.067 32.8452 208.318 32.4971 206.6C32.183 204.857 31.5746 187.746 30.9961 186.078Z" fill="#263238"/>
<path d="M30.8873 207.044C30.5694 206.018 30.1041 205.043 29.506 204.151C28.9425 203.239 28.2843 186.895 27.5114 186.168C27.112 185.811 26.6833 185.487 26.2298 185.202C25.7813 184.913 25.2922 184.693 24.7787 184.549C24.7674 184.547 24.7554 184.548 24.7447 184.552C24.7339 184.557 24.7249 184.564 24.7188 184.574C24.7138 184.586 24.7135 184.6 24.7182 184.612C24.7228 184.624 24.732 184.634 24.7438 184.639C25.6688 185.084 26.4882 185.72 27.1473 186.507C27.8305 187.263 28.3741 203.623 28.8279 204.529C29.2816 205.436 29.5509 206.427 29.9648 207.353C30.1493 207.851 30.3288 208.309 30.5433 208.782C30.7191 209.279 30.929 209.763 31.1716 210.231C31.1765 210.239 31.1831 210.245 31.1909 210.249C31.1988 210.254 31.2075 210.256 31.2165 210.256C31.2228 210.257 31.2291 210.256 31.2352 210.254C31.2412 210.252 31.2468 210.249 31.2515 210.245C31.2562 210.241 31.26 210.236 31.2625 210.23C31.2651 210.224 31.2664 210.218 31.2663 210.211C31.2863 209.676 31.2663 209.14 31.2065 208.608C31.1267 208.081 31.0202 207.56 30.8873 207.044Z" fill="#263238"/>
<path d="M31.0804 162.587C29.5127 162.15 28.0942 161.294 26.9781 160.111C25.862 158.928 25.0907 157.463 24.7473 155.874C23.5605 150.337 27.3853 152.707 23.9544 144.012C20.5236 135.317 21.3165 133.34 22.5033 130.835C23.6901 128.33 24.3534 129.122 25.4056 132.414C26.4577 135.705 30.2925 140.85 31.7436 150.471C33.1947 160.092 31.0804 162.587 31.0804 162.587Z" fill="#01A99E"/>
<path d="M41.2423 153.23C41.2423 153.23 37.8115 152.045 37.6769 145.591C37.5422 139.137 40.1702 140.451 40.5841 132.409C40.998 124.366 41.5066 118.704 42.9578 118.574C44.4089 118.445 48.2336 122.508 49.5551 131.472C50.8766 140.436 47.8397 146.363 45.2018 149.002C42.5638 151.641 41.2423 153.23 41.2423 153.23Z" fill="#01A99E"/>
<path d="M29.2372 170.361C29.2372 170.361 28.4443 165.62 26.8635 163.389C25.2828 161.158 21.847 159.171 19.603 154.823C17.359 150.476 14.8556 148.349 14.9853 154.559C15.115 160.769 17.8875 163.917 21.3184 166.013C24.7492 168.11 29.2372 170.361 29.2372 170.361Z" fill="#01A99E"/>
<path d="M27.7842 178.534C27.7842 178.534 24.6176 172.473 20 167.991C15.3823 163.509 11.6822 161.268 13.0186 163.509C14.3551 165.75 15.9209 165.621 18.1649 169.575C20.4089 173.529 19.7506 176.427 22.9172 178.663C26.0837 180.899 27.7842 178.534 27.7842 178.534Z" fill="#01A99E"/>
<path d="M27.3852 186.307C27.2555 185.913 27.1209 183.015 22.6379 180.64C18.1548 178.264 13.9262 179.19 14.4597 180.376C14.9933 181.561 17.7609 183.543 20.5285 184.728C23.2961 185.913 27.3852 186.307 27.3852 186.307Z" fill="#01A99E"/>
<path d="M40.9774 170.625C40.9774 170.625 38.9827 168.135 40.0549 162.851C41.127 157.567 43.4857 158.897 46.1237 156.128C48.7616 153.359 48.233 152.966 50.8759 150.068C53.5189 147.169 55.8626 145.586 56.9447 146.776C58.0268 147.966 56.4161 151.651 54.8304 153.748C53.2446 155.844 50.7413 156.91 49.5545 159.549C48.3677 162.189 48.8962 166.412 45.8743 168.384C42.8524 170.356 40.9774 170.625 40.9774 170.625Z" fill="#01A99E"/>
<path d="M47.5781 172.074C47.5781 172.074 52.3304 166.671 55.7612 162.722C59.1921 158.773 60.5086 155.75 60.6432 158.37C60.7778 160.989 61.83 163.115 59.0574 166.542C56.2848 169.968 47.5781 172.074 47.5781 172.074Z" fill="#01A99E"/>
<path d="M45.0666 180.774C45.0666 180.774 44.9369 178.663 52.4568 173.802C59.9767 168.942 63.1482 168.006 62.3553 169.983C61.5624 171.96 58.2663 173.937 54.7008 177.492C51.1353 181.048 45.0666 180.774 45.0666 180.774Z" fill="#01A99E"/>
<path d="M31.4129 162.025C31.4129 162.025 29.6476 152.563 27.8025 145.849C25.9574 139.136 24.7656 135.048 24.7656 135.048" stroke="#ABABAB" stroke-linecap="round" stroke-linejoin="round"/>
<path d="M40.9375 153.33C40.9375 153.33 44.1439 143.086 45.2011 136.896C46.2583 130.706 45.0665 126.089 44.5379 123.32" stroke="#ABABAB" stroke-linecap="round" stroke-linejoin="round"/>
<path d="M28.8177 170.167C27.3928 167.724 25.7594 165.408 23.9358 163.245C21.0336 159.819 18.7896 157.976 17.4531 154.68" stroke="#ABABAB" stroke-linecap="round" stroke-linejoin="round"/>
<path d="M40.9805 170.626C40.9805 170.626 42.0376 164.301 44.5409 161.009C47.0443 157.717 52.0658 152.573 54.0455 149.276" stroke="#ABABAB" stroke-linecap="round" stroke-linejoin="round"/>
<path d="M27.0773 186.163C27.0773 186.163 22.6392 183.279 19.4727 181.681" stroke="#ABABAB" stroke-linecap="round" stroke-linejoin="round"/>
<path d="M39.3043 230.783H33.4948C32.9919 230.783 32.5002 230.635 32.0815 230.356C31.6627 230.078 31.3356 229.683 31.1411 229.22C29.2412 224.678 27.2266 202.955 27.2266 202.955H45.5675C45.5675 202.955 43.5729 224.678 41.658 229.22C41.4629 229.682 41.1357 230.078 40.7171 230.356C40.2984 230.634 39.8071 230.783 39.3043 230.783Z" fill="#263238"/>
<path d="M37.8964 172.742C37.8964 172.742 34.3259 173.683 32.4409 171.995C30.556 170.307 27.7435 169.928 27.175 172.369C26.6065 174.809 27.3645 177.254 29.06 180.835C30.7555 184.415 33.3385 181.92 33.3834 180.461C33.4283 179.002 35.1886 177.847 37.3728 178.31C39.5569 178.773 43.3518 173.494 37.8964 172.742Z" fill="#01A99E"/>
<path d="M44.1069 182.323C44.1069 182.323 45.7326 184.385 41.4391 183.165C37.1455 181.944 35.3005 180.948 34.9065 183.513C34.5126 186.078 37.8985 186.641 40.1575 187.203C42.4164 187.766 44.2914 191.715 45.7974 194.175C47.3034 196.635 50.2854 193.797 48.6199 187.975C46.9543 182.154 47.2336 179.604 44.1069 182.323Z" fill="#01A99E"/>
<path opacity="0.3" d="M285.966 18.082H94.2383V125.989H285.966V18.082Z" stroke="black" stroke-linejoin="round"/>
<path opacity="0.3" d="M285.966 115.954H94.2383V125.994H285.966V115.954Z" stroke="black" stroke-linejoin="round"/>
<g opacity="0.3">
<path d="M143.407 36.2197H112.898V56.329H143.407V36.2197Z" stroke="black" stroke-linejoin="round"/>
<path d="M119.606 73.7041H108.281V85.8702H119.606V73.7041Z" stroke="black" stroke-linejoin="round"/>
<path d="M138.09 73.7041H126.766V85.8702H138.09V73.7041Z" stroke="black" stroke-linejoin="round"/>
<path d="M156.583 73.7041H145.258V85.8702H156.583V73.7041Z" stroke="black" stroke-linejoin="round"/>
<path d="M245.79 58.0664H234.465V70.2325H245.79V58.0664Z" stroke="black" stroke-linejoin="round"/>
<path d="M143.637 45.4074H175.995V33.4902H239.78V58.3155" stroke="black" stroke-linejoin="round"/>
<path d="M272.593 55.5869H250.871V60.552H272.593V55.5869Z" stroke="black" stroke-linejoin="round"/>
<path d="M272.593 64.5205H250.871V69.4856H272.593V64.5205Z" stroke="black" stroke-linejoin="round"/>
<path d="M272.593 73.46H250.871V78.425H272.593V73.46Z" stroke="black" stroke-linejoin="round"/>
<path d="M272.593 82.3936H250.871V87.3586H272.593V82.3936Z" stroke="black" stroke-linejoin="round"/>
<path d="M272.593 91.333H250.871V96.2981H272.593V91.333Z" stroke="black" stroke-linejoin="round"/>
<path d="M126.766 56.5771V67.2493" stroke="black" stroke-linejoin="round"/>
<path d="M113.828 73.4599V67.0059H151.049V73.4599" stroke="black" stroke-linejoin="round"/>
<path d="M132.547 73.7041V67.25" stroke="black" stroke-linejoin="round"/>
<path d="M122.258 42.1807H134.046" stroke="black" stroke-linejoin="round"/>
<path d="M122.258 50.3721H134.046" stroke="black" stroke-linejoin="round"/>
<path d="M118.562 46.1494H137.741" stroke="black" stroke-linejoin="round"/>
</g>
<path d="M308.794 193.98H49.8516V230.778H308.794V193.98Z" fill="#7D7D7D" stroke="#263238" stroke-linejoin="round"/>
<path d="M165.29 182.826C165.29 182.826 164.622 186.955 164.507 187.308C164.392 187.662 162.607 191.437 162.383 192.443C162.158 193.449 163.614 194.006 164.507 194.006C165.4 194.006 170.321 194.34 170.88 193.897C171.438 193.453 172.002 191.994 171.877 190.879C171.753 189.763 170.985 182.951 170.985 182.951L165.29 182.826Z" fill="white" stroke="#263238" stroke-linejoin="round"/>
<path d="M194.698 183.498C194.698 183.498 196.04 185.62 196.693 186.177C197.346 186.735 201.39 190.868 202.732 191.312C204.073 191.755 203.849 192.766 203.066 193.548C202.283 194.33 198.034 194.105 195.8 193.881C193.566 193.657 190.993 193.881 190.659 193.757C190.325 193.632 188.201 193.647 187.193 193.085C186.186 192.522 186.635 188.398 186.635 188.398L194.698 183.498Z" fill="white" stroke="#263238" stroke-linejoin="round"/>
<path d="M170.878 110.197C170.878 110.197 168.31 120.471 168.55 127.488C168.789 134.505 167.208 152.617 167.208 153.175C167.208 153.732 165.981 156.969 165.981 159.987C165.981 163.005 165.642 180.017 165.642 180.017C165.642 180.017 164.301 180.241 164.525 181.471C164.75 182.701 164.974 184.484 164.974 184.484C164.974 184.484 166.969 184.593 168.55 184.817C169.518 184.95 170.501 184.912 171.457 184.708C171.457 184.708 172.454 181.914 172.579 180.465C172.703 179.016 172.354 178.523 172.354 176.849C172.354 175.176 181.969 127.049 181.969 127.049L185.549 155.411C185.549 155.411 185.774 169.803 186.447 173.837C186.842 176.141 187.066 178.471 187.115 180.809C187.115 180.809 186.781 183.821 186.671 184.16C186.561 184.499 186.113 184.718 186.332 185.609C186.506 186.532 186.619 187.465 186.671 188.403C187.977 187.598 189.362 186.931 190.805 186.411C193.039 185.629 195.612 184.419 195.612 184.419C195.41 183.648 195.26 182.865 195.163 182.073C195.163 181.516 194.605 181.292 194.605 180.848C194.605 180.405 195.502 160.366 195.837 153.329C196.171 146.292 196.171 121.84 196.171 121.84L193.483 110.197L192.924 107.961L171.342 107.852L170.878 110.197Z" fill="#263238" stroke="#263238" stroke-linejoin="round"/>
<path d="M173.671 110.098C173.671 110.098 179.69 111.92 183.888 111.557C188.087 111.193 189.907 110.372 189.907 110.372L190.989 95.7056L191.812 75.7557L191.902 72.4789C191.902 72.4789 186.342 70.8355 184.696 70.6562C183.051 70.4769 178.134 70.208 178.134 70.208L172.648 73.196L173.671 110.098Z" fill="white" stroke="#263238" stroke-linejoin="round"/>
<path d="M177.672 65.2383L178.146 70.2183C178.361 70.9653 178.698 71.6719 179.143 72.3099C179.821 73.1864 182.185 74.8746 182.185 74.8746L183.332 78.6494L184.479 74.7401C185.345 74.3576 186.075 73.7222 186.573 72.9174C187.094 71.8757 187.458 70.7632 187.655 69.6157L187.924 67.1855C187.924 67.1855 185.157 68.1815 183.062 67.6835C180.968 67.1855 177.672 65.2383 177.672 65.2383Z" fill="white" stroke="#263238" stroke-linejoin="round"/>
<path d="M182.198 74.8643L180.054 79.6749L178.777 76.667" stroke="#263238" stroke-linejoin="round"/>
<path d="M184.492 74.7305L186.168 79.0382L187.355 77.2155" stroke="#263238" stroke-linejoin="round"/>
<path d="M175.668 59.5111C175.668 59.5111 174.386 58.296 174.002 60.1535C173.618 62.0111 175.159 63.5449 175.608 63.7989C175.993 63.9846 176.403 64.1138 176.825 64.1824C177.292 65.5283 178.085 66.7379 179.134 67.7032C180.734 69.0478 183.297 70.4572 186.504 69.1126C189.71 67.768 189.451 63.7989 189.261 60.7262C189.072 57.6536 188.364 52.1507 187.337 50.1039C186.309 48.0571 182.27 47.4794 179.069 48.1816C175.867 48.8838 174.262 52.3399 174.132 54.2622C174.002 56.1845 175.668 59.5111 175.668 59.5111Z" fill="white" stroke="#263238" stroke-linejoin="round"/>
<path d="M175.665 59.5115C175.445 59.3044 175.166 59.1689 174.867 59.123L175.665 59.5115Z" fill="white" stroke="#263238" stroke-linejoin="round"/>
<path d="M179.13 67.7281C180.731 69.0727 183.294 70.4821 186.5 69.1375C189.707 67.7929 189.447 63.8238 189.258 60.7512C189.218 60.1635 189.163 59.4862 189.088 58.7592L189.063 58.7044L188.36 63.6844C188.36 63.6844 188.166 63.1864 186.181 61.9563C184.196 60.7263 182.331 61.9563 181.309 62.5938C180.542 63.116 179.832 63.7169 179.19 64.3865C178.395 63.9312 177.767 63.2329 177.4 62.3946C176.96 61.4419 176.677 60.4245 176.562 59.3817C176.562 59.3817 177.843 57.8478 177.459 56.7572C177.075 55.6666 176.756 56.055 176.502 54.7652C176.248 53.4754 175.923 52.076 176.821 51.3091C177.719 50.5422 180.028 50.4774 180.985 51.1149C181.942 51.7523 182.845 52.1407 183.937 51.4983C185.029 50.8559 185.473 50.1537 186.241 50.3479C186.808 50.5733 187.332 50.8933 187.792 51.2941C187.671 50.8826 187.517 50.4813 187.333 50.094C186.306 48.0422 182.267 47.4695 179.065 48.1717C175.864 48.8739 174.258 52.33 174.128 54.2523C173.999 56.1745 175.664 59.5012 175.664 59.5012L176.821 64.1724C177.283 65.5309 178.076 66.753 179.13 67.7281Z" fill="#263238" stroke="#263238" stroke-linejoin="round"/>
<path d="M184.194 55.8604C184.194 55.8604 184.449 60.4718 185.092 61.433C185.735 62.3941 185.67 62.7776 184.643 62.5834C183.616 62.3891 182.648 61.3035 182.648 60.6661" fill="white"/>
<path d="M184.194 55.8604C184.194 55.8604 184.449 60.4718 185.092 61.433C185.735 62.3941 185.67 62.7776 184.643 62.5834C183.616 62.3891 182.648 61.3035 182.648 60.6661" stroke="#263238" stroke-linejoin="round"/>
<path d="M181.758 63.5449C181.758 63.5449 183.039 65.1435 185.922 64.2471" stroke="white" stroke-linecap="round" stroke-linejoin="round"/>
<path d="M181.178 58.1663C181.253 58.6643 181.113 59.0876 180.859 59.1275C180.605 59.1673 180.36 58.7988 180.265 58.3108C180.171 57.8227 180.335 57.3895 180.585 57.3496C180.834 57.3098 181.103 57.6783 181.178 58.1663Z" fill="#263238"/>
<path d="M186.768 57.768C186.848 58.266 186.703 58.6844 186.449 58.7242C186.194 58.764 185.95 58.3955 185.855 57.9075C185.761 57.4194 185.925 56.9862 186.174 56.9463C186.424 56.9065 186.693 57.27 186.768 57.768Z" fill="#263238"/>
<path d="M179.195 56.1843C179.195 56.1843 179.888 55.4921 181.549 55.4473" stroke="#263238" stroke-linecap="round" stroke-linejoin="round"/>
<path d="M185.066 55.2138C185.066 55.2138 185.944 54.2476 187.56 55.4926" stroke="#263238" stroke-linecap="round" stroke-linejoin="round"/>
<path d="M188.996 57.4291C188.996 57.4291 189.924 56.971 190.058 58.4899C190.122 59.456 189.898 60.4194 189.415 61.2587L188.996 57.4291Z" fill="white" stroke="#263238" stroke-linejoin="round"/>
<path d="M159.165 83.1664C159.165 83.1664 158.083 79.9941 158.168 79.7252C158.152 78.7933 157.945 77.8747 157.559 77.026C157.155 76.3537 157.22 76.5579 156.612 75.532C156.003 74.5061 155.116 73.2412 154.926 72.7034C154.737 72.1655 154.049 73.5101 154.453 74.3219C154.857 75.1336 155.804 76.5479 155.804 76.5479C155.569 76.5799 155.331 76.5326 155.126 76.4135C154.91 76.2838 154.685 76.1706 154.453 76.0748L153.306 75.4673C153.306 75.4673 151.55 73.9135 151.276 73.7791C151.002 73.6446 149.86 70.2034 149.252 70.6118C148.643 71.0201 149.321 71.8916 149.386 72.5639C149.61 73.8388 149.903 75.1006 150.264 76.3438C150.398 76.6824 151.884 78.6346 152.697 79.7152C153.453 80.5859 154.316 81.3573 155.265 82.011L156.477 86.1245L159.165 83.1664Z" fill="white" stroke="#263238" stroke-linejoin="round"/>
<path d="M152.754 78.9481C152.754 78.9481 152.799 77.9521 152.889 77.3844C152.978 76.8167 154.385 73.3058 154.624 73.7839C154.862 74.3336 154.894 74.9506 154.714 75.5219C154.539 75.8655 154.016 77.1254 154.016 77.1254L154.514 79.0378C154.514 79.0378 155.776 79.1672 156.339 79.6851C156.759 80.1796 157.07 80.7564 157.252 81.3784" fill="white"/>
<path d="M152.754 78.9481C152.754 78.9481 152.799 77.9521 152.889 77.3844C152.978 76.8167 154.385 73.3058 154.624 73.7839C154.862 74.3336 154.894 74.9506 154.714 75.5219C154.539 75.8655 154.016 77.1254 154.016 77.1254L154.514 79.0378C154.514 79.0378 155.776 79.1672 156.339 79.6851C156.759 80.1796 157.07 80.7564 157.252 81.3784" stroke="#263238" stroke-linejoin="round"/>
<path d="M152.092 78.2561C152.092 78.2561 151.594 77.0808 151.653 76.5181C151.713 75.9553 152.611 72.4843 152.611 72.4843C152.611 72.4843 153.219 72.1805 153.264 72.8279C153.214 73.7665 153.069 74.6975 152.83 75.6067C152.797 76.1996 152.812 76.7942 152.875 77.3846" fill="white"/>
<path d="M152.092 78.2561C152.092 78.2561 151.594 77.0808 151.653 76.5181C151.713 75.9553 152.611 72.4843 152.611 72.4843C152.611 72.4843 153.219 72.1805 153.264 72.8279C153.214 73.7665 153.069 74.6975 152.83 75.6067C152.797 76.1996 152.812 76.7942 152.875 77.3846" stroke="#263238" stroke-linejoin="round"/>
<path d="M151.623 76.8667C151.623 76.8667 150.711 75.6964 150.711 75.0838C150.752 73.691 150.867 72.3013 151.055 70.9206C151.19 70.5271 151.554 70.6168 151.663 71.6128C151.717 72.5559 151.674 73.5021 151.534 74.4364L151.883 75.4773" fill="white"/>
<path d="M151.623 76.8667C151.623 76.8667 150.711 75.6964 150.711 75.0838C150.752 73.691 150.867 72.3013 151.055 70.9206C151.19 70.5271 151.554 70.6168 151.663 71.6128C151.717 72.5559 151.674 73.5021 151.534 74.4364L151.883 75.4773" stroke="#263238" stroke-linejoin="round"/>
<path d="M177.874 69.6055L178.213 82.2845C178.213 82.2845 179.36 98.2205 179.629 100.427C179.898 102.633 176.592 125.994 176.592 125.994C176.592 125.994 172.807 125.451 168.893 124.575C164.978 123.698 163.407 122.822 163.407 122.822L169.297 99.5502C169.297 99.5502 163.352 106.024 162.949 106.164C162.545 106.303 162.206 106.164 161.662 105.352C161.118 104.54 154.586 86.398 154.586 86.398L159.179 83.161L163.707 90.5115C163.707 90.5115 166.404 75.6064 166.699 75.0735C166.993 74.5406 177.874 69.6055 177.874 69.6055Z" fill="#01A99E" stroke="#263238" stroke-linejoin="round"/>
<path d="M175.442 71.085C175.442 71.085 173.946 80.2631 174.974 85.029C176.001 89.7948 178.823 98.7887 178.823 98.7887" stroke="#263238" stroke-linejoin="round"/>
<path d="M169.299 99.5499L169.773 97.1894L168.082 80.3271" stroke="#263238" stroke-linejoin="round"/>
<path d="M163.691 90.5117L164.973 94.4907" stroke="#263238" stroke-linejoin="round"/>
<path d="M212.434 84.5154C212.434 84.5154 214.388 81.7964 214.403 81.5274C214.689 80.6409 215.154 79.8222 215.77 79.1221C216.353 78.5942 216.228 78.7685 217.106 77.9767C217.956 77.278 218.77 76.5366 219.545 75.7556C219.899 75.2975 220.153 76.7815 219.545 77.4389C218.936 78.0962 217.605 79.1769 217.605 79.1769C217.817 79.2802 218.059 79.3049 218.288 79.2466C218.532 79.1848 218.78 79.1415 219.031 79.1171L220.308 78.8681C220.308 78.8681 222.437 77.897 222.736 77.8422C223.035 77.7875 225.135 74.8542 225.598 75.3971C226.062 75.9399 225.16 76.6072 224.9 77.2297C224.318 78.3858 223.67 79.5081 222.96 80.5912C222.736 80.8751 220.741 82.3143 219.654 83.1111C218.679 83.7252 217.63 84.2138 216.533 84.5652L214.164 88.1459L212.434 84.5154Z" fill="white" stroke="#263238" stroke-linejoin="round"/>
<path d="M219.8 82.3443C219.8 82.3443 220.049 81.3732 220.129 80.8105C220.209 80.2477 219.9 76.4778 219.516 76.8613C219.124 77.3142 218.914 77.8963 218.927 78.4947C218.992 78.8782 219.127 80.2328 219.127 80.2328L218.129 81.921C217.487 81.7906 216.821 81.8231 216.194 82.0156C215.648 82.3653 215.182 82.827 214.828 83.3702" fill="white"/>
<path d="M219.8 82.3443C219.8 82.3443 220.049 81.3732 220.129 80.8105C220.209 80.2477 219.9 76.4778 219.516 76.8613C219.124 77.3142 218.914 77.8963 218.927 78.4947C218.992 78.8782 219.127 80.2328 219.127 80.2328L218.129 81.921C217.487 81.7906 216.821 81.8231 216.194 82.0156C215.648 82.3653 215.182 82.827 214.828 83.3702" stroke="#263238" stroke-linejoin="round"/>
<path d="M220.628 81.8667C220.628 81.8667 221.465 80.9006 221.545 80.3329C221.625 79.7652 221.804 76.1945 221.804 76.1945C221.804 76.1945 221.306 75.7264 221.081 76.3389C220.855 77.2509 220.723 78.1838 220.687 79.1227C220.547 79.6997 220.361 80.2643 220.129 80.811" fill="white"/>
<path d="M220.628 81.8667C220.628 81.8667 221.465 80.9006 221.545 80.3329C221.625 79.7652 221.804 76.1945 221.804 76.1945C221.804 76.1945 221.306 75.7264 221.081 76.3389C220.855 77.2509 220.723 78.1838 220.687 79.1227C220.547 79.6997 220.361 80.2643 220.129 80.811" stroke="#263238" stroke-linejoin="round"/>
<path d="M221.484 80.6762C221.484 80.6762 222.701 79.8197 222.876 79.237C223.244 77.8931 223.537 76.5298 223.753 75.1534C223.753 74.7401 223.384 74.7202 222.97 75.6514C222.648 76.5373 222.416 77.4532 222.277 78.3854L221.639 79.2818" fill="white"/>
<path d="M221.484 80.6762C221.484 80.6762 222.701 79.8197 222.876 79.237C223.244 77.8931 223.537 76.5298 223.753 75.1534C223.753 74.7401 223.384 74.7202 222.97 75.6514C222.648 76.5373 222.416 77.4532 222.277 78.3854L221.639 79.2818" stroke="#263238" stroke-linejoin="round"/>
<path d="M187.668 69.6055C187.847 73.5689 187.802 77.5393 187.533 81.4977C187.079 86.6869 185.254 99.8988 185.439 100.262C185.623 100.626 188.172 125.66 188.172 125.66C188.172 125.66 193.373 125.845 196.29 125.207C198.069 124.817 199.81 124.268 201.491 123.569C201.491 123.569 194.834 99.102 194.739 98.7136C194.644 98.3251 195.736 95.1578 195.736 95.1578C195.736 95.1578 202.219 102.538 203.306 102.359C204.393 102.18 215.813 87.15 215.813 87.15L212.257 83.3204L204.318 90.138C204.318 90.138 199.212 77.5685 198.663 76.4729C198.086 75.5028 197.38 74.615 196.564 73.8335C196.29 73.5695 187.668 69.6055 187.668 69.6055Z" fill="#01A99E" stroke="#263238" stroke-linejoin="round"/>
<path d="M189.908 71.4727C190.534 74.9229 190.656 78.4454 190.272 81.9307C189.634 87.7622 186.078 99.1465 186.078 99.1465" stroke="#263238" stroke-linejoin="round"/>
<path d="M195.746 95.1584L197.84 82.1357" stroke="#263238" stroke-linejoin="round"/>
<path d="M204.32 90.1484L204.23 93.7938" stroke="#263238" stroke-linejoin="round"/>
<path d="M277.404 119.022C277.404 119.022 273.026 120.018 271.829 121.906C270.632 123.793 269.241 128.265 269.64 129.958C270.039 131.651 271.929 136.318 273.42 137.513C274.911 138.708 277.908 140.396 280.092 140.396C282.276 140.396 286.365 137.513 286.759 136.119C287.153 134.724 288.255 130.75 288.355 128.962C288.455 127.174 289.253 124.291 285.767 121.607C282.281 118.923 281.089 118.215 277.404 119.022Z" fill="white" stroke="#263238" stroke-linejoin="round"/>
<path d="M286.759 136.109C287.158 134.719 288.255 130.74 288.355 128.952C288.43 127.603 288.898 125.631 287.627 123.589C287.512 124.455 287.033 126.716 286.265 127.663C285.368 128.753 281.384 130.84 276.207 129.749C272.482 128.962 270.926 126.582 270.348 125.307C269.775 127.095 269.41 128.977 269.64 129.948C270.039 131.637 271.929 136.308 273.42 137.503C274.911 138.698 277.908 140.386 280.092 140.386C282.276 140.386 286.365 137.503 286.759 136.109Z" fill="white" stroke="#263238" stroke-linejoin="round"/>
<path d="M269.64 129.948C269.64 129.948 268.343 129.45 268.144 130.74C267.944 132.03 268.742 134.724 269.839 135.317C270.161 135.489 270.52 135.579 270.884 135.579C271.249 135.579 271.608 135.489 271.929 135.317L269.64 129.948Z" fill="white" stroke="#263238" stroke-linejoin="round"/>
<path d="M288.355 129.749C288.355 129.749 290.35 128.156 290.145 130.641C289.941 133.126 287.258 135.018 287.258 135.018L288.355 129.749Z" fill="white" stroke="#263238" stroke-linejoin="round"/>
<path d="M289.726 143.569C289.726 143.569 286.938 139.191 286.639 138.892C286.34 138.594 281.862 137.896 279.074 137.896C276.287 137.896 271.709 139.087 271.709 139.087L269.32 144.067C269.32 144.067 280.49 141.183 289.726 143.569Z" fill="#263238" stroke="#263238" stroke-linejoin="round"/>
<path d="M255.603 173.593C255.603 173.593 254.82 177.666 255.318 178.782C255.817 179.897 257.707 180.968 258.704 180.968C259.745 180.885 260.777 180.718 261.791 180.47L262.19 174.703L255.603 173.593Z" stroke="#263238" stroke-linejoin="round"/>
<path d="M302.39 170.511C302.39 170.511 302.789 175.282 302.49 176.078C302.191 176.875 300.495 178.364 299.303 178.663C298.264 178.941 297.192 179.075 296.117 179.061C295.818 178.962 294.82 171.9 294.82 171.9L302.39 170.511Z" stroke="#263238" stroke-linejoin="round"/>
<path d="M277.102 221.81C277.102 221.81 276.902 228.966 277.401 229.663C277.9 230.36 280.288 231.252 282.886 230.953C285.484 230.654 286.572 229.862 286.572 229.364C286.572 228.866 286.472 222.502 286.472 222.502C286.472 222.502 278.398 222.009 277.102 221.81Z" fill="#263238" stroke="#263238" stroke-linejoin="round"/>
<path d="M286.562 229.364C286.562 229.254 286.562 228.866 286.562 228.298C283.136 229.792 279.231 228.96 277.172 228.298C277.17 228.76 277.253 229.22 277.416 229.652C277.915 230.35 280.304 231.241 282.902 230.942C285.5 230.643 286.562 229.862 286.562 229.364Z" fill="white" stroke="#263238" stroke-linejoin="round"/>
<path d="M274.816 195.659C274.816 195.659 277.105 211.665 277.006 213.856C276.928 214.949 276.962 216.047 277.105 217.133C277.105 217.133 276.208 217.631 276.208 218.428C276.208 219.224 277.105 221.809 277.105 221.809C277.105 221.809 277.006 222.207 279.599 222.7C282.192 223.193 285.772 222.999 286.47 222.501C287.168 222.003 287.163 219.717 287.064 218.228C286.964 216.739 285.772 213.657 285.772 212.462C285.772 211.266 287.363 194.668 287.363 194.668C287.363 194.668 278.402 196.356 274.816 195.659Z" fill="#01A99E" stroke="#263238" stroke-linejoin="round"/>
<path d="M291.938 216.839C291.938 216.839 293.433 221.819 293.827 222.701C294.221 223.582 295.822 224.593 296.615 224.593C297.408 224.593 301.691 223.199 302.29 222.9C302.888 222.601 303.98 220.813 303.482 219.225C302.983 217.636 300.49 212.562 300.49 212.562L291.938 216.839Z" fill="#263238" stroke="#263238" stroke-linejoin="round"/>
<path d="M302.292 222.9C302.84 222.626 303.788 221.097 303.574 219.623C302.199 220.532 300.773 221.364 299.305 222.113C297.762 222.832 296.111 223.291 294.418 223.473C295.015 224.068 295.784 224.461 296.617 224.598C297.415 224.598 301.694 223.199 302.292 222.9Z" fill="white" stroke="#263238" stroke-linejoin="round"/>
<path d="M284.869 200.336C284.869 200.336 288.754 208.089 289.447 209.3C290.14 210.51 290.644 211.391 290.644 211.391C290.302 211.908 290.154 212.529 290.225 213.144C290.425 214.041 291.921 216.824 291.921 216.824C291.921 216.824 294.209 217.322 296 216.725C297.79 216.127 299.884 214.434 300.084 214.041C300.259 213.555 300.39 213.055 300.478 212.547C300.141 211.226 299.71 209.931 299.186 208.672C298.289 206.481 297.296 204.793 296.897 202.905C296.498 201.018 294.309 192.945 294.309 192.945L282.84 195.435L284.869 200.336Z" fill="#01A99E" stroke="#263238" stroke-linejoin="round"/>
<path d="M260.081 184.33C260.081 184.33 259.582 187.816 259.781 189.399C259.981 190.983 260.28 192.975 265.267 194.877C270.253 196.78 275.24 198.055 279.229 197.761C283.219 197.467 290.579 195.669 292.195 194.877C293.81 194.086 295.112 192.572 296.184 191.536C297.256 190.5 297.56 186.725 297.366 185.231C297.26 184.381 297.06 183.546 296.768 182.741C296.768 182.741 279.992 187.114 260.081 184.33Z" fill="#01A99E" stroke="#263238" stroke-linejoin="round"/>
<path d="M269.339 144.061C269.339 144.061 264.562 148.439 262.358 150.127C260.154 151.815 257.98 153.907 257.98 154.504C257.98 155.102 252.105 173.095 252.105 173.095C252.105 173.095 254.394 175.978 259.376 176.471H260.802C260.802 176.471 260.104 183.632 260.104 184.33C260.104 185.027 269.464 188.314 280.415 187.407C291.366 186.501 296.542 183.732 296.741 182.736C296.941 181.74 296.542 179.748 296.542 178.254C296.542 176.76 296.242 173.876 296.242 173.876C296.242 173.876 299.03 174.175 301.119 173.378C303.209 172.582 306.271 169.818 306.271 169.818C306.271 169.818 300.287 156.994 299.404 154.111C298.521 151.227 289.725 143.568 289.725 143.568C289.725 143.568 281.582 140.984 269.339 144.061Z" fill="#263238" stroke="#263238" stroke-linejoin="round"/>
<path d="M260.414 160.386L261.197 183.164C261.197 183.164 279.089 187.188 295.75 183.164L297.091 160.719C297.091 160.719 267.011 161.85 260.414 160.386Z" fill="#B2B2B2" stroke="#263238" stroke-linejoin="round"/>
<path d="M261.198 183.165L258.066 231.162" stroke="#263238" stroke-width="3" stroke-linecap="round" stroke-linejoin="round"/>
<path d="M295.652 183.165L298.784 231.162" stroke="#263238" stroke-width="3" stroke-linecap="round" stroke-linejoin="round"/>
<path d="M260.552 191.611C260.552 191.611 270.186 196.696 279.287 196.561C288.762 196.422 296.132 191.526 296.132 191.526L296.63 196.765C296.63 196.765 280.174 203.633 260.402 196.442L260.552 191.611Z" fill="#B2B2B2" stroke="#263238" stroke-linejoin="round"/>
<path d="M226.509 195.351C226.509 195.351 230.633 212.352 231.286 214.16C231.939 215.968 232.692 214.967 233.535 217.178C234.378 219.389 234.567 221.301 235.505 222.512C236.442 223.722 238.881 224.22 239.629 226.032C240.377 227.845 240.85 229.349 237.943 229.957C235.036 230.564 232.413 228.846 231.196 226.232C229.979 223.617 228.289 216.272 228.289 216.272C228.289 216.272 216.855 200.281 215.538 197.263L214.227 194.245L226.509 195.351Z" fill="white" stroke="#263238" stroke-linejoin="round"/>
<path d="M232.318 215.669L232.598 215.709C233.046 216.107 233.371 216.626 233.535 217.203C234.383 219.419 234.567 221.326 235.505 222.536C236.442 223.746 238.881 224.244 239.629 226.057C240.377 227.87 240.85 229.374 237.943 229.981C235.036 230.589 232.413 228.871 231.196 226.256C229.98 223.642 228.289 216.296 228.289 216.296C230.069 213.458 232.318 215.669 232.318 215.669Z" fill="#263238" stroke="#263238" stroke-linejoin="round"/>
<path d="M229.328 195.351C229.328 195.351 225.204 212.352 224.546 214.16C223.887 215.968 223.139 214.967 222.297 217.178C221.454 219.389 221.264 221.301 220.327 222.512C219.389 223.722 216.951 224.22 216.203 226.032C215.455 227.845 214.986 229.349 217.888 229.957C220.791 230.564 223.419 228.846 224.64 226.232C225.862 223.617 227.543 216.272 227.543 216.272C227.543 216.272 238.982 200.281 240.293 197.263L241.605 194.245L229.328 195.351Z" fill="white" stroke="#263238" stroke-linejoin="round"/>
<path d="M223.513 215.669L223.234 215.709C222.785 216.107 222.46 216.626 222.297 217.203C221.454 219.419 221.264 221.326 220.327 222.536C219.389 223.746 216.951 224.244 216.203 226.057C215.455 227.87 214.986 229.374 217.888 229.981C220.791 230.589 223.419 228.871 224.64 226.256C225.862 223.642 227.543 216.296 227.543 216.296C225.762 213.458 223.513 215.669 223.513 215.669Z" fill="#263238" stroke="#263238" stroke-linejoin="round"/>
<path d="M216.486 142.692C216.486 142.692 210.502 145.222 210.392 146.343C210.283 147.463 206.448 162.164 206.179 163.843C205.909 165.521 204.304 169.555 205.52 171.238C206.737 172.921 208.896 174.047 210.303 174.141C210.667 174.196 211.039 174.155 211.383 174.025C211.727 173.894 212.032 173.677 212.267 173.394L211.051 181.631C211.051 181.631 209.176 187.433 209.644 189.773C210.113 192.114 211.709 194.455 220.615 196.422C229.521 198.389 234.678 197.358 237.959 195.859C241.24 194.36 245.174 192.487 245.548 190.147C245.922 187.806 244.426 180.411 244.426 180.411L243.673 172.443C243.673 172.443 248.161 172.348 249.862 170.192C251.562 168.036 250.984 165.889 250.331 164.017C249.677 162.144 247.708 155.312 247.049 152.877C246.391 150.441 245.922 146.228 245.174 145.202C244.426 144.177 236.832 142.488 236.832 142.488C236.832 142.488 227.078 138.858 216.486 142.692Z" fill="white" stroke="#263238" stroke-linejoin="round"/>
<path d="M213.02 154.863L215.079 164.505" stroke="#263238" stroke-linejoin="round"/>
<path d="M244.043 155.516L242.637 164.036" stroke="#263238" stroke-linejoin="round"/>
<path d="M245.542 190.152C245.851 188.22 244.883 182.826 244.544 181.019C233.384 184.146 217.586 182.094 211.134 181.019L211.044 181.621C211.044 181.621 209.169 187.423 209.638 189.763C210.106 192.104 211.702 194.445 220.608 196.412C229.515 198.379 234.671 197.348 237.952 195.849C241.233 194.35 245.168 192.492 245.542 190.152Z" fill="#01A99E" stroke="#263238" stroke-linejoin="round"/>
<path d="M223.05 116.577C223.05 116.577 219.674 115.267 219.205 119.565C218.737 123.863 220.801 129.027 220.896 130.143C220.991 131.258 214.518 140.909 216.019 144.087C217.52 147.264 220.801 151.482 225.494 152.139C230.186 152.797 233.836 151.95 237.302 148.863C240.768 145.775 241.521 145.118 241.426 143.434C241.331 141.751 237.771 131.826 237.397 129.391C237.023 126.956 239.272 122.274 236.554 117.782C233.836 113.29 228.117 112.26 225.868 113.569C223.619 114.879 223.05 116.577 223.05 116.577Z" fill="#263238" stroke="#263238" stroke-linejoin="round"/>
<path d="M209.543 160.387L210.326 183.165C210.326 183.165 228.218 187.189 244.878 183.165L246.22 160.72C246.22 160.72 216.14 161.851 209.543 160.387Z" fill="#B2B2B2" stroke="#263238" stroke-linejoin="round"/>
<path d="M210.326 183.165L207.199 231.162" stroke="#263238" stroke-width="3" stroke-linecap="round" stroke-linejoin="round"/>
<path d="M244.785 183.165L247.917 231.162" stroke="#263238" stroke-width="3" stroke-linecap="round" stroke-linejoin="round"/>
<path d="M209.684 191.611C209.684 191.611 219.318 196.696 228.419 196.561C237.893 196.422 245.264 191.526 245.264 191.526L245.762 196.765C245.762 196.765 229.306 203.633 209.539 196.442L209.684 191.611Z" fill="#B2B2B2" stroke="#263238" stroke-linejoin="round"/>
<path d="M128.803 128.684L128.055 138.161L142.686 137.663L141.564 129.246L128.803 128.684Z" fill="white" stroke="#263238" stroke-linejoin="round"/>
<path d="M145.611 115.153C144.928 113.101 142.196 112.992 141.283 112.419C140.37 111.846 140.6 110.372 138.092 109.461C135.583 108.549 134.102 108.664 132.846 109.804C131.82 110.819 130.87 111.908 130.003 113.061C128.667 113.729 127.33 114.555 126.807 115.382C125.61 117.269 125.221 121.736 125.62 123.425C126.019 125.113 127.909 129.789 129.405 130.979C130.901 132.17 133.893 133.863 136.072 133.863C138.251 133.863 142.345 130.979 142.744 129.59C143.143 128.2 144.24 124.221 144.335 122.429C144.492 121.651 144.729 120.892 145.043 120.163C145.247 119.59 146.27 117.2 145.611 115.153Z" fill="#263238" stroke="#263238" stroke-linejoin="round"/>
<path d="M125.594 123.424C125.594 123.424 124.303 122.926 124.098 124.221C123.894 125.516 124.692 128.205 125.789 128.793C126.11 128.965 126.469 129.056 126.834 129.056C127.198 129.056 127.557 128.965 127.878 128.793L125.594 123.424Z" fill="white" stroke="#263238" stroke-linejoin="round"/>
<path d="M144.311 123.226C144.311 123.226 146.305 121.637 146.106 124.122C145.907 126.607 143.219 128.485 143.219 128.485L144.311 123.226Z" fill="white" stroke="#263238" stroke-linejoin="round"/>
<path d="M147.568 141.318C147.568 141.318 144.272 136.224 143.918 135.88C143.564 135.536 138.268 134.72 134.972 134.72C131.675 134.72 126.265 136.109 126.265 136.109L123.438 141.896C123.438 141.896 136.637 138.539 147.568 141.318Z" fill="#01A99E" stroke="#263238" stroke-linejoin="round"/>
<path d="M111.559 173.593C111.559 173.593 110.766 177.666 111.26 178.762C111.753 179.858 113.653 180.948 114.645 180.948C115.686 180.866 116.718 180.699 117.732 180.45L118.131 174.683L111.559 173.593Z" fill="white" stroke="#263238" stroke-linejoin="round"/>
<path d="M158.35 170.511C158.35 170.511 158.749 175.282 158.45 176.078C158.15 176.875 156.455 178.364 155.263 178.663C154.224 178.941 153.152 179.075 152.077 179.061C151.778 178.962 150.785 171.9 150.785 171.9L158.35 170.511Z" fill="white" stroke="#263238" stroke-linejoin="round"/>
<path d="M116.844 223.428L113.602 226.167C113.602 226.167 111.109 226.665 111.727 228.532C112.017 229.394 116.345 232.272 118.21 232.646C120.075 233.019 123.451 232.646 124.324 231.401C125.196 230.156 124.573 224.299 124.573 224.299L116.844 223.428Z" fill="white" stroke="#263238" stroke-linejoin="round"/>
<path d="M124.328 231.401C124.479 231.149 124.579 230.87 124.622 230.579C123.001 231.052 120.304 231.5 118.464 231.152C116.623 230.803 113.477 228.542 111.816 227.277C111.711 227.467 111.648 227.678 111.633 227.895C111.617 228.112 111.649 228.329 111.727 228.532C112.016 229.394 116.344 232.272 118.209 232.646C120.074 233.019 123.455 232.646 124.328 231.401Z" fill="white" stroke="#263238" stroke-linejoin="round"/>
<path d="M119.462 183.568C119.462 183.568 115.348 183.942 114.101 187.552C112.855 191.163 116.221 219.922 116.221 219.922C116.221 219.922 115.597 221.79 115.722 222.163C115.847 222.537 116.096 224.529 116.096 224.529C116.096 224.529 116.719 225.649 119.462 225.649C121.251 225.597 123.003 225.128 124.578 224.28C124.578 224.28 124.329 220.669 124.329 218.921C124.329 217.173 124.204 213.319 124.204 213.319L126.324 191.272C126.324 191.272 128.194 184.689 119.462 183.568Z" fill="#263238" stroke="#263238" stroke-linejoin="round"/>
<path d="M151.834 223.428L155.08 226.167C155.08 226.167 157.574 226.665 156.95 228.532C156.661 229.394 152.333 232.272 150.468 232.646C148.603 233.019 145.232 232.646 144.354 231.401C143.476 230.156 144.105 224.299 144.105 224.299L151.834 223.428Z" fill="white" stroke="#263238" stroke-linejoin="round"/>
<path d="M144.349 231.401C144.202 231.147 144.102 230.868 144.055 230.579C145.675 231.052 148.373 231.5 150.213 231.152C152.053 230.803 155.2 228.542 156.86 227.277C156.968 227.467 157.032 227.678 157.048 227.895C157.063 228.112 157.03 228.33 156.95 228.532C156.661 229.394 152.333 232.272 150.468 232.646C148.603 233.019 145.227 232.646 144.349 231.401Z" fill="white" stroke="#263238" stroke-linejoin="round"/>
<path d="M149.217 183.568C149.217 183.568 153.331 183.942 154.583 187.552C155.835 191.163 152.459 219.922 152.459 219.922C152.459 219.922 153.082 221.79 152.957 222.163C152.833 222.537 152.583 224.529 152.583 224.529C152.583 224.529 151.96 225.649 149.217 225.649C147.435 225.601 145.689 225.139 144.116 224.3C144.116 224.3 144.365 220.689 144.365 218.941C144.365 217.193 144.495 213.339 144.495 213.339L142.371 191.292C142.371 191.292 140.486 184.689 149.217 183.568Z" fill="#263238" stroke="#263238" stroke-linejoin="round"/>
<path d="M116.042 184.33C116.042 184.33 115.543 187.816 115.742 189.399C115.942 190.983 116.241 192.975 121.228 194.877C126.214 196.78 131.201 198.055 135.165 197.761C139.13 197.467 146.51 195.669 148.131 194.877C149.751 194.086 151.048 192.572 152.12 191.536C153.192 190.5 153.501 186.725 153.302 185.231C153.196 184.381 152.996 183.546 152.704 182.741C152.704 182.741 135.948 187.114 116.042 184.33Z" fill="#263238" stroke="#263238" stroke-linejoin="round"/>
<path d="M125.296 140.885C125.296 140.885 120.519 142.822 118.315 144.51C116.111 146.198 113.932 148.29 113.932 148.888C113.932 149.485 108.062 173.095 108.062 173.095C108.062 173.095 110.351 175.979 115.328 176.472H116.719C116.719 176.472 116.026 183.633 116.026 184.33C116.026 185.027 125.381 188.314 136.332 187.408C147.283 186.502 152.459 183.733 152.658 182.737C152.858 181.741 152.459 179.749 152.459 178.255C152.459 176.761 152.16 173.877 152.16 173.877C152.16 173.877 154.947 174.176 157.042 173.379C159.136 172.582 162.233 169.819 162.233 169.819C162.233 169.819 156.249 151.393 155.361 148.494C154.473 145.596 145.707 140.392 145.707 140.392C145.707 140.392 137.544 137.802 125.296 140.885Z" fill="#01A99E" stroke="#263238" stroke-linejoin="round"/>
<path d="M116.441 153.235L118.845 163.255" stroke="#263238" stroke-linejoin="round"/>
<path d="M152.258 157.184L150.742 163.254" stroke="#263238" stroke-linejoin="round"/>
<path d="M153.146 153.639L152.707 155.397" stroke="#263238" stroke-linejoin="round"/>
<path d="M116.645 160.386L117.427 183.164C117.427 183.164 135.315 187.188 151.98 183.164L153.321 160.719C153.321 160.719 123.242 161.85 116.645 160.386Z" fill="#B2B2B2" stroke="#263238" stroke-linejoin="round"/>
<path d="M117.429 183.165L114.297 231.162" stroke="#263238" stroke-width="3" stroke-linecap="round" stroke-linejoin="round"/>
<path d="M151.879 183.165L155.011 231.162" stroke="#263238" stroke-width="3" stroke-linecap="round" stroke-linejoin="round"/>
<path d="M116.777 191.611C116.777 191.611 126.412 196.711 135.512 196.561C144.987 196.422 152.357 191.526 152.357 191.526L152.856 196.765C152.856 196.765 136.4 203.633 116.633 196.442L116.777 191.611Z" fill="#B2B2B2" stroke="#263238" stroke-linejoin="round"/>
<path d="M77.4901 227.142C76.4927 227.605 74.1789 229.632 72.3189 230.036C70.4589 230.439 66.7388 230.036 66.1205 229.005C65.5669 228.083 68.1151 226.34 69.4316 224.802C69.5794 224.628 69.716 224.445 69.8405 224.254C70.8728 222.6 71.4911 219.299 71.4911 219.299L67.5666 191.635L77.4901 193.079L77.0762 217.441C77.0762 217.441 78.8464 220.588 79.3501 223.014C79.8138 225.26 79.5446 226.216 77.4901 227.142Z" fill="white" stroke="#263238" stroke-linejoin="round"/>
<path d="M77.4916 227.142C76.4943 227.605 74.1805 229.632 72.3205 230.035C70.4604 230.439 66.7404 230.035 66.122 229.005C66.0867 228.948 66.063 228.886 66.0522 228.82C65.8777 227.869 68.2115 226.246 69.4332 224.801L69.9319 225.299C69.9319 225.299 71.4628 222.949 71.9764 221.928C72.49 220.907 72.9987 219.478 74.1207 218.442C75.2427 217.406 77.0728 217.411 77.0728 217.411C77.0728 217.411 78.843 220.558 79.3467 222.984C79.4204 223.322 79.4753 223.665 79.5112 224.01C79.6708 225.593 79.2021 226.375 77.4916 227.142Z" fill="white" stroke="#263238" stroke-linejoin="round"/>
<path d="M77.4902 227.143C76.4929 227.606 74.179 229.633 72.319 230.036C70.459 230.44 66.7389 230.036 66.1206 229.005C66.0853 228.949 66.0615 228.887 66.0508 228.821C67.336 229.503 68.8004 229.772 70.2446 229.593C73.1019 229.18 73.4111 226.431 77.191 224.613C77.8953 224.207 78.7029 224.015 79.5148 224.06C79.6694 225.594 79.2006 226.376 77.4902 227.143Z" fill="white" stroke="#263238" stroke-linejoin="round"/>
<path d="M83.4211 227.142C84.4184 227.605 86.7323 229.632 88.5923 230.036C90.4523 230.439 94.1774 230.036 94.7957 229.005C95.3442 228.083 92.801 226.34 91.4846 224.802C91.3352 224.629 91.1985 224.446 91.0757 224.254C90.0434 222.6 89.4201 219.299 89.4201 219.299L93.3496 191.635L83.4211 193.079L83.835 217.441C83.835 217.441 82.0697 220.588 81.5611 223.014C81.0973 225.26 81.3716 226.216 83.4211 227.142Z" fill="white" stroke="#263238" stroke-linejoin="round"/>
<path d="M83.4208 227.142C84.4181 227.605 86.732 229.632 88.592 230.035C90.452 230.439 94.1771 230.035 94.7954 229.005C94.8307 228.948 94.8545 228.886 94.8652 228.82C95.0348 227.869 92.706 226.246 91.4843 224.801L90.9856 225.299C90.9856 225.299 89.4547 222.949 88.946 221.928C88.4374 220.907 87.9188 219.478 86.7968 218.442C85.6748 217.406 83.8447 217.411 83.8447 217.411C83.8447 217.411 82.0794 220.558 81.5708 222.984C81.4985 223.322 81.4452 223.665 81.4112 224.01C81.2416 225.593 81.7154 226.375 83.4208 227.142Z" fill="white" stroke="#263238" stroke-linejoin="round"/>
<path d="M83.4197 227.143C84.4171 227.606 86.7309 229.633 88.5909 230.036C90.4509 230.439 94.176 230.036 94.7943 229.005C94.8297 228.949 94.8534 228.886 94.8641 228.821C93.5785 229.502 92.1145 229.771 90.6704 229.593C87.813 229.18 87.4988 226.431 83.7189 224.613C83.0163 224.207 82.2105 224.015 81.4001 224.06C81.2406 225.594 81.7143 226.376 83.4197 227.143Z" fill="white" stroke="#263238" stroke-linejoin="round"/>
<path d="M70.2456 142.692C70.2456 142.692 64.2615 145.222 64.1518 146.342C64.0421 147.463 60.2174 162.164 59.9381 163.847C59.6589 165.53 58.0631 169.559 59.2799 171.242C60.4966 172.926 62.6558 174.051 64.0621 174.146C64.4262 174.2 64.7983 174.16 65.1424 174.029C65.4865 173.898 65.7911 173.681 66.0268 173.399L64.825 181.636C64.825 181.636 62.9501 187.437 63.4188 189.778C63.8876 192.119 65.4833 194.459 74.3895 196.426C83.2957 198.393 88.4519 197.362 91.7331 195.864C95.0143 194.365 98.9488 192.492 99.3228 190.151C99.6968 187.811 98.2008 180.416 98.2008 180.416L97.4478 172.448C97.4478 172.448 101.936 172.353 103.636 170.197C105.337 168.04 104.758 165.894 104.105 164.021C103.452 162.149 101.482 155.316 100.824 152.881C100.166 150.446 99.6968 146.233 98.9488 145.207C98.2008 144.181 90.6061 142.493 90.6061 142.493C90.6061 142.493 80.8372 138.857 70.2456 142.692Z" fill="#01A99E" stroke="#263238" stroke-linejoin="round"/>
<path d="M67.6641 158.991L68.8409 164.504" stroke="#263238" stroke-linejoin="round"/>
<path d="M66.7812 154.862L67.2101 156.874" stroke="#263238" stroke-linejoin="round"/>
<path d="M97.8086 155.515L96.4023 164.035" stroke="#263238" stroke-linejoin="round"/>
<path d="M99.3034 190.151C99.6126 188.219 98.6452 182.825 98.3061 181.018C87.146 184.145 71.3482 182.093 64.8954 181.018L64.8057 181.62C64.8057 181.62 62.9307 187.422 63.3994 189.762C63.8682 192.103 65.4639 194.444 74.3701 196.411C83.2763 198.378 88.4325 197.347 91.7137 195.848C94.995 194.349 98.9294 192.491 99.3034 190.151Z" fill="#263238" stroke="#263238" stroke-linejoin="round"/>
<path d="M72.2566 124.236C72.2566 124.236 71.758 122.568 70.8404 123.982C69.9229 125.396 70.8404 127.836 71.4837 128.608C72.1348 129.236 72.8822 129.756 73.6978 130.147L74.5704 129.121L72.2566 124.236Z" fill="white" stroke="#263238" stroke-linejoin="round"/>
<path d="M90.1508 124.236C90.1508 124.236 90.6495 122.568 91.567 123.982C92.4846 125.396 91.567 127.836 90.9238 128.608C90.2727 129.236 89.5252 129.756 88.7097 130.147L87.832 129.121L90.1508 124.236Z" fill="white" stroke="#263238" stroke-linejoin="round"/>
<path d="M75.7953 133.215L72.4193 149.121C74.0084 150.721 76.0621 151.78 78.2886 152.149C82.8913 152.791 86.4966 151.984 89.9075 149.031C89.349 144.011 87.6984 132.229 87.6984 132.229L89.4039 128.583C90.3347 126.644 90.7797 124.508 90.7004 122.358C90.6426 120.747 90.1777 119.176 89.349 117.792C86.6313 113.31 80.9116 112.269 78.6626 113.579C76.4136 114.888 75.8501 116.567 75.8501 116.567C75.8501 116.567 72.4791 115.257 72.0104 119.555C71.5416 123.852 72.2547 127.951 73.6959 130.132L75.7953 133.215Z" fill="#263238" stroke="#263238" stroke-linejoin="round"/>
<path d="M81.3922 116.651C80.976 116.66 80.5664 116.757 80.1901 116.934C79.8137 117.112 79.4791 117.367 79.208 117.682C78.7504 118.36 78.5718 119.187 78.7093 119.993C79.3485 119.311 80.2241 118.897 81.1578 118.838C81.5555 118.83 81.9473 118.935 82.2885 119.139C82.6296 119.343 82.9065 119.639 83.0876 119.993C83.0876 119.993 84.2246 117.682 81.3922 116.651Z" fill="white" stroke="#263238" stroke-linejoin="round"/>
<path d="M63.2734 160.386L64.0563 183.164C64.0563 183.164 81.9485 187.188 98.609 183.164L99.9504 160.719C99.9504 160.719 69.8708 161.85 63.2734 160.386Z" fill="#B2B2B2" stroke="#263238" stroke-linejoin="round"/>
<path d="M64.0574 183.164L60.9258 231.161" stroke="#263238" stroke-width="3" stroke-linecap="round" stroke-linejoin="round"/>
<path d="M98.5156 183.164L101.647 231.161" stroke="#263238" stroke-width="3" stroke-linecap="round" stroke-linejoin="round"/>
<path d="M63.4102 191.61C63.4102 191.61 73.0445 196.695 82.1451 196.56C91.6198 196.421 98.9951 191.525 98.9951 191.525L99.4938 196.764C99.4938 196.764 83.0378 203.632 63.2656 196.441L63.4102 191.61Z" fill="#B2B2B2" stroke="#263238" stroke-linejoin="round"/>
<path d="M210.937 42.1855H197.663C196.785 42.1855 195.942 42.5339 195.321 43.1541C194.7 43.7742 194.352 44.6153 194.352 45.4923V54.3367C194.352 55.2137 194.7 56.0548 195.321 56.675C195.942 57.2951 196.785 57.6435 197.663 57.6435H199.368L197.169 62.0308L203.153 57.6435H210.937C211.815 57.6435 212.658 57.2951 213.279 56.675C213.9 56.0548 214.248 55.2137 214.248 54.3367V45.4923C214.248 44.6153 213.9 43.7742 213.279 43.1541C212.658 42.5339 211.815 42.1855 210.937 42.1855Z" fill="white" stroke="#263238" stroke-linejoin="round"/>
<path d="M200.073 50.8805C200.607 50.8805 201.04 50.4479 201.04 49.9144C201.04 49.3808 200.607 48.9482 200.073 48.9482C199.539 48.9482 199.105 49.3808 199.105 49.9144C199.105 50.4479 199.539 50.8805 200.073 50.8805Z" fill="#263238" stroke="#263238" stroke-linejoin="round"/>
<path d="M204.292 50.8805C204.826 50.8805 205.259 50.4479 205.259 49.9144C205.259 49.3808 204.826 48.9482 204.292 48.9482C203.757 48.9482 203.324 49.3808 203.324 49.9144C203.324 50.4479 203.757 50.8805 204.292 50.8805Z" fill="#263238" stroke="#263238" stroke-linejoin="round"/>
<path d="M208.514 50.8805C209.049 50.8805 209.482 50.4479 209.482 49.9144C209.482 49.3808 209.049 48.9482 208.514 48.9482C207.98 48.9482 207.547 49.3808 207.547 49.9144C207.547 50.4479 207.98 50.8805 208.514 50.8805Z" fill="#263238" stroke="#263238" stroke-linejoin="round"/>
</svg>
