<svg width="31" height="34" viewBox="0 0 31 34" fill="none" xmlns="http://www.w3.org/2000/svg">
<path d="M10.6933 26.7432V24.257H16.7589V26.7432H10.6933Z" fill="#F4F3F3"/>
<path d="M22.6927 23.8538L17.8798 26.2728V23.5178C17.8798 23.3566 17.5281 23.1371 17.3523 23.0475H10.1659C9.69118 23.0475 9.52855 23.4506 9.50658 23.6522V26.2728L4.82551 23.9882V12.1621C5.66942 10.1732 8.29785 8.55604 9.50658 7.99609V13.4388H8.64948C7.0144 13.3851 6.254 15.1187 6.07819 15.9922V19.6206C6.39465 21.0183 7.79238 21.6812 8.45169 21.838H22.6927V23.8538Z" fill="#F4F3F3"/>
<path d="M22.6927 20.6957V14.5811H8.64948C7.64734 14.7423 7.26494 15.589 7.19901 15.9922V19.2846C7.40999 20.0372 8.2539 20.5389 8.64948 20.6957H22.6927Z" fill="#F4F3F3"/>
<path d="M3.57282 22.3755V14.0435C2.47398 14.2227 0.223551 15.2799 0.0125727 18.0751C-0.198405 20.8704 2.29817 22.1068 3.57282 22.3755Z" fill="#F4F3F3"/>
<path d="M16.6931 13.3716V9.74312C14.8997 9.4744 14.7591 8.0633 14.9129 7.39134C13.9108 7.06881 11.6823 7.43614 10.6934 7.66012V13.3716H16.6931Z" fill="#F4F3F3"/>
<path d="M14.9129 3.62844V2.41895H11.6823C8.51767 2.68772 6.0123 4.41236 5.15521 5.24109C2.25426 7.33753 1.30925 11.7141 1.19937 13.6403L2.51798 12.9684C2.47403 11.8261 3.05861 8.88299 5.74858 6.24899C8.43855 3.615 12.979 3.40446 14.9129 3.62844Z" fill="#F4F3F3"/>
<path d="M24.9344 13.0356C24.8816 11.4767 24.385 10.191 24.1432 9.74307H25.4618C26.042 10.8719 26.1871 12.8116 26.1871 13.6403L24.9344 13.0356Z" fill="#F4F3F3"/>
<path d="M4.82551 34V27.9526H1.46309C0.408203 27.9526 0.0565733 28.8933 0.0126195 29.3636V34H4.82551Z" fill="#F4F3F3"/>
<path d="M21.506 27.9526H5.94637V33.9328H21.506V31.581H18.4073C18.0908 32.3874 17.3524 32.6785 17.0227 32.7233H15.3744C14.6888 32.6158 14.3415 32.365 14.2536 32.253C14.0558 32.0738 13.6866 31.487 13.7921 30.5731C13.8976 29.6593 14.7591 29.2516 15.1767 29.1621H17.0886C17.8271 29.2696 18.2754 29.9684 18.4073 30.3043H21.506V27.9526Z" fill="#F4F3F3"/>
<path d="M22.6268 30.3715V27.9526H25.0003V28.8933C24.7366 29.8609 23.9674 30.2819 23.6158 30.3715H22.6268Z" fill="#F4F3F3"/>
<path d="M22.6268 31.581C25.5805 31.9036 26.275 29.3412 26.253 28.0198C26.8859 28.0735 27.3079 28.8933 27.4397 29.2964V33.9328H22.6268V31.581Z" fill="#F4F3F3"/>
<path d="M23.8136 22.4427V14.0435C25.0223 14.2674 27.4397 15.4142 27.4397 18.2095C27.4397 21.0047 25.0223 22.1963 23.8136 22.4427Z" fill="#F4F3F3"/>
<path d="M26.253 22.7786L25.0662 23.3162V26.7431H26.253V22.7786Z" fill="#F4F3F3"/>
<path d="M17.8798 9.74312H19.0666V11.6917C19.2775 12.283 19.8577 12.2068 20.1215 12.0948L21.8356 11.0197L22.6268 12.2292V13.3433H17.8798V9.74312Z" fill="#F4F3F3"/>
<path d="M20.2533 10.6838V9.00393C20.2533 8.62763 19.9017 8.48879 19.7259 8.46641H16.6271C16.2579 8.46641 16.1217 8.26304 16.0997 8.16136V0.403162C16.0997 0.0806325 16.3634 0 16.4953 0L30.5385 0.067168C30.7495 0.013413 30.9341 0.268749 31 0.403137V8.06322C30.9473 8.332 30.6866 8.44399 30.5629 8.46638H22.0334C21.5587 8.46638 21.4401 8.77995 21.4401 8.93674V9.47429C21.2291 10.2269 20.561 10.5942 20.2533 10.6838Z" fill="#F4F3F3"/>
<path d="M15.3085 30.3716C14.7811 30.8016 15.0887 31.3571 15.3085 31.581L16.8909 31.5811C17.471 30.9897 17.1326 30.5284 16.8909 30.3716H15.3085Z" fill="#F4F3F3"/>
<rect width="6" height="1" rx="0.5" transform="matrix(1 0 0 -1 23 3)" fill="#01A99E"/>
<rect width="11" height="1" rx="0.5" transform="matrix(1 0 0 -1 18 6)" fill="#01A99E"/>
<circle cx="10.5" cy="17.5" r="1.5" fill="#01A99E"/>
<circle cx="17.5" cy="17.5" r="1.5" fill="#01A99E"/>
</svg>
