<svg width="338" height="371" viewBox="0 0 338 371" fill="none" xmlns="http://www.w3.org/2000/svg">
<path d="M82.3655 279.657L75.4803 274.915C75.4803 274.915 71.5033 280.7 65.4277 276.671C64.2429 275.915 63.3225 274.81 62.7944 273.507C62.2663 272.205 62.1567 270.771 62.4806 269.403C62.7374 268.251 63.2633 267.175 64.0153 266.264C64.7673 265.354 65.724 264.634 66.8074 264.163C69.2946 263.043 73.0578 263.056 77.1385 267.065L87.8129 251.52L81.0053 246.837L74.7549 255.905C74.7549 255.905 63.5105 251.805 56.269 262.324C49.3449 272.389 56.7613 280.939 60.6281 283.595C63.5817 285.674 74.1071 291.886 82.3655 279.657Z" fill="#2B2B2B"/>
<path d="M83.0912 243.607L89.9961 248.358L94.4349 241.907L87.53 237.156L83.0912 243.607Z" fill="#2B2B2B"/>
<path d="M111.68 298.693L115.333 297.728C115.225 297.312 115.2 296.879 115.261 296.454C115.321 296.029 115.466 295.62 115.686 295.251C115.906 294.882 116.197 294.561 116.542 294.305C116.888 294.05 117.28 293.866 117.698 293.764C118.306 293.579 118.957 293.589 119.56 293.792C120.163 293.995 120.687 294.382 121.059 294.897C121.379 295.324 121.594 295.821 121.685 296.347C121.776 296.873 121.741 297.412 121.584 297.922C121.234 299.108 120.12 300.397 117.542 300.61L119.712 308.856L123.326 307.904L122.031 303.072C123.397 302.243 124.454 300.989 125.039 299.502C125.624 298.015 125.705 296.377 125.269 294.839C123.857 289.495 118.734 289.515 116.687 290.059C115.152 290.474 109.912 292.261 111.68 298.693Z" fill="#2B2B2B"/>
<path d="M123.838 309.578L120.168 310.546L121.072 313.972L124.742 313.003L123.838 309.578Z" fill="#2B2B2B"/>
<path d="M172.396 67.898C174.244 66.772 176.236 65.9005 178.317 65.3071L179.534 59.4776L189.438 59.3027L190.863 65.1322C192.964 65.6468 194.985 66.442 196.874 67.4964L201.881 64.2124L209.005 71.0912L205.903 76.2082C207.025 78.0604 207.896 80.0533 208.494 82.1348L214.356 83.3525L214.524 93.2561L208.695 94.6811C208.177 96.7808 207.382 98.8023 206.33 100.692L209.608 105.699L202.729 112.824L197.612 109.721C195.762 110.847 193.768 111.719 191.685 112.312L190.468 118.18L180.564 118.349L179.139 112.519C177.038 112.008 175.015 111.212 173.128 110.155L168.121 113.439L160.997 106.56L164.099 101.443C162.973 99.5931 162.102 97.5996 161.508 95.5166L155.679 94.2989L155.504 84.3953L161.333 82.9703C161.838 80.8573 162.627 78.8222 163.678 76.9207L160.394 71.9138L167.273 64.7889L172.396 67.898ZM177.675 81.092C176.218 82.6055 175.243 84.5171 174.872 86.5851C174.501 88.653 174.752 90.7845 175.593 92.7098C176.434 94.6352 177.827 96.268 179.595 97.4018C181.364 98.5357 183.429 99.1196 185.53 99.0797C187.63 99.0399 189.672 98.3781 191.396 97.1779C193.12 95.9778 194.45 94.2933 195.217 92.3375C195.984 90.3816 196.154 88.2422 195.705 86.1898C195.257 84.1374 194.209 82.2642 192.696 80.807C190.665 78.8544 187.943 77.7876 185.127 77.8411C182.31 77.8945 179.63 79.0638 177.675 81.092Z" fill="#2B2B2B"/>
<path d="M130.945 47.249C132.012 46.6079 133.16 46.1113 134.358 45.7722L135.058 42.3911L140.764 42.2939L141.587 45.6426C142.796 45.9383 143.959 46.3958 145.046 47.0029L147.928 45.1115L152.009 49.0691L150.221 52.0162C150.865 53.0827 151.364 54.2307 151.704 55.4297L155.079 56.1292L155.176 61.8356L151.827 62.6712C151.533 63.8804 151.075 65.044 150.467 66.13L152.358 69.0123L148.394 73.1188L145.447 71.3311C144.381 71.9758 143.233 72.4747 142.034 72.8144L141.308 76.1826L135.602 76.2862L134.831 72.9375C133.623 72.6367 132.46 72.1771 131.372 71.5708L128.49 73.4621L124.383 69.4981L126.145 66.5575C125.499 65.4938 125 64.3478 124.662 63.1505L121.287 62.4445L121.184 56.7381L124.539 55.9219C124.833 54.7106 125.291 53.5448 125.899 52.4566L124.008 49.5743L127.972 45.4742L130.945 47.249ZM133.983 54.8532C133.137 55.7227 132.569 56.8237 132.351 58.0164C132.132 59.2092 132.273 60.44 132.755 61.5528C133.237 62.6655 134.038 63.61 135.058 64.2664C136.078 64.9228 137.269 65.2615 138.482 65.2397C139.694 65.2178 140.873 64.8363 141.868 64.1436C142.863 63.4508 143.63 62.4781 144.072 61.3487C144.514 60.2193 144.61 58.9842 144.348 57.8001C144.087 56.616 143.48 55.5362 142.604 54.6977C141.436 53.5731 139.869 52.9578 138.248 52.9869C136.627 53.0161 135.083 53.6873 133.957 54.8532H133.983Z" fill="#2B2B2B"/>
<path d="M297.735 151.955C298.8 151.312 299.946 150.813 301.142 150.472L301.848 147.097L307.548 147L308.371 150.349C309.582 150.643 310.748 151.101 311.836 151.709L314.718 149.818L318.818 153.782L317.031 156.729C317.675 157.795 318.174 158.943 318.514 160.142L321.895 160.842L321.992 166.548L318.644 167.371C318.342 168.578 317.885 169.741 317.283 170.83L319.168 173.712L315.211 177.818L312.264 176.031C311.197 176.675 310.049 177.174 308.85 177.514L308.144 180.889L302.444 180.992L301.622 177.637C300.412 177.343 299.249 176.885 298.163 176.277L295.274 178.168L291.174 174.204L292.962 171.257C292.316 170.191 291.817 169.043 291.478 167.844L288.104 167.144L288 161.438L291.349 160.615C291.65 159.408 292.107 158.245 292.709 157.156L290.824 154.274L294.782 150.167L297.735 151.955ZM300.773 159.553C299.932 160.423 299.367 161.524 299.151 162.715C298.936 163.906 299.078 165.135 299.56 166.245C300.043 167.356 300.843 168.298 301.862 168.954C302.88 169.609 304.069 169.947 305.28 169.927C306.49 169.906 307.667 169.526 308.662 168.836C309.657 168.147 310.425 167.177 310.869 166.051C311.313 164.924 311.413 163.692 311.156 162.508C310.899 161.325 310.297 160.245 309.427 159.404C308.258 158.278 306.691 157.661 305.069 157.689C303.447 157.717 301.902 158.387 300.773 159.553Z" fill="#2B2B2B"/>
<path d="M114.409 122.334L111.664 113.764C115.568 107.427 116.962 99.8591 115.57 92.5473C114.178 85.2355 110.101 78.7088 104.141 74.2502C98.1816 69.7915 90.7694 67.7235 83.3621 68.4525C75.9548 69.1815 69.0881 72.6549 64.1118 78.1899C59.1354 83.7249 56.4095 90.9211 56.4697 98.364C56.53 105.807 59.3721 112.958 64.4373 118.412C69.5026 123.865 76.4246 127.227 83.8428 127.836C91.2609 128.445 98.6386 126.258 104.526 121.703L114.409 122.334Z" fill="#E8FFFD"/>
<path d="M114.407 122.334H113.784L111.899 122.237L104.479 121.829C104.468 121.829 104.457 121.827 104.446 121.822C104.436 121.818 104.426 121.811 104.419 121.803C104.411 121.794 104.405 121.785 104.402 121.774C104.398 121.763 104.397 121.752 104.398 121.74C104.394 121.726 104.394 121.71 104.398 121.696L104.516 121.814C99.3605 125.842 93.0203 128.056 86.4783 128.114C84.826 128.105 83.1768 127.974 81.544 127.721C73.9573 126.533 67.1241 122.457 62.4746 116.346C59.8851 112.906 58.061 108.951 57.1248 104.748C56.1073 100.28 56.148 95.6349 57.2435 91.1846C57.3845 90.6207 57.5329 90.0494 57.6813 89.4855C57.8297 88.9215 58.0745 88.3725 58.2674 87.816C58.4555 87.2532 58.6734 86.7008 58.9204 86.1613C59.1727 85.6271 59.4324 85.0928 59.6624 84.5512C59.9177 84.0097 60.2103 83.4866 60.538 82.9855L61.4803 81.4422L62.5636 79.9582L63.1127 79.2162C63.2982 78.9787 63.5134 78.7636 63.7137 78.5335C66.9225 74.8442 70.993 72.0048 75.5635 70.2677C79.9145 68.6098 84.5867 67.9677 89.2237 68.3904C93.5808 68.8236 97.7888 70.2119 101.548 72.4566C108.229 76.4245 113.102 82.8385 115.134 90.3388C115.564 91.9457 115.871 93.5828 116.054 95.236C116.173 96.7813 116.2 98.3323 116.136 99.8809C115.852 104.816 114.336 109.601 111.729 113.801V113.734C112.604 116.524 113.272 118.676 113.732 120.145C113.955 120.887 114.118 121.399 114.237 121.777L114.4 122.326C114.4 122.326 114.326 122.126 114.199 121.755L113.658 120.115C113.183 118.631 112.478 116.539 111.573 113.786C111.565 113.764 111.565 113.741 111.573 113.719C114.132 109.529 115.608 104.769 115.869 99.866C115.926 98.3319 115.891 96.7957 115.765 95.2656C115.58 93.6269 115.27 92.0046 114.838 90.413C113.246 84.6392 109.945 79.482 105.368 75.619C100.791 71.756 95.1531 69.368 89.194 68.7688C84.6155 68.3498 80.0017 68.9817 75.7044 70.6164C71.2034 72.3387 67.1951 75.1417 64.0328 78.7784C63.8399 79.0084 63.6247 79.2162 63.4392 79.4536L62.8975 80.1956L61.829 81.6277L60.909 83.1562C60.5825 83.6554 60.29 84.176 60.0334 84.7144C59.7811 85.2412 59.5288 85.7755 59.2914 86.3023C59.0493 86.8345 58.8363 87.3794 58.6533 87.9347C58.4604 88.4838 58.2303 89.0254 58.0671 89.5819C57.9039 90.1384 57.7777 90.7023 57.6367 91.2588C56.5608 95.6407 56.5151 100.212 57.5032 104.615C58.7889 110.396 61.7816 115.658 66.0933 119.718C70.405 123.779 75.8369 126.45 81.685 127.387C83.3029 127.641 84.9371 127.777 86.5747 127.795C88.1034 127.788 89.6292 127.662 91.138 127.417C95.9997 126.624 100.589 124.638 104.494 121.636C104.502 121.628 104.511 121.622 104.521 121.617C104.531 121.613 104.542 121.611 104.553 121.611C104.565 121.611 104.576 121.613 104.586 121.617C104.596 121.622 104.605 121.628 104.613 121.636C104.624 121.651 104.629 121.67 104.629 121.688C104.629 121.707 104.624 121.725 104.613 121.74L104.553 121.607L111.884 122.111L113.784 122.245L114.407 122.334Z" fill="#263238"/>
<path d="M77.9305 98.1742C77.9305 98.7715 77.7534 99.3554 77.4216 99.852C77.0897 100.349 76.6181 100.736 76.0662 100.964C75.5144 101.193 74.9072 101.253 74.3214 101.136C73.7356 101.02 73.1975 100.732 72.7751 100.31C72.3528 99.8873 72.0652 99.3492 71.9487 98.7634C71.8321 98.1776 71.8919 97.5704 72.1205 97.0186C72.3491 96.4667 72.7361 95.9951 73.2328 95.6633C73.7294 95.3314 74.3133 95.1543 74.9106 95.1543C75.7109 95.1563 76.4779 95.4751 77.0438 96.041C77.6097 96.6069 77.9285 97.3739 77.9305 98.1742Z" fill="#263238"/>
<path d="M90.0243 98.1742C90.0243 98.7715 89.8471 99.3554 89.5153 99.852C89.1835 100.349 88.7118 100.736 88.16 100.964C87.6082 101.193 87.001 101.253 86.4152 101.136C85.8293 101.02 85.2912 100.732 84.8689 100.31C84.4465 99.8873 84.1589 99.3492 84.0424 98.7634C83.9259 98.1776 83.9857 97.5704 84.2143 97.0186C84.4428 96.4667 84.8299 95.9951 85.3265 95.6633C85.8232 95.3314 86.407 95.1543 87.0043 95.1543C87.8046 95.1563 88.5716 95.4751 89.1376 96.041C89.7035 96.6069 90.0223 97.3739 90.0243 98.1742Z" fill="#263238"/>
<path d="M102.09 96.6682C102.388 97.1855 102.526 97.7794 102.486 98.3749C102.447 98.9704 102.232 99.5409 101.868 100.014C101.505 100.488 101.009 100.843 100.444 101.034C99.8786 101.226 99.2692 101.246 98.6927 101.092C98.1161 100.938 97.5982 100.616 97.2043 100.168C96.8103 99.7194 96.5581 99.1644 96.4795 98.5728C96.4008 97.9811 96.4992 97.3794 96.7623 96.8437C97.0253 96.308 97.4412 95.8622 97.9575 95.5626C98.3013 95.3632 98.681 95.2335 99.075 95.1811C99.469 95.1287 99.8695 95.1547 100.253 95.2574C100.637 95.3601 100.997 95.5376 101.313 95.7797C101.628 96.0218 101.892 96.3237 102.09 96.6682Z" fill="#263238"/>
<path d="M129.431 227.175L98.1777 223.94L84.9404 193.896L74.6562 196.575C74.6562 196.575 82.2543 228.325 90.7577 233.245C99.261 238.164 128.31 239.047 128.31 239.047L129.431 227.175Z" fill="#01A99E"/>
<path d="M146.049 242.456C151.134 236.734 150.619 227.973 144.897 222.888C139.175 217.803 130.414 218.319 125.329 224.04C120.244 229.762 120.759 238.523 126.481 243.608C132.203 248.694 140.964 248.178 146.049 242.456Z" fill="#263238"/>
<path d="M135.687 247.12C132.476 247.12 129.363 246.006 126.88 243.969C124.398 241.931 122.698 239.096 122.071 235.946C121.445 232.796 121.93 229.526 123.444 226.693C124.958 223.86 127.407 221.64 130.375 220.411C133.342 219.182 136.644 219.02 139.718 219.952C142.791 220.885 145.446 222.854 147.231 225.524C149.015 228.195 149.818 231.402 149.503 234.598C149.189 237.794 147.775 240.783 145.504 243.054C144.218 244.347 142.688 245.372 141.003 246.07C139.318 246.768 137.511 247.125 135.687 247.12ZM135.687 219.399C132.484 219.396 129.379 220.503 126.901 222.533C124.422 224.562 122.725 227.388 122.096 230.529C121.468 233.67 121.948 236.932 123.455 239.759C124.962 242.585 127.403 244.802 130.361 246.031C133.319 247.26 136.612 247.425 139.678 246.499C142.744 245.572 145.395 243.611 147.177 240.95C148.96 238.288 149.764 235.091 149.454 231.903C149.143 228.715 147.737 225.733 145.474 223.465C144.193 222.174 142.668 221.15 140.988 220.452C139.308 219.754 137.507 219.396 135.687 219.399Z" fill="#263238"/>
<path d="M95.3797 235.618C100.962 234.278 104.401 228.666 103.061 223.083C101.721 217.501 96.1088 214.062 90.5262 215.402C84.9436 216.742 81.5045 222.354 82.8447 227.937C84.185 233.519 89.7971 236.958 95.3797 235.618Z" fill="#263238"/>
<path d="M85.0577 196.325C88.3755 193.008 88.3755 187.628 85.0577 184.31C81.7398 180.993 76.3605 180.993 73.0427 184.31C69.7248 187.628 69.7248 193.008 73.0427 196.325C76.3605 199.643 81.7398 199.643 85.0577 196.325Z" fill="#263238"/>
<path d="M92.2908 185.72L85.2952 191.628L82.7722 188.64L89.7678 182.733C90.1362 182.422 90.6131 182.27 91.0935 182.31C91.5739 182.351 92.0186 182.58 92.3296 182.949L92.502 183.153C92.6572 183.335 92.7748 183.546 92.8482 183.774C92.9216 184.002 92.9493 184.242 92.9297 184.48C92.91 184.719 92.8435 184.951 92.7338 185.164C92.6242 185.377 92.4736 185.566 92.2908 185.72Z" fill="#263238"/>
<path d="M83.4062 174.901V183.805C83.4062 183.874 83.3789 183.94 83.3302 183.989C83.2815 184.038 83.2154 184.065 83.1466 184.065H79.763C79.6942 184.065 79.6281 184.038 79.5794 183.989C79.5307 183.94 79.5033 183.874 79.5033 183.805V174.901C79.5033 174.419 79.6949 173.957 80.0358 173.616C80.3767 173.275 80.8391 173.083 81.3212 173.083H81.5884C82.0705 173.083 82.5329 173.275 82.8738 173.616C83.2147 173.957 83.4062 174.419 83.4062 174.901Z" fill="#263238"/>
<path d="M77.1078 174.935L79.0517 183.624C79.0667 183.692 79.0544 183.762 79.0175 183.82C78.9806 183.878 78.9221 183.92 78.8549 183.935L75.553 184.673C75.4858 184.688 75.4154 184.676 75.3572 184.639C75.2991 184.602 75.2579 184.544 75.2429 184.476L73.299 175.787C73.1938 175.317 73.2797 174.824 73.538 174.417C73.7963 174.009 74.2057 173.722 74.6762 173.616L74.9369 173.558C75.4074 173.453 75.9004 173.539 76.3076 173.797C76.7147 174.055 77.0026 174.465 77.1078 174.935Z" fill="#263238"/>
<path d="M70.3269 177.112L74.7789 184.824C74.8134 184.883 74.8227 184.954 74.8049 185.021C74.787 185.087 74.7435 185.144 74.6839 185.178L71.7536 186.87C71.694 186.904 71.6231 186.914 71.5566 186.896C71.4901 186.878 71.4333 186.835 71.3989 186.775L66.9469 179.064C66.7058 178.646 66.6405 178.15 66.7653 177.684C66.8901 177.219 67.1947 176.822 67.6123 176.581L67.8436 176.447C68.2612 176.206 68.7574 176.141 69.2231 176.265C69.6888 176.39 70.0858 176.695 70.3269 177.112Z" fill="#263238"/>
<path d="M265.263 305.004L274.617 301.025L247.625 237.558L238.27 241.536L265.263 305.004Z" fill="#01A99E"/>
<path d="M248.966 243.623C253.914 237.782 253.191 229.036 247.35 224.088C241.509 219.14 232.763 219.863 227.815 225.704C222.867 231.545 223.59 240.291 229.431 245.239C235.272 250.187 244.018 249.464 248.966 243.623Z" fill="#263238"/>
<path d="M238.417 248.574C236.242 248.576 234.098 248.066 232.156 247.087C230.214 246.108 228.53 244.687 227.238 242.938C225.945 241.189 225.082 239.161 224.717 237.017C224.352 234.873 224.495 232.674 225.135 230.596C225.894 228.145 227.317 225.952 229.248 224.261C231.178 222.571 233.539 221.448 236.069 221.019C238.599 220.59 241.198 220.871 243.578 221.83C245.958 222.79 248.025 224.391 249.55 226.454C251.075 228.518 251.997 230.965 252.215 233.521C252.433 236.078 251.937 238.645 250.784 240.937C249.63 243.229 247.863 245.157 245.68 246.505C243.497 247.853 240.983 248.57 238.417 248.574ZM238.417 220.839C235.855 220.841 233.344 221.554 231.164 222.899C228.983 224.243 227.219 226.166 226.066 228.454C224.913 230.742 224.418 233.304 224.635 235.857C224.852 238.409 225.772 240.851 227.295 242.912C228.817 244.972 230.881 246.57 233.257 247.527C235.633 248.484 238.228 248.763 240.754 248.334C243.279 247.904 245.635 246.782 247.561 245.093C249.487 243.404 250.906 241.213 251.661 238.765C252.739 235.257 252.381 231.465 250.666 228.221C248.951 224.977 246.018 222.546 242.512 221.462C241.172 221.047 239.776 220.836 238.372 220.839H238.417Z" fill="#263238"/>
<path d="M266.452 276.105C267.989 270.574 264.751 264.843 259.219 263.306C253.688 261.769 247.957 265.007 246.42 270.539C244.883 276.07 248.121 281.801 253.653 283.338C259.184 284.875 264.915 281.637 266.452 276.105Z" fill="#263238"/>
<path d="M272.113 314.174C276.805 314.174 280.609 310.371 280.609 305.679C280.609 300.986 276.805 297.183 272.113 297.183C267.421 297.183 263.617 300.986 263.617 305.679C263.617 310.371 267.421 314.174 272.113 314.174Z" fill="#263238"/>
<path d="M261.001 314.235L265.758 306.429L269.097 308.464L264.34 316.27C264.089 316.681 263.685 316.977 263.216 317.09C262.748 317.204 262.253 317.127 261.841 316.876L261.613 316.737C261.408 316.613 261.23 316.45 261.088 316.257C260.947 316.065 260.844 315.846 260.787 315.613C260.73 315.381 260.72 315.139 260.757 314.903C260.793 314.666 260.876 314.439 261.001 314.235Z" fill="#263238"/>
<path d="M272.845 321.68L270.026 313.234C270.004 313.169 270.009 313.097 270.04 313.036C270.071 312.974 270.125 312.927 270.19 312.906L273.4 311.834C273.465 311.812 273.536 311.817 273.598 311.848C273.659 311.879 273.706 311.933 273.728 311.998L276.548 320.444C276.62 320.671 276.648 320.911 276.628 321.149C276.608 321.387 276.542 321.619 276.433 321.831C276.323 322.043 276.173 322.232 275.991 322.386C275.809 322.54 275.598 322.657 275.371 322.73L275.117 322.815C274.665 322.959 274.175 322.922 273.75 322.71C273.326 322.498 273.001 322.128 272.845 321.68Z" fill="#263238"/>
<path d="M278.816 319.656L274.22 312.029C274.203 312 274.191 311.968 274.186 311.934C274.181 311.9 274.183 311.866 274.191 311.833C274.199 311.8 274.214 311.768 274.234 311.741C274.254 311.714 274.28 311.69 274.309 311.673L277.207 309.927C277.236 309.909 277.269 309.897 277.302 309.892C277.336 309.887 277.37 309.889 277.404 309.897C277.437 309.905 277.468 309.92 277.495 309.94C277.523 309.96 277.546 309.986 277.563 310.015L282.159 317.642C282.408 318.055 282.482 318.549 282.366 319.017C282.25 319.485 281.953 319.888 281.54 320.137L281.311 320.275C280.898 320.524 280.403 320.598 279.935 320.482C279.467 320.366 279.065 320.069 278.816 319.656Z" fill="#263238"/>
<path d="M284.553 315.451L277.889 309.546C277.837 309.5 277.806 309.436 277.802 309.367C277.798 309.299 277.821 309.231 277.867 309.179L280.105 306.653C280.151 306.601 280.215 306.57 280.284 306.565C280.353 306.561 280.421 306.585 280.472 306.63L287.137 312.535C287.498 312.855 287.717 313.305 287.746 313.786C287.775 314.267 287.612 314.74 287.292 315.101L287.115 315.301C286.794 315.66 286.345 315.877 285.865 315.905C285.385 315.933 284.913 315.77 284.553 315.451Z" fill="#263238"/>
<path d="M131.57 218.82C131.57 218.82 132.572 316.126 187.176 318.025C241.78 319.925 244.072 219.517 244.072 218.82C244.072 218.82 237.624 204.314 187.821 204.878C138.018 205.442 131.57 218.82 131.57 218.82Z" fill="#01A99E"/>
<path d="M162.23 201.695H208.382C211.394 201.695 213.836 199.253 213.836 196.241V195.447C213.836 192.435 211.394 189.993 208.382 189.993H162.23C159.218 189.993 156.776 192.435 156.776 195.447V196.241C156.776 199.253 159.218 201.695 162.23 201.695Z" fill="#263238"/>
<path d="M183.316 115.17H187.301V95.0251H183.316V115.17Z" fill="#263238"/>
<path d="M246.232 175.144C252.524 173.648 256.411 167.336 254.916 161.045C253.421 154.753 247.109 150.866 240.817 152.361C234.526 153.856 230.638 160.168 232.133 166.46C233.629 172.751 239.941 176.639 246.232 175.144Z" fill="#01A99E"/>
<path d="M127.923 174.384C134.229 172.953 138.182 166.681 136.752 160.375C135.321 154.068 129.049 150.116 122.743 151.546C116.437 152.977 112.484 159.249 113.914 165.555C115.345 171.861 121.617 175.814 127.923 174.384Z" fill="#01A99E"/>
<path d="M182.99 110.8C182.99 110.8 135.384 110.228 127.86 151.491C120.336 192.754 160.582 193.496 172.165 194.275C177.411 194.631 188.644 194.668 198.558 194.49C220.506 194.111 236.014 189.867 241.289 169.507C241.918 167.119 242.313 164.677 242.469 162.213C243.857 139.864 228.772 109.701 182.99 110.8Z" fill="#01A99E"/>
<path d="M217.524 173.603L148.362 174.678C146.636 174.709 144.921 174.399 143.316 173.766C141.71 173.133 140.245 172.189 139.005 170.989C137.764 169.789 136.772 168.357 136.086 166.773C135.4 165.189 135.033 163.486 135.006 161.76C134.976 160.034 135.287 158.319 135.921 156.714C136.555 155.108 137.499 153.643 138.7 152.403C139.9 151.162 141.334 150.171 142.918 149.484C144.502 148.798 146.205 148.431 147.931 148.404L217.093 147.328C218.819 147.297 220.534 147.606 222.14 148.239C223.746 148.872 225.212 149.815 226.453 151.015C227.693 152.215 228.685 153.649 229.371 155.233C230.057 156.817 230.423 158.521 230.449 160.247C230.48 161.973 230.169 163.688 229.536 165.294C228.902 166.9 227.958 168.366 226.758 169.606C225.557 170.847 224.123 171.839 222.539 172.524C220.954 173.21 219.25 173.576 217.524 173.603Z" fill="#E8FFFD"/>
<path d="M162.733 160.328C162.572 161.146 162.172 161.898 161.584 162.488C160.996 163.079 160.246 163.482 159.429 163.647C158.612 163.811 157.764 163.73 156.994 163.412C156.223 163.095 155.563 162.557 155.099 161.865C154.634 161.173 154.385 160.359 154.383 159.525C154.381 158.692 154.626 157.876 155.087 157.182C155.548 156.488 156.205 155.946 156.974 155.625C157.744 155.304 158.591 155.219 159.409 155.379C159.952 155.486 160.469 155.698 160.93 156.005C161.391 156.311 161.787 156.705 162.096 157.165C162.405 157.625 162.62 158.14 162.729 158.683C162.838 159.226 162.84 159.785 162.733 160.328Z" fill="#2B2B2B"/>
<path d="M211.031 159.557C210.871 160.375 210.473 161.128 209.885 161.72C209.298 162.312 208.548 162.716 207.731 162.881C206.914 163.047 206.066 162.966 205.294 162.65C204.523 162.333 203.863 161.795 203.397 161.103C202.932 160.411 202.682 159.597 202.68 158.763C202.677 157.929 202.922 157.113 203.384 156.419C203.845 155.724 204.502 155.182 205.272 154.861C206.041 154.54 206.889 154.454 207.707 154.615C208.803 154.83 209.768 155.472 210.391 156.398C211.015 157.325 211.245 158.461 211.031 159.557Z" fill="#2B2B2B"/>
<path d="M204.08 257.464C203.809 261.177 202.443 264.726 200.154 267.663C197.866 270.6 194.759 272.792 191.224 273.963C187.69 275.133 183.888 275.23 180.299 274.24C176.71 273.25 173.496 271.218 171.061 268.401C168.627 265.584 167.083 262.108 166.624 258.414C166.165 254.719 166.812 250.971 168.483 247.644C170.154 244.317 172.774 241.561 176.011 239.723C179.249 237.885 182.959 237.048 186.672 237.318C191.651 237.683 196.282 240.01 199.546 243.787C202.811 247.565 204.441 252.484 204.08 257.464Z" fill="#263238"/>
<path d="M198.981 257.092C198.783 259.799 197.787 262.385 196.118 264.526C194.45 266.666 192.185 268.263 189.609 269.116C187.033 269.968 184.262 270.038 181.646 269.316C179.03 268.594 176.688 267.112 174.914 265.058C173.141 263.004 172.016 260.471 171.682 257.778C171.349 255.085 171.821 252.354 173.04 249.929C174.259 247.505 176.169 245.496 178.529 244.157C180.889 242.819 183.594 242.21 186.3 242.408C188.097 242.539 189.851 243.022 191.461 243.831C193.071 244.64 194.506 245.758 195.684 247.122C196.861 248.486 197.759 250.068 198.324 251.779C198.89 253.49 199.113 255.295 198.981 257.092Z" fill="#2B2B2B"/>
<path d="M192.367 259.586C192.262 258.836 192.22 258.079 192.241 257.323C192.204 255.905 192.174 253.88 192.174 251.387L192.323 251.661L185.266 247.543H185.659L178.536 251.542C178.343 251.869 178.796 251.105 178.751 251.186V252.24V253.301C178.751 253.998 178.751 254.696 178.714 255.379C178.714 256.744 178.662 258.065 178.64 259.341L178.447 258.999L185.422 263.259H185.11C187.284 262.086 189.08 261.151 190.304 260.513C190.963 260.138 191.65 259.816 192.36 259.549C191.806 259.999 191.21 260.395 190.579 260.728C189.377 261.47 187.611 262.517 185.385 263.8L185.229 263.889L185.073 263.8L178.009 259.682L177.816 259.571V259.333C177.816 258.057 177.831 256.736 177.861 255.371C177.861 254.688 177.861 253.998 177.861 253.293V252.24V251.216C177.816 251.297 178.269 250.541 178.076 250.86L185.222 246.897L185.429 246.786L185.622 246.905L192.59 251.164L192.745 251.26V251.438C192.664 254.006 192.582 256.069 192.508 257.471C192.527 258.179 192.48 258.887 192.367 259.586Z" fill="#01A99E"/>
<path d="M189.957 99.2601C192.522 96.6956 192.522 92.5378 189.957 89.9733C187.393 87.4089 183.235 87.4089 180.671 89.9733C178.106 92.5378 178.106 96.6956 180.671 99.2601C183.235 101.825 187.393 101.825 189.957 99.2601Z" fill="#01A99E"/>
<path d="M174.822 158.384C175.133 158.421 174.977 159.868 175.898 161.849C176.419 162.987 177.178 163.999 178.124 164.817C179.232 165.793 180.612 166.406 182.078 166.576C183.553 166.671 185.022 166.319 186.293 165.567C187.369 164.941 188.3 164.094 189.024 163.081C190.285 161.323 190.396 159.846 190.708 159.868C190.834 159.868 190.96 160.239 190.96 160.937C190.932 161.931 190.678 162.905 190.218 163.786C189.527 165.118 188.505 166.25 187.25 167.073C185.699 168.166 183.81 168.672 181.92 168.499C180.03 168.326 178.264 167.487 176.936 166.131C175.853 165.095 175.056 163.796 174.621 162.361C174.312 161.404 174.231 160.388 174.384 159.393C174.51 158.703 174.703 158.362 174.822 158.384Z" fill="#2B2B2B"/>
<path d="M238.212 177.609C238.137 177.609 238.991 176.274 239.814 173.937C240.839 170.875 241.486 167.701 241.743 164.483C242.041 161.277 242.115 158.054 241.966 154.837C241.914 153.598 241.855 152.611 241.795 151.869C241.745 151.511 241.733 151.148 241.758 150.786C241.853 151.136 241.915 151.493 241.944 151.855C242.048 152.545 242.152 153.546 242.241 154.823C242.473 158.065 242.436 161.321 242.129 164.558C241.868 167.805 241.177 171.004 240.074 174.07C239.725 174.995 239.303 175.89 238.813 176.749C238.637 177.052 238.436 177.34 238.212 177.609Z" fill="#263238"/>
<path d="M127.95 150.111C127.908 150.471 127.831 150.827 127.72 151.172C127.624 151.506 127.52 151.914 127.424 152.404C127.327 152.893 127.179 153.428 127.09 154.043C126.829 155.474 126.656 156.918 126.57 158.369C126.47 160.145 126.495 161.925 126.644 163.697C126.81 165.466 127.098 167.221 127.505 168.95C127.846 170.365 128.272 171.757 128.781 173.12C128.982 173.706 129.212 174.218 129.397 174.678C129.583 175.139 129.761 175.524 129.909 175.836C130.078 176.156 130.217 176.492 130.325 176.838C130.114 176.543 129.93 176.23 129.776 175.903C129.566 175.532 129.375 175.15 129.204 174.76C128.997 174.315 128.744 173.803 128.529 173.217C127.978 171.857 127.522 170.462 127.164 169.039C126.73 167.293 126.427 165.518 126.259 163.727C126.107 161.937 126.092 160.139 126.214 158.347C126.318 156.883 126.521 155.428 126.822 153.991C126.934 153.376 127.09 152.834 127.216 152.352C127.342 151.869 127.461 151.461 127.572 151.127C127.67 150.779 127.797 150.439 127.95 150.111Z" fill="#263238"/>
<path d="M131.316 218.739L131.598 218.82L132.429 219.102L135.59 220.215L137.876 221.032C138.714 221.314 139.642 221.581 140.629 221.885C142.61 222.471 144.843 223.235 147.381 223.829L151.336 224.845C152.716 225.194 154.17 225.454 155.669 225.78C158.637 226.463 161.894 226.93 165.315 227.48C172.712 228.494 180.168 229.027 187.634 229.075C195.101 229.031 202.557 228.498 209.954 227.48C213.352 226.93 216.587 226.47 219.6 225.78C221.084 225.461 222.568 225.202 223.933 224.853L227.895 223.836C230.425 223.243 232.659 222.478 234.64 221.892C235.627 221.588 236.554 221.321 237.393 221.039L239.678 220.223L242.839 219.11L243.67 218.828C243.763 218.791 243.86 218.764 243.959 218.746L243.685 218.865L242.869 219.184L239.73 220.364L237.393 221.239C236.562 221.529 235.634 221.803 234.647 222.122C232.666 222.731 230.44 223.51 227.903 224.126L223.94 225.164C222.568 225.521 221.106 225.788 219.607 226.122C216.639 226.819 213.374 227.294 209.961 227.858C202.548 228.898 195.075 229.441 187.59 229.483C180.107 229.435 172.636 228.89 165.226 227.851C161.82 227.294 158.548 226.812 155.58 226.114C154.096 225.78 152.612 225.513 151.247 225.157L147.284 224.118C144.747 223.502 142.521 222.723 140.539 222.115C139.553 221.796 138.633 221.521 137.794 221.232L135.516 220.379L132.377 219.199L131.561 218.88C131.475 218.841 131.393 218.793 131.316 218.739Z" fill="#263238"/>
<g opacity="0.3">
<path d="M131.57 218.82C131.57 218.82 138.018 205.464 187.821 204.878C237.624 204.292 244.072 218.82 244.072 218.82C244.072 218.82 193.809 243.596 131.57 218.82Z" fill="#2B2B2B"/>
</g>
<path d="M176.956 113.887C176.899 113.892 176.842 113.892 176.786 113.887L176.288 113.939C175.843 113.983 175.19 113.998 174.352 114.094C171.986 114.324 169.638 114.713 167.325 115.259C155.36 118 144.806 125.012 137.645 134.982C134.185 139.772 131.566 145.117 129.899 150.786C129.639 151.588 129.498 152.226 129.372 152.649L129.231 153.138C129.217 153.195 129.198 153.25 129.171 153.302C129.162 153.245 129.162 153.187 129.171 153.131C129.171 152.997 129.231 152.834 129.275 152.634C129.379 152.203 129.491 151.558 129.728 150.742C130.347 148.437 131.141 146.182 132.102 143.997C135.274 136.736 140.102 130.32 146.2 125.261C152.324 120.241 159.539 116.724 167.266 114.992C169.593 114.463 171.957 114.114 174.337 113.946C175.183 113.872 175.821 113.879 176.281 113.857H176.786C176.904 113.872 176.956 113.879 176.956 113.887Z" fill="#2B2B2B"/>
<path d="M130.383 171.006C130.085 170.546 129.855 170.046 129.7 169.522C128.82 167.042 128.41 164.42 128.49 161.79C128.469 161.244 128.534 160.698 128.683 160.172C128.802 160.172 128.639 162.651 129.114 165.648C129.589 168.646 130.494 170.961 130.383 171.006Z" fill="#2B2B2B"/>
<path d="M117.896 167.169C117.896 167.169 117.725 167.051 117.495 166.769C117.167 166.369 116.886 165.933 116.657 165.47C115.864 163.936 115.561 162.196 115.788 160.485C116.015 158.774 116.761 157.173 117.926 155.898C118.267 155.508 118.653 155.159 119.076 154.86C119.221 154.737 119.387 154.642 119.565 154.578C119.61 154.637 118.942 155.09 118.133 156.062C117.072 157.333 116.393 158.879 116.175 160.521C115.957 162.163 116.209 163.832 116.902 165.337C117.421 166.516 117.948 167.125 117.896 167.169Z" fill="#2B2B2B"/>
<path d="M185.736 90.0386C185.157 89.9749 184.574 89.9625 183.993 90.0015C183.301 90.0623 182.632 90.2807 182.037 90.6401C181.443 90.9995 180.938 91.4903 180.563 92.0749C180.188 92.6594 179.951 93.3222 179.872 94.0124C179.792 94.7025 179.872 95.4017 180.105 96.0563C180.305 96.5991 180.553 97.1231 180.847 97.6219C180.847 97.6219 180.698 97.5328 180.49 97.2954C180.205 96.9519 179.98 96.5632 179.823 96.1453C179.54 95.4524 179.428 94.7015 179.496 93.9562C179.565 93.2109 179.812 92.493 180.216 91.8634C180.621 91.2338 181.172 90.7109 181.821 90.339C182.471 89.9671 183.2 89.7572 183.948 89.727C184.392 89.6962 184.839 89.7388 185.269 89.8531C185.603 89.9051 185.736 90.0164 185.736 90.0386Z" fill="#2B2B2B"/>
<path d="M250.407 158.169C250.325 158.258 249.175 157.153 247.439 156.322C245.702 155.491 244.122 155.246 244.137 155.127C245.346 155.097 246.542 155.389 247.602 155.973C248.717 156.44 249.686 157.198 250.407 158.169Z" fill="#2B2B2B"/>
<path d="M148.637 288.071C148.603 288.027 148.574 287.98 148.548 287.93L148.303 287.492C148.081 287.069 147.784 286.505 147.398 285.786C147.205 285.415 146.998 284.999 146.76 284.554L146.063 283.07C145.558 281.994 144.994 280.77 144.438 279.36C144.156 278.67 143.859 277.943 143.547 277.193C143.236 276.444 142.968 275.628 142.664 274.804C142.026 273.164 141.484 271.361 140.854 269.491C139.689 265.707 138.546 261.515 137.544 257.063C136.543 252.611 135.816 248.315 135.222 244.404C134.628 240.494 134.243 236.984 134.005 233.972C133.864 232.488 133.775 231.137 133.701 229.95C133.627 228.763 133.56 227.724 133.538 226.908C133.515 226.092 133.493 225.461 133.471 224.986V224.489C133.463 224.432 133.463 224.375 133.471 224.318C133.479 224.375 133.479 224.432 133.471 224.489L133.515 224.986C133.515 225.454 133.597 226.099 133.649 226.901C133.701 227.702 133.775 228.756 133.879 229.935C133.983 231.115 134.079 232.466 134.243 233.95C134.51 236.918 134.985 240.449 135.541 244.338C136.098 248.226 136.906 252.5 137.886 256.952C138.865 261.404 140.015 265.588 141.151 269.365C141.781 271.235 142.308 273.031 142.931 274.67C143.228 275.502 143.51 276.295 143.792 277.06L144.653 279.241C145.187 280.629 145.736 281.86 146.226 282.951L146.894 284.435C147.109 284.888 147.317 285.303 147.502 285.682L148.333 287.418L148.541 287.871C148.586 287.93 148.619 287.999 148.637 288.071Z" fill="#2B2B2B"/>
<path d="M119.6 227.576C117.789 227.644 115.976 227.58 114.176 227.383C112.366 227.32 110.564 227.129 108.781 226.812C110.592 226.743 112.404 226.808 114.205 227.005C116.015 227.067 117.817 227.258 119.6 227.576Z" fill="#2B2B2B"/>
<path d="M91.6881 211.734C90.6357 210.201 89.6911 208.597 88.8611 206.934C87.9204 205.331 87.0923 203.665 86.3828 201.947C87.432 203.483 88.3741 205.09 89.2024 206.755C90.1479 208.354 90.9786 210.018 91.6881 211.734Z" fill="#2B2B2B"/>
<path d="M174.975 311.466C174.683 311.461 174.392 311.426 174.107 311.362C173.322 311.223 172.546 311.034 171.785 310.799C170.653 310.454 169.547 310.03 168.475 309.53C167.17 308.9 165.914 308.171 164.721 307.348C163.541 306.505 162.429 305.57 161.397 304.551C160.56 303.713 159.787 302.815 159.082 301.865C158.598 301.231 158.16 300.564 157.768 299.869C157.608 299.625 157.476 299.364 157.375 299.09C157.434 299.053 158.058 300.129 159.297 301.702C160.025 302.616 160.811 303.484 161.649 304.299C163.703 306.294 166.059 307.952 168.631 309.211C169.682 309.718 170.762 310.162 171.866 310.539C173.766 311.177 174.99 311.392 174.975 311.466Z" fill="#2B2B2B"/>
<path d="M186.361 277.142C186.189 277.171 186.015 277.189 185.841 277.193C185.348 277.235 184.852 277.25 184.357 277.238C182.512 277.197 180.682 276.9 178.918 276.355C177.7 275.976 176.514 275.499 175.372 274.93C174.062 274.257 172.819 273.459 171.662 272.549C168.979 270.488 166.865 267.78 165.518 264.677C164.171 261.575 163.634 258.181 163.96 254.815C164.081 253.354 164.341 251.908 164.739 250.496C165.094 249.272 165.553 248.081 166.111 246.935C166.916 245.273 167.95 243.731 169.183 242.357C169.514 241.981 169.866 241.624 170.237 241.288C170.36 241.165 170.491 241.051 170.63 240.947C170.63 240.947 170.14 241.474 169.295 242.431C168.107 243.827 167.109 245.374 166.327 247.031C165.16 249.474 164.465 252.114 164.279 254.815C163.978 258.122 164.513 261.451 165.836 264.497C167.158 267.542 169.225 270.207 171.847 272.244C172.971 273.149 174.178 273.944 175.453 274.619C176.57 275.208 177.734 275.704 178.933 276.103C180.67 276.666 182.474 276.998 184.298 277.09C185.641 277.142 186.361 277.097 186.361 277.142Z" fill="#2B2B2B"/>
<path d="M96.5245 218.709C96.5245 218.768 95.9532 218.494 95.0405 218.278C93.8193 218.011 92.5533 218.024 91.3377 218.315C90.122 218.607 88.9882 219.17 88.0212 219.963C87.2792 220.579 86.923 221.068 86.8711 221.031C87.0747 220.54 87.3897 220.103 87.7912 219.755C88.7542 218.871 89.9268 218.248 91.198 217.944C92.4692 217.64 93.7968 217.666 95.0554 218.019C95.5917 218.133 96.0944 218.369 96.5245 218.709Z" fill="#2B2B2B"/>
<path d="M206.097 144.932C206.097 145.036 196.985 145.125 185.752 145.125C174.518 145.125 165.398 145.036 165.398 144.932C165.398 144.828 174.51 144.739 185.752 144.739C196.993 144.739 206.097 144.813 206.097 144.932Z" fill="#2B2B2B"/>
<path d="M171.37 191.329C171.259 191.36 171.144 191.378 171.029 191.381L170.034 191.47C169.604 191.507 169.077 191.537 168.461 191.552C167.845 191.566 167.148 191.596 166.376 191.552C164.825 191.552 162.985 191.44 160.945 191.225C158.737 190.968 156.544 190.589 154.378 190.09C152.217 189.571 150.086 188.932 147.997 188.175C146.294 187.552 144.625 186.841 142.996 186.046C142.254 185.719 141.682 185.378 141.141 185.089C140.599 184.799 140.139 184.54 139.768 184.347L138.915 183.827C138.814 183.771 138.719 183.704 138.633 183.627C138.633 183.627 138.752 183.627 138.952 183.761L139.842 184.213C140.221 184.421 140.688 184.666 141.237 184.955C141.786 185.245 142.41 185.541 143.114 185.853C144.509 186.506 146.209 187.203 148.123 187.893C152.284 189.385 156.6 190.401 160.989 190.921C163.008 191.158 164.84 191.292 166.376 191.329C167.118 191.373 167.86 191.329 168.461 191.329C169.062 191.329 169.596 191.329 170.027 191.329H171.021C171.137 191.31 171.254 191.31 171.37 191.329Z" fill="#2B2B2B"/>
<path d="M230.602 224.764C230.548 224.8 230.488 224.827 230.424 224.845L229.89 225.046L227.827 225.788C226.929 226.114 225.831 226.493 224.533 226.871C223.234 227.249 221.773 227.739 220.118 228.155L217.536 228.837C216.638 229.067 215.688 229.26 214.716 229.49C212.772 229.958 210.665 230.329 208.454 230.752C198.823 232.429 189.035 233.029 179.271 232.54C177.045 232.399 174.886 232.288 172.897 232.058C171.903 231.954 170.938 231.879 170.018 231.753L167.369 231.39C165.677 231.189 164.164 230.885 162.836 230.648C161.507 230.41 160.357 230.188 159.43 229.973L157.293 229.498L156.736 229.364C156.672 229.353 156.609 229.333 156.551 229.305C156.617 229.299 156.684 229.299 156.751 229.305L157.308 229.401L159.459 229.809C160.394 229.995 161.537 230.21 162.873 230.41C164.208 230.611 165.714 230.9 167.406 231.086L170.048 231.419C170.968 231.538 171.932 231.605 172.927 231.701C174.908 231.917 177.045 232.013 179.286 232.147C183.775 232.332 188.709 232.339 193.888 232.035C199.067 231.731 203.957 231.086 208.387 230.358C210.613 229.95 212.705 229.616 214.649 229.141C215.621 228.919 216.571 228.733 217.469 228.511L220.051 227.85C221.706 227.457 223.168 226.997 224.466 226.626C225.765 226.255 226.878 225.884 227.775 225.61L229.86 224.942L230.409 224.779L230.602 224.764Z" fill="#2B2B2B"/>
</svg>
