<svg width="46" height="45" viewBox="0 0 46 45" fill="none" xmlns="http://www.w3.org/2000/svg">
<path d="M23.3657 8.43333C22.0761 8.43333 16.9179 15.6143 14.5 19.2048V35.5H32.5V19.2048C29.9925 15.6143 24.6552 8.43333 23.3657 8.43333Z" fill="#43CEC5"/>
<path d="M25.5 2.39474C25.5 3.44117 24.6046 6.5 23.5 6.5C22.3954 6.5 21.5 3.44117 21.5 2.39474C21.5 1.3483 22.3954 0.5 23.5 0.5C24.6046 0.5 25.5 1.3483 25.5 2.39474Z" fill="#43CEC5"/>
<path d="M23.0053 44.5C21.386 36.2249 22.7354 19.027 41.0876 16.4365C43.0668 24.172 42.2213 40.6143 23.0053 44.5Z" fill="#489590"/>
<path d="M44.056 10.5C42.1128 11.5794 41.9869 14.0079 42.1668 15.0873C43.0664 14.8175 44.9736 14.0079 45.4054 12.9286C45.8373 11.8492 44.6857 10.8598 44.056 10.5Z" fill="#489590"/>
<path d="M22.9947 44.5C24.614 36.2249 23.2646 19.027 4.91243 16.4365C2.93318 24.172 3.77869 40.6143 22.9947 44.5Z" fill="#01A99E"/>
<path d="M1.94398 10.5C3.88716 11.5794 4.0131 14.0079 3.83318 15.0873C2.93356 14.8175 1.02637 14.0079 0.594557 12.9286C0.162741 11.8492 1.31425 10.8598 1.94398 10.5Z" fill="#01A99E"/>
</svg>
