<svg width="59" height="145" viewBox="0 0 59 145" fill="none" xmlns="http://www.w3.org/2000/svg">
<path d="M2.80424 9.66113H6.43712C7.08023 9.66113 7.60156 10.1825 7.60156 10.8256V21.0003C7.60156 21.6434 7.08023 22.1647 6.43712 22.1647H2.80424C2.16114 22.1647 1.6398 21.6434 1.6398 21.0003V10.8256C1.6398 10.1825 2.16114 9.66113 2.80424 9.66113Z" fill="#263238" stroke="#263238" stroke-miterlimit="10"/>
<path d="M2.17177 10.7656H7.07812V21.0581H2.17177V10.7656Z" fill="white" stroke="#263238" stroke-miterlimit="10"/>
<path d="M55.0352 70.9348C53.2854 70.9252 51.5728 70.4283 50.0896 69.5C50.1855 72.2824 50.2596 74.3889 50.2596 74.3889C50.2596 74.3889 49.7799 75.2263 49.54 75.5882C49.3002 75.9502 47.2635 77.1452 47.0236 78.2268C46.7838 79.3084 45.7153 79.9058 45.8243 81.4628C45.9333 83.0197 47.2635 81.3407 47.0236 81.7026C46.7838 82.0646 46.0642 83.2596 46.0642 84.3412C46.0642 85.4228 48.3407 85.4184 49.1824 84.6988C50.0241 83.9792 52.7761 82.3001 53.0159 80.7432L53.9536 77.2542L55.0352 70.9348Z" fill="white" stroke="#263238" stroke-miterlimit="10"/>
<path d="M50.0547 79.584L49.4703 82.2007C49.4703 82.2007 47.5819 83.653 47.438 84.6735" fill="white"/>
<path d="M50.0547 79.584L49.4703 82.2007C49.4703 82.2007 47.5819 83.653 47.438 84.6735" stroke="#263238" stroke-miterlimit="10"/>
<path d="M47.0289 81.7039L47.875 80.0205" stroke="#263238" stroke-miterlimit="10"/>
<path d="M40.6331 134.872C40.6331 134.872 41.3179 140.484 40.7858 141.169C40.4858 141.6 40.1038 141.968 39.6615 142.252C39.2193 142.536 38.7255 142.729 38.2083 142.822C36.9959 142.975 34.9461 142.29 34.9461 142.29C33.5628 142.661 32.1255 142.79 30.6983 142.669C28.5177 142.443 27.0611 141.61 26.9084 140.545C26.7558 139.481 28.6529 139.032 29.7127 137.894C30.7725 136.756 32.4646 134.741 32.4646 134.741L32.9007 133.267C32.9007 133.267 35.4782 134.575 37.1442 134.632C38.0864 134.688 39.0318 134.612 39.9528 134.405L40.6331 134.872Z" fill="white" stroke="#263238" stroke-miterlimit="10"/>
<path d="M26.9062 140.558C26.889 140.434 26.9009 140.307 26.9411 140.187C27.4427 140.397 28.0838 140.65 28.8775 140.938C31.1541 141.775 32.2923 141.09 33.4262 141.09C34.5602 141.09 34.643 142.303 37.8267 141.47C39.907 140.924 40.6876 140.222 40.9842 139.795C41.026 140.262 40.9573 140.733 40.7836 141.169C40.4836 141.6 40.1016 141.968 39.6593 142.252C39.2171 142.535 38.7233 142.729 38.2061 142.822C36.9937 142.974 34.9439 142.29 34.9439 142.29C33.5606 142.661 32.1234 142.789 30.6961 142.669C28.4981 142.455 27.0589 141.622 26.9062 140.558Z" fill="white" stroke="#263238" stroke-miterlimit="10"/>
<path d="M44.6772 65.1925C44.6772 65.1925 47.73 75.4413 46.6397 82.6373C45.5494 89.8333 40.316 103.353 40.316 103.353C40.316 103.353 40.9702 108.368 40.9702 110.113C40.9702 111.857 42.4966 115.128 41.4063 118.617C40.316 122.106 40.316 131.265 40.316 131.919C40.316 132.573 40.7521 136.062 40.7521 136.062C40.7521 136.062 39.8799 137.37 36.609 137.37C33.338 137.37 32.4658 134.754 32.4658 134.754C32.4658 134.754 29.1949 115.346 29.1949 112.293C29.1949 109.241 25.7059 97.9015 24.3976 93.3223C23.5226 90.1699 22.2552 87.1398 20.6251 84.3033C19.7529 82.7769 20.2544 64.3203 20.2544 64.3203L45.1133 62.1396L44.6772 65.1925Z" fill="#737373" stroke="#263238" stroke-miterlimit="10"/>
<path d="M27.5171 136.314C27.5171 136.314 24.2549 137.601 22.6631 138.36C21.0713 139.119 20.0115 139.193 20.0115 140.41C20.0115 141.626 22.8899 142.834 24.6344 143.14C26.3789 143.445 29.1875 143.367 29.4884 143.441C29.7893 143.515 35.4807 144.352 36.161 142.909C36.8414 141.465 36.0869 136.541 36.0869 136.541C33.243 137.027 30.3314 136.95 27.5171 136.314Z" fill="white" stroke="#263238" stroke-miterlimit="10"/>
<path d="M29.4882 143.441C29.1873 143.366 26.3787 143.441 24.6342 143.14C22.8897 142.839 20.0113 141.622 20.0113 140.409C20.0102 140.25 20.0337 140.091 20.0811 139.938C20.8174 140.368 21.5791 140.752 22.362 141.09C24.4859 142.001 27.2902 142.608 31.5205 142.533C33.1597 142.53 34.7919 142.32 36.3789 141.91C36.3546 142.253 36.2751 142.59 36.1434 142.908C35.4805 144.352 29.7935 143.519 29.4882 143.441Z" fill="white" stroke="#263238" stroke-miterlimit="10"/>
<path d="M20.0334 66.0635C20.0334 66.0635 18.725 83.7263 21.3417 97.028C23.9584 110.33 28.3196 128.429 28.5377 129.301C28.7558 130.173 27.0113 132.572 27.0113 132.572V136.061C27.0113 136.061 28.5377 137.587 32.0267 138.023C35.5156 138.459 36.6059 137.369 36.6059 137.369C36.6059 137.369 37.4782 131.482 37.4782 127.338C37.4782 123.195 36.6059 109.021 36.6059 109.021C36.6059 109.021 34.6434 94.6294 34.8615 92.4488C35.0795 90.2682 35.7337 83.5083 35.7337 83.5083L39.2227 79.3651" fill="#737373"/>
<path d="M20.0334 66.0635C20.0334 66.0635 18.725 83.7263 21.3417 97.028C23.9584 110.33 28.3196 128.429 28.5377 129.301C28.7558 130.173 27.0113 132.572 27.0113 132.572V136.061C27.0113 136.061 28.5377 137.587 32.0267 138.023C35.5156 138.459 36.6059 137.369 36.6059 137.369C36.6059 137.369 37.4782 131.482 37.4782 127.338C37.4782 123.195 36.6059 109.021 36.6059 109.021C36.6059 109.021 34.6434 94.6294 34.8615 92.4488C35.0795 90.2682 35.7337 83.5083 35.7337 83.5083L39.2227 79.3651" stroke="#263238" stroke-miterlimit="10"/>
<path d="M56.6899 62.7413L49.8297 61.5376C49.8602 62.4665 49.664 56.5963 49.664 56.1602C49.664 55.2007 47.3874 49.1823 47.3874 49.1823C47.3874 49.1823 45.5906 56.9801 45.5906 57.9396C45.5906 58.899 46.3102 66.2259 45.3507 67.1722C44.3913 68.1186 41.0331 70.0506 33.5973 69.8108C26.1614 69.5709 20.6445 68.9691 19.2053 67.5299C17.7661 66.0907 19.4452 61.6553 19.5673 61.0578C19.6894 60.4603 17.6484 44.7469 17.6484 44.7469C17.6484 44.7469 9.61504 53.1422 4.81771 51.9429C0.0203934 50.7436 2.29694 32.0471 2.29694 32.0471L2.05708 26.6523C2.05708 26.6523 0.500122 22.6967 0.500122 22.0948C0.500122 21.493 2.05708 17.1798 2.05708 17.1798C2.05708 17.1798 3.01654 16.3381 3.61839 18.3791C3.95566 19.4754 4.19644 20.599 4.33798 21.7372C4.33798 21.7372 5.77718 22.8144 5.64634 24.3758C5.57433 25.3175 5.37329 26.245 5.04886 27.132L8.29359 37.7167C8.29359 37.7167 11.8916 33.639 12.1315 32.9194C12.3713 32.1998 12.2536 29.5612 15.2497 27.9999C18.2459 26.4386 24.3646 26.3208 24.3646 26.3208L41.273 26.443C41.273 26.443 49.1886 27.1408 50.9636 28.6977C52.7386 30.2547 58.2773 50.0458 58.2773 53.042C58.2773 53.9796 57.7889 56.8842 57.1042 60.4778L56.6899 62.7413Z" fill="white" stroke="#263238" stroke-miterlimit="10"/>
<path d="M2.05358 17.1875C2.05358 17.1875 2.41556 20.1836 2.1757 20.7855C1.83175 21.8282 1.74938 22.9395 1.93583 24.0215" stroke="#263238" stroke-miterlimit="10"/>
<path d="M4.81771 51.9652C0.0203896 50.7658 2.29694 32.0563 2.29694 32.0563L2.2446 30.8482C2.7688 30.4508 3.37657 30.178 4.02185 30.0503C4.66714 29.9226 5.33303 29.9434 5.96907 30.1112L8.29359 37.7171C8.29359 37.7171 11.8916 33.6394 12.1315 32.9198C12.3713 32.2002 12.2536 29.5617 15.2497 28.0004C18.2459 26.439 24.3646 26.3213 24.3646 26.3213L41.273 26.4434C41.273 26.4434 49.1886 27.1412 50.9636 28.6982C52.7386 30.2551 58.2773 50.0462 58.2773 53.0424C58.2773 54.8218 56.5067 63.6924 55.0152 70.9233C53.274 70.9135 51.5697 70.4214 50.0914 69.5016C49.9169 64.3161 49.6552 56.7843 49.6552 56.1606C49.6552 55.2012 47.3787 49.1827 47.3787 49.1827C47.3787 49.1827 45.5819 56.9805 45.5819 57.94C45.5819 58.8995 46.3015 66.2263 45.342 67.1727C44.3826 68.1191 41.0244 70.0511 33.5886 69.8112C26.1527 69.5713 20.6358 68.9695 19.1966 67.5303C17.7574 66.0911 19.4365 61.6558 19.5586 61.0583C19.6807 60.4608 17.6396 44.7474 17.6396 44.7474C17.6396 44.7474 9.61504 53.1645 4.81771 51.9652Z" fill="#01A99E" stroke="#263238" stroke-miterlimit="10"/>
<path d="M49.7437 42.6062L47.3886 49.2047L52.2383 40.9141" stroke="#263238" stroke-miterlimit="10"/>
<path d="M51.0742 38.8799L50.2412 41.2131" stroke="#263238" stroke-miterlimit="10"/>
<path d="M34.4688 43.0732C33.409 45.4545 31.852 48.4419 29.9985 50.3652" stroke="#263238" stroke-miterlimit="10"/>
<path d="M35.9531 39.3174C35.9531 39.3174 35.626 40.2987 35.0416 41.7248" stroke="#263238" stroke-miterlimit="10"/>
<path d="M33.3359 47.3115C33.3359 47.3115 30.7192 52.545 29.4109 53.5611" stroke="#263238" stroke-miterlimit="10"/>
<path d="M13.5469 40.9656L12.5525 40.041" stroke="#263238" stroke-miterlimit="10"/>
<path d="M15.1669 39.6055L17.6484 44.7691L14.4473 41.8035" stroke="#263238" stroke-miterlimit="10"/>
<path d="M3.82709 42.5144C3.97101 41.4983 8.29297 37.6953 8.29297 37.6953C8.29297 37.6953 3.8271 39.4616 2.66265 41.0622" stroke="#263238" stroke-miterlimit="10"/>
<path d="M22.6876 10.589C22.6876 10.589 22.4477 13.5896 22.0857 14.078C21.7237 14.5665 21.4882 18.2735 22.0857 19.3551C22.6832 20.4366 23.0452 21.7537 23.3941 22.1113C23.743 22.469 25.0731 22.4733 25.5747 22.4733C26.0762 22.4733 31.4492 22.2335 31.4492 22.2335L31.3271 14.6755C31.3271 14.6755 30.0013 9.0321 22.6876 10.589Z" fill="white" stroke="#263238" stroke-miterlimit="10"/>
<path d="M32.2767 2.19909C32.2767 2.19909 37.1962 3.75604 38.2734 8.06054C39.3506 12.3651 35.8747 17.2932 35.8747 17.2932C35.8747 17.2932 34.9152 20.7822 34.0779 21.4931C33.2405 22.2039 29.8824 21.4931 28.8008 21.2532C27.7193 21.0133 25.3119 14.5369 25.3119 14.5369C25.3119 14.5369 25.3119 16.0939 24.5923 16.0939C23.8727 16.0939 23.9904 14.0572 23.9904 13.6952C23.9904 13.3332 20.6323 10.8168 20.6323 6.50359C20.6323 2.19036 24.3611 0.28016 27.8501 0.520026C31.3391 0.759893 32.2767 2.19909 32.2767 2.19909Z" fill="#263238" stroke="#263238" stroke-miterlimit="10"/>
<path d="M22.086 26.0598C22.086 26.0598 22.8056 23.5433 23.1675 23.1857C23.5295 22.8281 25.8061 21.3846 29.5218 21.1447C33.2376 20.9048 38.7545 21.0269 39.2342 21.2668C39.7139 21.5067 39.8361 23.5433 39.8361 23.5433C39.8361 23.5433 41.393 24.9825 41.755 25.8243C42.117 26.666 42.4746 27.0192 39.1383 29.7799C35.8019 32.5405 33.979 33.6177 30.5031 32.776C27.0272 31.9343 21.99 26.9015 21.99 26.9015L22.086 26.0598Z" fill="#01A99E" stroke="#263238" stroke-miterlimit="10"/>
<path d="M30.6602 27.7598C28.2997 26.9529 26.0286 25.9051 23.8828 24.6328" stroke="#263238" stroke-miterlimit="10"/>
<path d="M39.832 24.0225C39.832 24.0225 37.6514 28.34 33.8354 28.34C33.3152 28.3337 32.7968 28.2782 32.2871 28.1743" stroke="#263238" stroke-miterlimit="10"/>
</svg>
