<svg width="346" height="346" viewBox="0 0 346 346" fill="none" xmlns="http://www.w3.org/2000/svg">
<path d="M280.122 100.174C280.122 100.174 261.577 63.7127 224.693 60.0797C187.809 56.4467 163.603 84.7288 137.362 99.9459C123.626 107.911 107.357 105.939 92.5555 110.215C45.2227 123.868 30.8083 195.02 52.8347 233.896C71.8993 267.555 103.24 283.949 149.756 285.699C196.272 287.45 229.004 290.606 268.711 254.594C308.418 218.582 302.01 148.241 280.122 100.174Z" fill="#01A99E"/>
<path opacity="0.7" d="M280.122 100.174C280.122 100.174 261.577 63.7127 224.693 60.0797C187.809 56.4467 163.603 84.7288 137.362 99.9459C123.626 107.911 107.357 105.939 92.5555 110.215C45.2227 123.868 30.8083 195.02 52.8347 233.896C71.8993 267.555 103.24 283.949 149.756 285.699C196.272 287.45 229.004 290.606 268.711 254.594C308.418 218.582 302.01 148.241 280.122 100.174Z" fill="white"/>
<path d="M100.16 128.525C100.16 128.525 93.8561 142.919 94.8042 143.791C95.7522 144.663 103.039 158.821 104.229 158.87C105.419 158.918 105.004 155.188 105.004 155.188L112.056 148.524L100.16 128.525Z" fill="#263238"/>
<path d="M128.109 119.806C128.109 119.806 141.804 127.515 141.576 128.802C141.347 130.089 144.032 145.763 143.105 146.517C142.178 147.271 140.275 144.039 140.275 144.039L130.635 142.96L128.109 119.806Z" fill="#263238"/>
<path d="M274.033 225.073C266.67 204.078 243.654 235.82 231.945 243.217C220.237 250.615 222.257 210.693 203.816 223.744C185.374 236.795 184.44 273.464 167.043 272.406C159.597 271.949 155.466 248.117 150.338 234.02L125.703 135.064L112.506 140.857L144.85 238.428C146.435 246.781 155.673 269.056 155.196 273.755C154.559 279.983 139.57 279.243 124.748 274.447C99.8357 266.441 88.5008 223.495 68.6957 218.132C59.2638 215.579 53.8662 221.405 50.0117 228.249C50.879 230.178 51.8201 232.044 52.8351 233.847C71.8997 267.506 103.24 283.9 149.757 285.651C196.273 287.401 229.004 290.557 268.711 254.545C269.962 253.41 271.166 252.245 272.324 251.051C274.919 242.94 276.835 233.114 274.033 225.073Z" fill="#01A99E"/>
<path opacity="0.5" d="M274.033 225.073C266.67 204.078 243.654 235.82 231.945 243.217C220.237 250.615 222.257 210.693 203.816 223.744C185.374 236.795 184.44 273.464 167.043 272.406C159.597 271.949 155.466 248.117 150.338 234.02L125.703 135.064L112.506 140.857L144.85 238.428C146.435 246.781 155.673 269.056 155.196 273.755C154.559 279.983 139.57 279.243 124.748 274.447C99.8357 266.441 88.5008 223.495 68.6957 218.132C59.2638 215.579 53.8662 221.405 50.0117 228.249C50.879 230.178 51.8201 232.044 52.8351 233.847C71.8997 267.506 103.24 283.9 149.757 285.651C196.273 287.401 229.004 290.557 268.711 254.545C269.962 253.41 271.166 252.245 272.324 251.051C274.919 242.94 276.835 233.114 274.033 225.073Z" fill="white"/>
<path d="M131.322 141.217C131.322 141.217 127.17 97.6207 123.821 85.5314C120.471 73.4422 102.258 56.3982 95.7047 59.2908C89.1515 62.1834 86.3627 85.1162 88.0028 97.0256C89.6428 108.935 108.133 148.586 113.939 152.386C119.745 156.185 130.838 157.313 131.322 141.217Z" fill="white"/>
<path d="M131.324 141.216C131.324 141.216 131.324 140.932 131.247 140.399C126.881 154.738 117.207 152.385 110.875 148.904C111.7 150.218 112.736 151.386 113.941 152.364C119.719 156.177 130.839 157.312 131.324 141.216Z" fill="#263238"/>
<path d="M95.7035 59.2903C89.5862 61.9961 86.756 82.1263 87.7317 94.4647C90.0081 96.3696 92.6539 97.7832 95.5028 98.6167C106.644 101.869 118.47 95.6757 123.515 84.5553C119.474 72.5283 102.084 56.4739 95.7035 59.2903Z" fill="#263238"/>
<path d="M109.543 69.3174C114.231 74.0776 118.195 79.5008 121.307 85.4133" stroke="white" stroke-linecap="round" stroke-linejoin="round"/>
<path d="M103.449 63.6641C103.449 63.6641 104.639 64.6052 106.466 66.3075" stroke="white" stroke-linecap="round" stroke-linejoin="round"/>
<path d="M129.129 138.731L129.399 140.773" stroke="#263238" stroke-linecap="round" stroke-linejoin="round"/>
<path d="M128.305 132.497L128.914 137.113" stroke="#263238" stroke-linecap="round" stroke-linejoin="round"/>
<path d="M123.562 96.6934L127.763 128.422" stroke="#263238" stroke-linecap="round" stroke-linejoin="round"/>
<path d="M122.656 89.877L123.037 92.728" stroke="#263238" stroke-linecap="round" stroke-linejoin="round"/>
<path d="M93.8984 109.55L101.704 127.182" stroke="#263238" stroke-linecap="round" stroke-linejoin="round"/>
<path d="M102.516 129.335L104.114 132.92" stroke="#263238" stroke-linecap="round" stroke-linejoin="round"/>
<path d="M121.475 115.196C123.081 109.689 120.166 103.995 114.963 102.477C109.761 100.96 104.241 104.194 102.635 109.701C101.029 115.208 103.944 120.903 109.147 122.42C114.349 123.938 119.869 120.703 121.475 115.196Z" fill="#263238"/>
<path d="M118.386 115.204C117.976 116.359 117.236 117.369 116.258 118.109C115.28 118.849 114.107 119.286 112.883 119.367C111.66 119.447 110.439 119.167 109.373 118.562C108.307 117.956 107.441 117.052 106.883 115.96C106.325 114.868 106.099 113.637 106.233 112.418C106.367 111.199 106.855 110.046 107.637 109.101C108.419 108.157 109.461 107.462 110.633 107.103C111.805 106.743 113.057 106.735 114.234 107.08C115.86 107.609 117.21 108.761 117.989 110.284C118.767 111.807 118.91 113.576 118.386 115.204Z" fill="#01A99E"/>
<path d="M118.935 139.313L126.422 158.578C126.457 158.687 126.513 158.787 126.589 158.873C126.664 158.958 126.757 159.027 126.86 159.075C126.964 159.122 127.077 159.148 127.191 159.149C127.305 159.151 127.418 159.128 127.523 159.083C127.741 158.983 127.914 158.804 128.006 158.582C128.098 158.36 128.104 158.112 128.021 157.886L121.627 138.136C121.559 137.951 121.453 137.783 121.316 137.643C121.178 137.502 121.012 137.392 120.829 137.321C120.645 137.249 120.449 137.218 120.252 137.229C120.056 137.239 119.864 137.291 119.689 137.382C119.357 137.565 119.1 137.858 118.963 138.211C118.825 138.564 118.815 138.954 118.935 139.313Z" fill="#263238"/>
<path d="M240.008 88.8799L241.295 91.2742" stroke="#263238" stroke-linecap="round" stroke-linejoin="round"/>
<path d="M244.629 88.9844L244.864 90.3061" stroke="#263238" stroke-linecap="round" stroke-linejoin="round"/>
<path d="M249.205 88.0498L248.977 90.1812" stroke="#263238" stroke-linecap="round" stroke-linejoin="round"/>
<path d="M261.985 98.5332L259.355 99.2044" stroke="#263238" stroke-linecap="round" stroke-linejoin="round"/>
<path d="M258.78 95.1982L257.652 95.9248" stroke="#263238" stroke-linecap="round" stroke-linejoin="round"/>
<path d="M256.38 91.1982L254.961 92.8106" stroke="#263238" stroke-linecap="round" stroke-linejoin="round"/>
<path d="M251.937 92.5823H251.875H251.82C245.536 89.9596 238.741 92.6584 236.167 98.5335C235.392 100.283 235.059 102.196 235.198 104.104C235.198 105.073 235.142 107.44 234.831 110.387C234.638 112.304 234.27 114.199 233.731 116.048L233.675 116.152C233.625 116.259 233.596 116.375 233.591 116.493C233.586 116.611 233.604 116.73 233.645 116.841C233.687 116.951 233.75 117.053 233.831 117.139C233.912 117.225 234.01 117.294 234.118 117.342H234.174L239.018 119.46H239.073L240.374 120.027H240.436L245.28 122.145H245.336C245.443 122.192 245.56 122.217 245.678 122.219C245.795 122.22 245.912 122.198 246.022 122.154C246.131 122.109 246.23 122.043 246.313 121.96C246.396 121.876 246.461 121.776 246.505 121.667C246.505 121.626 246.54 121.591 246.554 121.556C247.548 119.907 248.692 118.353 249.972 116.913C251.937 114.692 253.64 113.052 254.345 112.394C255.912 111.146 257.134 109.519 257.896 107.667C258.657 105.814 258.933 103.798 258.698 101.809C258.462 99.8202 257.723 97.9243 256.549 96.3011C255.376 94.678 253.807 93.3813 251.993 92.5339L251.937 92.5823Z" fill="#01A99E"/>
<path d="M245.533 122.226L233.926 117.128L232.743 119.821L244.351 124.918L245.533 122.226Z" fill="#263238"/>
<path d="M242.983 128.026L244.07 125.563L232.458 120.463L231.406 122.857L242.983 128.026Z" fill="#263238"/>
<path d="M244.35 124.92L232.742 119.822L232.461 120.462L244.069 125.56L244.35 124.92Z" fill="white"/>
<path d="M231.406 122.857L232.894 126.304L239.406 129.141L242.983 128.027L231.406 122.857Z" fill="#263238"/>
<path d="M246.93 117.156C248.168 115.244 249.698 113.537 251.462 112.097C255.898 108.589 258.991 105.177 256.445 98.8662" stroke="#263238" stroke-linecap="round" stroke-linejoin="round"/>
<path d="M244.859 120.92C244.859 120.92 245.122 120.277 245.655 119.287" stroke="#263238" stroke-linecap="round" stroke-linejoin="round"/>
<path d="M238.049 118.629C238.049 118.629 239.385 110.111 238.464 107.737C237.544 105.364 236.818 112.401 240.243 111.425C243.668 110.45 241.897 106.291 241.405 108.173C240.914 110.055 242.187 112.505 244.236 111.329C246.284 110.152 246.374 108.374 245.17 109.156C243.966 109.938 245.412 113.377 247.384 112.56C249.357 111.744 248.928 110.616 247.467 111.252C246.007 111.889 242.776 118.214 241.807 120.56" stroke="#263238" stroke-linecap="round" stroke-linejoin="round"/>
<path d="M289.525 175.899C288.851 177.466 287.865 178.879 286.625 180.051C284.445 182.203 283.539 187.068 289.462 189.739C295.386 192.41 293.019 202.583 285.919 201.351C278.819 200.119 274.792 188.895 268.107 191.704C261.423 194.514 263.263 204.942 258.302 202.894C253.34 200.846 251.264 195.974 247.354 197.863C243.444 199.752 241.694 208.935 256.537 214.277C271.38 219.62 268.045 197.379 272.716 198.161C277.387 198.943 277.74 205.683 285.172 207.676C292.604 209.669 300.002 198.853 298.964 192.763C297.926 186.674 289.774 186.674 288.431 183.643C287.089 180.612 291.732 177.124 291.732 177.124C291.732 177.124 291.476 174.958 289.525 175.899Z" fill="#01A99E"/>
<path d="M290.353 170.716L288.561 175.228C288.406 175.612 288.384 176.036 288.496 176.434C288.609 176.833 288.851 177.182 289.184 177.428C289.57 177.713 290.051 177.839 290.527 177.779C291.004 177.72 291.439 177.481 291.744 177.11L295.322 172.764L290.353 170.716Z" fill="#263238" stroke="#263238" stroke-linecap="round" stroke-linejoin="round"/>
<path d="M300.225 143.534L311.691 151.61C311.691 151.61 304.674 161.844 302.114 166.772C299.553 171.699 296.003 175.138 293.062 174.633C290.121 174.128 288.364 170.024 289.236 166.502C290.108 162.979 296.488 155.056 297.796 151.278C299.104 147.499 300.225 143.534 300.225 143.534Z" fill="#01A99E"/>
<path d="M300.224 143.534C300.224 143.534 299.11 147.451 297.795 151.236C297.181 152.753 296.416 154.204 295.512 155.568C298.25 158.238 301.255 160.62 304.48 162.675C307.559 157.651 311.705 151.603 311.705 151.603L300.224 143.534Z" fill="#263238"/>
<path d="M298.25 182.251C298.056 182.56 297.774 182.804 297.441 182.952C297.108 183.1 296.739 183.146 296.379 183.084C296.02 183.022 295.687 182.855 295.423 182.604C295.159 182.353 294.976 182.029 294.896 181.673C294.816 181.317 294.844 180.946 294.976 180.606C295.107 180.266 295.337 179.973 295.635 179.763C295.934 179.554 296.288 179.438 296.652 179.43C297.017 179.422 297.375 179.523 297.682 179.719C297.887 179.847 298.064 180.014 298.203 180.211C298.342 180.409 298.441 180.631 298.494 180.867C298.547 181.102 298.552 181.346 298.51 181.583C298.469 181.821 298.38 182.048 298.25 182.251Z" fill="#01A99E"/>
<path d="M282.389 192.313C282.218 192.581 281.973 192.791 281.682 192.919C281.392 193.047 281.071 193.086 280.758 193.032C280.446 192.977 280.157 192.831 279.927 192.612C279.698 192.393 279.538 192.111 279.469 191.802C279.399 191.492 279.423 191.169 279.537 190.873C279.651 190.577 279.85 190.321 280.109 190.139C280.368 189.956 280.676 189.854 280.993 189.845C281.31 189.837 281.622 189.923 281.891 190.092C282.251 190.321 282.505 190.683 282.599 191.099C282.692 191.516 282.617 191.952 282.389 192.313Z" fill="#01A99E"/>
<path d="M281.034 218.491C280.977 218.582 280.904 218.661 280.817 218.723C280.73 218.786 280.632 218.831 280.527 218.855C280.423 218.879 280.316 218.883 280.21 218.866C280.104 218.849 280.003 218.811 279.913 218.754C279.822 218.698 279.743 218.624 279.68 218.537C279.618 218.451 279.573 218.352 279.549 218.248C279.524 218.144 279.521 218.036 279.538 217.931C279.555 217.825 279.593 217.724 279.65 217.633C279.763 217.45 279.945 217.319 280.156 217.27C280.366 217.22 280.587 217.256 280.771 217.37C280.954 217.484 281.085 217.666 281.134 217.876C281.184 218.087 281.147 218.308 281.034 218.491Z" fill="#01A99E"/>
<path d="M252.426 208.624C254.294 209.802 256.374 210.606 258.55 210.991C264.778 212.035 265.553 208.527 266.854 203.565" stroke="#263238" stroke-linecap="round" stroke-linejoin="round"/>
<path d="M248.379 205.274C248.808 205.766 249.271 206.229 249.763 206.658" stroke="#263238" stroke-linecap="round" stroke-linejoin="round"/>
<path d="M284.195 205.454C284.195 205.454 290.797 208.465 294.88 200.61" stroke="#263238" stroke-linecap="round" stroke-linejoin="round"/>
<path d="M291.566 172.404C291.26 172.221 290.994 171.976 290.786 171.685C290.578 171.395 290.431 171.065 290.355 170.716" stroke="#263238" stroke-linecap="round" stroke-linejoin="round"/>
<path d="M301.973 163.935C301.973 163.935 297.898 171.775 295.309 172.764C294.725 172.996 294.096 173.095 293.469 173.055" stroke="#263238" stroke-linecap="round" stroke-linejoin="round"/>
<path d="M161.385 101.943L142.227 104.096L143.919 119.163L163.078 117.01L161.385 101.943Z" fill="#01A99E"/>
<path opacity="0.5" d="M161.385 101.943L142.227 104.096L143.919 119.163L163.078 117.01L161.385 101.943Z" fill="white"/>
<path d="M160.553 102.665L143.148 104.62L144.671 118.174L162.076 116.219L160.553 102.665Z" fill="#01A99E"/>
<path d="M161.235 107.343C160.287 106.333 159.491 106.119 158.57 107.205C157.186 108.859 156.439 112.554 155.456 112.402C154.474 112.25 154.301 110.769 153.311 109.821C152.322 108.873 151.076 111.129 148.64 113.786C147.49 115.045 146.071 116.028 144.488 116.665L144.668 118.291L162.252 116.312L161.235 107.343Z" fill="#263238"/>
<path d="M149.741 107.35C149.791 107.79 149.711 108.234 149.508 108.628C149.306 109.021 148.992 109.346 148.605 109.561C148.218 109.775 147.777 109.87 147.336 109.834C146.895 109.797 146.475 109.631 146.129 109.355C145.783 109.08 145.526 108.708 145.391 108.287C145.257 107.866 145.25 107.414 145.372 106.989C145.494 106.564 145.74 106.184 146.078 105.899C146.416 105.613 146.831 105.435 147.27 105.385C147.858 105.319 148.449 105.489 148.912 105.857C149.375 106.225 149.673 106.763 149.741 107.35Z" fill="#263238"/>
<path d="M110.528 179.717L78.4609 169.062L70.0842 194.273L102.151 204.928L110.528 179.717Z" fill="#01A99E"/>
<path opacity="0.5" d="M110.528 179.717L78.4609 169.062L70.0842 194.273L102.151 204.928L110.528 179.717Z" fill="white"/>
<path d="M107.975 180.913L78.8125 171.09L71.164 193.796L100.326 203.62L107.975 180.913Z" fill="#263238"/>
<path d="M106.249 188.176C105.487 185.872 104.373 184.944 102.097 185.996C98.6365 187.602 94.7683 192.916 93.3151 191.975C91.8619 191.034 92.6784 188.515 91.7996 186.294C90.9207 184.072 87.2877 186.737 81.4611 189.173C78.6909 190.326 75.6972 190.844 72.7004 190.688L71.8008 193.401L101.238 203.186L106.249 188.176Z" fill="#01A99E"/>
<path d="M88.008 179.768C87.7635 180.503 87.3066 181.148 86.6951 181.624C86.0836 182.099 85.3449 182.382 84.5725 182.438C83.8 182.493 83.0285 182.318 82.3553 181.936C81.6821 181.553 81.1376 180.979 80.7905 180.287C80.4433 179.594 80.3093 178.815 80.4051 178.046C80.501 177.278 80.8226 176.555 81.3291 175.969C81.8357 175.383 82.5046 174.961 83.2512 174.755C83.9978 174.549 84.7886 174.569 85.5238 174.813C86.0124 174.975 86.4643 175.232 86.8537 175.568C87.2431 175.905 87.5623 176.315 87.793 176.775C88.0237 177.236 88.1615 177.737 88.1984 178.25C88.2353 178.764 88.1706 179.279 88.008 179.768Z" fill="#01A99E"/>
<path d="M141.911 136.739C174.726 143.964 238.508 163.326 254.79 164.419C294.601 167.187 297.002 97.129 244.971 81.469C204.42 69.2621 163.924 100.485 131.441 112.277" stroke="#263238" stroke-width="0.5" stroke-linecap="round" stroke-linejoin="round" stroke-dasharray="3 3"/>
<path d="M48.4414 217.322C63.5824 205.89 98.1201 187.725 163.569 189.344C236.513 191.144 263.107 202.631 295.43 203.074" stroke="#263238" stroke-width="0.5" stroke-linecap="round" stroke-linejoin="round" stroke-dasharray="5 3"/>
<path d="M201.2 283.581C201.2 283.581 182.225 288.342 131.225 272.738C108.513 265.783 85.1581 253.714 72.6191 232.698C52.904 199.655 62.6405 154.502 95.379 138.144" stroke="#263238" stroke-width="0.5" stroke-linecap="round" stroke-linejoin="round" stroke-dasharray="5 3"/>
<path d="M189.948 276.613L185 298.557L243.695 287.159L189.948 276.613Z" fill="#263238" stroke="#01A99E" stroke-linecap="round" stroke-linejoin="round"/>
<path d="M190.017 282.938L185 298.556L206.203 294.016L190.017 282.938Z" fill="#263238" stroke="#01A99E" stroke-linecap="round" stroke-linejoin="round"/>
<path d="M188.867 259.043L189.947 276.613L243.694 287.159L188.867 259.043Z" fill="#263238" stroke="#01A99E" stroke-linecap="round" stroke-linejoin="round"/>
<path d="M243.696 287.159L189.637 306.341L190.017 282.938L243.696 287.159Z" fill="#263238" stroke="#01A99E" stroke-linecap="round" stroke-linejoin="round"/>
<path d="M205.974 149.334C205.974 149.334 202.943 143.279 204.355 139.847C205.767 136.414 211.22 130.961 214.043 133.183C216.866 135.404 215.856 140.449 218.278 141.867C220.7 143.286 228.575 146.912 229.184 153.777C229.793 160.641 224.541 165.887 225.952 168.309C227.364 170.731 237.862 170.128 242.103 176.993C246.345 183.858 244.927 193.546 241.903 197.386C238.879 201.227 220.499 207.074 220.499 211.517C220.499 215.96 226.153 220.804 217.676 225.239C209.199 229.675 196.48 227.461 195.269 216.935C194.058 206.41 206.77 196.549 205.967 189.484C205.165 182.418 197.892 177.166 195.871 170.502C193.85 163.838 204.756 161.824 206.369 159.43C207.981 157.036 205.974 149.334 205.974 149.334Z" fill="#263238" stroke="#263238" stroke-linecap="round" stroke-linejoin="round"/>
<path d="M240.334 189.449C239.828 191.027 239.116 191.989 238.832 192.086" stroke="white" stroke-linecap="round" stroke-linejoin="round"/>
<path d="M215.863 155.77C215.863 155.77 216.735 160.364 220.237 162.33C223.738 164.295 217.614 168.897 221.33 173.706C225.046 178.516 236.865 173.706 239.71 180.266C240.434 181.909 240.836 183.676 240.893 185.47" stroke="white" stroke-linecap="round" stroke-linejoin="round"/>
<path d="M224.969 160.717C225.616 161.124 226.314 161.445 227.045 161.672" stroke="white" stroke-linecap="round" stroke-linejoin="round"/>
<path d="M216.957 141.764C216.957 141.764 217.178 152.49 220.459 156.642C221.127 157.495 221.868 158.289 222.673 159.015" stroke="white" stroke-linecap="round" stroke-linejoin="round"/>
<path d="M158.648 144.213C158.648 144.213 159.783 139.597 159.783 138.255C159.783 136.912 159.444 136.573 159.091 137.328C158.759 138.233 158.48 139.158 158.254 140.096L158.648 144.213Z" fill="white" stroke="#263238" stroke-linecap="round" stroke-linejoin="round"/>
<path d="M118.171 266.753C118.171 266.753 114.372 273.022 111.147 276.441C107.923 279.859 106.995 283.464 110.386 284.412C113.777 285.36 118.932 284.032 121.59 281.375C124.247 278.717 126.531 274.731 129.202 273.209C131.873 271.687 133.568 271.5 133.568 267.327C133.568 263.154 131.672 262.199 131.672 262.199C131.672 262.199 124.06 266.566 118.171 266.753Z" fill="#263238" stroke="#263238" stroke-linecap="round" stroke-linejoin="round"/>
<path d="M127.48 273.022C123.875 276.06 120.83 281.755 114.948 282.516C111.488 282.959 109.412 282.101 108.284 281.312C108.056 282.779 108.665 283.935 110.36 284.412C113.779 285.367 118.907 284.032 121.564 281.375C124.221 278.717 126.505 274.731 129.176 273.209C131.501 271.88 133.099 271.569 133.466 268.711C131.376 270.011 129.376 271.451 127.48 273.022Z" fill="white" stroke="#263238" stroke-linecap="round" stroke-linejoin="round"/>
<path d="M175.906 207.504C175.906 207.504 156.157 202.189 146.842 200.48C137.528 198.771 128.802 197.629 125.764 201.241C122.726 204.853 123.487 232.948 122.159 239.993C120.83 247.038 119.308 260.504 118.927 262.587C118.547 264.67 116.851 266.58 117.979 267.341C119.107 268.102 125.951 268.669 128.421 267.341C130.892 266.012 132.788 265.265 132.788 262.967C132.788 260.67 133.169 240.374 134.864 234.104C136.559 227.835 137.902 217.205 137.902 217.205C137.902 217.205 150.247 220.05 155.942 221.759C161.637 223.468 169.782 229.544 177.595 229.738C185.408 229.931 184.432 218.153 182.91 214.735C181.387 211.317 178.751 208.078 175.906 207.504Z" fill="#01A99E"/>
<mask id="mask0_866_7898" style="mask-type:luminance" maskUnits="userSpaceOnUse" x="117" y="198" width="67" height="71">
<path d="M175.906 207.504C175.906 207.504 156.157 202.189 146.842 200.48C137.528 198.771 128.802 197.629 125.764 201.241C122.726 204.853 123.487 232.948 122.159 239.993C120.83 247.038 119.308 260.504 118.927 262.587C118.547 264.67 116.851 266.58 117.979 267.341C119.107 268.102 125.951 268.669 128.421 267.341C130.892 266.012 132.788 265.265 132.788 262.967C132.788 260.67 133.169 240.374 134.864 234.104C136.559 227.835 137.902 217.205 137.902 217.205C137.902 217.205 150.247 220.05 155.942 221.759C161.637 223.468 169.782 229.544 177.595 229.738C185.408 229.931 184.432 218.153 182.91 214.735C181.387 211.317 178.751 208.078 175.906 207.504Z" fill="white"/>
</mask>
<g mask="url(#mask0_866_7898)">
<path opacity="0.39" d="M183.575 216.887C182.663 215.119 181.576 213.447 180.329 211.898C178.89 210.451 176.828 208.521 175.679 207.441L173.16 206.749L165.341 207.4C165.341 207.4 134.318 200.037 133.509 203.455C132.699 206.874 134.56 210.555 134.56 210.555C134.56 210.555 127.986 203.718 128.775 206.348C129.564 208.977 134.56 214.763 134.56 214.763C134.56 214.763 129.301 208.714 129.301 212.396C129.301 216.077 130.879 233.689 127.986 247.626C126.083 256.774 122.374 263.659 121.066 267.977C123.571 268.213 126.838 268.13 128.388 267.285C130.858 265.95 132.754 265.209 132.754 262.912C132.754 260.614 133.135 240.318 134.83 234.049C136.526 227.779 137.868 217.15 137.868 217.15C137.868 217.15 150.213 219.994 155.909 221.703C161.604 223.413 169.749 229.488 177.561 229.682C184.17 229.883 184.53 221.565 183.575 216.887Z" fill="black"/>
<path d="M137.925 217.191C137.925 217.191 138.763 208.7 133.531 203.482" stroke="#263238" stroke-linecap="round" stroke-linejoin="round"/>
<path d="M137.273 204.334C137.273 204.334 139.266 206.272 138.595 211.731" stroke="#263238" stroke-linecap="round" stroke-linejoin="round"/>
</g>
<path d="M175.906 207.504C175.906 207.504 156.157 202.189 146.842 200.48C137.528 198.771 128.802 197.629 125.764 201.241C122.726 204.853 123.487 232.948 122.159 239.993C120.83 247.038 119.308 260.504 118.927 262.587C118.547 264.67 116.851 266.58 117.979 267.341C119.107 268.102 125.951 268.669 128.421 267.341C130.892 266.012 132.788 265.265 132.788 262.967C132.788 260.67 133.169 240.374 134.864 234.104C136.559 227.835 137.902 217.205 137.902 217.205C137.902 217.205 150.247 220.05 155.942 221.759C161.637 223.468 169.782 229.544 177.595 229.738C185.408 229.931 184.432 218.153 182.91 214.735C181.387 211.317 178.751 208.078 175.906 207.504Z" stroke="#263238" stroke-linecap="round" stroke-linejoin="round"/>
<path d="M204.356 170.329C204.356 170.329 202.543 170.738 197.29 169.727C192.038 168.717 192.246 170.938 185.381 168.108C178.516 165.278 163.175 153.777 160.753 151.957L158.331 150.165C158.331 150.165 158.649 146.338 158.649 144.234C158.649 142.13 158.531 140.138 158.531 140.138C158.531 140.138 159.12 135.349 158.649 134.525C158.179 133.702 157.362 134.761 157.362 135.695C157.115 137.413 156.683 139.1 156.075 140.726C156.075 140.726 155.258 135.813 155.023 134.878C154.788 133.944 154.206 133.591 153.639 133.826C153.072 134.062 153.757 136.636 153.757 137.688C153.757 138.74 153.639 141.778 153.639 141.778C153.639 141.778 151.563 136.636 150.947 135.584C150.331 134.532 149.66 135.349 149.778 136.276C149.895 137.203 151.646 142.352 151.646 142.352C151.646 142.352 150.594 147.846 150.594 148.199C150.594 148.552 148.373 147.846 147.321 146.912C146.269 145.978 145.937 146.912 146.629 148.082C147.321 149.251 149.203 150.421 151.307 151.355C153.411 152.289 155.75 153.223 155.75 153.223C155.75 153.223 167.908 166.316 172.358 170.413C176.807 174.509 181.713 177.07 184.288 178.474C186.862 179.879 192.467 182.799 192.467 182.799C192.467 182.799 189.665 184.875 189.665 188.294C189.665 191.712 190.357 194.723 188.723 196.944C187.09 199.165 181.596 203.608 181.596 203.608C181.596 203.608 174.115 195.996 169.437 193.228C164.759 190.46 159.853 189.366 156.227 194.861C152.601 200.355 152.373 223.966 152.02 231.682C151.667 239.398 150.151 244.429 149.335 245.245C148.584 245.959 148.097 246.905 147.951 247.93C147.951 248.622 147.833 250.269 147.833 250.269C147.833 250.269 148.885 256.234 152.04 258.573C155.196 260.912 156.954 263.95 158.006 261.964C159.057 259.978 161.742 256.587 161.978 253.66C162.119 250.979 162.413 248.308 162.856 245.661C163.209 244.277 163.092 233.385 165.078 227.89C167.064 222.396 168.116 219.122 168.116 219.122C168.116 219.122 169.991 229.994 178.053 232.215C186.115 234.436 193.602 230.139 197.927 223.683C202.252 217.226 207.864 205.213 211.601 200.418C215.338 195.622 221.074 187.678 221.074 187.678L229.378 198.785C228.732 200.197 227.99 201.563 227.157 202.874C225.773 205.096 221.081 209.421 221.081 209.421C221.081 209.421 223.157 211.054 224.818 211.289C226.479 211.524 234.292 207.781 238.146 204.507C242 201.234 242.706 199.836 241.184 197.587C239.662 195.338 233.572 187.297 229.967 182.156C226.361 177.014 226.105 172.918 222.479 171.63C218.853 170.343 214.417 171.402 213.013 171.402C211.598 171.309 210.191 171.112 208.805 170.814L204.356 170.329Z" fill="#01A99E"/>
<mask id="mask1_866_7898" style="mask-type:luminance" maskUnits="userSpaceOnUse" x="146" y="133" width="96" height="130">
<path d="M204.356 170.329C204.356 170.329 202.543 170.738 197.29 169.727C192.038 168.717 192.246 170.938 185.381 168.108C178.516 165.278 163.175 153.777 160.753 151.957L158.331 150.165C158.331 150.165 158.649 146.338 158.649 144.234C158.649 142.13 158.531 140.138 158.531 140.138C158.531 140.138 159.12 135.349 158.649 134.525C158.179 133.702 157.362 134.761 157.362 135.695C157.115 137.413 156.683 139.1 156.075 140.726C156.075 140.726 155.258 135.813 155.023 134.878C154.788 133.944 154.206 133.591 153.639 133.826C153.072 134.062 153.757 136.636 153.757 137.688C153.757 138.74 153.639 141.778 153.639 141.778C153.639 141.778 151.563 136.636 150.947 135.584C150.331 134.532 149.66 135.349 149.778 136.276C149.895 137.203 151.646 142.352 151.646 142.352C151.646 142.352 150.594 147.846 150.594 148.199C150.594 148.552 148.373 147.846 147.321 146.912C146.269 145.978 145.937 146.912 146.629 148.082C147.321 149.251 149.203 150.421 151.307 151.355C153.411 152.289 155.75 153.223 155.75 153.223C155.75 153.223 167.908 166.316 172.358 170.413C176.807 174.509 181.713 177.07 184.288 178.474C186.862 179.879 192.467 182.799 192.467 182.799C192.467 182.799 189.665 184.875 189.665 188.294C189.665 191.712 190.357 194.723 188.723 196.944C187.09 199.165 181.596 203.608 181.596 203.608C181.596 203.608 174.115 195.996 169.437 193.228C164.759 190.46 159.853 189.366 156.227 194.861C152.601 200.355 152.373 223.966 152.02 231.682C151.667 239.398 150.151 244.429 149.335 245.245C148.584 245.959 148.097 246.905 147.951 247.93C147.951 248.622 147.833 250.269 147.833 250.269C147.833 250.269 148.885 256.234 152.04 258.573C155.196 260.912 156.954 263.95 158.006 261.964C159.057 259.978 161.742 256.587 161.978 253.66C162.119 250.979 162.413 248.308 162.856 245.661C163.209 244.277 163.092 233.385 165.078 227.89C167.064 222.396 168.116 219.122 168.116 219.122C168.116 219.122 169.991 229.994 178.053 232.215C186.115 234.436 193.602 230.139 197.927 223.683C202.252 217.226 207.864 205.213 211.601 200.418C215.338 195.622 221.074 187.678 221.074 187.678L229.378 198.785C228.732 200.197 227.99 201.563 227.157 202.874C225.773 205.096 221.081 209.421 221.081 209.421C221.081 209.421 223.157 211.054 224.818 211.289C226.479 211.524 234.292 207.781 238.146 204.507C242 201.234 242.706 199.836 241.184 197.587C239.662 195.338 233.572 187.297 229.967 182.156C226.361 177.014 226.105 172.918 222.479 171.63C218.853 170.343 214.417 171.402 213.013 171.402C211.598 171.309 210.191 171.112 208.805 170.814L204.356 170.329Z" fill="white"/>
</mask>
<g mask="url(#mask1_866_7898)">
<path opacity="0.39" d="M190.301 220.838C190.301 220.838 184.253 207.69 173.997 200.327C163.742 192.965 163.742 194.791 164.268 196.383C164.794 197.975 165.32 200.065 165.32 200.065C165.32 200.065 161.375 195.857 161.375 198.75C161.375 201.642 165.057 210.32 162.427 221.101C159.798 231.883 156.891 242.131 157.694 246.864C158.497 251.598 159.535 255.542 156.642 252.4C153.749 249.259 152.172 252.4 152.435 253.715C152.545 254.248 155.203 257.369 158.483 260.988C159.714 258.974 161.701 256.144 161.901 253.639C162.069 250.964 162.387 248.3 162.856 245.66C163.209 244.276 163.091 233.384 165.077 227.89C167.064 222.395 168.115 219.122 168.115 219.122C168.115 219.122 169.991 229.994 178.052 232.215C186.114 234.436 193.602 230.139 197.927 223.682C199.788 220.914 201.885 217.108 203.968 213.302L194.28 217.669L190.301 220.838Z" fill="black"/>
<path d="M168.227 199.075C168.227 199.075 172.282 205.995 168.628 217.538" stroke="#263238" stroke-linecap="round" stroke-linejoin="round"/>
<path d="M170.543 198.266C170.543 198.266 171.865 203.013 170.543 206.715" stroke="#263238" stroke-linecap="round" stroke-linejoin="round"/>
</g>
<path d="M204.356 170.329C204.356 170.329 202.543 170.738 197.29 169.727C192.038 168.717 192.246 170.938 185.381 168.108C178.516 165.278 163.175 153.777 160.753 151.957L158.331 150.165C158.331 150.165 158.649 146.338 158.649 144.234C158.649 142.13 158.531 140.138 158.531 140.138C158.531 140.138 159.12 135.349 158.649 134.525C158.179 133.702 157.362 134.761 157.362 135.695C157.115 137.413 156.683 139.1 156.075 140.726C156.075 140.726 155.258 135.813 155.023 134.878C154.788 133.944 154.206 133.591 153.639 133.826C153.072 134.062 153.757 136.636 153.757 137.688C153.757 138.74 153.639 141.778 153.639 141.778C153.639 141.778 151.563 136.636 150.947 135.584C150.331 134.532 149.66 135.349 149.778 136.276C149.895 137.203 151.646 142.352 151.646 142.352C151.646 142.352 150.594 147.846 150.594 148.199C150.594 148.552 148.373 147.846 147.321 146.912C146.269 145.978 145.937 146.912 146.629 148.082C147.321 149.251 149.203 150.421 151.307 151.355C153.411 152.289 155.75 153.223 155.75 153.223C155.75 153.223 167.908 166.316 172.358 170.413C176.807 174.509 181.713 177.07 184.288 178.474C186.862 179.879 192.467 182.799 192.467 182.799C192.467 182.799 189.664 184.875 189.664 188.294C189.664 191.712 190.357 194.723 188.723 196.944C187.09 199.165 181.596 203.608 181.596 203.608C181.596 203.608 174.115 195.996 169.437 193.228C164.759 190.46 159.853 189.366 156.227 194.861C152.601 200.355 152.373 223.966 152.02 231.682C151.667 239.398 150.151 244.429 149.335 245.245C148.584 245.959 148.097 246.905 147.951 247.93C147.951 248.622 147.833 250.269 147.833 250.269C147.833 250.269 148.885 256.234 152.04 258.573C155.196 260.912 156.954 263.95 158.006 261.964C159.057 259.978 161.742 256.587 161.978 253.66C162.119 250.979 162.412 248.308 162.856 245.661C163.209 244.277 163.092 233.385 165.078 227.89C167.064 222.396 168.116 219.122 168.116 219.122C168.116 219.122 169.991 229.994 178.053 232.215C186.115 234.436 193.602 230.139 197.927 223.683C202.252 217.226 207.864 205.213 211.601 200.418C215.338 195.622 221.074 187.678 221.074 187.678L229.378 198.785C228.732 200.197 227.99 201.563 227.157 202.874C225.773 205.096 221.081 209.421 221.081 209.421C221.081 209.421 223.157 211.054 224.818 211.289C226.479 211.524 234.292 207.781 238.146 204.507C242 201.234 242.706 199.836 241.184 197.587C239.662 195.338 233.572 187.297 229.967 182.156C226.361 177.014 226.105 172.918 222.479 171.63C218.853 170.343 214.417 171.402 213.013 171.402C211.598 171.309 210.191 171.112 208.805 170.814L204.356 170.329Z" stroke="#263238" stroke-linecap="round" stroke-linejoin="round"/>
<path d="M229.96 182.204C226.334 177.056 226.098 172.966 222.472 171.679C218.846 170.392 214.41 171.451 213.006 171.451C211.591 171.357 210.185 171.161 208.798 170.862L204.356 170.329C204.356 170.329 202.543 170.738 197.29 169.727C192.038 168.717 192.246 170.938 185.381 168.108C178.516 165.278 163.175 153.777 160.753 151.957L158.331 150.165C158.331 150.165 158.649 146.338 158.649 144.234C158.649 142.13 158.531 140.138 158.531 140.138C158.531 140.138 159.12 135.349 158.649 134.525C158.179 133.702 157.362 134.761 157.362 135.695C157.115 137.413 156.683 139.1 156.075 140.726C156.075 140.726 155.258 135.813 155.023 134.878C154.788 133.944 154.206 133.591 153.639 133.826C153.072 134.062 153.757 136.636 153.757 137.688C153.757 138.74 153.639 141.778 153.639 141.778C153.639 141.778 151.563 136.636 150.947 135.584C150.331 134.532 149.66 135.349 149.778 136.276C149.895 137.203 151.646 142.352 151.646 142.352C151.646 142.352 150.594 147.846 150.594 148.199C150.594 148.552 148.373 147.846 147.321 146.912C146.269 145.978 145.937 146.912 146.629 148.082C147.321 149.251 149.203 150.421 151.307 151.355C153.411 152.289 155.75 153.223 155.75 153.223C155.75 153.223 167.908 166.316 172.358 170.413C176.807 174.509 181.713 177.07 184.288 178.474C186.862 179.879 192.467 182.799 192.467 182.799C192.467 182.799 189.665 184.875 189.665 188.294V188.737L214.473 196.736C217.732 192.39 221.109 187.74 221.109 187.74L229.413 198.847C228.767 200.259 228.024 201.626 227.192 202.937C225.808 205.158 221.116 209.483 221.116 209.483C221.116 209.483 223.192 211.116 224.853 211.351C226.514 211.587 234.326 207.843 238.181 204.57C242.035 201.296 242.741 199.899 241.218 197.65C239.696 195.401 233.579 187.346 229.96 182.204Z" fill="white"/>
<mask id="mask2_866_7898" style="mask-type:luminance" maskUnits="userSpaceOnUse" x="146" y="133" width="96" height="79">
<path d="M229.96 182.204C226.334 177.056 226.098 172.966 222.472 171.679C218.846 170.392 214.41 171.451 213.006 171.451C211.591 171.357 210.185 171.161 208.798 170.862L204.356 170.329C204.356 170.329 202.543 170.738 197.29 169.727C192.038 168.717 192.246 170.938 185.381 168.108C178.516 165.278 163.175 153.777 160.753 151.957L158.331 150.165C158.331 150.165 158.649 146.338 158.649 144.234C158.649 142.13 158.531 140.138 158.531 140.138C158.531 140.138 159.12 135.349 158.649 134.525C158.179 133.702 157.362 134.761 157.362 135.695C157.115 137.413 156.683 139.1 156.075 140.726C156.075 140.726 155.258 135.813 155.023 134.878C154.788 133.944 154.206 133.591 153.639 133.826C153.072 134.062 153.757 136.636 153.757 137.688C153.757 138.74 153.639 141.778 153.639 141.778C153.639 141.778 151.563 136.636 150.947 135.584C150.331 134.532 149.66 135.349 149.778 136.276C149.895 137.203 151.646 142.352 151.646 142.352C151.646 142.352 150.594 147.846 150.594 148.199C150.594 148.552 148.373 147.846 147.321 146.912C146.269 145.978 145.937 146.912 146.629 148.082C147.321 149.251 149.203 150.421 151.307 151.355C153.411 152.289 155.75 153.223 155.75 153.223C155.75 153.223 167.908 166.316 172.358 170.413C176.807 174.509 181.713 177.07 184.288 178.474C186.862 179.879 192.467 182.799 192.467 182.799C192.467 182.799 189.665 184.875 189.665 188.294V188.737L214.473 196.736C217.732 192.39 221.109 187.74 221.109 187.74L229.413 198.847C228.767 200.259 228.024 201.626 227.192 202.937C225.808 205.158 221.116 209.483 221.116 209.483C221.116 209.483 223.192 211.116 224.853 211.351C226.514 211.587 234.326 207.843 238.181 204.57C242.035 201.296 242.741 199.899 241.218 197.65C239.696 195.401 233.579 187.346 229.96 182.204Z" fill="white"/>
</mask>
<g mask="url(#mask2_866_7898)">
<path d="M229.96 182.204C226.334 177.056 226.098 172.966 222.472 171.679C218.846 170.392 214.411 171.451 213.006 171.451C211.901 171.397 210.803 171.26 209.719 171.042C209.719 171.042 209.719 171.098 209.719 171.132C209.719 171.167 212.023 172.855 217.587 174.779C223.15 176.703 230.825 190.515 233.703 193.581C236.582 196.646 237.544 198.383 236.776 199.338C236.008 200.293 234.472 201.262 231.593 204.327C229.711 206.341 227.261 208.68 226.216 211.074C230.516 209.557 234.539 207.345 238.125 204.528C241.987 201.255 242.686 199.857 241.163 197.608C239.641 195.359 233.579 187.346 229.96 182.204Z" fill="#01A99E"/>
<path d="M183.056 168.254C179.998 167.305 177.138 165.809 174.614 163.839C170.012 160.379 163.293 155.583 164.829 159.043C166.365 162.503 176.918 171.132 181.14 173.243C185.361 175.354 188.06 174.198 193.423 173.817C198.786 173.437 197.644 170.745 194.191 170.745C190.738 170.745 185.748 169.402 183.056 168.254Z" fill="#01A99E"/>
<path opacity="0.5" d="M183.056 168.254C179.998 167.305 177.138 165.809 174.614 163.839C170.012 160.379 163.293 155.583 164.829 159.043C166.365 162.503 176.918 171.132 181.14 173.243C185.361 175.354 188.06 174.198 193.423 173.817C198.786 173.437 197.644 170.745 194.191 170.745C190.738 170.745 185.748 169.402 183.056 168.254Z" fill="white"/>
<path opacity="0.5" d="M229.96 182.204C226.334 177.056 226.098 172.966 222.472 171.679C218.846 170.392 214.411 171.451 213.006 171.451C211.901 171.397 210.803 171.26 209.719 171.042C209.719 171.042 209.719 171.098 209.719 171.132C209.719 171.167 212.023 172.855 217.587 174.779C223.15 176.703 230.825 190.515 233.703 193.581C236.582 196.646 237.544 198.383 236.776 199.338C236.008 200.293 234.472 201.262 231.593 204.327C229.711 206.341 227.261 208.68 226.216 211.074C230.516 209.557 234.539 207.345 238.125 204.528C241.987 201.255 242.686 199.857 241.163 197.608C239.641 195.359 233.579 187.346 229.96 182.204Z" fill="white"/>
</g>
<path d="M229.96 182.204C226.334 177.056 226.098 172.966 222.472 171.679C218.846 170.392 214.41 171.451 213.006 171.451C211.591 171.357 210.185 171.161 208.798 170.862L204.356 170.329C204.356 170.329 202.543 170.738 197.29 169.727C192.038 168.717 192.246 170.938 185.381 168.108C178.516 165.278 163.175 153.777 160.753 151.957L158.331 150.165C158.331 150.165 158.649 146.338 158.649 144.234C158.649 142.13 158.531 140.138 158.531 140.138C158.531 140.138 159.12 135.349 158.649 134.525C158.179 133.702 157.362 134.761 157.362 135.695C157.115 137.413 156.683 139.1 156.075 140.726C156.075 140.726 155.258 135.813 155.023 134.878C154.788 133.944 154.206 133.591 153.639 133.826C153.072 134.062 153.757 136.636 153.757 137.688C153.757 138.74 153.639 141.778 153.639 141.778C153.639 141.778 151.563 136.636 150.947 135.584C150.331 134.532 149.66 135.349 149.778 136.276C149.895 137.203 151.646 142.352 151.646 142.352C151.646 142.352 150.594 147.846 150.594 148.199C150.594 148.552 148.373 147.846 147.321 146.912C146.269 145.978 145.937 146.912 146.629 148.082C147.321 149.251 149.203 150.421 151.307 151.355C153.411 152.289 155.75 153.223 155.75 153.223C155.75 153.223 167.908 166.316 172.358 170.413C176.807 174.509 181.713 177.07 184.288 178.474C186.862 179.879 192.467 182.799 192.467 182.799C192.467 182.799 189.664 184.875 189.664 188.294V188.737L214.473 196.736C217.732 192.39 221.109 187.74 221.109 187.74L229.413 198.847C228.767 200.259 228.024 201.626 227.192 202.937C225.808 205.158 221.116 209.483 221.116 209.483C221.116 209.483 223.192 211.116 224.853 211.351C226.514 211.587 234.326 207.843 238.181 204.57C242.035 201.296 242.741 199.899 241.219 197.65C239.696 195.401 233.579 187.346 229.96 182.204Z" stroke="#263238" stroke-linecap="round" stroke-linejoin="round"/>
<path d="M229.957 182.204C226.331 177.056 226.096 172.966 222.47 171.679C218.844 170.392 214.408 171.45 213.003 171.45C211.588 171.357 210.182 171.16 208.796 170.862L204.353 170.329C204.353 170.329 202.54 170.738 197.288 169.727C192.036 168.717 192.243 170.938 185.378 168.108C184.963 167.935 184.513 167.734 184.036 167.499C182.181 168.883 180.154 171.319 178.984 175.436C181.06 176.765 182.963 177.761 184.251 178.46C186.818 179.844 192.43 182.785 192.43 182.785C192.43 182.785 189.627 184.861 189.627 188.28C189.627 191.698 190.319 194.708 188.686 196.93C187.434 198.632 183.925 201.635 182.348 202.943C185.116 205.497 193.42 213.787 196.88 225.087C197.232 224.637 197.572 224.174 197.897 223.703C202.222 217.275 207.834 205.234 211.571 200.438C215.307 195.643 221.044 187.698 221.044 187.698L224.13 191.85C226.324 189.242 229.106 186.875 232.518 185.837C231.618 184.536 230.725 183.297 229.957 182.204Z" fill="white" stroke="#263238" stroke-linecap="round" stroke-linejoin="round"/>
<path opacity="0.14" d="M213.56 189.062C213.053 189.396 212.566 189.759 212.1 190.148C210.934 191.196 209.563 191.988 208.073 192.473C206.583 192.958 205.008 193.125 203.45 192.965C195.298 192.439 191.09 186.128 190.828 188.232C190.565 190.335 190.828 196.12 195.561 197.961C200.294 199.802 206.342 197.435 204.501 199.539C202.661 201.642 193.768 206.459 195.872 209.351C197.976 212.244 203.643 211.503 210.66 199.054C211.691 197.228 216.639 192.231 216.674 189.899C216.729 187.456 214.964 188.148 213.56 189.062Z" fill="black"/>
<path opacity="0.14" d="M212.312 173.831C213.447 174.35 214.88 174.938 216.638 175.547C219.454 176.516 222.796 180.516 225.793 184.64C226.76 183.925 227.804 183.321 228.907 182.841C225.371 177.754 225.108 173.727 221.516 172.461C218.783 171.492 215.586 171.852 213.579 172.087L212.312 173.831Z" fill="black"/>
<path d="M230.549 183.034C228.824 183.493 227.21 184.294 225.803 185.39C224.395 186.486 223.223 187.855 222.355 189.414L224.162 191.829C226.355 189.221 229.137 186.854 232.549 185.816L230.549 183.034Z" fill="#263238" stroke="#263238" stroke-linecap="round" stroke-linejoin="round"/>
<path d="M208.798 170.862L204.355 170.329C203.223 170.469 202.078 170.453 200.951 170.28C200.348 172.91 199.331 177.373 198.798 180.044C198.009 184.003 202.258 182.944 206.459 180.044C209.171 178.176 211.455 174.232 212.943 171.443C211.549 171.346 210.164 171.152 208.798 170.862Z" fill="#263238" stroke="#263238" stroke-linecap="round" stroke-linejoin="round"/>
<path d="M181.028 176.668C181.928 174.461 183.727 170.952 186.786 168.655C186.35 168.496 185.886 168.316 185.402 168.108C184.918 167.9 184.537 167.734 184.059 167.499C182.205 168.883 180.177 171.319 179.008 175.436C179.7 175.886 180.385 176.294 181.028 176.668Z" fill="#263238" stroke="#263238" stroke-linecap="round" stroke-linejoin="round"/>
<path d="M212.229 145.092C212.229 145.092 207.184 146.51 205.773 147.721C204.361 148.932 202.313 152.766 199.918 153.167C197.524 153.569 197.489 154.987 197.489 155.998C197.474 156.563 197.615 157.121 197.898 157.61C197.898 157.61 197.697 162.253 197.697 164.675C197.697 167.097 198.299 167.706 199.51 167.706H202.34C202.34 167.706 201.731 176.183 201.129 178.204C200.527 180.225 204.153 178.003 205.164 176.993L210.817 171.339C210.817 171.339 209.606 165.485 211.419 161.451C213.232 157.416 210.035 155.998 209.606 151.555C209.444 150.343 209.601 149.109 210.061 147.976C210.521 146.842 211.268 145.848 212.229 145.092Z" fill="white"/>
<mask id="mask3_866_7898" style="mask-type:luminance" maskUnits="userSpaceOnUse" x="197" y="145" width="16" height="35">
<path d="M212.229 145.092C212.229 145.092 207.184 146.51 205.773 147.721C204.361 148.932 202.313 152.766 199.918 153.167C197.524 153.569 197.489 154.987 197.489 155.998C197.474 156.563 197.615 157.121 197.898 157.61C197.898 157.61 197.697 162.253 197.697 164.675C197.697 167.097 198.299 167.706 199.51 167.706H202.34C202.34 167.706 201.731 176.183 201.129 178.204C200.527 180.225 204.153 178.003 205.164 176.993L210.817 171.339C210.817 171.339 209.606 165.485 211.419 161.451C213.232 157.416 210.035 155.998 209.606 151.555C209.444 150.343 209.601 149.109 210.061 147.976C210.521 146.842 211.268 145.848 212.229 145.092Z" fill="white"/>
</mask>
<g mask="url(#mask3_866_7898)">
<path d="M210.815 171.34C210.815 171.34 209.604 165.485 211.417 161.451C213.23 157.416 210.033 155.998 209.604 151.555C209.591 151.299 209.591 151.043 209.604 150.787C208.409 152.364 207.778 154.296 207.812 156.275C208.075 159.97 207.016 164.198 204.643 165.271C202.947 166.018 199.252 166.502 198.117 167.008C198.263 167.248 198.475 167.441 198.728 167.564C198.981 167.687 199.264 167.734 199.543 167.7H202.373C202.373 167.7 202.29 168.841 202.152 170.391C203.84 171.831 205.708 173.575 207.189 174.993L210.815 171.34Z" fill="#01A99E"/>
<path opacity="0.5" d="M210.815 171.34C210.815 171.34 209.604 165.485 211.417 161.451C213.23 157.416 210.033 155.998 209.604 151.555C209.591 151.299 209.591 151.043 209.604 150.787C208.409 152.364 207.778 154.296 207.812 156.275C208.075 159.97 207.016 164.198 204.643 165.271C202.947 166.018 199.252 166.502 198.117 167.008C198.263 167.248 198.475 167.441 198.728 167.564C198.981 167.687 199.264 167.734 199.543 167.7H202.373C202.373 167.7 202.29 168.841 202.152 170.391C203.84 171.831 205.708 173.575 207.189 174.993L210.815 171.34Z" fill="white"/>
</g>
<path d="M212.229 145.092C212.229 145.092 207.184 146.51 205.773 147.721C204.361 148.932 202.313 152.766 199.918 153.167C197.524 153.569 197.489 154.987 197.489 155.998C197.474 156.563 197.615 157.121 197.898 157.61C197.898 157.61 197.697 162.253 197.697 164.675C197.697 167.097 198.299 167.706 199.51 167.706H202.34C202.34 167.706 201.731 176.183 201.129 178.204C200.527 180.225 204.153 178.003 205.164 176.993L210.817 171.339C210.817 171.339 209.606 165.485 211.419 161.451C213.232 157.416 210.035 155.998 209.606 151.555C209.444 150.343 209.601 149.109 210.061 147.976C210.521 146.842 211.268 145.848 212.229 145.092Z" stroke="#263238" stroke-linecap="round" stroke-linejoin="round"/>
<path d="M204.867 153.472C204.445 154.164 203.863 154.552 203.566 154.365C203.268 154.178 203.358 153.479 203.773 152.801C204.188 152.123 204.777 151.721 205.081 151.908C205.386 152.095 205.282 152.794 204.867 153.472Z" fill="#263238"/>
<path d="M205.121 150.247C205.121 150.247 207.688 149.126 207.197 152.323" stroke="#263238" stroke-linecap="round" stroke-linejoin="round"/>
<path d="M202.715 158.62C200.313 159.423 199.352 158.62 199.352 158.62" stroke="#263238" stroke-linecap="round" stroke-linejoin="round"/>
<path d="M200.223 158.904V160.911C200.223 160.911 201.226 161.832 202.229 158.738C201.58 158.936 200.896 158.993 200.223 158.904Z" stroke="#263238" stroke-linecap="round" stroke-linejoin="round"/>
<path d="M210.617 159.631C210.617 159.631 216.471 158.019 215.662 160.641C214.852 163.264 210.008 165.084 209.434 163.063" fill="white"/>
<path d="M210.617 159.631C210.617 159.631 216.471 158.019 215.662 160.641C214.852 163.264 210.008 165.084 209.434 163.063" stroke="#263238" stroke-linecap="round" stroke-linejoin="round"/>
<path d="M181.559 203.594C181.559 203.594 190.132 214.292 191.15 223.42" stroke="#263238" stroke-linecap="round" stroke-linejoin="round"/>
<path d="M192.43 182.786C192.43 182.786 194.187 179.395 194.187 176.959" stroke="#263238" stroke-linecap="round" stroke-linejoin="round"/>
<path d="M221.074 187.699L216.715 182.439" stroke="#263238" stroke-linecap="round" stroke-linejoin="round"/>
<path d="M229.371 198.805C230.268 198.108 231.31 197.622 232.421 197.382C233.531 197.143 234.681 197.156 235.786 197.421" stroke="#263238" stroke-linecap="round" stroke-linejoin="round"/>
<path d="M222.997 205.344C222.139 203.811 221.119 202.375 219.953 201.061C218.486 199.594 214.541 199.822 214.091 200.839C213.642 201.857 216.347 201.628 218.036 203.317C219.724 205.005 219.503 206.472 219.503 206.472C217.994 207.054 216.375 207.29 214.763 207.164C212.624 206.825 209.801 206.265 209.58 207.054C209.358 207.842 210.14 208.742 211.946 209.192C213.752 209.642 215.891 209.531 216.569 209.642C217.247 209.752 218.935 211.559 220.292 211.559C221.648 211.559 223.337 211.226 223.786 211.559C224.236 211.891 225.475 213.475 226.831 213.475C228.187 213.475 229.426 212.091 229.537 210.548C229.648 209.005 228.748 207.503 226.831 206.715C224.914 205.926 222.997 205.344 222.997 205.344Z" fill="white" stroke="#263238" stroke-linecap="round" stroke-linejoin="round"/>
<path d="M226.216 205.462C226.216 205.462 221.718 201.614 220.618 201.503C219.518 201.393 216.265 203.434 217.013 204.271C217.76 205.109 218.902 203.877 219.905 204.022C220.909 204.168 223.58 206.479 224.057 206.555" fill="white"/>
<path d="M226.216 205.462C226.216 205.462 221.718 201.614 220.618 201.503C219.518 201.393 216.265 203.434 217.013 204.271C217.76 205.109 218.902 203.877 219.905 204.022C220.909 204.168 223.58 206.479 224.057 206.555" stroke="#263238" stroke-linecap="round" stroke-linejoin="round"/>
<path d="M226.383 207.261L224.999 205.005C224.999 205.005 223.532 207.49 221.843 207.151C220.155 206.812 223.76 203.089 224.549 202.867C225.338 202.646 226.355 202.175 227.255 203.877C227.901 205.249 228.393 206.688 228.722 208.168" fill="white"/>
<path d="M226.383 207.261L224.999 205.005C224.999 205.005 223.532 207.49 221.843 207.151C220.155 206.812 223.76 203.089 224.549 202.867C225.338 202.646 226.355 202.175 227.255 203.877C227.901 205.249 228.393 206.688 228.722 208.168" stroke="#263238" stroke-linecap="round" stroke-linejoin="round"/>
<path d="M229.428 209.296C229.428 209.296 228.86 205.683 228.182 205.234C227.504 204.784 225.366 205.573 224.466 206.618C223.566 207.663 224.127 207.856 225.255 207.856C225.869 207.886 226.472 207.683 226.943 207.289L227.732 208.984" fill="white"/>
<path d="M229.428 209.296C229.428 209.296 228.86 205.683 228.182 205.234C227.504 204.784 225.366 205.573 224.466 206.618C223.566 207.663 224.127 207.856 225.255 207.856C225.869 207.886 226.472 207.683 226.943 207.289L227.732 208.984" stroke="#263238" stroke-linecap="round" stroke-linejoin="round"/>
<path d="M158.467 261.389C157.128 258.215 155.386 255.226 153.284 252.497C150.052 248.428 144.627 246.843 141.167 244.622C137.707 242.401 132.69 239.376 130.469 241.999C128.247 244.622 130.268 248.227 133.929 252.296C137.589 256.365 144.018 259.562 144.627 260.372C145.236 261.181 150.966 267.928 153.187 268.129C155.408 268.33 157.658 265.423 158.467 261.389Z" fill="#263238" stroke="#263238" stroke-linecap="round" stroke-linejoin="round"/>
<path d="M156.792 265.728C155.637 261.624 151.436 258.151 148.558 255.957C145.098 253.348 142.863 249.687 136.593 244.94C133.867 242.864 131.964 242.068 130.69 241.819C130.611 241.883 130.537 241.952 130.469 242.027C128.247 244.65 130.268 248.255 133.929 252.324C137.589 256.393 144.018 259.59 144.627 260.4C145.236 261.209 150.966 267.956 153.187 268.157C154.454 268.247 155.761 267.299 156.792 265.728Z" fill="white" stroke="#263238" stroke-linecap="round" stroke-linejoin="round"/>
<path d="M146.855 257.3C142.876 253.985 134.039 244.034 132.046 243.155C130.385 242.415 129.728 244.214 129.555 244.83C129.721 247.01 131.437 249.556 133.9 252.297C137.533 256.331 143.99 259.563 144.599 260.372C145.208 261.182 150.937 267.929 153.159 268.13C153.426 268.2 153.709 268.168 153.954 268.04C154.198 267.912 154.386 267.697 154.481 267.438C155.588 265.804 150.854 260.614 146.855 257.3Z" fill="white" stroke="#263238" stroke-linecap="round" stroke-linejoin="round"/>
</svg>
