<svg width="344" height="229" viewBox="0 0 344 229" fill="none" xmlns="http://www.w3.org/2000/svg">
<path d="M133.623 203.769C131.173 198.219 126.803 193.736 121.313 191.142C115.864 188.595 103.714 189.768 103.714 189.768L71.7812 189.699C72.4371 192.502 74.5333 199.692 76.0698 202.111C77.6063 204.529 79.9226 206.572 82.6929 207.355C86.0825 208.312 89.6738 207.323 93.1918 207.094C99.3792 206.695 105.434 208.692 111.392 210.41C117.35 212.127 123.675 213.584 129.702 212.127C131.413 211.71 133.206 210.95 134.036 209.402C134.958 207.694 134.389 205.564 133.623 203.769Z" fill="#E0E0E0"/>
<path d="M285.638 101.141L244.854 110.446L251.135 137.896L291.919 128.591L285.638 101.141Z" fill="#F5F5F5"/>
<path d="M285.85 101.428C285.765 101.59 285.666 101.744 285.552 101.886L284.634 103.137L281.235 107.717C278.314 111.582 274.314 116.877 269.879 122.739L269.787 122.863L269.645 122.794L269.31 122.634L252.124 114.298L246.932 111.738L245.556 111.024C245.387 110.947 245.226 110.855 245.074 110.749C245.251 110.802 245.423 110.871 245.588 110.955L247.019 111.605L252.266 114.042L269.498 122.286L269.838 122.451L269.604 122.506C274.071 116.671 278.103 111.399 281.07 107.552C282.524 105.674 283.712 104.149 284.565 103.054L285.529 101.845C285.621 101.696 285.729 101.556 285.85 101.428Z" fill="#E0E0E0"/>
<path d="M251.348 138.188C251.257 138.137 253.463 133.676 256.275 128.222C259.086 122.767 261.448 118.379 261.54 118.425C261.632 118.471 259.426 122.936 256.614 128.396C253.802 133.855 251.436 138.233 251.348 138.188Z" fill="#E0E0E0"/>
<path d="M275.017 114.99C275.081 114.907 278.966 117.953 283.695 121.787C288.423 125.62 292.198 128.799 292.129 128.881C292.061 128.963 288.18 125.918 283.451 122.08C278.723 118.242 274.948 115.072 275.017 114.99Z" fill="#E0E0E0"/>
<path d="M103.957 26.5015L100.217 42.6785L124.252 48.2193L127.992 32.0423L103.957 26.5015Z" fill="#F5F5F5"/>
<path d="M128.032 32.2615C127.945 32.3244 127.853 32.3796 127.757 32.4264L126.954 32.8569L123.973 34.405L114.08 39.443L113.997 39.4842L113.937 39.4155L113.8 39.2414L106.833 30.4204L104.741 27.7227L104.182 26.9854C104.11 26.9045 104.048 26.8153 103.998 26.7197C104.077 26.7922 104.149 26.8719 104.214 26.9579L104.81 27.6724L106.956 30.3196L113.979 39.1178L114.116 39.2872L113.979 39.2598L123.9 34.2676L126.913 32.7791L127.739 32.3852C127.832 32.3336 127.93 32.2921 128.032 32.2615Z" fill="#E0E0E0"/>
<path d="M100.254 42.8962C100.218 42.8458 102.548 41.0642 105.437 38.875C108.327 36.6857 110.717 34.982 110.753 35.0323C110.79 35.0827 108.46 36.8643 105.57 39.0536C102.681 41.2428 100.291 42.9466 100.254 42.8962Z" fill="#E0E0E0"/>
<path d="M118.795 36.6718C118.85 36.6444 120.13 39.2595 121.648 42.5068C123.166 45.754 124.35 48.4104 124.295 48.4608C124.239 48.5111 122.964 45.8731 121.446 42.6258C119.928 39.3786 118.735 36.6947 118.795 36.6718Z" fill="#E0E0E0"/>
<path d="M256.316 30.5626L238.756 38.0962L243.842 49.9166L261.402 42.383L256.316 30.5626Z" fill="#F5F5F5"/>
<path d="M256.432 30.6858C256.405 30.763 256.373 30.8381 256.335 30.9102L256.032 31.5468C255.753 32.1147 255.358 32.9208 254.881 33.8826L251.015 41.5679L250.983 41.632H250.914L250.749 41.5908L242.341 39.255L239.796 38.4718L239.108 38.2657L238.869 38.1833C238.953 38.1912 239.036 38.2081 239.117 38.2336L239.814 38.4077L242.373 39.0809L250.794 41.3709L250.96 41.4167L250.863 41.4625C252.386 38.4718 253.767 35.7696 254.771 33.8002C255.271 32.8384 255.688 32.0506 255.973 31.5102L256.303 30.8873C256.339 30.8158 256.382 30.7482 256.432 30.6858Z" fill="#E0E0E0"/>
<path d="M243.956 50.0181C243.91 50.0181 244.533 47.8152 245.332 45.1313C246.13 42.4474 246.863 40.304 246.909 40.304C246.955 40.304 246.331 42.5024 245.533 45.1862C244.735 47.8701 244.011 50.0319 243.956 50.0181Z" fill="#E0E0E0"/>
<path d="M252.68 37.6474C252.703 37.6016 254.703 38.6505 257.143 39.9878C259.583 41.3252 261.541 42.4381 261.518 42.4793C261.495 42.5206 259.5 41.4763 257.06 40.139C254.62 38.8016 252.657 37.6887 252.68 37.6474Z" fill="#E0E0E0"/>
<path d="M250.36 71.5854H87.3586C83.6678 71.5854 80.6758 74.5731 80.6758 78.2585V181.373C80.6758 185.058 83.6678 188.046 87.3586 188.046H250.36C254.05 188.046 257.042 185.058 257.042 181.373V78.2585C257.042 74.5731 254.05 71.5854 250.36 71.5854Z" fill="#455A64"/>
<path d="M73.7812 180.525H264.862V182.563C264.862 184.726 264.002 186.799 262.471 188.328C260.939 189.857 258.863 190.716 256.698 190.716H81.9455C79.7802 190.716 77.7036 189.857 76.1725 188.328C74.6414 186.799 73.7812 184.726 73.7812 182.563V180.525Z" fill="#455A64"/>
<path d="M251.812 76.2112H85.4082V174.558H251.812V76.2112Z" fill="#263238"/>
<path d="M151.475 179.431L153.841 183.2H187.209L189.411 179.431H151.475Z" fill="#263238"/>
<path d="M247.231 79.541H90.3397C89.5113 79.541 88.8398 80.2115 88.8398 81.0387V172.749C88.8398 173.576 89.5113 174.246 90.3397 174.246H247.231C248.06 174.246 248.731 173.576 248.731 172.749V81.0387C248.731 80.2115 248.06 79.541 247.231 79.541Z" fill="#EBEBEB"/>
<path d="M248.555 174.384H88.6641L88.8384 86.6216H248.555V174.384Z" fill="#FAFAFA"/>
<path d="M101.952 83.2002C101.953 83.4532 101.879 83.7007 101.738 83.9114C101.598 84.1221 101.399 84.2866 101.165 84.3841C100.931 84.4815 100.674 84.5074 100.425 84.4587C100.177 84.4099 99.9484 84.2885 99.769 84.11C99.5896 83.9315 99.4673 83.7038 99.4175 83.4558C99.3678 83.2078 99.3928 82.9506 99.4895 82.7169C99.5863 82.4831 99.7503 82.2833 99.9608 82.1427C100.171 82.0021 100.419 81.927 100.672 81.927C100.84 81.9264 101.006 81.9589 101.162 82.0226C101.317 82.0863 101.458 82.18 101.577 82.2983C101.696 82.4166 101.79 82.5572 101.854 82.7119C101.919 82.8667 101.952 83.0327 101.952 83.2002Z" fill="#263238"/>
<path d="M94.2097 83.2002C94.2106 83.4534 94.1363 83.701 93.996 83.9119C93.8557 84.1227 93.6559 84.2872 93.4219 84.3845C93.1879 84.4818 92.9302 84.5075 92.6815 84.4583C92.4329 84.4092 92.2044 84.2874 92.0252 84.1084C91.846 83.9294 91.724 83.7013 91.6748 83.453C91.6255 83.2047 91.6513 82.9474 91.7487 82.7137C91.8461 82.48 92.0108 82.2805 92.222 82.1404C92.4331 82.0004 92.6812 81.9261 92.9346 81.927C93.1023 81.9264 93.2684 81.9589 93.4233 82.0227C93.5783 82.0865 93.7191 82.1802 93.8376 82.2986C93.9562 82.4169 94.0501 82.5575 94.1139 82.7123C94.1778 82.867 94.2103 83.0329 94.2097 83.2002Z" fill="#263238"/>
<path d="M97.9246 83.2002C97.9255 83.4534 97.8511 83.701 97.7108 83.9119C97.5706 84.1227 97.3708 84.2872 97.1367 84.3845C96.9027 84.4818 96.645 84.5075 96.3964 84.4583C96.1477 84.4092 95.9193 84.2874 95.74 84.1084C95.5608 83.9294 95.4388 83.7013 95.3896 83.453C95.3404 83.2047 95.3661 82.9474 95.4635 82.7137C95.5609 82.48 95.7257 82.2805 95.9368 82.1404C96.148 82.0004 96.396 81.9261 96.6495 81.927C96.8171 81.9264 96.9832 81.9589 97.1382 82.0227C97.2931 82.0865 97.4339 82.1802 97.5525 82.2986C97.671 82.4169 97.7649 82.5575 97.8288 82.7123C97.8926 82.867 97.9252 83.0329 97.9246 83.2002Z" fill="#263238"/>
<path d="M255.524 179.431C255.524 179.495 216.381 179.545 168.107 179.545C119.832 179.545 80.6758 179.495 80.6758 179.431C80.6758 179.367 119.814 179.316 168.107 179.316C216.4 179.316 255.524 179.371 255.524 179.431Z" fill="#263238"/>
<path d="M140.036 120.903L205.089 120.298L206.993 164.454L139.633 163.973L140.036 120.903Z" fill="#01A99E"/>
<path d="M140.035 120.912L170.766 95.9739C171.397 95.4614 172.186 95.1816 173 95.1816C173.813 95.1816 174.602 95.4614 175.233 95.9739L205.083 120.303" fill="#01A99E"/>
<g opacity="0.3">
<path d="M140.035 120.912L170.766 95.9739C171.397 95.4614 172.186 95.1816 173 95.1816C173.813 95.1816 174.602 95.4614 175.233 95.9739L205.083 120.303" fill="black"/>
</g>
<path d="M139.632 163.964C139.554 163.886 144.746 158.198 151.236 151.259C157.726 144.32 163.056 138.774 163.138 138.838C163.221 138.902 158.024 144.6 151.53 151.543C145.035 158.486 139.714 164.047 139.632 163.964Z" fill="#263238"/>
<path d="M206.991 164.454C206.908 164.532 201.826 158.958 195.639 152.056C189.451 145.154 184.502 139.461 184.585 139.388C184.668 139.314 189.75 144.884 195.942 151.79C202.134 158.697 207.073 164.381 206.991 164.454Z" fill="#263238"/>
<g opacity="0.5">
<path d="M205.088 120.298L172.477 146.423L140.035 120.903" fill="black"/>
</g>
<path d="M143.321 123.312L143.174 103.023L200.136 102.235L200.819 123.578L172.473 146.079L143.321 123.312Z" fill="#FAFAFA"/>
<path d="M143.319 123.312C143.319 123.312 143.507 123.445 143.86 123.715L145.41 124.91L151.309 129.49C156.391 133.452 163.693 139.108 172.531 146.015H172.412L200.744 123.495L200.703 123.591C200.57 119.52 200.432 115.247 200.294 110.9C200.198 107.974 200.106 105.079 200.015 102.244L200.134 102.358L143.177 103.11L143.25 103.032C143.278 109.412 143.305 114.482 143.319 117.953C143.319 119.689 143.319 121.027 143.319 121.938C143.319 122.396 143.319 122.73 143.319 122.968C143.319 123.207 143.319 123.321 143.319 123.321C143.319 123.321 143.319 123.207 143.319 122.978C143.319 122.749 143.319 122.401 143.319 121.956C143.319 121.04 143.291 119.712 143.273 117.981C143.241 114.495 143.19 109.425 143.131 103.032V102.958H143.204L200.129 102.134H200.249V102.253C200.34 105.088 200.432 107.978 200.528 110.905C200.666 115.251 200.804 119.524 200.932 123.596V123.655L200.886 123.692L172.522 146.18L172.463 146.23L172.403 146.18L151.203 129.568L145.351 124.961L143.823 123.752L143.319 123.312Z" fill="#263238"/>
<path d="M191.154 112.467C191.154 112.531 182.439 112.654 171.697 112.741C160.955 112.828 152.24 112.847 152.24 112.783C152.24 112.719 160.955 112.595 171.697 112.503C182.439 112.412 191.154 112.398 191.154 112.467Z" fill="#263238"/>
<path d="M191.163 118.196C191.163 118.26 182.448 118.389 171.711 118.476C160.973 118.563 152.254 118.581 152.254 118.512C152.254 118.444 160.969 118.324 171.711 118.237C182.453 118.15 191.163 118.132 191.163 118.196Z" fill="#263238"/>
<path d="M191.176 124.8C191.176 124.869 182.462 124.993 171.724 125.08C160.987 125.167 152.268 125.185 152.268 125.116C152.268 125.048 160.982 124.929 171.724 124.842C182.466 124.755 191.176 124.736 191.176 124.8Z" fill="#263238"/>
<path d="M191.19 131.405C191.19 131.473 182.884 131.593 172.633 131.675C162.381 131.757 154.07 131.776 154.07 131.707C154.07 131.638 162.377 131.519 172.633 131.437C182.888 131.354 191.19 131.341 191.19 131.405Z" fill="#263238"/>
<path d="M183.926 137.217C183.851 137.238 183.774 137.247 183.696 137.244L183.041 137.272L180.637 137.331L172.698 137.478C169.597 137.533 166.785 137.551 164.753 137.551H162.35H161.694C161.617 137.553 161.54 137.545 161.465 137.528C161.539 137.507 161.617 137.498 161.694 137.501L162.345 137.473L164.753 137.414L172.693 137.272C175.794 137.212 178.601 137.194 180.633 137.194H183.041H183.696C183.773 137.194 183.85 137.202 183.926 137.217Z" fill="#263238"/>
<path d="M176.586 142.804C175.214 142.928 173.835 142.971 172.458 142.933C171.081 142.976 169.703 142.939 168.33 142.823C169.703 142.702 171.081 142.659 172.458 142.694C173.835 142.654 175.213 142.691 176.586 142.804Z" fill="#263238"/>
<path d="M325.194 190.322C325.194 190.391 256.605 190.441 171.999 190.441C87.3937 190.441 18.8047 190.391 18.8047 190.322C18.8047 190.253 87.3799 190.203 171.999 190.203C256.619 190.203 325.194 190.258 325.194 190.322Z" fill="#263238"/>
<path d="M184.274 102.056C184.338 102.056 184.365 102.322 184.333 102.638C184.301 102.954 184.223 103.201 184.159 103.197C184.095 103.192 184.067 102.926 184.099 102.61C184.131 102.294 184.205 102.047 184.274 102.056Z" fill="#263238"/>
<path d="M184.883 97.5952C184.943 97.9703 184.926 98.3537 184.832 98.7219C184.811 99.1025 184.712 99.4748 184.543 99.8165C184.497 99.0604 184.612 98.303 184.883 97.5952Z" fill="#263238"/>
<path d="M185.782 93.1802C185.82 93.5602 185.777 93.944 185.658 94.3069C185.611 94.6849 185.488 95.0495 185.296 95.3786C185.259 94.9997 185.303 94.6173 185.424 94.2565C185.467 93.8768 185.589 93.5102 185.782 93.1802Z" fill="#263238"/>
<path d="M187.008 88.8521C186.947 89.6099 186.723 90.3457 186.352 91.0092C186.347 90.6275 186.421 90.2488 186.567 89.8963C186.638 89.521 186.788 89.165 187.008 88.8521Z" fill="#263238"/>
<path d="M188.581 84.6292C188.553 85.0095 188.449 85.3804 188.274 85.7192C188.169 86.0865 187.99 86.4281 187.746 86.7222C187.776 86.3466 187.88 85.9807 188.053 85.6459C188.155 85.2734 188.335 84.9267 188.581 84.6292Z" fill="#263238"/>
<path d="M190.535 80.5759C190.336 81.3074 189.986 81.9892 189.508 82.5774C189.569 82.2018 189.708 81.8431 189.916 81.524C190.2 80.9698 190.476 80.5439 190.535 80.5759Z" fill="#263238"/>
<path d="M192.891 76.738C192.786 77.1047 192.606 77.446 192.364 77.741C192.034 78.2631 191.717 78.657 191.662 78.6249C191.754 78.2541 191.924 77.9073 192.162 77.6082C192.511 77.0906 192.836 76.7013 192.891 76.738Z" fill="#263238"/>
<path d="M195.672 73.193C195.528 73.5462 195.314 73.8671 195.044 74.1365C194.645 74.5945 194.283 74.9654 194.228 74.9242C194.172 74.883 194.457 74.4662 194.86 73.9853C195.264 73.5044 195.622 73.1518 195.672 73.193Z" fill="#263238"/>
<path d="M198.846 70.0008C198.892 70.0512 198.562 70.4359 198.113 70.8618C197.663 71.2878 197.259 71.5946 197.195 71.5488C197.131 71.503 197.475 71.1183 197.929 70.6878C198.383 70.2573 198.805 69.9504 198.846 70.0008Z" fill="#263238"/>
<path d="M202.396 67.2253C202.432 67.2803 202.056 67.6238 201.556 67.9902C201.273 68.2443 200.94 68.4376 200.579 68.5581C200.538 68.5077 200.914 68.1642 201.419 67.7978C201.7 67.5403 202.033 67.3452 202.396 67.2253Z" fill="#263238"/>
<path d="M206.285 64.949C205.706 65.4428 205.029 65.8081 204.299 66.0207C204.267 65.9612 204.684 65.6772 205.216 65.3795C205.537 65.1612 205.902 65.0143 206.285 64.949Z" fill="#263238"/>
<path d="M210.459 63.2544C210.156 63.4853 209.81 63.6535 209.441 63.749C209.097 63.9153 208.722 64.0074 208.34 64.0193C208.642 63.7867 208.988 63.6183 209.358 63.5246C209.701 63.3562 210.077 63.264 210.459 63.2544Z" fill="#263238"/>
<path d="M214.844 62.2331C214.505 62.4053 214.135 62.5081 213.757 62.5353C213.394 62.6507 213.011 62.6897 212.633 62.6498C213.323 62.3266 214.083 62.1832 214.844 62.2331Z" fill="#263238"/>
<path d="M219.344 61.9858C218.982 62.1047 218.6 62.1484 218.22 62.114C217.841 62.1595 217.456 62.1236 217.092 62.0087C217.453 61.8885 217.836 61.8433 218.216 61.8759C218.595 61.8317 218.98 61.8692 219.344 61.9858Z" fill="#263238"/>
<path d="M223.829 62.5126C223.451 62.5691 223.065 62.5472 222.696 62.4484C222.314 62.4272 221.94 62.3258 221.6 62.1507C222.36 62.1144 223.119 62.2377 223.829 62.5126Z" fill="#263238"/>
<path d="M228.137 63.7993C227.381 63.7071 226.654 63.4541 226.004 63.0574C226.386 63.0693 226.761 63.1565 227.109 63.3139C227.482 63.4014 227.832 63.5668 228.137 63.7993Z" fill="#263238"/>
<path d="M232.149 65.8421C231.777 65.7601 231.424 65.6043 231.113 65.3841C230.764 65.2279 230.452 65.0019 230.195 64.72C230.569 64.7992 230.922 64.9551 231.232 65.178C231.773 65.494 232.186 65.7871 232.149 65.8421Z" fill="#263238"/>
<path d="M235.681 68.6268C235.335 68.4711 235.023 68.2485 234.763 67.9719C234.305 67.5689 233.956 67.1933 233.997 67.1429C234.039 67.0925 234.456 67.3811 234.915 67.7933C235.373 68.2055 235.727 68.581 235.681 68.6268Z" fill="#263238"/>
<path d="M237.91 71.1915C237.855 71.2281 237.658 71.0587 237.451 70.8114C237.245 70.564 237.144 70.3305 237.194 70.2847C237.245 70.2389 237.442 70.4129 237.653 70.6648C237.864 70.9167 237.965 71.1503 237.91 71.1915Z" fill="#263238"/>
<path d="M259.118 98.786C258.734 98.7369 258.364 98.609 258.031 98.4104C257.454 98.1448 257.009 97.8791 257.041 97.8196C257.426 97.8728 257.796 98.0003 258.132 98.1951C258.497 98.3239 258.833 98.5248 259.118 98.786Z" fill="#263238"/>
<path d="M263.448 100.302C262.679 100.233 261.932 100.005 261.256 99.6333C262.026 99.7001 262.773 99.9279 263.448 100.302Z" fill="#263238"/>
<path d="M267.975 101.012C267.594 101.091 267.2 101.091 266.819 101.012C266.432 101.01 266.049 100.927 265.695 100.769C266.075 100.693 266.467 100.693 266.847 100.769C267.235 100.773 267.619 100.856 267.975 101.012Z" fill="#263238"/>
<path d="M272.552 100.87C272.192 101.014 271.807 101.082 271.42 101.072C271.036 101.143 270.642 101.132 270.264 101.04C270.626 100.898 271.012 100.828 271.401 100.833C271.783 100.766 272.175 100.778 272.552 100.87Z" fill="#263238"/>
<path d="M277.057 100.027C276.723 100.226 276.354 100.356 275.97 100.412C275.598 100.528 275.206 100.567 274.818 100.526C275.158 100.339 275.533 100.222 275.919 100.183C276.283 100.053 276.671 100 277.057 100.027Z" fill="#263238"/>
<path d="M281.313 98.3372C281.345 98.3967 280.9 98.6578 280.322 98.928C279.988 99.1256 279.616 99.2505 279.23 99.2944C279.851 98.8348 280.56 98.5088 281.313 98.3372Z" fill="#263238"/>
<path d="M285.116 95.7861C285.157 95.8365 284.799 96.2121 284.29 96.5968C284.003 96.8608 283.66 97.0552 283.286 97.1647C283.249 97.1098 283.643 96.7846 284.148 96.409C284.43 96.1449 284.758 95.9338 285.116 95.7861Z" fill="#263238"/>
<path d="M288.235 92.4429C288.11 92.8135 287.901 93.1505 287.625 93.4276C287.216 93.9176 286.822 94.2565 286.776 94.2107C286.73 94.1649 287.042 93.7527 287.441 93.2947C287.84 92.8367 288.179 92.4062 288.235 92.4429Z" fill="#263238"/>
<path d="M290.382 88.394C290.367 88.785 290.259 89.1666 290.066 89.507C289.939 89.8764 289.729 90.2118 289.451 90.4871C289.52 90.1069 289.653 89.7413 289.846 89.4062C289.967 89.0415 290.149 88.6995 290.382 88.394Z" fill="#263238"/>
<path d="M291.252 83.9331C291.362 84.3081 291.38 84.7041 291.303 85.0873C291.302 85.479 291.205 85.8645 291.018 86.2094C290.972 85.8277 290.987 85.4411 291.064 85.0644C291.064 84.6795 291.128 84.2972 291.252 83.9331Z" fill="#263238"/>
<path d="M290.57 79.4172C290.791 79.7403 290.932 80.1105 290.983 80.4981C291.107 80.8681 291.14 81.2623 291.08 81.6477C290.908 81.304 290.797 80.9339 290.749 80.5531C290.627 80.187 290.567 79.8031 290.57 79.4172Z" fill="#263238"/>
<path d="M288.574 75.3135C288.625 75.2723 288.973 75.6662 289.294 76.2295C289.523 76.5447 289.671 76.9111 289.725 77.2966C289.666 77.3287 289.4 76.889 289.088 76.3486C288.861 76.034 288.687 75.6843 288.574 75.3135Z" fill="#263238"/>
<path d="M285.391 72.0435C285.763 72.168 286.098 72.3819 286.368 72.6663C286.854 73.0831 287.171 73.4953 287.125 73.5411C287.079 73.5869 286.666 73.2526 286.207 72.845C285.749 72.4373 285.354 72.0984 285.391 72.0435Z" fill="#263238"/>
<path d="M281.23 70.1838C281.622 70.1471 282.017 70.2118 282.377 70.3716C282.759 70.4594 283.114 70.6404 283.409 70.8983C283.027 70.8574 282.654 70.7553 282.304 70.596C281.927 70.5145 281.565 70.3754 281.23 70.1838Z" fill="#263238"/>
<path d="M276.685 70.2618C277.019 70.054 277.402 69.9386 277.795 69.9275C278.179 69.8401 278.578 69.8527 278.955 69.9641C278.202 70.1348 277.434 70.2345 276.662 70.2618H276.685Z" fill="#263238"/>
<path d="M272.732 72.4693C272.681 72.4281 272.998 72.0113 273.516 71.6129C273.807 71.346 274.165 71.1638 274.553 71.0862C274.585 71.1503 274.154 71.4297 273.635 71.8052C273.117 72.1808 272.782 72.5151 272.732 72.4693Z" fill="#263238"/>
<path d="M270.917 76.5822C270.83 76.1972 270.853 75.7955 270.985 75.4235C271.039 75.0314 271.206 74.6636 271.467 74.3655C271.426 74.7449 271.341 75.1183 271.215 75.4784C271.164 75.8577 271.063 76.2288 270.917 76.5822Z" fill="#263238"/>
<path d="M271.81 81.0202C271.539 80.7361 271.347 80.3853 271.255 80.0034C271.088 79.6464 271.021 79.2505 271.063 78.8584C271.251 79.193 271.391 79.5522 271.48 79.9255C271.643 80.2725 271.754 80.6412 271.81 81.0202Z" fill="#263238"/>
<path d="M274.81 84.4277C274.434 84.311 274.094 84.0997 273.823 83.8139C273.337 83.3926 273.039 82.9621 273.09 82.9208C273.14 82.8796 273.511 83.2231 273.979 83.6353C274.447 84.0475 274.846 84.3727 274.81 84.4277Z" fill="#263238"/>
<path d="M278.974 86.2918C278.583 86.3129 278.193 86.239 277.837 86.0765C277.454 85.9909 277.099 85.8097 276.805 85.5498C277.187 85.5908 277.56 85.6928 277.91 85.8521C278.287 85.9371 278.647 86.0858 278.974 86.2918Z" fill="#263238"/>
<path d="M283.524 86.7224C282.769 86.9167 281.976 86.8992 281.23 86.672C281.607 86.593 281.994 86.5744 282.377 86.617C282.763 86.5856 283.151 86.6212 283.524 86.7224Z" fill="#263238"/>
<path d="M288.042 85.8887C287.367 86.2753 286.6 86.4716 285.822 86.4566C286.16 86.273 286.528 86.1506 286.909 86.0948C287.273 85.9641 287.656 85.8944 288.042 85.8887Z" fill="#263238"/>
<path d="M292.17 83.988C291.897 84.2642 291.571 84.4824 291.211 84.6292C290.888 84.8441 290.525 84.9906 290.143 85.0598C290.737 84.5663 291.427 84.2014 292.17 83.988Z" fill="#263238"/>
<path d="M295.84 81.2583C295.886 81.3087 295.524 81.6751 295.033 82.0781C294.756 82.3511 294.429 82.5674 294.07 82.7147C294.028 82.6598 294.395 82.2934 294.881 81.8949C295.157 81.6233 295.483 81.4071 295.84 81.2583Z" fill="#263238"/>
<path d="M298.982 77.9103C299.032 77.9515 298.739 78.3683 298.326 78.8584C297.913 79.3484 297.537 79.6965 297.491 79.6507C297.445 79.6049 297.734 79.1927 298.142 78.7026C298.551 78.2126 298.927 77.8599 298.982 77.9103Z" fill="#263238"/>
<path d="M301.499 74.0906C301.411 74.4685 301.245 74.824 301.013 75.1349C300.683 75.6799 300.375 76.0921 300.32 76.0509C300.409 75.6732 300.575 75.3178 300.806 75.0066C301.132 74.4708 301.439 74.0586 301.499 74.0906Z" fill="#263238"/>
<path d="M303.362 69.9045C303.334 70.2921 303.23 70.6703 303.055 71.0175C302.953 71.3926 302.768 71.7401 302.514 72.0342C302.553 71.6506 302.66 71.2769 302.83 70.9305C302.936 70.5561 303.117 70.2071 303.362 69.9045Z" fill="#263238"/>
<path d="M304.642 65.4941C304.665 65.8804 304.607 66.2673 304.472 66.63C304.412 67.0139 304.275 67.3816 304.068 67.7109C304.101 66.9399 304.296 66.1844 304.642 65.4941Z" fill="#263238"/>
<path d="M305.445 61.0056C305.508 61.3884 305.489 61.7802 305.39 62.1552C305.369 62.5418 305.271 62.9202 305.101 63.2681C305.038 62.8854 305.057 62.4936 305.156 62.1186C305.178 61.7321 305.276 61.3538 305.445 61.0056Z" fill="#263238"/>
<path d="M305.867 56.4438C305.973 57.2106 305.915 57.9911 305.697 58.7339C305.611 58.355 305.6 57.9628 305.665 57.5797C305.655 57.1914 305.724 56.8051 305.867 56.4438Z" fill="#263238"/>
<path d="M306.014 51.8684C306.126 52.239 306.159 52.6292 306.11 53.0134C306.144 53.4008 306.096 53.7911 305.968 54.1584C305.862 53.785 305.829 53.3946 305.872 53.0088C305.843 52.623 305.891 52.2354 306.014 51.8684Z" fill="#263238"/>
<path d="M305.981 47.2886C306.104 47.657 306.151 48.0465 306.119 48.4336C306.165 48.8184 306.129 49.2086 306.013 49.5786C305.891 49.21 305.844 48.8206 305.876 48.4336C305.835 48.0487 305.871 47.6596 305.981 47.2886Z" fill="#263238"/>
<path d="M305.93 44.4719C305.995 44.4719 306.054 44.5864 306.059 44.733C306.063 44.8795 306.013 44.994 305.944 44.9986C305.875 45.0032 305.82 44.8841 305.82 44.7376C305.82 44.591 305.848 44.4719 305.93 44.4719Z" fill="#263238"/>
<path d="M315.963 30.8723L284.787 34.2542L287.07 55.2399L318.246 51.8581L315.963 30.8723Z" fill="#01A99E"/>
<path d="M287.057 55.2622L284.764 34.2675L315.953 30.8875L318.246 51.8868L287.057 55.2622ZM284.8 34.2766L287.094 55.2393L318.246 51.8593L315.953 30.8966L284.8 34.2766Z" fill="#263238"/>
<path d="M316.089 31.144C316.012 31.2559 315.925 31.3602 315.828 31.4555L315.043 32.3119L312.112 35.4172L302.347 45.5939L302.27 45.681L302.169 45.6168L301.93 45.4657L289.876 37.7667L286.207 35.408L285.225 34.7531C285.108 34.6808 284.996 34.5997 284.891 34.5103C285.019 34.562 285.142 34.6265 285.258 34.7027L286.267 35.3118L289.936 37.6018L302.049 45.2321L302.288 45.3833H302.109L311.97 35.266L314.965 32.2249L315.786 31.4097C315.879 31.3122 315.98 31.2233 316.089 31.144Z" fill="#263238"/>
<path d="M287.195 55.4912C287.131 55.45 289.162 52.3173 291.731 48.5021C294.3 44.687 296.442 41.6321 296.506 41.6688C296.57 41.7054 294.543 44.8427 291.97 48.6579C289.396 52.473 287.259 55.537 287.195 55.4912Z" fill="#263238"/>
<path d="M306.847 40.3041C306.907 40.2491 309.535 42.8551 312.718 46.1207C315.901 49.3862 318.437 52.0747 318.382 52.1342C318.327 52.1938 315.699 49.5877 312.511 46.3176C309.324 43.0475 306.783 40.3361 306.847 40.3041Z" fill="#263238"/>
<path d="M173.592 94.5083C173.657 94.5083 173.753 94.7419 173.808 95.0533C173.863 95.3648 173.849 95.6258 173.785 95.6396C173.721 95.6533 173.625 95.406 173.569 95.09C173.514 94.7739 173.528 94.5175 173.592 94.5083Z" fill="#263238"/>
<path d="M172.857 90.0381C173.03 90.3806 173.131 90.7545 173.155 91.1373C173.254 91.5075 173.276 91.8941 173.219 92.2731C173.043 91.9318 172.942 91.5572 172.921 91.1739C172.822 90.8037 172.8 90.4171 172.857 90.0381Z" fill="#263238"/>
<path d="M172.201 85.5588C172.369 85.9036 172.463 86.2796 172.476 86.6626C172.567 87.0345 172.581 87.421 172.518 87.7985C172.348 87.4545 172.254 87.078 172.242 86.6947C172.152 86.3228 172.138 85.9363 172.201 85.5588Z" fill="#263238"/>
<path d="M171.688 81.0659C171.842 81.4171 171.923 81.7956 171.927 82.1789C172.007 82.5532 172.007 82.9404 171.927 83.3147C171.773 82.9636 171.694 82.5848 171.693 82.2018C171.612 81.8276 171.61 81.4407 171.688 81.0659Z" fill="#263238"/>
<path d="M171.372 76.5408C171.574 77.2776 171.617 78.0485 171.501 78.8033C171.299 78.0665 171.256 77.2956 171.372 76.5408Z" fill="#263238"/>
<path d="M171.326 72.0112C171.485 72.7663 171.485 73.5462 171.326 74.3012C171.207 73.9367 171.168 73.5509 171.212 73.17C171.166 72.78 171.206 72.3849 171.326 72.0112Z" fill="#263238"/>
<path d="M171.61 67.4954C171.694 67.8702 171.701 68.2579 171.633 68.6358C171.64 69.0188 171.568 69.399 171.422 69.7533C171.333 69.3809 171.324 68.9938 171.395 68.6175C171.388 68.2326 171.461 67.8504 171.61 67.4954Z" fill="#263238"/>
<path d="M172.29 63.0208C172.345 63.4006 172.319 63.788 172.212 64.1566C172.184 64.5395 172.076 64.9124 171.895 65.2512C171.872 64.4886 172.006 63.7294 172.29 63.0208Z" fill="#263238"/>
<path d="M173.449 58.6467C173.454 59.0296 173.382 59.4095 173.238 59.7642C173.163 60.1407 173.015 60.4987 172.802 60.8176C172.791 60.4333 172.862 60.051 173.008 59.6955C173.079 59.3186 173.229 58.9611 173.449 58.6467Z" fill="#263238"/>
<path d="M175.141 54.447C175.102 54.829 174.983 55.1986 174.793 55.5325C174.673 55.8968 174.481 56.2333 174.229 56.5218C174.387 55.774 174.699 55.0674 175.146 54.447H175.141Z" fill="#263238"/>
<path d="M177.353 50.4989C177.264 50.8714 177.1 51.222 176.872 51.5294C176.551 52.0607 176.243 52.4454 176.184 52.4454C176.274 52.0725 176.439 51.7219 176.67 51.4149C176.991 50.8699 177.298 50.4622 177.353 50.4989Z" fill="#263238"/>
<path d="M180.072 46.8762C180.123 46.922 179.848 47.3342 179.458 47.8335C179.068 48.3327 178.705 48.6808 178.65 48.6395C178.791 48.2823 179.001 47.9568 179.27 47.6823C179.664 47.1968 180.026 46.835 180.072 46.8762Z" fill="#263238"/>
<path d="M183.297 43.6932C183.339 43.7482 182.999 44.1283 182.541 44.5497C182.082 44.971 181.669 45.2687 181.623 45.2229C181.577 45.1771 181.917 44.797 182.38 44.3711C182.843 43.9451 183.256 43.6428 183.297 43.6932Z" fill="#263238"/>
<path d="M187.003 41.0916C187.035 41.1511 186.636 41.4671 186.108 41.8015C185.808 42.0389 185.461 42.212 185.09 42.3098C185.054 42.2595 185.453 41.9389 185.98 41.5999C186.284 41.3646 186.632 41.1918 187.003 41.0916Z" fill="#263238"/>
<path d="M191.131 39.2368C190.834 39.4796 190.488 39.6575 190.118 39.7589C189.777 39.9342 189.404 40.0371 189.021 40.0612C189.32 39.8193 189.665 39.6415 190.035 39.5391C190.375 39.3632 190.749 39.2603 191.131 39.2368Z" fill="#263238"/>
<path d="M194.443 38.4216C194.443 38.4858 194.213 38.5865 193.906 38.6461C193.599 38.7056 193.333 38.701 193.319 38.6461C193.305 38.5911 193.548 38.4812 193.86 38.4216C194.172 38.3621 194.433 38.3575 194.443 38.4216Z" fill="#263238"/>
<path d="M170.045 21.225L161.756 42.6309L193.558 54.9101L201.848 33.5042L170.045 21.225Z" fill="#01A99E"/>
<path d="M193.557 54.9279L161.744 42.6397L170.041 21.2236L201.855 33.5072L193.557 54.9279ZM161.772 42.626L193.557 54.8958L201.841 33.5118L170.055 21.242L161.772 42.626Z" fill="#263238"/>
<path d="M201.849 33.8048C201.721 33.8746 201.586 33.9314 201.446 33.9743L200.258 34.4048L195.878 35.9437L181.347 40.9267L181.228 40.9679L181.164 40.858L181.008 40.5924L173.21 27.1409L170.876 23.0464L170.257 21.9243C170.176 21.7969 170.109 21.6619 170.055 21.5212C170.15 21.6372 170.234 21.7614 170.307 21.8922L170.981 22.9868L173.375 27.0218C175.412 30.4751 178.191 35.2063 181.26 40.4275L181.416 40.6931L181.232 40.6244L195.809 35.7238L200.221 34.2811L201.427 33.901C201.564 33.8538 201.706 33.8216 201.849 33.8048Z" fill="#263238"/>
<path d="M161.758 42.9283C161.717 42.855 165.244 40.8444 169.638 38.4399C174.032 36.0354 177.623 34.1439 177.665 34.2171C177.706 34.2904 174.179 36.301 169.785 38.7101C165.391 41.1192 161.799 43.0016 161.758 42.9283Z" fill="#263238"/>
<path d="M188.342 38.014C188.425 37.9911 189.659 41.8154 191.094 46.5557C192.53 51.296 193.64 55.1661 193.557 55.189C193.475 55.2119 192.241 51.3922 190.805 46.6473C189.37 41.9024 188.26 38.0552 188.342 38.014Z" fill="#263238"/>
<path d="M160.235 99.5189C160.299 99.5189 160.331 99.7845 160.308 100.101C160.285 100.417 160.207 100.668 160.143 100.664C160.079 100.659 160.042 100.398 160.07 100.082C160.097 99.7662 160.171 99.5143 160.235 99.5189Z" fill="#263238"/>
<path d="M160.349 94.8611C160.469 95.2382 160.509 95.6356 160.469 96.029C160.504 96.4211 160.462 96.8164 160.345 97.1923C160.229 96.8161 160.19 96.4205 160.23 96.029C160.194 95.6356 160.234 95.2389 160.349 94.8611Z" fill="#263238"/>
<path d="M160.033 90.2261C160.26 90.9778 160.333 91.7675 160.248 92.5481C160.094 92.1848 160.017 91.7932 160.024 91.3986C159.95 91.0109 159.953 90.6126 160.033 90.2261Z" fill="#263238"/>
<path d="M159.258 85.6187C159.444 85.9666 159.56 86.348 159.597 86.7408C159.71 87.1191 159.746 87.5162 159.703 87.9087C159.517 87.5604 159.402 87.1791 159.363 86.7866C159.248 86.4088 159.212 86.011 159.258 85.6187Z" fill="#263238"/>
<path d="M157.988 81.1348C158.376 81.8185 158.618 82.5747 158.699 83.3561C158.476 83.0316 158.32 82.6656 158.241 82.2798C158.079 81.9192 157.994 81.5296 157.988 81.1348Z" fill="#263238"/>
<path d="M156.203 76.834C156.466 77.128 156.666 77.4724 156.79 77.8462C156.986 78.1891 157.113 78.5673 157.162 78.9591C156.902 78.6633 156.702 78.3194 156.575 77.9469C156.377 77.6046 156.251 77.2261 156.203 76.834Z" fill="#263238"/>
<path d="M153.887 72.7899C153.942 72.7532 154.272 73.1654 154.621 73.7059C154.854 74.0261 155.022 74.3885 155.116 74.773C155.056 74.8051 154.744 74.3837 154.414 73.8295C154.171 73.5214 153.992 73.168 153.887 72.7899Z" fill="#263238"/>
<path d="M151.029 69.1123C151.08 69.0665 151.456 69.4329 151.869 69.9275C152.149 70.2066 152.372 70.538 152.525 70.903C152.47 70.9397 152.098 70.5733 151.685 70.0832C151.404 69.8062 151.181 69.4762 151.029 69.1123Z" fill="#263238"/>
<path d="M147.691 65.8696C147.732 65.8192 148.15 66.1307 148.636 66.5612C149.122 66.9917 149.466 67.3856 149.42 67.4314C149.063 67.2654 148.742 67.0304 148.476 66.7398C147.989 66.3093 147.636 65.92 147.691 65.8696Z" fill="#263238"/>
<path d="M143.897 63.1492C144.276 63.2587 144.628 63.4442 144.933 63.6942C145.47 64.0514 145.878 64.3858 145.851 64.4407C145.473 64.3266 145.121 64.1399 144.814 63.8911C144.268 63.5385 143.86 63.2041 143.897 63.1492Z" fill="#263238"/>
<path d="M139.742 61.0332C140.134 61.0834 140.512 61.2127 140.852 61.4133C141.225 61.5424 141.568 61.7449 141.861 62.0087C141.469 61.9585 141.092 61.8292 140.751 61.6286C140.379 61.4981 140.036 61.2958 139.742 61.0332Z" fill="#263238"/>
<path d="M135.307 59.6271C135.702 59.6133 136.096 59.6771 136.467 59.8149C136.857 59.8802 137.23 60.0235 137.563 60.2362C137.168 60.2482 136.774 60.1845 136.403 60.0485C136.013 59.9808 135.641 59.8377 135.307 59.6271Z" fill="#263238"/>
<path d="M130.67 59.0363C131.449 58.9056 132.248 58.9701 132.995 59.2241C132.215 59.287 131.43 59.2236 130.67 59.0363Z" fill="#263238"/>
<path d="M126.02 59.3569C126.766 59.1076 127.556 59.014 128.34 59.0821C127.98 59.2446 127.589 59.3319 127.194 59.3386C126.807 59.4205 126.408 59.4267 126.02 59.3569Z" fill="#263238"/>
<path d="M121.516 60.5568C121.84 60.3324 122.207 60.1766 122.593 60.0988C122.955 59.9414 123.346 59.8603 123.74 59.8606C123.415 60.0826 123.048 60.2383 122.662 60.3186C122.299 60.4713 121.91 60.5522 121.516 60.5568Z" fill="#263238"/>
<path d="M117.314 62.5765C117.282 62.517 117.713 62.2238 118.287 61.917C118.612 61.6921 118.981 61.5362 119.369 61.459C118.765 61.9631 118.067 62.3415 117.314 62.5719V62.5765Z" fill="#263238"/>
<path d="M113.59 65.3703C113.544 65.3245 113.911 64.9489 114.406 64.5321C114.686 64.2519 115.018 64.0294 115.383 63.8772C115.42 63.9322 115.053 64.3077 114.562 64.7153C114.286 64.9979 113.955 65.2209 113.59 65.3703Z" fill="#263238"/>
<path d="M110.539 68.8878C110.657 68.5085 110.859 68.1609 111.131 67.871C111.53 67.3581 111.92 67.0008 111.966 67.0421C112.011 67.0833 111.713 67.5 111.319 68.0176C110.924 68.5351 110.594 68.9244 110.539 68.8878Z" fill="#263238"/>
<path d="M108.837 71.9061C108.778 71.8786 108.837 71.6267 108.98 71.3382C109.122 71.0497 109.278 70.8436 109.337 70.8802C109.397 70.9168 109.337 71.1642 109.195 71.4481C109.053 71.7321 108.897 71.9382 108.837 71.9061Z" fill="#263238"/>
<path d="M79.6934 98.928C79.6934 98.8639 79.9365 98.7815 80.2483 98.7402C80.5602 98.699 80.8217 98.7402 80.8309 98.7906C80.84 98.841 80.5969 98.9418 80.2759 98.9784C79.9548 99.015 79.6979 99.0059 79.6934 98.928Z" fill="#263238"/>
<path d="M75.1523 98.4243C75.5381 98.42 75.9221 98.4772 76.2898 98.5938C76.6738 98.6335 77.0488 98.7356 77.3998 98.896C76.6217 98.9699 75.8392 98.8104 75.1523 98.438V98.4243Z" fill="#263238"/>
<path d="M71.0434 96.3953C71.4127 96.5107 71.76 96.6872 72.0708 96.9174C72.612 97.238 73.0478 97.5082 73.0202 97.5723C72.6335 97.5036 72.2679 97.3469 71.9515 97.1143C71.4011 96.7937 71.0067 96.4502 71.0434 96.3953Z" fill="#263238"/>
<path d="M67.6306 93.3358C67.6811 93.2946 68.0572 93.6427 68.5021 94.0915C68.947 94.5404 69.291 94.9205 69.2497 94.9709C69.2084 95.0213 68.791 94.7144 68.3324 94.261C67.8737 93.8076 67.5802 93.3816 67.6306 93.3358Z" fill="#263238"/>
<path d="M64.9336 89.6261C64.9932 89.594 65.3189 89.9925 65.6629 90.5421C65.9059 90.8442 66.0867 91.1913 66.1949 91.5634C66.1399 91.6046 65.8142 91.2016 65.4656 90.6703C65.2173 90.3631 65.0361 90.0074 64.9336 89.6261Z" fill="#263238"/>
<path d="M62.9512 85.4902C63.2038 85.785 63.3942 86.1277 63.5107 86.4978C63.6949 86.8405 63.8117 87.2151 63.8547 87.6016C63.5997 87.3078 63.4077 86.9649 63.2906 86.594C63.1052 86.2522 62.9898 85.877 62.9512 85.4902Z" fill="#263238"/>
<path d="M61.6348 81.0935C61.8418 81.423 61.9806 81.7905 62.043 82.1744C62.1786 82.5386 62.2379 82.9268 62.2173 83.3148C62.007 82.987 61.868 82.6188 61.8091 82.2339C61.6737 81.8696 61.6144 81.4815 61.6348 81.0935Z" fill="#263238"/>
<path d="M60.837 76.573C61.005 76.9233 61.1031 77.3028 61.126 77.6905C61.2222 78.0676 61.2409 78.4602 61.181 78.8447C61.009 78.4959 60.9106 78.1155 60.8921 77.7272C60.7931 77.3505 60.7744 76.9573 60.837 76.573Z" fill="#263238"/>
<path d="M60.3977 72.0068C60.6181 72.749 60.6806 73.5291 60.5811 74.2968C60.4342 73.9381 60.3624 73.5531 60.3701 73.1656C60.2981 72.7817 60.3075 72.3869 60.3977 72.0068Z" fill="#263238"/>
<path d="M60.2038 68.5671C60.2726 68.5671 60.3368 68.819 60.3505 69.1351C60.3643 69.4511 60.323 69.7076 60.2588 69.7121C60.1946 69.7167 60.1258 69.4602 60.112 69.1442C60.0983 68.8282 60.1395 68.5717 60.2038 68.5671Z" fill="#263238"/>
<path d="M77.4769 40.7976L39.3398 42.5935L40.5522 68.2634L78.6892 66.4675L77.4769 40.7976Z" fill="#01A99E"/>
<path d="M40.5371 68.2743L39.3262 42.5942L77.4781 40.7988L78.6889 66.4789L40.5371 68.2743ZM39.3491 42.5942L40.56 68.2422L78.6752 66.4468L77.4643 40.7988L39.3491 42.5942Z" fill="#263238"/>
<path d="M77.6108 41.1008C77.5097 41.2307 77.396 41.3504 77.2714 41.4581L76.2531 42.4382L72.4691 45.9969L59.8375 57.6621L59.732 57.7583L59.6173 57.6759L59.3421 57.4743L45.2473 47.2243C43.4768 45.9144 42.0366 44.8473 41 44.087L39.8579 43.2168C39.7191 43.123 39.5901 43.0156 39.4727 42.8962C39.6217 42.9732 39.7644 43.0621 39.8992 43.1618L41.0826 43.9679L45.394 47.0182L59.5439 57.1858L59.8237 57.3873H59.6035L72.2994 45.7999L76.1614 42.3237L77.2255 41.4077C77.3428 41.2922 77.472 41.1894 77.6108 41.1008Z" fill="#263238"/>
<path d="M40.6831 68.5672C40.6097 68.5076 43.3113 64.8528 46.7192 60.4056C50.127 55.9584 52.9524 52.3998 53.0258 52.4547C53.0992 52.5097 50.4022 56.1691 46.9944 60.6163C43.5865 65.0635 40.7611 68.6221 40.6831 68.5672Z" fill="#263238"/>
<path d="M65.6908 51.5387C65.7642 51.4746 68.7639 54.8363 72.3874 59.0408C76.0108 63.2452 78.8958 66.7077 78.8087 66.7718C78.7216 66.8359 75.7402 63.4742 72.1122 59.2652C68.4841 55.0562 65.6174 51.6029 65.6908 51.5387Z" fill="#263238"/>
<path d="M107.591 131.977C107.627 131.721 107.567 131.46 107.421 131.245C107.275 131.031 107.054 130.879 106.802 130.818L105.779 130.887L102.109 129.619C101.952 129.577 101.788 129.571 101.628 129.6C101.468 129.63 101.317 129.694 101.185 129.789C101.054 129.885 100.945 130.008 100.867 130.15C100.788 130.292 100.743 130.45 100.733 130.612C100.733 131.661 100.275 134.519 99.4446 133.621L99.3804 133.562C98.1741 132.22 96.7798 131.57 96.2431 131.647C96.1282 131.67 96.0221 131.725 95.9374 131.806C95.8527 131.886 95.7928 131.99 95.7649 132.103C95.7369 132.217 95.742 132.336 95.7796 132.447C95.8172 132.557 95.8857 132.655 95.9771 132.728C96.0392 132.793 96.1141 132.845 96.1973 132.879C96.234 132.879 96.2798 132.925 96.3165 132.944C96.824 133.312 97.2927 133.731 97.7154 134.194C98.0976 134.596 98.4078 135.061 98.6328 135.568C98.8759 136.136 99.0685 136.631 99.2199 137.056L99.2749 140.414L97.8163 156.109C97.8163 156.109 88.1385 145.96 88.3632 145.864L88.9274 161.674L94.7892 166.515C95.8747 167.416 97.1964 167.987 98.5973 168.16C99.9983 168.332 101.419 168.1 102.692 167.49C103.964 166.879 105.034 165.917 105.775 164.717C106.516 163.518 106.896 162.131 106.87 160.721L106.536 140.427L106.774 137.766L107.591 131.977Z" fill="#FFBE9D"/>
<path d="M53.2567 154.291L42.6569 178.492L34.2908 195.951L28.0667 198.039C28.0667 198.039 23.1406 199.468 23.1406 200.485C23.1406 201.502 24.4387 201.273 24.4387 201.273C24.6772 202.793 26.787 201.932 28.2639 201.273C29.7408 200.613 33.0249 200.43 33.0249 200.43C32.8532 200.547 32.7112 200.702 32.6102 200.883C32.5092 201.065 32.452 201.267 32.4431 201.474C32.4342 201.681 32.4738 201.888 32.5589 202.077C32.644 202.266 32.7721 202.433 32.9332 202.564C33.456 202.931 34.3642 202.486 34.9788 201.831C35.5934 201.176 37.1804 200.874 38.9463 200.242C40.7121 199.61 41.0011 197.247 41.0011 197.247L62.1961 161.582L53.2567 154.291Z" fill="#FFBE9D"/>
<path d="M88.4092 163.08L91.074 166.593L96.8486 153.801C96.8486 153.801 91.2437 146.972 89.1935 144.11C87.1432 141.247 85.6388 140.775 85.6388 140.775C85.6388 140.775 81.9144 139.69 80.0568 139.69L70.856 140.24L61.513 144.311C59.2182 145.311 57.2633 146.955 55.8851 149.042L47.0879 163.153L59.5453 168.471L63.7237 192.36C64.5218 195.937 65.2236 199.312 68.5306 200.961L91.6336 178.789L88.9275 174.53L88.4092 163.08Z" fill="#01A99E"/>
<path d="M66.3193 158.706C66.3744 158.743 64.9433 160.95 63.1408 163.644C61.3382 166.337 59.8154 168.48 59.765 168.443C59.7145 168.407 61.141 166.199 62.9435 163.506C64.7461 160.813 66.2643 158.67 66.3193 158.706Z" fill="#263238"/>
<path d="M85.6898 181.368C85.4955 181.507 85.2899 181.629 85.0752 181.734C84.6761 181.954 84.0891 182.266 83.3598 182.65C81.8966 183.406 79.8693 184.418 77.5989 185.485C75.3285 186.552 73.2553 187.473 71.7417 188.114C70.9849 188.435 70.3657 188.691 69.9438 188.861C69.7257 188.958 69.5003 189.038 69.2695 189.099C69.472 188.972 69.6853 188.863 69.9071 188.774L71.6729 187.963C73.1682 187.281 75.2322 186.337 77.498 185.27C79.7638 184.203 81.8049 183.214 83.2818 182.522L85.0339 181.679C85.2431 181.557 85.4626 181.453 85.6898 181.368Z" fill="#263238"/>
<path d="M65.5902 153.54C65.2928 153.222 65.0213 152.88 64.7784 152.519C64.1709 151.677 63.4844 150.895 62.7281 150.183C61.9672 149.482 61.0648 148.953 60.0816 148.63C59.3248 148.392 58.8203 148.401 58.8203 148.355C58.9351 148.323 59.0551 148.314 59.1735 148.328C59.4955 148.34 59.8153 148.386 60.1275 148.465C61.1537 148.754 62.0968 149.281 62.8795 150.004C63.6499 150.726 64.3305 151.538 64.9068 152.423C65.1714 152.771 65.4004 153.146 65.5902 153.54Z" fill="#263238"/>
<path d="M84.589 165.159C84.6006 165.245 84.6006 165.331 84.589 165.416C84.589 165.581 84.589 165.824 84.589 166.14C84.5351 167.029 84.4109 167.912 84.2175 168.782C83.6008 171.675 82.3141 174.383 80.4607 176.689C78.6072 178.996 76.2385 180.836 73.5443 182.064C72.7342 182.433 71.8969 182.739 71.04 182.98C70.7372 183.072 70.4941 183.122 70.3336 183.159C70.2533 183.184 70.1701 183.2 70.0859 183.205C70.0859 183.205 70.4162 183.09 71.0033 182.893C71.8434 182.614 72.6646 182.28 73.4617 181.895C76.1077 180.639 78.4346 178.801 80.2679 176.519C82.1013 174.237 83.3935 171.57 84.0478 168.718C84.2552 167.857 84.4083 166.983 84.5064 166.103C84.5477 165.508 84.5706 165.159 84.589 165.159Z" fill="#263238"/>
<g opacity="0.3">
<path d="M61.1604 177.704C61.1192 177.475 64.1234 161.967 64.1234 161.967L59.5918 168.759" fill="black"/>
</g>
<path d="M87.8176 148.195C87.8389 148.282 87.8496 148.371 87.8497 148.461C87.8497 148.662 87.8772 148.919 87.9001 149.23C87.9322 149.926 87.9827 150.879 88.0423 152.047C88.157 154.456 88.3175 157.731 88.501 161.344C88.6845 164.958 88.8129 168.269 88.8817 170.651C88.9184 171.842 88.9413 172.808 88.9505 173.472V174.242C88.9624 174.33 88.9624 174.419 88.9505 174.507C88.9292 174.42 88.9184 174.331 88.9184 174.242C88.9184 174.04 88.8909 173.784 88.8679 173.477C88.8358 172.781 88.7854 171.823 88.7257 170.66C88.6111 168.251 88.4505 164.976 88.2671 161.358C88.0836 157.74 87.9598 154.438 87.8864 152.051C87.8497 150.861 87.8268 149.899 87.8176 149.23V148.465C87.8056 148.376 87.8056 148.285 87.8176 148.195Z" fill="#263238"/>
<g opacity="0.2">
<path d="M69.3782 189.058C68.6351 188.444 68.8048 187.189 69.4607 186.484C70.1166 185.779 71.0936 185.49 72.0109 185.179C76.4004 183.759 80.8127 181.753 83.7069 178.162C84.0762 177.648 84.5127 177.186 85.0049 176.788C85.256 176.59 85.5555 176.463 85.8725 176.419C86.1894 176.376 86.5123 176.418 86.8075 176.541C87.6927 176.999 87.7248 178.281 87.3533 179.211C86.8912 180.352 86.0332 181.288 84.9361 181.849" fill="black"/>
</g>
<g opacity="0.2">
<path d="M87.9141 150.948L90.478 165.805L88.4782 163.172L87.9141 150.948Z" fill="black"/>
</g>
<path d="M112.305 189.974L107.971 204.822L126.441 210.318C126.859 208.523 118.355 202.152 118.355 202.152L121.547 192.736L112.305 189.974Z" fill="#01A99E"/>
<g opacity="0.6">
<path d="M112.884 199.642C112.69 199.642 112.503 199.714 112.359 199.843C112.215 199.973 112.124 200.151 112.104 200.343C112.098 200.536 112.167 200.725 112.296 200.869C112.424 201.014 112.603 201.104 112.796 201.121C113.002 201.119 113.199 201.041 113.351 200.903C113.502 200.764 113.597 200.575 113.617 200.37C113.603 200.167 113.511 199.978 113.359 199.842C113.208 199.706 113.009 199.635 112.806 199.642" fill="white"/>
</g>
<g opacity="0.6">
<path d="M107.971 204.822L108.466 203.343L125.992 209.15C125.992 209.15 126.707 209.75 126.45 210.3L107.971 204.822Z" fill="white"/>
</g>
<path d="M118.681 202.129C118.653 202.216 118.19 202.129 117.658 202.285C117.126 202.44 116.782 202.743 116.708 202.688C116.635 202.633 116.924 202.147 117.571 201.969C118.217 201.79 118.727 202.051 118.681 202.129Z" fill="#263238"/>
<path d="M120.383 203.503C120.383 203.599 119.924 203.636 119.52 203.924C119.117 204.213 118.892 204.593 118.805 204.561C118.718 204.529 118.805 204.002 119.337 203.645C119.869 203.288 120.405 203.416 120.383 203.503Z" fill="#263238"/>
<path d="M120.796 206.146C120.705 206.146 120.714 205.651 121.094 205.23C121.475 204.809 121.952 204.735 121.966 204.818C121.98 204.9 121.645 205.092 121.337 205.445C121.03 205.798 120.888 206.164 120.796 206.146Z" fill="#263238"/>
<path d="M119.167 199.908C119.103 199.977 118.708 199.729 118.208 199.615C117.708 199.5 117.241 199.541 117.218 199.45C117.195 199.358 117.676 199.152 118.282 199.294C118.887 199.436 119.254 199.848 119.167 199.908Z" fill="#263238"/>
<path d="M119.377 197.59C119.052 197.58 118.736 197.484 118.46 197.311C118.143 197.154 117.847 196.957 117.579 196.725C117.416 196.583 117.262 196.43 117.121 196.267C117.035 196.18 116.963 196.079 116.91 195.969C116.869 195.887 116.857 195.794 116.875 195.705C116.894 195.615 116.941 195.534 117.011 195.475C117.075 195.425 117.15 195.392 117.23 195.377C117.309 195.361 117.391 195.365 117.469 195.388C117.587 195.422 117.7 195.473 117.804 195.539C117.986 195.646 118.157 195.768 118.318 195.905C118.589 196.139 118.821 196.414 119.006 196.72C119.206 196.985 119.318 197.305 119.327 197.636C119.276 197.636 119.153 197.307 118.813 196.853C118.617 196.587 118.386 196.348 118.125 196.143C117.974 196.023 117.813 195.916 117.644 195.823C117.465 195.713 117.3 195.662 117.222 195.736C117.144 195.809 117.19 195.772 117.222 195.841C117.262 195.922 117.314 195.996 117.378 196.061C117.505 196.21 117.642 196.353 117.786 196.487C118.031 196.712 118.295 196.916 118.575 197.096C119.052 197.398 119.396 197.54 119.377 197.59Z" fill="#263238"/>
<path d="M119.222 197.682C119.125 197.367 119.133 197.03 119.245 196.72C119.327 196.372 119.472 196.042 119.671 195.745C119.787 195.567 119.922 195.402 120.075 195.255C120.16 195.147 120.273 195.063 120.401 195.011C120.528 194.96 120.668 194.943 120.804 194.961C120.885 194.989 120.956 195.038 121.011 195.103C121.065 195.169 121.1 195.248 121.111 195.332C121.128 195.454 121.128 195.577 121.111 195.699C121.082 195.914 121.02 196.124 120.928 196.322C120.772 196.651 120.539 196.938 120.249 197.16C119.745 197.531 119.332 197.526 119.332 197.494C119.332 197.462 119.68 197.361 120.093 196.981C120.332 196.766 120.52 196.5 120.644 196.203C120.718 196.031 120.766 195.848 120.786 195.662C120.818 195.456 120.786 195.277 120.712 195.277C120.639 195.277 120.419 195.351 120.295 195.484C120.158 195.617 120.033 195.761 119.919 195.914C119.725 196.181 119.571 196.474 119.46 196.784C119.281 197.315 119.277 197.682 119.222 197.682Z" fill="#263238"/>
<path d="M131.272 167.866C131.731 171.292 130.566 175.153 129.323 178.4L121.223 197.398L112.256 196.024C112.256 196.024 110.389 198.103 107.999 198.9C106.931 199.253 103.413 199.945 100.519 197.865C100.519 197.865 96.4227 203.563 89.9693 205.285C83.5159 207.007 73.7692 207.96 69.0449 200.43L91.5196 178.794C91.9783 178.904 110.889 166.172 121.104 163.273C121.122 163.273 130.41 161.569 131.272 167.866Z" fill="#263238"/>
<path d="M111.59 195.951C111.59 195.951 111.627 195.923 111.709 195.877L112.076 195.685C112.402 195.511 112.879 195.268 113.484 194.934C114.224 194.534 114.94 194.094 115.631 193.615C116.546 192.988 117.363 192.231 118.057 191.366C118.887 190.31 119.429 189.057 119.63 187.73C119.86 186.205 119.794 184.65 119.438 183.15C119.134 181.475 118.261 179.956 116.966 178.849C115.495 177.773 113.741 177.149 111.92 177.054C110.996 176.979 110.068 176.986 109.145 177.077C108.248 177.171 107.358 177.324 106.48 177.535C104.825 177.961 103.207 178.52 101.642 179.206C98.6464 180.516 96.0458 181.927 93.7616 182.902C91.9742 183.714 90.1063 184.335 88.1888 184.757C87.8494 184.835 87.5421 184.885 87.2715 184.922C87.0009 184.959 86.7853 185 86.6019 185.014L86.1891 185.055H86.0469L86.1891 185.023L86.5973 184.963C86.7762 184.936 87.0009 184.904 87.2623 184.849C87.5238 184.794 87.8265 184.748 88.1797 184.666C90.0735 184.208 91.9173 183.563 93.6837 182.742C95.9495 181.753 98.541 180.328 101.545 179C103.12 178.304 104.749 177.737 106.416 177.306C107.303 177.096 108.202 176.943 109.109 176.848C110.046 176.757 110.99 176.75 111.929 176.825C113.805 176.92 115.611 177.565 117.122 178.68C117.816 179.238 118.389 179.934 118.805 180.722C119.199 181.476 119.488 182.281 119.663 183.113C120.015 184.641 120.074 186.221 119.837 187.771C119.618 189.126 119.054 190.401 118.199 191.476C117.489 192.348 116.651 193.108 115.713 193.729C115.013 194.2 114.288 194.631 113.539 195.021C112.925 195.342 112.439 195.575 112.108 195.731L111.728 195.905C111.684 195.926 111.638 195.941 111.59 195.951Z" fill="#455A64"/>
<path d="M117.212 170.994C116.656 172.057 116.027 173.081 115.332 174.058C114.703 175.079 114.009 176.058 113.254 176.99C113.812 175.928 114.441 174.904 115.134 173.926C115.763 172.905 116.457 171.926 117.212 170.994Z" fill="#455A64"/>
<path d="M110.746 194.439C110.211 194.609 109.668 194.749 109.118 194.861C108.113 195.108 106.733 195.488 105.238 196.01C103.742 196.532 102.426 197.096 101.486 197.526C100.545 197.957 99.9676 198.245 99.9492 198.213C100.064 198.114 100.19 198.03 100.325 197.961C100.578 197.81 100.949 197.609 101.412 197.375C103.841 196.153 106.419 195.253 109.081 194.696C109.59 194.591 109.999 194.517 110.297 194.481C110.444 194.448 110.595 194.435 110.746 194.439Z" fill="#455A64"/>
<path d="M121.06 196.152C121.019 196.152 120.914 195.749 120.533 195.19C120.048 194.455 119.327 193.906 118.489 193.634C117.65 193.362 116.744 193.383 115.919 193.693C115.281 193.922 114.946 194.201 114.919 194.151C114.891 194.1 114.983 194.059 115.139 193.936C115.359 193.768 115.599 193.63 115.855 193.523C116.713 193.153 117.678 193.109 118.566 193.401C119.455 193.693 120.205 194.3 120.675 195.108C120.819 195.344 120.932 195.598 121.01 195.864C121.088 196.024 121.088 196.152 121.06 196.152Z" fill="#455A64"/>
<path d="M82.268 189.058C82.3332 189.191 82.3736 189.336 82.3873 189.484C82.4559 189.882 82.4897 190.285 82.4882 190.688C82.4896 192.036 82.125 193.36 81.4332 194.517C80.7286 195.678 79.6425 196.559 78.3602 197.009C77.9751 197.14 77.5738 197.217 77.1677 197.238C77.0161 197.266 76.8605 197.266 76.709 197.238C77.2469 197.166 77.7767 197.043 78.2914 196.871C79.5108 196.395 80.5392 195.53 81.2177 194.412C81.8849 193.289 82.2601 192.016 82.3093 190.711C82.3643 189.681 82.2267 189.062 82.268 189.058Z" fill="#455A64"/>
<path d="M72.1532 199.331C72.1027 199.372 71.8642 199.166 71.6395 198.873C71.4147 198.58 71.2955 198.264 71.3551 198.232C71.4147 198.199 71.6165 198.428 71.8367 198.731C72.0569 199.033 72.2036 199.289 72.1532 199.331Z" fill="#455A64"/>
<path d="M74.0381 201.323C73.9968 201.373 73.7399 201.195 73.4647 200.929C73.1895 200.664 73.0061 200.412 73.0519 200.37C73.0978 200.329 73.3593 200.499 73.6299 200.76C73.9005 201.021 74.0839 201.273 74.0381 201.323Z" fill="#455A64"/>
<path d="M76.2671 202.931C76.235 202.986 75.9461 202.867 75.625 202.656C75.3039 202.445 75.0746 202.235 75.1113 202.198C75.148 202.161 75.4415 202.271 75.7534 202.473C76.0653 202.674 76.2992 202.894 76.2671 202.931Z" fill="#455A64"/>
<path d="M78.7915 204.011C78.7915 204.076 78.4658 204.011 78.1035 203.892C77.7411 203.773 77.4705 203.608 77.498 203.544C77.5255 203.48 77.8328 203.544 78.1814 203.668C78.53 203.792 78.8098 203.947 78.7915 204.011Z" fill="#455A64"/>
<path d="M81.5005 204.437C81.5005 204.502 81.1886 204.529 80.8034 204.492C80.4181 204.456 80.1199 204.378 80.1291 204.314C80.1383 204.25 80.4548 204.222 80.8263 204.259C81.1978 204.295 81.5005 204.373 81.5005 204.437Z" fill="#455A64"/>
<path d="M84.2441 204.291C84.2441 204.355 83.946 204.428 83.5653 204.456C83.3943 204.47 83.2225 204.47 83.0516 204.456C82.9369 204.456 82.8681 204.428 82.8635 204.396C82.8589 204.364 82.9231 204.332 83.0332 204.3C83.1989 204.261 83.3678 204.236 83.5378 204.227C83.9368 204.19 84.2349 204.222 84.2441 204.291Z" fill="#455A64"/>
<path d="M86.945 203.81C86.945 203.874 86.6744 203.989 86.2983 204.071C85.9222 204.154 85.6149 204.163 85.6057 204.099C85.5965 204.035 85.8809 203.915 86.2524 203.838C86.6239 203.76 86.9312 203.737 86.945 203.81Z" fill="#455A64"/>
<path d="M89.5776 202.999C89.5776 203.063 89.3253 203.21 88.963 203.334C88.6006 203.457 88.2887 203.499 88.2704 203.439C88.2521 203.379 88.5272 203.228 88.885 203.105C89.2428 202.981 89.5547 202.94 89.5776 202.999Z" fill="#455A64"/>
<path d="M92.1057 201.928C92.1378 201.987 91.8764 202.166 91.5324 202.321C91.1884 202.477 90.8811 202.56 90.8536 202.5C90.826 202.441 91.0875 202.262 91.4315 202.106C91.7755 201.951 92.0782 201.868 92.1057 201.928Z" fill="#455A64"/>
<path d="M94.5183 200.604C94.5504 200.659 94.3119 200.861 93.9816 201.062C93.6514 201.264 93.3578 201.36 93.3303 201.305C93.3028 201.25 93.5367 201.044 93.8624 200.847C94.188 200.65 94.4862 200.554 94.5183 200.604Z" fill="#455A64"/>
<path d="M96.7794 199.06C96.8207 199.115 96.6005 199.335 96.2886 199.56C95.9767 199.784 95.6969 199.917 95.6602 199.862C95.6236 199.807 95.8437 199.583 96.151 199.363C96.4583 199.143 96.7473 199.01 96.7794 199.06Z" fill="#455A64"/>
<path d="M98.9087 197.311C98.9546 197.361 98.7528 197.604 98.4501 197.851C98.1473 198.099 97.8905 198.264 97.8492 198.213C97.8079 198.163 98.0051 197.92 98.3079 197.673C98.6106 197.426 98.8629 197.265 98.9087 197.311Z" fill="#455A64"/>
<path d="M100.908 195.424C100.954 195.474 100.766 195.726 100.491 195.983C100.216 196.239 99.9495 196.413 99.9083 196.368C99.867 196.322 100.046 196.074 100.326 195.809C100.605 195.543 100.867 195.378 100.908 195.424Z" fill="#455A64"/>
<path d="M103.082 193.734C103.119 193.789 102.904 194.013 102.596 194.233C102.289 194.453 102.009 194.59 101.968 194.54C101.927 194.49 102.147 194.265 102.454 194.041C102.761 193.816 103.046 193.684 103.082 193.734Z" fill="#455A64"/>
<path d="M105.494 192.41C105.522 192.47 105.265 192.653 104.93 192.823C104.595 192.992 104.293 193.079 104.261 193.02C104.228 192.96 104.481 192.777 104.825 192.607C105.169 192.438 105.467 192.36 105.494 192.41Z" fill="#455A64"/>
<path d="M108.119 191.595C108.119 191.659 107.844 191.788 107.481 191.875C107.119 191.962 106.802 191.989 106.784 191.93C106.766 191.87 107.05 191.737 107.422 191.646C107.793 191.554 108.11 191.531 108.119 191.595Z" fill="#455A64"/>
<path d="M110.86 191.444C110.86 191.513 110.544 191.536 110.168 191.526C109.792 191.517 109.489 191.485 109.484 191.421C109.48 191.357 109.787 191.284 110.172 191.288C110.558 191.293 110.865 191.389 110.86 191.444Z" fill="#455A64"/>
<path d="M113.511 192.149C113.479 192.209 113.186 192.122 112.837 191.998C112.489 191.875 112.2 191.751 112.213 191.687C112.227 191.623 112.548 191.641 112.915 191.774C113.282 191.907 113.539 192.09 113.511 192.149Z" fill="#455A64"/>
<path d="M112.929 194.142C112.888 194.087 113.094 193.862 113.337 193.587C113.58 193.313 113.796 193.084 113.837 193.129C113.879 193.175 113.782 193.464 113.516 193.757C113.25 194.05 112.97 194.192 112.929 194.142Z" fill="#455A64"/>
<path d="M110.502 195.401C110.502 195.337 110.745 195.172 111.089 195.03C111.433 194.888 111.74 194.819 111.772 194.879C111.805 194.938 111.539 195.103 111.181 195.25C110.823 195.396 110.539 195.465 110.502 195.401Z" fill="#455A64"/>
<path d="M107.879 196.244C107.879 196.18 108.131 196.033 108.494 195.909C108.856 195.786 109.163 195.74 109.186 195.804C109.209 195.868 108.929 196.015 108.571 196.134C108.214 196.253 107.902 196.303 107.879 196.244Z" fill="#455A64"/>
<path d="M105.311 197.219C105.283 197.16 105.549 197 105.907 196.858C106.265 196.716 106.567 196.656 106.59 196.716C106.613 196.775 106.347 196.94 105.994 197.082C105.641 197.224 105.333 197.283 105.311 197.219Z" fill="#455A64"/>
<path d="M102.773 198.314C102.746 198.254 103.007 198.08 103.356 197.934C103.705 197.787 104.012 197.709 104.035 197.769C104.058 197.828 103.801 198.002 103.452 198.149C103.104 198.296 102.796 198.351 102.773 198.314Z" fill="#455A64"/>
<path d="M97.6465 119.753C97.6465 119.753 100.646 118.837 104.632 114.417C108.618 109.998 110.223 104.341 110.751 104.341C111.278 104.341 113.503 103.096 118.548 112.247C123.593 121.397 122.061 123.729 121.194 123.774C120.328 123.82 114.314 122.62 110.645 123.316C106.976 124.013 102.389 126.275 102.389 126.275L97.6465 119.753Z" fill="#455A64"/>
<path d="M91.5507 125.4L92.7387 127.301L93.2707 128.148C93.6223 128.711 94.1766 129.117 94.8192 129.283C95.4618 129.449 96.1438 129.363 96.7245 129.042L103.091 126.294L98.6371 117.898L92.3626 121.828C92.0741 122.009 91.8242 122.245 91.6272 122.523C91.4303 122.801 91.29 123.114 91.2146 123.446C91.1392 123.778 91.1301 124.121 91.1878 124.457C91.2454 124.792 91.3688 125.113 91.5507 125.4Z" fill="#263238"/>
<path d="M95.5547 128.286L97.9443 132.206L98.9626 131.84L106.177 136.878L107.787 133.003C107.787 133.003 103.659 131.57 102.788 130.196C101.916 128.822 102.788 128.432 102.788 128.432L100.738 126.408L95.5547 128.286Z" fill="#263238"/>
<path d="M118.222 112.448C120.924 117.408 122.231 121.91 121.139 122.524C120.048 123.138 116.975 119.579 114.259 114.619C111.544 109.659 110.251 105.157 111.342 104.543C112.434 103.929 115.516 107.483 118.222 112.448Z" fill="#263238"/>
<path d="M91.2023 128.295L92.936 127.608L91.6839 125.611L90.418 126.532L91.2023 128.295Z" fill="#455A64"/>
<path d="M101.44 127.113L96.9034 130.498L96.2246 129.38L101.44 127.113Z" fill="#455A64"/>
<path d="M91.6846 125.611L92.9367 127.608L92.579 127.75L91.5332 125.721L91.6846 125.611Z" fill="#455A64"/>
<path d="M92.9414 126C93.6116 125.765 94.2544 125.458 94.8586 125.084C95.4993 124.779 96.1052 124.406 96.6658 123.971C95.996 124.208 95.3533 124.515 94.7486 124.887C94.1079 125.192 93.502 125.566 92.9414 126Z" fill="#455A64"/>
<path d="M92.3027 124.801C92.9115 124.574 93.4918 124.277 94.0319 123.917C94.6104 123.618 95.1534 123.255 95.651 122.836C94.461 123.356 93.3371 124.016 92.3027 124.801Z" fill="#455A64"/>
<path d="M93.7253 127.251C93.916 127.231 94.1012 127.175 94.2711 127.086L94.8445 126.848C95.0555 126.752 95.2756 126.623 95.5095 126.495C96.0912 126.21 96.6338 125.851 97.124 125.428C96.5209 125.656 95.9429 125.947 95.3995 126.294C95.1655 126.422 94.9408 126.559 94.7481 126.66C94.5555 126.761 94.3583 126.857 94.2023 126.939C93.8996 127.104 93.7116 127.219 93.7253 127.251Z" fill="#455A64"/>
<path d="M113.402 111.656C113.402 111.656 115.934 109.824 117.65 113.286C119.365 116.749 116.622 117.55 116.622 117.55C115.276 115.747 114.192 113.762 113.402 111.656Z" fill="#455A64"/>
<path d="M110.27 107.603C110.296 107.833 110.347 108.06 110.421 108.28C110.54 108.711 110.705 109.334 110.935 110.112C111.072 110.488 111.228 110.896 111.393 111.335L111.65 112.018C111.696 112.132 111.737 112.251 111.783 112.375C111.829 112.499 111.893 112.608 111.948 112.728L112.664 114.225C112.723 114.358 112.788 114.486 112.852 114.619C112.916 114.752 112.994 114.876 113.067 115.004L113.526 115.787L113.985 116.57C114.063 116.694 114.132 116.827 114.214 116.946C114.297 117.065 114.384 117.188 114.462 117.308L115.416 118.682C115.494 118.787 115.563 118.897 115.641 118.998L115.888 119.295L116.347 119.854L117.186 120.862C117.741 121.439 118.2 121.888 118.516 122.204C118.673 122.372 118.845 122.525 119.03 122.662C118.89 122.475 118.737 122.299 118.571 122.135L117.296 120.761L116.503 119.712L116.044 119.149L115.806 118.851C115.728 118.75 115.659 118.64 115.585 118.535L114.668 117.161L114.425 116.804C114.338 116.685 114.274 116.552 114.196 116.428L113.737 115.65C113.586 115.389 113.434 115.127 113.278 114.876C113.21 114.747 113.127 114.624 113.063 114.491C112.999 114.358 112.939 114.23 112.875 114.102L112.155 112.622C112.1 112.503 112.035 112.389 111.99 112.27C111.944 112.15 111.893 112.031 111.847 111.917C111.756 111.683 111.668 111.459 111.581 111.244L111.1 110.035C110.857 109.288 110.664 108.661 110.522 108.244C110.454 108.024 110.369 107.81 110.27 107.603Z" fill="#263238"/>
<path d="M103.448 128.442C103.643 128.497 103.808 128.627 103.908 128.802C104.008 128.977 104.036 129.185 103.985 129.38C103.788 130.159 103.467 131.382 103.21 132.128C103.138 132.374 103.022 132.604 102.866 132.806C102.79 132.916 102.681 133 102.555 133.045C102.429 133.091 102.292 133.095 102.163 133.059C102.034 133.023 101.92 132.947 101.836 132.843C101.752 132.738 101.703 132.61 101.696 132.477C101.666 132.209 101.69 131.938 101.765 131.68C101.926 130.951 102.224 129.848 102.481 128.973C102.508 128.874 102.556 128.782 102.62 128.702C102.684 128.621 102.763 128.554 102.853 128.505C102.943 128.455 103.042 128.424 103.144 128.414C103.246 128.403 103.35 128.412 103.448 128.442Z" fill="#FFBE9D"/>
<path d="M104.692 129.706C104.887 129.761 105.052 129.891 105.152 130.066C105.252 130.241 105.28 130.449 105.229 130.645C105.032 131.423 104.711 132.646 104.449 133.393C104.38 133.639 104.263 133.869 104.105 134.07C104.026 134.171 103.921 134.248 103.802 134.293C103.682 134.338 103.552 134.35 103.426 134.327C103.298 134.284 103.184 134.206 103.098 134.101C103.012 133.997 102.957 133.87 102.94 133.736C102.911 133.469 102.933 133.198 103.004 132.939C103.169 132.215 103.463 131.107 103.72 130.232C103.778 130.033 103.914 129.865 104.096 129.766C104.278 129.666 104.493 129.643 104.692 129.701V129.706Z" fill="#FFBE9D"/>
<path d="M105.889 130.466C106.055 130.517 106.196 130.63 106.281 130.782C106.367 130.934 106.39 131.112 106.347 131.281C106.178 131.954 105.889 133.012 105.673 133.658C105.612 133.872 105.511 134.073 105.375 134.249C105.309 134.344 105.214 134.415 105.106 134.454C104.997 134.492 104.878 134.496 104.767 134.464C104.656 134.432 104.558 134.367 104.486 134.277C104.414 134.186 104.372 134.076 104.366 133.96C104.338 133.729 104.357 133.494 104.421 133.269C104.563 132.641 104.82 131.698 105.04 130.924C105.091 130.752 105.208 130.608 105.365 130.522C105.522 130.436 105.707 130.416 105.879 130.466H105.889Z" fill="#FFBE9D"/>
<path d="M107.251 130.617C107.419 130.668 107.56 130.782 107.646 130.935C107.731 131.088 107.754 131.268 107.71 131.437C107.54 132.115 107.251 133.177 107.031 133.828C106.971 134.042 106.87 134.243 106.733 134.419C106.667 134.515 106.573 134.588 106.463 134.628C106.353 134.668 106.234 134.672 106.122 134.64C106.009 134.608 105.91 134.542 105.838 134.45C105.766 134.358 105.724 134.246 105.719 134.13C105.692 133.897 105.711 133.66 105.774 133.434C105.917 132.806 106.173 131.854 106.398 131.08C106.423 130.994 106.465 130.915 106.521 130.845C106.577 130.776 106.647 130.719 106.725 130.676C106.803 130.633 106.889 130.607 106.978 130.597C107.067 130.588 107.157 130.596 107.242 130.622L107.251 130.617Z" fill="#FFBE9D"/>
<path d="M103.018 132.82C103.05 132.317 103.164 131.822 103.352 131.354C103.468 130.862 103.66 130.391 103.921 129.958C103.888 130.461 103.773 130.956 103.582 131.423C103.467 131.915 103.276 132.386 103.018 132.82Z" fill="#EB996E"/>
<path d="M105.6 133.86C105.808 132.881 106.095 131.921 106.457 130.988C106.405 132.001 106.11 132.987 105.6 133.864V133.86Z" fill="#EB996E"/>
<path d="M104.32 133.695C104.53 132.713 104.816 131.75 105.178 130.814C105.126 131.829 104.832 132.816 104.32 133.695Z" fill="#EB996E"/>
<path d="M127.625 94.9663C127.675 95.003 125.79 97.554 123.424 100.659C121.057 103.765 119.085 106.251 119.034 106.21C118.984 106.169 120.869 103.623 123.231 100.517C125.593 97.412 127.57 94.9251 127.625 94.9663Z" fill="#263238"/>
<path d="M139.93 102.235C139.958 102.294 136.004 104.186 131.096 106.458C126.189 108.729 122.194 110.525 122.166 110.465C122.139 110.406 126.092 108.514 130.995 106.242C135.899 103.971 139.894 102.175 139.93 102.235Z" fill="#263238"/>
<path d="M138.097 117.358C138.097 117.422 135.271 117.207 131.804 116.872C128.336 116.538 125.525 116.213 125.529 116.149C125.534 116.085 128.355 116.3 131.827 116.634C135.299 116.969 138.106 117.294 138.097 117.358Z" fill="#263238"/>
<path d="M65.7827 125.84L68.8971 143.519C69.1687 144.998 70.0036 146.315 71.2265 147.193C72.4494 148.07 73.9652 148.441 75.456 148.227C76.221 148.129 76.9585 147.878 77.6247 147.49C78.2909 147.102 78.8723 146.584 79.3343 145.967C79.7962 145.35 80.1295 144.647 80.3142 143.899C80.4989 143.151 80.5314 142.374 80.4096 141.614L79.9051 138.572C79.9051 138.572 84.2624 137.391 83.8083 133.021C83.5882 130.915 82.7809 126.609 82.0012 122.735C81.5594 120.632 80.3216 118.78 78.5459 117.566C76.7702 116.351 74.5936 115.868 72.4701 116.217C71.3892 116.392 70.3547 116.782 69.4283 117.365C68.502 117.948 67.7028 118.712 67.0786 119.61C66.4543 120.508 66.0178 121.523 65.7952 122.593C65.5725 123.664 65.5683 124.768 65.7827 125.84Z" fill="#FFBE9D"/>
<path d="M79.9138 138.582C77.8744 138.849 75.8013 138.513 73.9512 137.615C73.9512 137.615 75.6803 140.606 80.056 139.69L79.9138 138.582Z" fill="#EB996E"/>
<path d="M81.0521 125.684C81.0717 125.848 81.0265 126.012 80.9262 126.142C80.8258 126.272 80.6784 126.358 80.5155 126.381C80.4365 126.397 80.3551 126.397 80.2762 126.381C80.1972 126.365 80.1222 126.333 80.0555 126.288C79.9889 126.243 79.932 126.185 79.8881 126.117C79.8442 126.05 79.8142 125.974 79.8 125.895C79.7791 125.731 79.8237 125.566 79.9241 125.435C80.0246 125.304 80.1728 125.217 80.3366 125.194C80.4159 125.179 80.4976 125.179 80.5768 125.195C80.6561 125.211 80.7312 125.243 80.7979 125.289C80.8646 125.334 80.9215 125.393 80.9652 125.461C81.0088 125.529 81.0384 125.605 81.0521 125.684Z" fill="#263238"/>
<path d="M81.1848 124.626C81.116 124.718 80.5931 124.42 79.9142 124.503C79.2354 124.585 78.7722 124.961 78.6896 124.897C78.607 124.832 78.6896 124.709 78.9098 124.53C79.1832 124.297 79.5201 124.15 79.8776 124.109C80.2332 124.067 80.5931 124.139 80.905 124.315C81.1435 124.448 81.2352 124.576 81.1848 124.626Z" fill="#263238"/>
<path d="M74.644 126.454C74.6637 126.617 74.6186 126.782 74.5184 126.913C74.4182 127.044 74.2707 127.131 74.1074 127.155C74.0278 127.17 73.9459 127.17 73.8663 127.154C73.7868 127.138 73.7113 127.106 73.6442 127.061C73.5772 127.015 73.5199 126.956 73.4758 126.888C73.4317 126.82 73.4016 126.744 73.3873 126.664C73.3677 126.501 73.4129 126.337 73.5132 126.207C73.6136 126.077 73.761 125.991 73.9239 125.968C74.0032 125.952 74.0848 125.952 74.1641 125.968C74.2434 125.984 74.3187 126.015 74.3857 126.061C74.4527 126.106 74.51 126.164 74.5544 126.231C74.5987 126.299 74.6292 126.374 74.644 126.454Z" fill="#263238"/>
<path d="M74.6113 125.492C74.5425 125.579 74.0242 125.286 73.3408 125.364C72.6574 125.442 72.1987 125.822 72.1161 125.762C72.0336 125.703 72.1391 125.574 72.3409 125.391C72.6127 125.156 72.9507 125.01 73.3087 124.974C73.6623 124.934 74.0197 125.005 74.3315 125.176C74.5608 125.327 74.648 125.492 74.6113 125.492Z" fill="#263238"/>
<path d="M77.6676 130.603C78.0161 130.454 78.381 130.347 78.7547 130.283C78.9244 130.246 79.0849 130.191 79.1033 130.072C79.0953 129.893 79.0329 129.72 78.9244 129.577L78.2593 128.332C77.342 126.559 76.631 125.089 76.7044 125.052C76.7778 125.016 77.5942 126.426 78.5391 128.203C78.7638 128.639 78.9978 129.055 79.1812 129.458C79.3165 129.65 79.3768 129.885 79.3509 130.118C79.3329 130.182 79.3004 130.241 79.2558 130.29C79.2113 130.339 79.1559 130.378 79.0941 130.402C79.0013 130.439 78.9042 130.463 78.8051 130.475C78.4328 130.565 78.0507 130.608 77.6676 130.603Z" fill="#263238"/>
<path d="M75.7176 131.295C75.8276 131.295 75.9148 132 76.6074 132.449C77.3 132.898 78.0797 132.724 78.0935 132.825C78.1072 132.925 77.9375 132.985 77.6027 133.031C77.171 133.087 76.7332 132.991 76.3643 132.761C76.0136 132.538 75.7636 132.188 75.6671 131.785C75.6029 131.483 75.6809 131.295 75.7176 131.295Z" fill="#263238"/>
<path d="M74.4832 123.266C74.4373 123.454 73.7447 123.445 72.9558 123.628C72.1669 123.811 71.5477 124.086 71.4239 123.953C71.3642 123.88 71.456 123.692 71.6991 123.495C72.0247 123.242 72.4025 123.063 72.8054 122.973C73.2083 122.883 73.6262 122.883 74.0291 122.973C74.3364 123.046 74.5015 123.175 74.4832 123.266Z" fill="#263238"/>
<path d="M80.8228 123.12C80.7219 123.284 80.2311 123.179 79.667 123.234C79.1028 123.289 78.635 123.454 78.5066 123.307C78.4515 123.239 78.5066 123.074 78.6992 122.909C78.9595 122.696 79.2806 122.571 79.6165 122.552C79.9492 122.52 80.2836 122.59 80.5751 122.753C80.7815 122.891 80.8641 123.037 80.8228 123.12Z" fill="#263238"/>
<path d="M82.024 115.269C81.7292 115.046 81.3638 114.935 80.9943 114.958C80.6247 114.981 80.2757 115.135 80.0105 115.393C80.1896 115.095 80.2489 114.74 80.1766 114.4C80.1042 114.061 79.9056 113.761 79.6206 113.561C79.3287 113.368 78.9975 113.242 78.6509 113.192C78.3043 113.142 77.9509 113.17 77.6162 113.273C76.9474 113.48 76.3147 113.789 75.7403 114.189C75.7648 114.052 75.7488 113.912 75.6941 113.785C75.6395 113.658 75.5487 113.55 75.433 113.474C75.1945 113.328 74.9235 113.243 74.6441 113.227C73.4933 113.152 72.3454 113.41 71.3371 113.969C70.2572 114.567 69.2333 115.262 68.2778 116.043C67.2095 116.903 66.2676 117.908 65.4799 119.03L65.4432 119.062C64.7965 119.639 64.2507 121.379 64.347 122.231C64.7094 125.377 65.7551 127.196 66.3422 130.173C66.3614 130.375 66.4396 130.568 66.567 130.727C66.9293 131.102 67.5806 130.782 67.943 130.388C68.7229 129.374 69.1338 128.126 69.108 126.848C69.1493 125.584 68.9658 124.324 68.9979 123.06V122.968C69.0066 122.646 69.0372 122.325 69.0896 122.007C69.1447 121.8 69.6813 119.996 71.4197 119.717C73.2543 119.405 76.9007 121.191 78.7033 120.907C80.5058 120.623 80.6022 119.355 80.6022 119.355L81.6617 121.507C81.9051 120.633 81.9629 119.717 81.8314 118.819C82.2898 118.4 82.6097 117.852 82.7487 117.248C82.822 116.884 82.793 116.506 82.6652 116.157C82.5373 115.808 82.3155 115.501 82.024 115.269Z" fill="#263238"/>
<path d="M67.5119 127.718C67.4339 127.695 64.3608 127.178 64.8057 130.15C65.2506 133.122 68.1953 132.069 68.1861 131.982C68.1769 131.895 67.5119 127.718 67.5119 127.718Z" fill="#FFBE9D"/>
<path d="M67.0944 130.988C67.0944 130.988 67.0485 131.034 66.966 131.084C66.8479 131.156 66.707 131.181 66.5715 131.153C66.3597 131.06 66.1764 130.913 66.0402 130.726C65.904 130.539 65.8199 130.32 65.7964 130.09C65.7525 129.836 65.765 129.575 65.8331 129.325C65.8472 129.227 65.8856 129.134 65.9448 129.054C66.0041 128.974 66.0823 128.91 66.1725 128.867C66.2303 128.844 66.2945 128.84 66.3545 128.858C66.4145 128.875 66.4668 128.913 66.5027 128.964C66.5532 129.041 66.544 129.106 66.5623 129.106C66.5807 129.106 66.6174 129.046 66.5623 128.927C66.5316 128.857 66.4804 128.798 66.4156 128.758C66.3222 128.71 66.2142 128.698 66.1128 128.725C65.9978 128.771 65.8957 128.844 65.8157 128.938C65.7357 129.033 65.6802 129.145 65.6542 129.266C65.5658 129.543 65.5469 129.837 65.5991 130.122C65.6264 130.39 65.7318 130.644 65.9022 130.852C66.0726 131.061 66.3005 131.215 66.5577 131.295C66.6406 131.304 66.7246 131.296 66.8038 131.27C66.883 131.244 66.9556 131.201 67.0164 131.144C67.099 131.061 67.1036 130.988 67.0944 130.988Z" fill="#EB996E"/>
<path d="M60.728 149.239C60.8105 149.205 60.9002 149.19 60.9894 149.198C61.2507 149.22 61.4936 149.342 61.6683 149.537C61.809 149.687 61.9168 149.865 61.9847 150.059C62.0527 150.253 62.0792 150.459 62.0627 150.664C62.009 151.189 61.892 151.705 61.7141 152.203C61.6022 152.486 61.5537 152.791 61.5719 153.096C61.5902 153.4 61.6747 153.697 61.8196 153.966C62.1453 154.534 62.8103 154.969 63.081 155.761C63.2141 156.165 63.2218 156.6 63.1031 157.009C62.9845 157.418 62.7449 157.781 62.4159 158.051C62.0644 158.338 61.6308 158.507 61.1775 158.532C60.7274 158.527 60.2806 158.454 59.852 158.317C59.4531 158.183 59.0261 158.156 58.6136 158.239C58.2329 158.376 57.9097 158.638 57.6962 158.981C57.4691 159.331 57.2079 159.658 56.9165 159.957C56.7624 160.103 56.5799 160.216 56.3803 160.289C56.1808 160.362 55.9683 160.394 55.7561 160.382C55.3729 160.35 55.004 160.222 54.6834 160.01C54.3628 159.798 54.1008 159.508 53.9214 159.169C53.6348 158.586 53.4783 157.949 53.4627 157.3C53.4306 156.714 53.4627 156.187 53.4627 155.729C53.4582 155.338 53.4245 154.948 53.3618 154.561C53.2956 154.233 53.202 153.912 53.082 153.599C53.1353 153.669 53.1785 153.747 53.2105 153.828C53.3193 154.056 53.3994 154.296 53.449 154.543C53.5338 154.932 53.5829 155.327 53.5957 155.725C53.5957 156.183 53.5957 156.714 53.6554 157.291C53.6769 157.911 53.8334 158.519 54.114 159.073C54.2806 159.377 54.5196 159.635 54.81 159.825C55.1004 160.016 55.4332 160.131 55.779 160.163C55.9619 160.172 56.1447 160.144 56.316 160.079C56.4873 160.014 56.6434 159.915 56.7743 159.787C57.054 159.498 57.3044 159.182 57.5219 158.844C57.7639 158.457 58.1291 158.164 58.5585 158.01C59.0157 157.91 59.4915 157.937 59.9345 158.088C60.3419 158.214 60.7648 158.284 61.1913 158.294C61.5955 158.272 61.9825 158.123 62.2966 157.868C62.5922 157.627 62.8082 157.303 62.9162 156.938C63.0242 156.573 63.0193 156.183 62.9021 155.821C62.6773 155.12 62.0306 154.676 61.6729 154.057C61.494 153.757 61.4033 153.413 61.4114 153.064C61.4285 152.753 61.4839 152.445 61.5765 152.148C61.7618 151.663 61.8896 151.159 61.9572 150.645C61.9788 150.456 61.9605 150.264 61.9037 150.082C61.8468 149.899 61.7526 149.731 61.627 149.587C61.4698 149.402 61.252 149.279 61.0124 149.239C60.8197 149.226 60.728 149.253 60.728 149.239Z" fill="#FAFAFA"/>
<path d="M61.9893 181.295C61.9893 181.295 62.0214 181.405 62.1269 181.579C62.2937 181.826 62.5473 182.003 62.8378 182.073C63.0624 182.137 63.2991 182.145 63.5275 182.097C63.756 182.049 63.9694 181.947 64.1496 181.799C64.6161 181.38 64.9252 180.814 65.0256 180.196C65.1724 179.513 65.1449 178.735 65.2779 177.906C65.3416 177.467 65.4846 177.043 65.6999 176.655C65.931 176.228 66.304 175.894 66.7548 175.712C67.2265 175.544 67.733 175.499 68.2271 175.579C68.7271 175.629 69.2179 175.744 69.7132 175.808C70.2128 175.889 70.7238 175.864 71.213 175.735C71.7098 175.591 72.1677 175.338 72.5524 174.993C72.9362 174.647 73.2211 174.206 73.378 173.715C73.5181 173.236 73.5085 172.727 73.3504 172.254C73.2178 171.801 72.9603 171.395 72.6075 171.082C72.2547 170.768 71.8208 170.56 71.3552 170.481C70.4379 170.381 69.6123 170.825 68.7454 170.843C68.325 170.856 67.9083 170.761 67.5345 170.568C67.1987 170.397 66.8807 170.193 66.5851 169.959C66.107 169.547 65.5647 169.216 64.9798 168.979C64.7574 168.894 64.5192 168.859 64.2817 168.875C64.0442 168.89 63.813 168.957 63.6038 169.071C63.3382 169.206 63.1299 169.432 63.0167 169.707C62.9867 169.808 62.9622 169.911 62.9433 170.014C62.9281 169.907 62.9375 169.797 62.9708 169.694C63.0704 169.393 63.2801 169.141 63.5579 168.988C63.7557 168.874 63.9738 168.8 64.2 168.768C64.4692 168.742 64.741 168.772 64.9981 168.855C65.6055 169.083 66.17 169.411 66.6677 169.826C67.235 170.329 67.9599 170.619 68.7179 170.646C69.1421 170.61 69.5615 170.532 69.9701 170.413C70.4162 170.281 70.8823 170.232 71.3461 170.266C71.8546 170.346 72.3301 170.569 72.7173 170.907C73.1045 171.246 73.3876 171.688 73.5339 172.181C73.7121 172.698 73.7233 173.259 73.566 173.784C73.3959 174.312 73.089 174.786 72.6762 175.158C72.2651 175.53 71.774 175.802 71.2406 175.954C70.7214 176.093 70.1787 176.118 69.649 176.028C69.1353 175.959 68.6445 175.849 68.1675 175.794C67.7065 175.716 67.2332 175.755 66.7915 175.909C66.3829 176.067 66.0445 176.366 65.8375 176.751C65.6326 177.117 65.4929 177.515 65.4247 177.928C65.2917 178.739 65.3054 179.527 65.1449 180.218C65.0269 180.869 64.6885 181.459 64.1863 181.89C63.9892 182.046 63.7569 182.15 63.5097 182.195C63.2626 182.24 63.0082 182.223 62.769 182.147C62.6166 182.106 62.4737 182.036 62.3485 181.94C62.2233 181.844 62.1184 181.724 62.0397 181.588C62.0011 181.495 61.9838 181.395 61.9893 181.295Z" fill="#FAFAFA"/>
<path d="M77.5712 153.544C77.6536 153.387 77.7604 153.243 77.8877 153.119C78.2605 152.748 78.743 152.507 79.2637 152.432C79.6735 152.371 80.092 152.42 80.477 152.572C80.862 152.725 81.1997 152.977 81.4561 153.302C81.7829 153.705 81.9767 154.199 82.0111 154.717C82.0089 155.267 82.1279 155.811 82.3597 156.311C82.5182 156.55 82.7549 156.726 83.0293 156.81C83.3277 156.897 83.636 156.944 83.9467 156.952C84.2677 156.952 84.598 156.952 84.942 156.998C85.3044 157.017 85.6534 157.141 85.9464 157.355C86.0972 157.478 86.2167 157.635 86.295 157.813C86.3713 157.994 86.4028 158.19 86.3868 158.386C86.3421 158.769 86.1822 159.13 85.9281 159.421C85.6736 159.719 85.3617 159.964 85.0108 160.14C84.6668 160.314 84.3044 160.456 83.9512 160.621C83.5966 160.769 83.267 160.972 82.9743 161.221C82.688 161.48 82.4879 161.82 82.4009 162.196C82.2129 162.966 82.4009 163.799 82.3459 164.669C82.3207 165.116 82.2019 165.553 81.9973 165.952C81.8916 166.164 81.7379 166.348 81.5484 166.49C81.3589 166.633 81.1389 166.729 80.9057 166.772C80.6663 166.793 80.4251 166.763 80.1981 166.684C79.9711 166.605 79.7636 166.479 79.5893 166.314C79.2377 166.011 78.9413 165.65 78.7133 165.246C78.4999 164.859 78.264 164.484 78.0069 164.124C77.7665 163.777 77.4256 163.512 77.03 163.364C76.6327 163.248 76.2071 163.275 75.8283 163.442C75.4382 163.607 75.0637 163.806 74.7091 164.037C74.3508 164.272 73.9697 164.47 73.5716 164.628C73.1676 164.775 72.7401 164.846 72.3103 164.839C71.4802 164.816 70.6782 164.534 70.0169 164.033C69.3749 163.562 68.9278 162.873 68.7602 162.095C68.6672 161.729 68.6685 161.345 68.7639 160.979C68.8594 160.613 69.0458 160.277 69.306 160.002C69.5763 159.766 69.9008 159.599 70.2509 159.517C70.5756 159.439 70.905 159.383 71.237 159.347C71.8425 159.319 72.4277 159.121 72.9249 158.775C73.3406 158.4 73.656 157.928 73.8422 157.401C74.0395 156.911 74.1679 156.425 74.3376 155.981C74.4803 155.561 74.6894 155.167 74.9568 154.813C75.1957 154.53 75.4631 154.272 75.7549 154.044C76.1437 153.7 76.6198 153.471 77.1309 153.38C77.221 153.366 77.313 153.371 77.4009 153.395C77.4887 153.42 77.5702 153.463 77.64 153.522C77.486 153.438 77.3091 153.406 77.1355 153.43C76.643 153.537 76.1884 153.774 75.8191 154.117C75.5354 154.345 75.2771 154.603 75.0485 154.886C74.7976 155.235 74.6011 155.619 74.466 156.027C74.3055 156.485 74.1816 156.943 74.0073 157.456C73.8257 158.002 73.5104 158.495 73.09 158.889C72.571 159.264 71.9545 159.48 71.315 159.512C70.6866 159.608 69.9848 159.677 69.4803 160.135C69.2497 160.389 69.0868 160.696 69.0066 161.029C68.9264 161.362 68.9316 161.71 69.0216 162.04C69.1852 162.765 69.6055 163.406 70.205 163.845C70.8327 164.314 71.5908 164.576 72.3745 164.596C72.7748 164.604 73.173 164.537 73.5487 164.399C73.9337 164.243 74.3024 164.05 74.6495 163.822C74.9767 163.597 75.3218 163.4 75.6815 163.231C76.1155 163.04 76.6037 163.011 77.0575 163.149C77.4987 163.31 77.8798 163.602 78.1491 163.987C78.4147 164.354 78.6568 164.738 78.8738 165.136C79.0906 165.513 79.368 165.852 79.6948 166.139C79.8447 166.28 80.023 166.386 80.2176 166.452C80.4123 166.517 80.6188 166.541 80.8231 166.52C81.0204 166.485 81.2065 166.403 81.3661 166.282C81.5256 166.161 81.6539 166.004 81.7405 165.823C81.9275 165.456 82.0367 165.053 82.0615 164.642C82.1074 163.822 81.9239 162.966 82.1303 162.127C82.2295 161.709 82.4534 161.331 82.7725 161.042C83.0819 160.776 83.4318 160.561 83.8091 160.405C84.1714 160.24 84.5292 160.103 84.864 159.947C85.1888 159.785 85.4774 159.559 85.7125 159.283C85.9556 159.032 86.1157 158.712 86.1712 158.367C86.1821 158.211 86.157 158.054 86.0978 157.909C86.0294 157.764 85.9291 157.635 85.8043 157.534C85.536 157.341 85.2171 157.231 84.8869 157.218C84.5613 157.181 84.231 157.181 83.9054 157.163C83.5802 157.151 83.258 157.097 82.9468 157.002C82.6383 156.902 82.3731 156.7 82.1945 156.43C81.951 155.908 81.8287 155.338 81.8368 154.763C81.816 154.263 81.6396 153.783 81.3323 153.389C81.0911 153.077 80.7737 152.833 80.4105 152.68C80.0474 152.527 79.6508 152.47 79.2591 152.514C78.7604 152.582 78.2946 152.801 77.9244 153.141C77.7987 153.269 77.6807 153.403 77.5712 153.544Z" fill="#FAFAFA"/>
<path d="M69.8513 145.814C69.5947 146.07 69.2582 146.232 68.8972 146.272C68.5127 146.348 68.1168 146.348 67.7322 146.272C67.2409 146.193 66.7954 145.937 66.4801 145.552C66.2038 145.145 66.0451 144.67 66.0214 144.178C65.9855 143.791 66.0119 143.399 66.0994 143.02C66.1528 142.667 66.3261 142.344 66.5901 142.104C66.4432 142.413 66.3353 142.739 66.2691 143.075C66.2063 143.439 66.1955 143.811 66.237 144.178C66.2728 144.621 66.4195 145.048 66.6635 145.42C66.9423 145.761 67.3347 145.99 67.7689 146.065C68.1278 146.141 68.497 146.155 68.8605 146.107C69.2006 146.046 69.5328 145.947 69.8513 145.814Z" fill="#FAFAFA"/>
<path d="M89.5977 144.645C89.5977 144.645 89.5977 144.691 89.5656 144.769C89.5227 144.887 89.4624 144.998 89.3867 145.099C89.1043 145.475 88.7012 145.744 88.2446 145.859C87.9263 145.933 87.5951 145.933 87.2768 145.859C86.917 145.758 86.5836 145.58 86.2998 145.337C86.0172 145.084 85.6908 144.883 85.3367 144.746C85.154 144.696 84.9602 144.707 84.784 144.776C84.6079 144.846 84.459 144.97 84.3597 145.131C84.1436 145.489 83.955 145.862 83.7955 146.248C83.6131 146.622 83.3325 146.938 82.9837 147.164C82.7415 147.328 82.4686 147.441 82.1814 147.497C81.8942 147.552 81.5988 147.549 81.3129 147.488C81.027 147.426 80.7565 147.307 80.5179 147.138C80.2792 146.969 80.0773 146.754 79.9244 146.505C79.8208 146.372 79.7557 146.214 79.7363 146.047C79.7363 146.047 79.8143 146.207 79.9978 146.459C80.2617 146.811 80.6216 147.08 81.0344 147.233C81.5193 147.396 82.0473 147.375 82.5177 147.174C82.988 146.973 83.3678 146.606 83.5845 146.143C83.7485 145.746 83.9417 145.362 84.1625 144.994C84.2953 144.791 84.4852 144.631 84.7083 144.536C84.9284 144.451 85.1701 144.442 85.3963 144.508C85.7804 144.655 86.1336 144.872 86.4374 145.149C86.6928 145.379 86.9948 145.551 87.3227 145.653C87.614 145.719 87.9166 145.719 88.2079 145.653C88.6368 145.561 89.0244 145.333 89.3133 145.003C89.5151 144.806 89.5793 144.636 89.5977 144.645Z" fill="#FAFAFA"/>
<path d="M92.8671 162.627C92.6843 162.539 92.5133 162.428 92.358 162.297C91.9123 161.967 91.4936 161.603 91.1059 161.207C90.8332 160.926 90.589 160.619 90.3766 160.291C90.1313 159.909 89.9746 159.477 89.9179 159.027C89.8425 158.524 89.9242 158.011 90.1518 157.557C90.277 157.316 90.454 157.107 90.6701 156.943C90.8843 156.784 91.1096 156.64 91.3444 156.512C91.5669 156.387 91.7719 156.233 91.9544 156.054C92.12 155.885 92.2413 155.677 92.3076 155.45C92.4125 154.999 92.4281 154.533 92.3534 154.076C92.2789 153.64 92.2467 153.199 92.2571 152.757C92.2564 152.351 92.4087 151.961 92.6837 151.662C93.1102 151.281 93.6574 151.062 94.2294 151.044C94.3341 151.031 94.4405 151.044 94.5394 151.08C94.6384 151.117 94.7271 151.177 94.7981 151.255C94.6243 151.165 94.4293 151.124 94.234 151.136C93.6987 151.187 93.1956 151.414 92.8029 151.781C92.567 152.056 92.4426 152.409 92.4543 152.771C92.4566 153.199 92.495 153.626 92.569 154.048C92.6595 154.539 92.647 155.043 92.5323 155.528C92.4578 155.793 92.3174 156.036 92.1241 156.233C91.9275 156.423 91.7052 156.585 91.4636 156.714C91.0042 156.919 90.6185 157.259 90.3582 157.69C90.1515 158.103 90.0732 158.569 90.1335 159.027C90.262 159.816 90.6453 160.541 91.2251 161.092C92.1929 162.1 92.8947 162.59 92.8671 162.627Z" fill="#FAFAFA"/>
<path d="M83.2771 171.713C83.3469 171.702 83.4183 171.702 83.4881 171.713C83.6935 171.713 83.8988 171.725 84.1027 171.75C84.8613 171.819 85.5995 172.034 86.2768 172.382C86.7869 172.641 87.2348 173.007 87.5895 173.455C87.9442 173.904 88.1974 174.424 88.3316 174.979C88.4901 175.652 88.3886 176.36 88.0472 176.962C87.8641 177.284 87.6164 177.564 87.3196 177.786C87.0229 178.007 86.6834 178.165 86.3226 178.249C85.9515 178.315 85.5701 178.295 85.2081 178.19C84.8984 178.087 84.5638 178.087 84.2541 178.19C83.9609 178.313 83.7048 178.51 83.511 178.762C83.3254 179.005 83.1612 179.264 83.0202 179.536C82.7694 180.104 82.352 180.583 81.8231 180.91C81.3386 181.16 80.7798 181.227 80.2499 181.098C79.814 180.991 79.4275 180.739 79.1537 180.383C78.9474 180.123 78.8031 179.819 78.7317 179.495C78.6869 179.292 78.6761 179.083 78.6996 178.877C78.704 178.804 78.7195 178.733 78.7455 178.666C78.7382 178.937 78.7644 179.207 78.8235 179.472C78.9056 179.777 79.0544 180.06 79.2592 180.301C79.5193 180.609 79.8739 180.823 80.2682 180.91C80.758 181.018 81.2702 180.948 81.713 180.713C82.1988 180.399 82.5803 179.948 82.8093 179.417C83.0806 178.78 83.5676 178.258 84.1853 177.942C84.5397 177.825 84.9224 177.825 85.2769 177.942C85.6053 178.042 85.9527 178.062 86.2905 178.002C86.6183 177.924 86.9266 177.779 87.1964 177.578C87.4662 177.376 87.6917 177.121 87.8592 176.829C88.176 176.274 88.2726 175.62 88.1298 174.997C88.0055 174.469 87.7698 173.973 87.4384 173.542C87.107 173.112 86.6876 172.757 86.208 172.501C85.5541 172.15 84.8428 171.917 84.1073 171.814C83.5706 171.75 83.2725 171.75 83.2771 171.713Z" fill="#FAFAFA"/>
<path d="M74.6853 186.864C74.5967 186.528 74.4526 186.209 74.2587 185.921C74.0325 185.625 73.7383 185.387 73.401 185.229C72.9979 185.025 72.5333 184.976 72.0965 185.093C71.6598 185.209 71.2815 185.483 71.0343 185.861C70.8232 186.159 70.6864 186.503 70.6353 186.864C70.6107 187.211 70.6448 187.559 70.7362 187.895C70.7362 187.895 70.6582 187.817 70.5848 187.643C70.4871 187.389 70.4464 187.117 70.4656 186.846C70.4931 186.441 70.6242 186.05 70.8463 185.71C71.1108 185.274 71.534 184.957 72.0273 184.825C72.5207 184.694 73.0458 184.758 73.4928 185.005C73.863 185.184 74.1794 185.457 74.4101 185.797C74.562 186.021 74.6622 186.276 74.7036 186.543C74.7128 186.736 74.6991 186.864 74.6853 186.864Z" fill="#FAFAFA"/>
<path d="M76.1394 193.505C76.1394 193.505 76.0981 193.29 75.933 192.942C75.703 192.453 75.3153 192.057 74.8322 191.815C74.4764 191.65 74.0842 191.579 73.6932 191.609C73.3021 191.638 72.9252 191.768 72.5985 191.984C72.2259 192.268 71.914 192.623 71.6811 193.029C71.5313 193.247 71.3558 193.447 71.1582 193.624C70.9338 193.814 70.6498 193.919 70.3556 193.922C70.0813 193.886 69.8174 193.794 69.5805 193.651C69.3437 193.509 69.139 193.318 68.9796 193.093C68.7094 192.707 68.3814 192.366 68.0072 192.081C67.6504 191.867 67.2283 191.791 66.8192 191.865C66.4571 191.926 66.1135 192.069 65.8148 192.282C65.3861 192.613 65.0275 193.025 64.7598 193.496C64.6671 193.676 64.5613 193.849 64.4434 194.013C64.4938 193.817 64.5726 193.629 64.6773 193.455C64.9231 192.949 65.2769 192.503 65.7139 192.149C66.0294 191.912 66.3977 191.755 66.7871 191.691C67.2455 191.598 67.7222 191.676 68.1265 191.911C68.5238 192.204 68.8721 192.558 69.1585 192.96C69.2978 193.159 69.4762 193.327 69.6828 193.454C69.8894 193.582 70.1199 193.666 70.3602 193.702C70.8509 193.702 71.2087 193.303 71.4885 192.91C71.7453 192.484 72.0835 192.114 72.4838 191.82C72.7792 191.62 73.1159 191.489 73.4689 191.437C73.8218 191.385 74.182 191.413 74.5225 191.519C74.8631 191.625 75.1754 191.807 75.4363 192.05C75.6971 192.293 75.8998 192.591 76.0293 192.923C76.0866 193.071 76.1251 193.224 76.1439 193.381C76.1669 193.45 76.1669 193.505 76.1394 193.505Z" fill="#FAFAFA"/>
<path d="M79.6757 176.889C79.2643 176.635 78.8198 176.439 78.3548 176.307C77.8507 176.184 77.328 176.156 76.8136 176.225C76.1843 176.299 75.5844 176.532 75.0707 176.902C74.5652 177.28 74.1824 177.798 73.9699 178.391C73.7963 178.878 73.7397 179.399 73.8048 179.911C73.8907 180.384 74.055 180.839 74.291 181.258C74.291 181.258 74.1763 181.166 74.0341 180.951C73.8351 180.642 73.6995 180.296 73.6351 179.934C73.5372 179.333 73.606 178.716 73.834 178.151C74.062 177.586 74.4405 177.094 74.9285 176.728C75.4676 176.338 76.1005 176.096 76.7632 176.028C77.3051 175.963 77.8546 176.009 78.3777 176.165C78.7289 176.26 79.061 176.415 79.3592 176.623C79.5886 176.788 79.6849 176.88 79.6757 176.889Z" fill="#FAFAFA"/>
</svg>
